ISO-10303-21;
HEADER;
FILE_DESCRIPTION (( 'STEP AP203' ),
    '1' );
FILE_NAME ('MeanWell_IRM-10-12.step',
    '2026-09-20T19:39:39',
    ( '' ),
    ( '' ),
    'SwSTEP 2.0',
    'SolidWorks 2025',
    '' );
FILE_SCHEMA (( 'CONFIG_CONTROL_DESIGN' ));
ENDSEC;

DATA;
#1 = CARTESIAN_POINT ( 'NONE',  ( 0.000000000000000000, -10.75000000000000000, -2.500000000000000000 ) ) ;
#2 = ADVANCED_FACE ( 'NONE', ( #568 ), #243, .F. ) ;
#3 = CYLINDRICAL_SURFACE ( 'NONE', #101, 0.5000000000000004441 ) ;
#4 = CALENDAR_DATE ( 2026, 20, 9 ) ;
#5 = DIRECTION ( 'NONE',  ( 0.000000000000000000, 0.000000000000000000, -1.000000000000000000 ) ) ;
#6 = CIRCLE ( 'NONE', #318, 0.6999999999999992895 ) ;
#7 = AXIS2_PLACEMENT_3D ( 'NONE', #137, #207, #307 ) ;
#8 = EDGE_LOOP ( 'NONE', ( #180, #521 ) ) ;
#9 = VECTOR ( 'NONE', #297, 1000.000000000000000 ) ;
#10 = EDGE_CURVE ( 'NONE', #642, #651, #507, .T. ) ;
#11 = ADVANCED_BREP_SHAPE_REPRESENTATION ( 'MeanWell_IRM-10-12', ( #220, #247 ), #554 ) ;
#12 = LINE ( 'NONE', #224, #427 ) ;
#13 = APPROVAL_ROLE ( '' ) ;
#14 = FACE_OUTER_BOUND ( 'NONE', #541, .T. ) ;
#15 = PERSON_AND_ORGANIZATION_ROLE ( 'design_supplier' ) ;
#16 = DIRECTION ( 'NONE',  ( 0.000000000000000000, -1.000000000000000000, 0.000000000000000000 ) ) ;
#17 = VECTOR ( 'NONE', #471, 1000.000000000000000 ) ;
#18 = PRODUCT_DEFINITION_FORMATION_WITH_SPECIFIED_SOURCE ( 'ANY', '', #523, .NOT_KNOWN. ) ;
#19 = CARTESIAN_POINT ( 'NONE',  ( 38.50000000000000000, -2.750000000000000000, 0.5000000000000000000 ) ) ;
#20 = ORIENTED_EDGE ( 'NONE', *, *, #45, .T. ) ;
#21 = ORIENTED_EDGE ( 'NONE', *, *, #265, .F. ) ;
#22 = DIRECTION ( 'NONE',  ( 1.000000000000000000, 0.000000000000000000, 0.000000000000000000 ) ) ;
#23 = ADVANCED_FACE ( 'NONE', ( #617 ), #298, .T. ) ;
#24 = CARTESIAN_POINT ( 'NONE',  ( -2.899999999999999911, -14.20000000000000107, 22.00000000000000000 ) ) ;
#25 = FACE_OUTER_BOUND ( 'NONE', #586, .T. ) ;
#26 = AXIS2_PLACEMENT_3D ( 'NONE', #632, #592, #684 ) ;
#27 = AXIS2_PLACEMENT_3D ( 'NONE', #289, #606, #668 ) ;
#28 = CARTESIAN_POINT ( 'NONE',  ( 42.10000000000000142, -14.20000000000000107, 0.5000000000000000000 ) ) ;
#29 = CIRCLE ( 'NONE', #659, 0.6999999999999992895 ) ;
#30 = CARTESIAN_POINT ( 'NONE',  ( 0.5000000000000000000, 0.000000000000000000, 0.5000000000000000000 ) ) ;
#31 = DIRECTION ( 'NONE',  ( 0.000000000000000000, 0.000000000000000000, 1.000000000000000000 ) ) ;
#32 = ORIENTED_EDGE ( 'NONE', *, *, #420, .T. ) ;
#33 = CARTESIAN_POINT ( 'NONE',  ( 41.39999999999999858, -14.20000000000000107, 0.5000000000000000000 ) ) ;
#34 = DIRECTION ( 'NONE',  ( 0.000000000000000000, 0.000000000000000000, -1.000000000000000000 ) ) ;
#35 = CARTESIAN_POINT ( 'NONE',  ( -2.899999999999999911, -13.50000000000000000, 22.00000000000000000 ) ) ;
#36 = EDGE_CURVE ( 'NONE', #315, #455, #37, .T. ) ;
#37 = LINE ( 'NONE', #608, #616 ) ;
#38 = AXIS2_PLACEMENT_3D ( 'NONE', #476, #365, #527 ) ;
#39 = DIRECTION ( 'NONE',  ( 0.000000000000000000, 1.000000000000000000, 0.000000000000000000 ) ) ;
#40 = LOCAL_TIME ( 23, 39, 39.00000000000000000, #645 ) ;
#41 = CC_DESIGN_APPROVAL ( #136, ( #18 ) ) ;
#42 = CARTESIAN_POINT ( 'NONE',  ( -3.600000000000000089, -13.50000000000000000, 22.00000000000000000 ) ) ;
#43 = ORIENTED_EDGE ( 'NONE', *, *, #270, .F. ) ;
#44 = CARTESIAN_POINT ( 'NONE',  ( 0.5000000000000000000, 0.000000000000000000, -2.500000000000000000 ) ) ;
#45 = EDGE_CURVE ( 'NONE', #533, #625, #123, .T. ) ;
#46 = FACE_OUTER_BOUND ( 'NONE', #181, .T. ) ;
#47 = ORIENTED_EDGE ( 'NONE', *, *, #610, .T. ) ;
#48 = LINE ( 'NONE', #643, #658 ) ;
#49 = AXIS2_PLACEMENT_3D ( 'NONE', #641, #375, #602 ) ;
#50 = EDGE_LOOP ( 'NONE', ( #258, #589, #619, #217 ) ) ;
#51 = DIRECTION ( 'NONE',  ( 0.000000000000000000, 0.000000000000000000, 1.000000000000000000 ) ) ;
#52 = PERSON_AND_ORGANIZATION ( #314, #225 ) ;
#53 = CARTESIAN_POINT ( 'NONE',  ( 0.000000000000000000, -10.75000000000000000, 0.5000000000000000000 ) ) ;
#54 = ORIENTED_EDGE ( 'NONE', *, *, #361, .T. ) ;
#55 = CARTESIAN_POINT ( 'NONE',  ( 38.50000000000000000, -10.75000000000000000, 0.5000000000000000000 ) ) ;
#56 = ORIENTED_EDGE ( 'NONE', *, *, #635, .F. ) ;
#57 = APPROVAL_DATE_TIME ( #331, #160 ) ;
#58 = DIRECTION ( 'NONE',  ( 1.000000000000000000, 0.000000000000000000, 0.000000000000000000 ) ) ;
#59 = CARTESIAN_POINT ( 'NONE',  ( 0.000000000000000000, 0.000000000000000000, 0.000000000000000000 ) ) ;
#60 = CLOSED_SHELL ( 'NONE', ( #605, #562, #416, #228, #131, #512, #231, #2, #23, #465, #174, #295, #154, #485, #556, #604, #648, #292, #176, #517, #594, #356 ) ) ;
#61 = FACE_OUTER_BOUND ( 'NONE', #421, .T. ) ;
#62 = PERSON_AND_ORGANIZATION ( #314, #225 ) ;
#63 = DIRECTION ( 'NONE',  ( 1.000000000000000000, 0.000000000000000000, 0.000000000000000000 ) ) ;
#64 = COORDINATED_UNIVERSAL_TIME_OFFSET ( 4, 0, .AHEAD. ) ;
#65 = DIRECTION ( 'NONE',  ( 0.000000000000000000, 0.000000000000000000, 1.000000000000000000 ) ) ;
#66 = ORIENTED_EDGE ( 'NONE', *, *, #511, .T. ) ;
#67 = CC_DESIGN_PERSON_AND_ORGANIZATION_ASSIGNMENT ( #320, #492, ( #410 ) ) ;
#68 = DIRECTION ( 'NONE',  ( 1.000000000000000000, 0.000000000000000000, 0.000000000000000000 ) ) ;
#69 = VECTOR ( 'NONE', #656, 1000.000000000000000 ) ;
#70 = AXIS2_PLACEMENT_3D ( 'NONE', #73, #287, #663 ) ;
#71 = EDGE_LOOP ( 'NONE', ( #156, #347, #248, #383 ) ) ;
#72 = CARTESIAN_POINT ( 'NONE',  ( 0.000000000000000000, 0.000000000000000000, 0.5000000000000000000 ) ) ;
#73 = CARTESIAN_POINT ( 'NONE',  ( 38.50000000000000000, -10.75000000000000000, -2.500000000000000000 ) ) ;
#74 = VERTEX_POINT ( 'NONE', #24 ) ;
#75 = DIRECTION ( 'NONE',  ( 0.000000000000000000, 0.000000000000000000, 1.000000000000000000 ) ) ;
#76 = AXIS2_PLACEMENT_3D ( 'NONE', #498, #661, #433 ) ;
#77 = ORIENTED_EDGE ( 'NONE', *, *, #577, .T. ) ;
#78 = CARTESIAN_POINT ( 'NONE',  ( 41.39999999999999858, -13.50000000000000000, 0.5000000000000000000 ) ) ;
#79 = EDGE_CURVE ( 'NONE', #579, #151, #232, .T. ) ;
#80 = EDGE_CURVE ( 'NONE', #537, #638, #558, .T. ) ;
#81 = CARTESIAN_POINT ( 'NONE',  ( -3.600000000000000089, -14.20000000000000107, 22.00000000000000000 ) ) ;
#82 = ORIENTED_EDGE ( 'NONE', *, *, #190, .T. ) ;
#83 = ORIENTED_EDGE ( 'NONE', *, *, #653, .F. ) ;
#84 = FACE_OUTER_BOUND ( 'NONE', #595, .T. ) ;
#85 = CC_DESIGN_PERSON_AND_ORGANIZATION_ASSIGNMENT ( #110, #102, ( #523 ) ) ;
#86 = CARTESIAN_POINT ( 'NONE',  ( -2.899999999999999911, 10.50000000000000000, 0.5000000000000000000 ) ) ;
#87 = EDGE_LOOP ( 'NONE', ( #82, #469 ) ) ;
#88 = DIRECTION ( 'NONE',  ( 0.000000000000000000, -1.000000000000000000, 0.000000000000000000 ) ) ;
#89 = EDGE_CURVE ( 'NONE', #436, #382, #188, .T. ) ;
#90 = CARTESIAN_POINT ( 'NONE',  ( -3.600000000000000089, -13.50000000000000000, 0.5000000000000000000 ) ) ;
#91 = ORIENTED_EDGE ( 'NONE', *, *, #114, .F. ) ;
#92 = CARTESIAN_POINT ( 'NONE',  ( 38.50000000000000000, -10.75000000000000000, -2.500000000000000000 ) ) ;
#93 = VERTEX_POINT ( 'NONE', #398 ) ;
#94 = ORIENTED_EDGE ( 'NONE', *, *, #270, .T. ) ;
#95 = DIRECTION ( 'NONE',  ( 0.000000000000000000, 0.000000000000000000, -1.000000000000000000 ) ) ;
#96 = ORIENTED_EDGE ( 'NONE', *, *, #636, .F. ) ;
#97 = EDGE_CURVE ( 'NONE', #537, #233, #328, .T. ) ;
#98 = FACE_OUTER_BOUND ( 'NONE', #8, .T. ) ;
#99 = LINE ( 'NONE', #317, #17 ) ;
#100 = ORIENTED_EDGE ( 'NONE', *, *, #524, .F. ) ;
#101 = AXIS2_PLACEMENT_3D ( 'NONE', #422, #473, #150 ) ;
#102 = PERSON_AND_ORGANIZATION_ROLE ( 'design_owner' ) ;
#103 = AXIS2_PLACEMENT_3D ( 'NONE', #350, #620, #68 ) ;
#104 = FACE_OUTER_BOUND ( 'NONE', #478, .T. ) ;
#105 = APPROVAL_DATE_TIME ( #108, #497 ) ;
#106 = EDGE_CURVE ( 'NONE', #436, #574, #198, .T. ) ;
#107 = LINE ( 'NONE', #278, #647 ) ;
#108 = DATE_AND_TIME ( #4, #40 ) ;
#109 = CARTESIAN_POINT ( 'NONE',  ( 41.39999999999999858, 11.19999999999999929, 22.00000000000000000 ) ) ;
#110 = PERSON_AND_ORGANIZATION ( #314, #225 ) ;
#111 = AXIS2_PLACEMENT_3D ( 'NONE', #135, #128, #563 ) ;
#112 = LINE ( 'NONE', #163, #113 ) ;
#113 = VECTOR ( 'NONE', #168, 1000.000000000000000 ) ;
#114 = EDGE_CURVE ( 'NONE', #574, #161, #697, .T. ) ;
#115 = CIRCLE ( 'NONE', #7, 0.5000000000000004441 ) ;
#116 = ORIENTED_EDGE ( 'NONE', *, *, #139, .F. ) ;
#117 = DIRECTION ( 'NONE',  ( 0.000000000000000000, 0.000000000000000000, 1.000000000000000000 ) ) ;
#118 = CYLINDRICAL_SURFACE ( 'NONE', #395, 0.5000000000000000000 ) ;
#119 = EDGE_CURVE ( 'NONE', #682, #642, #255, .T. ) ;
#120 = DIRECTION ( 'NONE',  ( 1.000000000000000000, 0.000000000000000000, 0.000000000000000000 ) ) ;
#121 = CIRCLE ( 'NONE', #618, 0.5000000000000000000 ) ;
#122 = AXIS2_PLACEMENT_3D ( 'NONE', #78, #75, #344 ) ;
#123 = LINE ( 'NONE', #460, #141 ) ;
#124 = DIRECTION ( 'NONE',  ( 0.000000000000000000, 0.000000000000000000, -1.000000000000000000 ) ) ;
#125 = EDGE_CURVE ( 'NONE', #579, #533, #530, .T. ) ;
#126 = ORIENTED_EDGE ( 'NONE', *, *, #106, .F. ) ;
#127 = FACE_OUTER_BOUND ( 'NONE', #296, .T. ) ;
#128 = DIRECTION ( 'NONE',  ( 0.000000000000000000, 0.000000000000000000, 1.000000000000000000 ) ) ;
#129 = ORIENTED_EDGE ( 'NONE', *, *, #588, .F. ) ;
#130 = CARTESIAN_POINT ( 'NONE',  ( 0.5000000000000000000, -10.75000000000000000, 0.5000000000000000000 ) ) ;
#131 = ADVANCED_FACE ( 'NONE', ( #98 ), #250, .F. ) ;
#132 = CIRCLE ( 'NONE', #330, 0.5000000000000000000 ) ;
#133 = CARTESIAN_POINT ( 'NONE',  ( 39.00000000000000000, -10.75000000000000000, -2.500000000000000000 ) ) ;
#134 = CARTESIAN_POINT ( 'NONE',  ( -0.5000000000000000000, -6.123233995736766036E-17, 0.5000000000000000000 ) ) ;
#135 = CARTESIAN_POINT ( 'NONE',  ( 38.50000000000000000, -2.750000000000000000, 0.5000000000000000000 ) ) ;
#136 = APPROVAL ( #326, 'UNSPECIFIED' ) ;
#137 = CARTESIAN_POINT ( 'NONE',  ( 38.50000000000000000, -2.750000000000000000, -2.500000000000000000 ) ) ;
#138 = DIRECTION ( 'NONE',  ( 0.000000000000000000, 0.000000000000000000, 1.000000000000000000 ) ) ;
#139 = EDGE_CURVE ( 'NONE', #191, #503, #338, .T. ) ;
#140 = ORIENTED_EDGE ( 'NONE', *, *, #337, .F. ) ;
#141 = VECTOR ( 'NONE', #401, 1000.000000000000000 ) ;
#142 = DIRECTION ( 'NONE',  ( 0.000000000000000000, 0.000000000000000000, 1.000000000000000000 ) ) ;
#143 = AXIS2_PLACEMENT_3D ( 'NONE', #239, #670, #182 ) ;
#144 = CARTESIAN_POINT ( 'NONE',  ( -3.600000000000000089, -14.20000000000000107, 22.00000000000000000 ) ) ;
#145 = CARTESIAN_POINT ( 'NONE',  ( 38.00000000000000000, -10.75000000000000000, -2.500000000000000000 ) ) ;
#146 = ORIENTED_EDGE ( 'NONE', *, *, #280, .F. ) ;
#147 = CARTESIAN_POINT ( 'NONE',  ( 38.00000000000000000, -2.750000000000000000, 0.5000000000000000000 ) ) ;
#148 = ORIENTED_EDGE ( 'NONE', *, *, #10, .F. ) ;
#149 = DIRECTION ( 'NONE',  ( -0.000000000000000000, 1.000000000000000000, 0.000000000000000000 ) ) ;
#150 = DIRECTION ( 'NONE',  ( 1.000000000000000000, 0.000000000000000000, 0.000000000000000000 ) ) ;
#151 = VERTEX_POINT ( 'NONE', #688 ) ;
#152 = DIRECTION ( 'NONE',  ( 0.000000000000000000, 0.000000000000000000, 1.000000000000000000 ) ) ;
#153 = FACE_OUTER_BOUND ( 'NONE', #689, .T. ) ;
#154 = ADVANCED_FACE ( 'NONE', ( #46 ), #262, .T. ) ;
#155 = AXIS2_PLACEMENT_3D ( 'NONE', #246, #34, #672 ) ;
#156 = ORIENTED_EDGE ( 'NONE', *, *, #183, .T. ) ;
#157 = APPROVAL_DATE_TIME ( #538, #136 ) ;
#158 = DIRECTION ( 'NONE',  ( 1.000000000000000000, 0.000000000000000000, 0.000000000000000000 ) ) ;
#159 = EDGE_LOOP ( 'NONE', ( #506, #528, #284, #440 ) ) ;
#160 = APPROVAL ( #323, 'UNSPECIFIED' ) ;
#161 = VERTEX_POINT ( 'NONE', #376 ) ;
#162 = APPROVAL_ROLE ( '' ) ;
#163 = CARTESIAN_POINT ( 'NONE',  ( -3.600000000000000089, 11.19999999999999929, 22.00000000000000000 ) ) ;
#164 = DESIGN_CONTEXT ( 'detailed design', #683, 'design' ) ;
#165 = VERTEX_POINT ( 'NONE', #42 ) ;
#166 = DIRECTION ( 'NONE',  ( 0.000000000000000000, -1.000000000000000000, 0.000000000000000000 ) ) ;
#167 = DATE_TIME_ROLE ( 'classification_date' ) ;
#168 = DIRECTION ( 'NONE',  ( 1.000000000000000000, 0.000000000000000000, 0.000000000000000000 ) ) ;
#169 = CIRCLE ( 'NONE', #464, 0.6999999999999992895 ) ;
#170 = PRODUCT_RELATED_PRODUCT_CATEGORY ( 'detail', '', ( #523 ) ) ;
#171 = CC_DESIGN_SECURITY_CLASSIFICATION ( #352, ( #18 ) ) ;
#172 = ORIENTED_EDGE ( 'NONE', *, *, #577, .F. ) ;
#173 = CARTESIAN_POINT ( 'NONE',  ( 41.39999999999999858, 11.19999999999999929, 0.5000000000000000000 ) ) ;
#174 = ADVANCED_FACE ( 'NONE', ( #575 ), #3, .T. ) ;
#175 = CARTESIAN_POINT ( 'NONE',  ( -3.600000000000000089, -14.20000000000000107, 22.00000000000000000 ) ) ;
#176 = ADVANCED_FACE ( 'NONE', ( #204 ), #409, .T. ) ;
#177 = DIRECTION ( 'NONE',  ( 0.000000000000000000, 0.000000000000000000, 1.000000000000000000 ) ) ;
#178 = DIRECTION ( 'NONE',  ( 0.000000000000000000, 0.000000000000000000, -1.000000000000000000 ) ) ;
#179 = DIRECTION ( 'NONE',  ( 0.000000000000000000, 0.000000000000000000, -1.000000000000000000 ) ) ;
#180 = ORIENTED_EDGE ( 'NONE', *, *, #662, .F. ) ;
#181 = EDGE_LOOP ( 'NONE', ( #21, #446, #392, #185 ) ) ;
#182 = DIRECTION ( 'NONE',  ( 1.000000000000000000, 0.000000000000000000, 0.000000000000000000 ) ) ;
#183 = EDGE_CURVE ( 'NONE', #305, #191, #48, .T. ) ;
#184 = DIRECTION ( 'NONE',  ( 0.000000000000000000, 1.000000000000000000, 0.000000000000000000 ) ) ;
#185 = ORIENTED_EDGE ( 'NONE', *, *, #300, .T. ) ;
#186 = DIRECTION ( 'NONE',  ( 0.000000000000000000, 0.000000000000000000, 1.000000000000000000 ) ) ;
#187 = ORIENTED_EDGE ( 'NONE', *, *, #119, .F. ) ;
#188 = LINE ( 'NONE', #449, #629 ) ;
#189 = CARTESIAN_POINT ( 'NONE',  ( 41.39999999999999858, -14.20000000000000107, 22.00000000000000000 ) ) ;
#190 = EDGE_CURVE ( 'NONE', #642, #682, #489, .T. ) ;
#191 = VERTEX_POINT ( 'NONE', #583 ) ;
#192 = EDGE_LOOP ( 'NONE', ( #664, #457, #96, #43 ) ) ;
#193 = DIRECTION ( 'NONE',  ( 1.000000000000000000, 0.000000000000000000, 0.000000000000000000 ) ) ;
#194 = CARTESIAN_POINT ( 'NONE',  ( 38.50000000000000000, -2.750000000000000000, -2.500000000000000000 ) ) ;
#195 = ORIENTED_EDGE ( 'NONE', *, *, #551, .F. ) ;
#196 = LINE ( 'NONE', #516, #9 ) ;
#197 = CARTESIAN_POINT ( 'NONE',  ( 0.000000000000000000, 0.000000000000000000, -2.500000000000000000 ) ) ;
#198 = CIRCLE ( 'NONE', #288, 0.5000000000000000000 ) ;
#199 = CARTESIAN_POINT ( 'NONE',  ( 38.50000000000000000, -10.75000000000000000, 0.5000000000000000000 ) ) ;
#200 = VECTOR ( 'NONE', #22, 1000.000000000000000 ) ;
#201 = EDGE_LOOP ( 'NONE', ( #126, #633, #504, #91 ) ) ;
#202 = FACE_OUTER_BOUND ( 'NONE', #201, .T. ) ;
#203 = CC_DESIGN_APPROVAL ( #160, ( #352 ) ) ;
#204 = FACE_OUTER_BOUND ( 'NONE', #71, .T. ) ;
#205 = APPLICATION_CONTEXT ( 'configuration controlled 3d designs of mechanical parts and assemblies' ) ;
#206 = EDGE_LOOP ( 'NONE', ( #253, #47, #363, #472 ) ) ;
#207 = DIRECTION ( 'NONE',  ( 0.000000000000000000, 0.000000000000000000, 1.000000000000000000 ) ) ;
#208 = ORIENTED_EDGE ( 'NONE', *, *, #106, .T. ) ;
#209 = CARTESIAN_POINT ( 'NONE',  ( 0.5000000000000000000, -10.75000000000000000, -2.500000000000000000 ) ) ;
#210 = ORIENTED_EDGE ( 'NONE', *, *, #636, .T. ) ;
#211 = DIRECTION ( 'NONE',  ( 1.000000000000000000, 0.000000000000000000, 0.000000000000000000 ) ) ;
#212 = DIRECTION ( 'NONE',  ( 1.000000000000000000, 0.000000000000000000, 0.000000000000000000 ) ) ;
#213 = APPROVAL_ROLE ( '' ) ;
#214 = AXIS2_PLACEMENT_3D ( 'NONE', #92, #309, #525 ) ;
#215 = CARTESIAN_POINT ( 'NONE',  ( -2.899999999999999911, -14.20000000000000107, 0.5000000000000000000 ) ) ;
#216 = EDGE_LOOP ( 'NONE', ( #172, #549 ) ) ;
#217 = ORIENTED_EDGE ( 'NONE', *, *, #662, .T. ) ;
#218 = PERSON_AND_ORGANIZATION ( #314, #225 ) ;
#219 = FACE_OUTER_BOUND ( 'NONE', #687, .T. ) ;
#220 = MANIFOLD_SOLID_BREP ( 'Open CASCADE STEP translator 7.8 2[1]', #60 ) ;
#221 = DIRECTION ( 'NONE',  ( 0.000000000000000000, 0.000000000000000000, 1.000000000000000000 ) ) ;
#222 = PERSON_AND_ORGANIZATION ( #314, #225 ) ;
#223 = AXIS2_PLACEMENT_3D ( 'NONE', #312, #359, #411 ) ;
#224 = CARTESIAN_POINT ( 'NONE',  ( 42.10000000000000142, -13.50000000000000000, 0.5000000000000000000 ) ) ;
#225 = ORGANIZATION ( 'UNSPECIFIED', 'UNSPECIFIED', '' ) ;
#226 = ORIENTED_EDGE ( 'NONE', *, *, #540, .F. ) ;
#227 = CARTESIAN_POINT ( 'NONE',  ( 0.000000000000000000, 0.000000000000000000, -2.500000000000000000 ) ) ;
#228 = ADVANCED_FACE ( 'NONE', ( #153 ), #414, .T. ) ;
#229 = ORIENTED_EDGE ( 'NONE', *, *, #80, .F. ) ;
#230 = CARTESIAN_POINT ( 'NONE',  ( -2.899999999999999911, 10.50000000000000000, 0.5000000000000000000 ) ) ;
#231 = ADVANCED_FACE ( 'NONE', ( #104 ), #481, .F. ) ;
#232 = LINE ( 'NONE', #28, #544 ) ;
#233 = VERTEX_POINT ( 'NONE', #147 ) ;
#234 = VECTOR ( 'NONE', #404, 1000.000000000000000 ) ;
#235 = CARTESIAN_POINT ( 'NONE',  ( 39.00000000000000000, -2.750000000000000000, 0.5000000000000000000 ) ) ;
#236 = AXIS2_PLACEMENT_3D ( 'NONE', #53, #324, #58 ) ;
#237 = EDGE_CURVE ( 'NONE', #286, #651, #508, .T. ) ;
#238 = ORIENTED_EDGE ( 'NONE', *, *, #434, .F. ) ;
#239 = CARTESIAN_POINT ( 'NONE',  ( 38.50000000000000000, -2.750000000000000000, -2.500000000000000000 ) ) ;
#240 = ORIENTED_EDGE ( 'NONE', *, *, #615, .T. ) ;
#241 = CYLINDRICAL_SURFACE ( 'NONE', #591, 0.5000000000000000000 ) ;
#242 = CC_DESIGN_PERSON_AND_ORGANIZATION_ASSIGNMENT ( #222, #438, ( #352 ) ) ;
#243 = PLANE ( 'NONE',  #279 ) ;
#244 = LINE ( 'NONE', #144, #692 ) ;
#245 = VECTOR ( 'NONE', #539, 1000.000000000000000 ) ;
#246 = CARTESIAN_POINT ( 'NONE',  ( 38.50000000000000000, -2.750000000000000000, -2.500000000000000000 ) ) ;
#247 = AXIS2_PLACEMENT_3D ( 'NONE', #59, #152, #211 ) ;
#248 = ORIENTED_EDGE ( 'NONE', *, *, #610, .F. ) ;
#249 =( LENGTH_UNIT ( ) NAMED_UNIT ( * ) SI_UNIT ( .MILLI., .METRE. ) );
#250 = PLANE ( 'NONE',  #316 ) ;
#251 = CARTESIAN_POINT ( 'NONE',  ( 38.00000000000000000, -10.75000000000000000, 0.5000000000000000000 ) ) ;
#252 = ORIENTED_EDGE ( 'NONE', *, *, #444, .F. ) ;
#253 = ORIENTED_EDGE ( 'NONE', *, *, #393, .F. ) ;
#254 = DIRECTION ( 'NONE',  ( 0.000000000000000000, 0.000000000000000000, 1.000000000000000000 ) ) ;
#255 = CIRCLE ( 'NONE', #657, 0.5000000000000004441 ) ;
#256 = DIRECTION ( 'NONE',  ( 0.000000000000000000, -1.000000000000000000, 0.000000000000000000 ) ) ;
#257 = AXIS2_PLACEMENT_3D ( 'NONE', #412, #529, #418 ) ;
#258 = ORIENTED_EDGE ( 'NONE', *, *, #335, .F. ) ;
#259 = DIRECTION ( 'NONE',  ( 0.000000000000000000, 0.000000000000000000, 1.000000000000000000 ) ) ;
#260 = EDGE_CURVE ( 'NONE', #622, #305, #587, .T. ) ;
#261 = ORIENTED_EDGE ( 'NONE', *, *, #345, .F. ) ;
#262 = PLANE ( 'NONE',  #38 ) ;
#263 = PERSON_AND_ORGANIZATION ( #314, #225 ) ;
#264 = DIRECTION ( 'NONE',  ( 1.000000000000000000, 0.000000000000000000, 0.000000000000000000 ) ) ;
#265 = EDGE_CURVE ( 'NONE', #306, #477, #99, .T. ) ;
#266 = DIRECTION ( 'NONE',  ( 1.000000000000000000, 0.000000000000000000, 0.000000000000000000 ) ) ;
#267 = EDGE_LOOP ( 'NONE', ( #83, #210, #667, #252, #430, #240, #261, #116 ) ) ;
#268 = SHAPE_DEFINITION_REPRESENTATION ( #627, #11 ) ;
#269 = CARTESIAN_POINT ( 'NONE',  ( -0.5000000000000000000, -10.75000000000000000, 0.5000000000000000000 ) ) ;
#270 = EDGE_CURVE ( 'NONE', #622, #165, #621, .T. ) ;
#271 = ORIENTED_EDGE ( 'NONE', *, *, #681, .F. ) ;
#272 = AXIS2_PLACEMENT_3D ( 'NONE', #674, #566, #396 ) ;
#273 = DATE_AND_TIME ( #596, #397 ) ;
#274 = AXIS2_PLACEMENT_3D ( 'NONE', #623, #371, #585 ) ;
#275 = DIRECTION ( 'NONE',  ( 0.000000000000000000, 0.000000000000000000, 1.000000000000000000 ) ) ;
#276 = CARTESIAN_POINT ( 'NONE',  ( 0.000000000000000000, 0.000000000000000000, -2.500000000000000000 ) ) ;
#277 = PERSON_AND_ORGANIZATION_ROLE ( 'creator' ) ;
#278 = CARTESIAN_POINT ( 'NONE',  ( -3.600000000000000089, 11.19999999999999929, 0.5000000000000000000 ) ) ;
#279 = AXIS2_PLACEMENT_3D ( 'NONE', #355, #31, #294 ) ;
#280 = EDGE_CURVE ( 'NONE', #513, #400, #378, .T. ) ;
#281 = DIRECTION ( 'NONE',  ( 1.000000000000000000, 0.000000000000000000, 0.000000000000000000 ) ) ;
#282 = AXIS2_PLACEMENT_3D ( 'NONE', #72, #509, #120 ) ;
#283 = AXIS2_PLACEMENT_3D ( 'NONE', #313, #640, #573 ) ;
#284 = ORIENTED_EDGE ( 'NONE', *, *, #615, .F. ) ;
#285 = FACE_OUTER_BOUND ( 'NONE', #598, .T. ) ;
#286 = VERTEX_POINT ( 'NONE', #145 ) ;
#287 = DIRECTION ( 'NONE',  ( 0.000000000000000000, 0.000000000000000000, -1.000000000000000000 ) ) ;
#288 = AXIS2_PLACEMENT_3D ( 'NONE', #291, #532, #536 ) ;
#289 = CARTESIAN_POINT ( 'NONE',  ( -3.204937810639000007E-17, 9.554720851393000478E-19, -2.500000000000000000 ) ) ;
#290 = CIRCLE ( 'NONE', #282, 0.5000000000000000000 ) ;
#291 = CARTESIAN_POINT ( 'NONE',  ( 0.000000000000000000, -10.75000000000000000, 0.5000000000000000000 ) ) ;
#292 = ADVANCED_FACE ( 'NONE', ( #680, #367, #419, #582, #310 ), #480, .F. ) ;
#293 = DIRECTION ( 'NONE',  ( 0.000000000000000000, 0.000000000000000000, -1.000000000000000000 ) ) ;
#294 = DIRECTION ( 'NONE',  ( 1.000000000000000000, 0.000000000000000000, 0.000000000000000000 ) ) ;
#295 = ADVANCED_FACE ( 'NONE', ( #219 ), #118, .T. ) ;
#296 = EDGE_LOOP ( 'NONE', ( #553, #353, #510, #466 ) ) ;
#297 = DIRECTION ( 'NONE',  ( 0.000000000000000000, 0.000000000000000000, 1.000000000000000000 ) ) ;
#298 = CYLINDRICAL_SURFACE ( 'NONE', #155, 0.5000000000000004441 ) ;
#299 = EDGE_LOOP ( 'NONE', ( #32, #308 ) ) ;
#300 = EDGE_CURVE ( 'NONE', #151, #477, #435, .T. ) ;
#301 = CIRCLE ( 'NONE', #236, 0.5000000000000000000 ) ;
#302 = APPROVAL_PERSON_ORGANIZATION ( #62, #497, #162 ) ;
#303 = DIRECTION ( 'NONE',  ( 0.000000000000000000, 0.000000000000000000, 1.000000000000000000 ) ) ;
#304 = VECTOR ( 'NONE', #95, 1000.000000000000000 ) ;
#305 = VERTEX_POINT ( 'NONE', #493 ) ;
#306 = VERTEX_POINT ( 'NONE', #425 ) ;
#307 = DIRECTION ( 'NONE',  ( 1.000000000000000000, 0.000000000000000000, 0.000000000000000000 ) ) ;
#308 = ORIENTED_EDGE ( 'NONE', *, *, #524, .T. ) ;
#309 = DIRECTION ( 'NONE',  ( 0.000000000000000000, 0.000000000000000000, 1.000000000000000000 ) ) ;
#310 = FACE_OUTER_BOUND ( 'NONE', #346, .T. ) ;
#311 = EDGE_CURVE ( 'NONE', #651, #286, #475, .T. ) ;
#312 = CARTESIAN_POINT ( 'NONE',  ( 41.39999999999999858, -13.50000000000000000, 0.5000000000000000000 ) ) ;
#313 = CARTESIAN_POINT ( 'NONE',  ( 0.000000000000000000, -10.75000000000000000, -2.500000000000000000 ) ) ;
#314 = PERSON ( 'UNSPECIFIED', 'UNSPECIFIED', 'UNSPECIFIED', ('UNSPECIFIED'), ('UNSPECIFIED'), ('UNSPECIFIED') ) ;
#315 = VERTEX_POINT ( 'NONE', #173 ) ;
#316 = AXIS2_PLACEMENT_3D ( 'NONE', #194, #51, #266 ) ;
#317 = CARTESIAN_POINT ( 'NONE',  ( 42.10000000000000142, -14.20000000000000107, 22.00000000000000000 ) ) ;
#318 = AXIS2_PLACEMENT_3D ( 'NONE', #488, #5, #650 ) ;
#319 = CC_DESIGN_APPROVAL ( #497, ( #410 ) ) ;
#320 = PERSON_AND_ORGANIZATION ( #314, #225 ) ;
#321 = DIRECTION ( 'NONE',  ( 0.000000000000000000, 0.000000000000000000, -1.000000000000000000 ) ) ;
#322 = ORIENTED_EDGE ( 'NONE', *, *, #260, .F. ) ;
#323 = APPROVAL_STATUS ( 'not_yet_approved' ) ;
#324 = DIRECTION ( 'NONE',  ( 0.000000000000000000, 0.000000000000000000, 1.000000000000000000 ) ) ;
#325 = ORIENTED_EDGE ( 'NONE', *, *, #114, .T. ) ;
#326 = APPROVAL_STATUS ( 'not_yet_approved' ) ;
#327 = DIRECTION ( 'NONE',  ( 0.000000000000000000, 0.000000000000000000, -1.000000000000000000 ) ) ;
#328 = CIRCLE ( 'NONE', #111, 0.5000000000000004441 ) ;
#329 = AXIS2_PLACEMENT_3D ( 'NONE', #637, #303, #520 ) ;
#330 = AXIS2_PLACEMENT_3D ( 'NONE', #1, #275, #264 ) ;
#331 = DATE_AND_TIME ( #652, #442 ) ;
#332 = AXIS2_PLACEMENT_3D ( 'NONE', #690, #259, #88 ) ;
#333 = DIRECTION ( 'NONE',  ( 0.000000000000000000, 1.000000000000000000, 0.000000000000000000 ) ) ;
#334 = CARTESIAN_POINT ( 'NONE',  ( -0.5000000000000000000, -10.75000000000000000, -2.500000000000000000 ) ) ;
#335 = EDGE_CURVE ( 'NONE', #233, #93, #386, .T. ) ;
#336 = DIRECTION ( 'NONE',  ( 1.000000000000000000, 0.000000000000000000, 0.000000000000000000 ) ) ;
#337 = EDGE_CURVE ( 'NONE', #151, #315, #169, .T. ) ;
#338 = CIRCLE ( 'NONE', #676, 0.6999999999999992895 ) ;
#339 = PLANE ( 'NONE',  #27 ) ;
#340 = CIRCLE ( 'NONE', #143, 0.5000000000000004441 ) ;
#341 = UNCERTAINTY_MEASURE_WITH_UNIT (LENGTH_MEASURE( 1.000000000000000082E-05 ), #249, 'distance_accuracy_value', 'NONE');
#342 = EDGE_LOOP ( 'NONE', ( #649, #380 ) ) ;
#343 = ORIENTED_EDGE ( 'NONE', *, *, #569, .T. ) ;
#344 = DIRECTION ( 'NONE',  ( 1.000000000000000000, 0.000000000000000000, 0.000000000000000000 ) ) ;
#345 = EDGE_CURVE ( 'NONE', #503, #455, #112, .T. ) ;
#346 = EDGE_LOOP ( 'NONE', ( #693, #644, #140, #426, #669, #572, #368, #423 ) ) ;
#347 = ORIENTED_EDGE ( 'NONE', *, *, #139, .T. ) ;
#348 = CARTESIAN_POINT ( 'NONE',  ( -0.5000000000000000000, -6.123233995736766036E-17, -2.500000000000000000 ) ) ;
#349 = EDGE_CURVE ( 'NONE', #622, #402, #500, .T. ) ;
#350 = CARTESIAN_POINT ( 'NONE',  ( 0.000000000000000000, -10.75000000000000000, -2.500000000000000000 ) ) ;
#351 = VECTOR ( 'NONE', #686, 1000.000000000000000 ) ;
#352 = SECURITY_CLASSIFICATION ( '', '', #496 ) ;
#353 = ORIENTED_EDGE ( 'NONE', *, *, #444, .T. ) ;
#354 = DIRECTION ( 'NONE',  ( 0.000000000000000000, 0.000000000000000000, 1.000000000000000000 ) ) ;
#355 = CARTESIAN_POINT ( 'NONE',  ( 4.273250414185999766E-17, -10.75000000000000000, -2.500000000000000000 ) ) ;
#356 = ADVANCED_FACE ( 'NONE', ( #61 ), #388, .F. ) ;
#357 = ORIENTED_EDGE ( 'NONE', *, *, #311, .T. ) ;
#358 = DIRECTION ( 'NONE',  ( 1.000000000000000000, 0.000000000000000000, 0.000000000000000000 ) ) ;
#359 = DIRECTION ( 'NONE',  ( 0.000000000000000000, 0.000000000000000000, -1.000000000000000000 ) ) ;
#360 =( NAMED_UNIT ( * ) SI_UNIT ( $, .STERADIAN. ) SOLID_ANGLE_UNIT ( ) );
#361 = EDGE_CURVE ( 'NONE', #682, #286, #484, .T. ) ;
#362 = AXIS2_PLACEMENT_3D ( 'NONE', #230, #293, #665 ) ;
#363 = ORIENTED_EDGE ( 'NONE', *, *, #345, .T. ) ;
#364 = VECTOR ( 'NONE', #186, 1000.000000000000000 ) ;
#365 = DIRECTION ( 'NONE',  ( 1.000000000000000000, 0.000000000000000000, 0.000000000000000000 ) ) ;
#366 = ORIENTED_EDGE ( 'NONE', *, *, #10, .T. ) ;
#367 = FACE_BOUND ( 'NONE', #299, .T. ) ;
#368 = ORIENTED_EDGE ( 'NONE', *, *, #349, .F. ) ;
#369 = CARTESIAN_POINT ( 'NONE',  ( -3.600000000000000089, -14.20000000000000107, 0.5000000000000000000 ) ) ;
#370 = VERTEX_POINT ( 'NONE', #550 ) ;
#371 = DIRECTION ( 'NONE',  ( -0.000000000000000000, 1.000000000000000000, 0.000000000000000000 ) ) ;
#372 = CC_DESIGN_PERSON_AND_ORGANIZATION_ASSIGNMENT ( #218, #277, ( #18 ) ) ;
#373 = DIRECTION ( 'NONE',  ( 0.000000000000000000, 1.000000000000000000, 0.000000000000000000 ) ) ;
#374 = DATE_TIME_ROLE ( 'creation_date' ) ;
#375 = DIRECTION ( 'NONE',  ( 0.000000000000000000, 0.000000000000000000, 1.000000000000000000 ) ) ;
#376 = CARTESIAN_POINT ( 'NONE',  ( 0.5000000000000000000, -10.75000000000000000, -2.500000000000000000 ) ) ;
#377 = EDGE_CURVE ( 'NONE', #579, #306, #12, .T. ) ;
#378 = CIRCLE ( 'NONE', #564, 0.5000000000000000000 ) ;
#379 = CIRCLE ( 'NONE', #257, 0.5000000000000000000 ) ;
#380 = ORIENTED_EDGE ( 'NONE', *, *, #588, .T. ) ;
#381 = DIRECTION ( 'NONE',  ( 0.000000000000000000, 0.000000000000000000, 1.000000000000000000 ) ) ;
#382 = VERTEX_POINT ( 'NONE', #334 ) ;
#383 = ORIENTED_EDGE ( 'NONE', *, *, #519, .F. ) ;
#384 = APPROVAL_STATUS ( 'not_yet_approved' ) ;
#385 = DIRECTION ( 'NONE',  ( 1.000000000000000000, 0.000000000000000000, 0.000000000000000000 ) ) ;
#386 = LINE ( 'NONE', #646, #69 ) ;
#387 = VECTOR ( 'NONE', #124, 1000.000000000000000 ) ;
#388 = PLANE ( 'NONE',  #437 ) ;
#389 = EDGE_CURVE ( 'NONE', #382, #161, #132, .T. ) ;
#390 = CARTESIAN_POINT ( 'NONE',  ( 0.000000000000000000, 0.000000000000000000, 0.5000000000000000000 ) ) ;
#391 = FACE_OUTER_BOUND ( 'NONE', #584, .T. ) ;
#392 = ORIENTED_EDGE ( 'NONE', *, *, #79, .T. ) ;
#393 = EDGE_CURVE ( 'NONE', #370, #315, #107, .T. ) ;
#394 = AXIS2_PLACEMENT_3D ( 'NONE', #86, #468, #628 ) ;
#395 = AXIS2_PLACEMENT_3D ( 'NONE', #600, #327, #385 ) ;
#396 = DIRECTION ( 'NONE',  ( 1.000000000000000000, 0.000000000000000000, 0.000000000000000000 ) ) ;
#397 = LOCAL_TIME ( 23, 39, 39.00000000000000000, #487 ) ;
#398 = CARTESIAN_POINT ( 'NONE',  ( 38.00000000000000000, -2.750000000000000000, -2.500000000000000000 ) ) ;
#399 = CYLINDRICAL_SURFACE ( 'NONE', #272, 0.6999999999999992895 ) ;
#400 = VERTEX_POINT ( 'NONE', #495 ) ;
#401 = DIRECTION ( 'NONE',  ( 0.000000000000000000, 0.000000000000000000, 1.000000000000000000 ) ) ;
#402 = VERTEX_POINT ( 'NONE', #215 ) ;
#403 = CARTESIAN_POINT ( 'NONE',  ( -0.5000000000000000000, -6.123233995736766036E-17, -2.500000000000000000 ) ) ;
#404 = DIRECTION ( 'NONE',  ( 0.000000000000000000, 0.000000000000000000, -1.000000000000000000 ) ) ;
#405 = VECTOR ( 'NONE', #321, 1000.000000000000000 ) ;
#406 = DIRECTION ( 'NONE',  ( 1.000000000000000000, 0.000000000000000000, 0.000000000000000000 ) ) ;
#407 = CIRCLE ( 'NONE', #362, 0.6999999999999992895 ) ;
#408 = DIRECTION ( 'NONE',  ( 0.000000000000000000, 0.000000000000000000, 1.000000000000000000 ) ) ;
#409 = CYLINDRICAL_SURFACE ( 'NONE', #394, 0.7000000000000000666 ) ;
#410 = PRODUCT_DEFINITION ( 'UNKNOWN', '', #18, #164 ) ;
#411 = DIRECTION ( 'NONE',  ( 0.000000000000000000, -1.000000000000000000, 0.000000000000000000 ) ) ;
#412 = CARTESIAN_POINT ( 'NONE',  ( 0.000000000000000000, 0.000000000000000000, -2.500000000000000000 ) ) ;
#413 = DIRECTION ( 'NONE',  ( 0.000000000000000000, 0.000000000000000000, 1.000000000000000000 ) ) ;
#414 = CYLINDRICAL_SURFACE ( 'NONE', #26, 0.5000000000000004441 ) ;
#415 = PLANE ( 'NONE',  #453 ) ;
#416 = ADVANCED_FACE ( 'NONE', ( #14 ), #546, .T. ) ;
#417 = DIRECTION ( 'NONE',  ( 0.000000000000000000, 0.000000000000000000, -1.000000000000000000 ) ) ;
#418 = DIRECTION ( 'NONE',  ( 1.000000000000000000, 0.000000000000000000, 0.000000000000000000 ) ) ;
#419 = FACE_BOUND ( 'NONE', #87, .T. ) ;
#420 = EDGE_CURVE ( 'NONE', #548, #462, #121, .T. ) ;
#421 = EDGE_LOOP ( 'NONE', ( #557, #322, #94, #451 ) ) ;
#422 = CARTESIAN_POINT ( 'NONE',  ( 38.50000000000000000, -10.75000000000000000, -2.500000000000000000 ) ) ;
#423 = ORIENTED_EDGE ( 'NONE', *, *, #260, .T. ) ;
#424 = MECHANICAL_CONTEXT ( 'NONE', #205, 'mechanical' ) ;
#425 = CARTESIAN_POINT ( 'NONE',  ( 42.10000000000000142, -13.50000000000000000, 22.00000000000000000 ) ) ;
#426 = ORIENTED_EDGE ( 'NONE', *, *, #79, .F. ) ;
#427 = VECTOR ( 'NONE', #65, 1000.000000000000000 ) ;
#428 = APPROVAL_PERSON_ORGANIZATION ( #494, #160, #13 ) ;
#429 = CARTESIAN_POINT ( 'NONE',  ( 38.00000000000000000, -10.75000000000000000, -2.500000000000000000 ) ) ;
#430 = ORIENTED_EDGE ( 'NONE', *, *, #265, .T. ) ;
#431 = ORIENTED_EDGE ( 'NONE', *, *, #571, .F. ) ;
#432 = COORDINATED_UNIVERSAL_TIME_OFFSET ( 4, 0, .AHEAD. ) ;
#433 = DIRECTION ( 'NONE',  ( 1.000000000000000000, 0.000000000000000000, 0.000000000000000000 ) ) ;
#434 = EDGE_CURVE ( 'NONE', #574, #436, #301, .T. ) ;
#435 = LINE ( 'NONE', #599, #607 ) ;
#436 = VERTEX_POINT ( 'NONE', #269 ) ;
#437 = AXIS2_PLACEMENT_3D ( 'NONE', #441, #158, #333 ) ;
#438 = PERSON_AND_ORGANIZATION_ROLE ( 'classification_officer' ) ;
#439 = CIRCLE ( 'NONE', #103, 0.5000000000000000000 ) ;
#440 = ORIENTED_EDGE ( 'NONE', *, *, #300, .F. ) ;
#441 = CARTESIAN_POINT ( 'NONE',  ( -3.600000000000000089, -14.20000000000000107, 0.5000000000000000000 ) ) ;
#442 = LOCAL_TIME ( 23, 39, 39.00000000000000000, #483 ) ;
#443 = LINE ( 'NONE', #505, #200 ) ;
#444 = EDGE_CURVE ( 'NONE', #306, #625, #6, .T. ) ;
#445 = ORIENTED_EDGE ( 'NONE', *, *, #434, .T. ) ;
#446 = ORIENTED_EDGE ( 'NONE', *, *, #377, .F. ) ;
#447 = FACE_OUTER_BOUND ( 'NONE', #159, .T. ) ;
#448 = VECTOR ( 'NONE', #612, 1000.000000000000000 ) ;
#449 = CARTESIAN_POINT ( 'NONE',  ( -0.5000000000000000000, -10.75000000000000000, -2.500000000000000000 ) ) ;
#450 = AXIS2_PLACEMENT_3D ( 'NONE', #603, #381, #16 ) ;
#451 = ORIENTED_EDGE ( 'NONE', *, *, #653, .T. ) ;
#452 = LINE ( 'NONE', #348, #387 ) ;
#453 = AXIS2_PLACEMENT_3D ( 'NONE', #470, #149, #634 ) ;
#454 = ORIENTED_EDGE ( 'NONE', *, *, #280, .T. ) ;
#455 = VERTEX_POINT ( 'NONE', #109 ) ;
#456 = FACE_OUTER_BOUND ( 'NONE', #192, .T. ) ;
#457 = ORIENTED_EDGE ( 'NONE', *, *, #571, .T. ) ;
#458 = ORIENTED_EDGE ( 'NONE', *, *, #237, .F. ) ;
#459 = LINE ( 'NONE', #614, #364 ) ;
#460 = CARTESIAN_POINT ( 'NONE',  ( 41.39999999999999858, -14.20000000000000107, 0.5000000000000000000 ) ) ;
#461 = ORIENTED_EDGE ( 'NONE', *, *, #551, .T. ) ;
#462 = VERTEX_POINT ( 'NONE', #134 ) ;
#463 = LINE ( 'NONE', #44, #304 ) ;
#464 = AXIS2_PLACEMENT_3D ( 'NONE', #654, #117, #166 ) ;
#465 = ADVANCED_FACE ( 'NONE', ( #391 ), #241, .T. ) ;
#466 = ORIENTED_EDGE ( 'NONE', *, *, #125, .F. ) ;
#467 = CARTESIAN_POINT ( 'NONE',  ( 39.00000000000000000, -10.75000000000000000, -2.500000000000000000 ) ) ;
#468 = DIRECTION ( 'NONE',  ( 0.000000000000000000, 0.000000000000000000, 1.000000000000000000 ) ) ;
#469 = ORIENTED_EDGE ( 'NONE', *, *, #119, .T. ) ;
#470 = CARTESIAN_POINT ( 'NONE',  ( -3.600000000000000089, 11.19999999999999929, 0.5000000000000000000 ) ) ;
#471 = DIRECTION ( 'NONE',  ( 0.000000000000000000, 1.000000000000000000, 0.000000000000000000 ) ) ;
#472 = ORIENTED_EDGE ( 'NONE', *, *, #36, .F. ) ;
#473 = DIRECTION ( 'NONE',  ( 0.000000000000000000, 0.000000000000000000, -1.000000000000000000 ) ) ;
#474 = APPLICATION_PROTOCOL_DEFINITION ( 'international standard', 'config_control_design', 1994, #205 ) ;
#475 = CIRCLE ( 'NONE', #76, 0.5000000000000004441 ) ;
#476 = CARTESIAN_POINT ( 'NONE',  ( 42.10000000000000142, -14.20000000000000107, 0.5000000000000000000 ) ) ;
#477 = VERTEX_POINT ( 'NONE', #502 ) ;
#478 = EDGE_LOOP ( 'NONE', ( #499, #458 ) ) ;
#479 = CARTESIAN_POINT ( 'NONE',  ( 39.00000000000000000, -10.75000000000000000, 0.5000000000000000000 ) ) ;
#480 = PLANE ( 'NONE',  #49 ) ;
#481 = PLANE ( 'NONE',  #329 ) ;
#482 = ORIENTED_EDGE ( 'NONE', *, *, #361, .F. ) ;
#483 = COORDINATED_UNIVERSAL_TIME_OFFSET ( 4, 0, .AHEAD. ) ;
#484 = LINE ( 'NONE', #429, #245 ) ;
#485 = ADVANCED_FACE ( 'NONE', ( #447 ), #399, .T. ) ;
#486 = CARTESIAN_POINT ( 'NONE',  ( -2.899999999999999911, 10.50000000000000000, 22.00000000000000000 ) ) ;
#487 = COORDINATED_UNIVERSAL_TIME_OFFSET ( 4, 0, .AHEAD. ) ;
#488 = CARTESIAN_POINT ( 'NONE',  ( 41.39999999999999858, -13.50000000000000000, 22.00000000000000000 ) ) ;
#489 = CIRCLE ( 'NONE', #666, 0.5000000000000004441 ) ;
#490 = CC_DESIGN_DATE_AND_TIME_ASSIGNMENT ( #542, #167, ( #352 ) ) ;
#491 = APPROVAL_PERSON_ORGANIZATION ( #52, #136, #213 ) ;
#492 = PERSON_AND_ORGANIZATION_ROLE ( 'creator' ) ;
#493 = CARTESIAN_POINT ( 'NONE',  ( -3.600000000000000089, 10.50000000000000000, 0.5000000000000000000 ) ) ;
#494 = PERSON_AND_ORGANIZATION ( #314, #225 ) ;
#495 = CARTESIAN_POINT ( 'NONE',  ( 0.5000000000000000000, 0.000000000000000000, -2.500000000000000000 ) ) ;
#496 = SECURITY_CLASSIFICATION_LEVEL ( 'unclassified' ) ;
#497 = APPROVAL ( #384, 'UNSPECIFIED' ) ;
#498 = CARTESIAN_POINT ( 'NONE',  ( 38.50000000000000000, -10.75000000000000000, -2.500000000000000000 ) ) ;
#499 = ORIENTED_EDGE ( 'NONE', *, *, #311, .F. ) ;
#500 = CIRCLE ( 'NONE', #450, 0.6999999999999992895 ) ;
#501 = CARTESIAN_POINT ( 'NONE',  ( 42.10000000000000142, -13.50000000000000000, 0.5000000000000000000 ) ) ;
#502 = CARTESIAN_POINT ( 'NONE',  ( 42.10000000000000142, 10.50000000000000000, 22.00000000000000000 ) ) ;
#503 = VERTEX_POINT ( 'NONE', #613 ) ;
#504 = ORIENTED_EDGE ( 'NONE', *, *, #389, .T. ) ;
#505 = CARTESIAN_POINT ( 'NONE',  ( -3.600000000000000089, -14.20000000000000107, 0.5000000000000000000 ) ) ;
#506 = ORIENTED_EDGE ( 'NONE', *, *, #337, .T. ) ;
#507 = LINE ( 'NONE', #133, #448 ) ;
#508 = CIRCLE ( 'NONE', #214, 0.5000000000000004441 ) ;
#509 = DIRECTION ( 'NONE',  ( 0.000000000000000000, 0.000000000000000000, 1.000000000000000000 ) ) ;
#510 = ORIENTED_EDGE ( 'NONE', *, *, #45, .F. ) ;
#511 = EDGE_CURVE ( 'NONE', #402, #533, #443, .T. ) ;
#512 = ADVANCED_FACE ( 'NONE', ( #25 ), #339, .F. ) ;
#513 = VERTEX_POINT ( 'NONE', #403 ) ;
#514 = CARTESIAN_POINT ( 'NONE',  ( -2.899999999999999911, -13.50000000000000000, 0.5000000000000000000 ) ) ;
#515 = EDGE_LOOP ( 'NONE', ( #482, #565, #366, #357 ) ) ;
#516 = CARTESIAN_POINT ( 'NONE',  ( -2.899999999999999911, 11.19999999999999929, 0.5000000000000000000 ) ) ;
#517 = ADVANCED_FACE ( 'NONE', ( #456 ), #555, .T. ) ;
#518 = ORIENTED_EDGE ( 'NONE', *, *, #635, .T. ) ;
#519 = EDGE_CURVE ( 'NONE', #305, #370, #407, .T. ) ;
#520 = DIRECTION ( 'NONE',  ( 1.000000000000000000, 0.000000000000000000, 0.000000000000000000 ) ) ;
#521 = ORIENTED_EDGE ( 'NONE', *, *, #569, .F. ) ;
#522 = PLANE ( 'NONE',  #274 ) ;
#523 = PRODUCT ( 'MeanWell_IRM-10-12', 'MeanWell_IRM-10-12', '', ( #424 ) ) ;
#524 = EDGE_CURVE ( 'NONE', #462, #548, #290, .T. ) ;
#525 = DIRECTION ( 'NONE',  ( 1.000000000000000000, 0.000000000000000000, 0.000000000000000000 ) ) ;
#526 = ORIENTED_EDGE ( 'NONE', *, *, #681, .T. ) ;
#527 = DIRECTION ( 'NONE',  ( 0.000000000000000000, 1.000000000000000000, 0.000000000000000000 ) ) ;
#528 = ORIENTED_EDGE ( 'NONE', *, *, #36, .T. ) ;
#529 = DIRECTION ( 'NONE',  ( 0.000000000000000000, 0.000000000000000000, 1.000000000000000000 ) ) ;
#530 = CIRCLE ( 'NONE', #223, 0.6999999999999992895 ) ;
#531 = DIRECTION ( 'NONE',  ( 1.000000000000000000, 0.000000000000000000, 0.000000000000000000 ) ) ;
#532 = DIRECTION ( 'NONE',  ( 0.000000000000000000, 0.000000000000000000, 1.000000000000000000 ) ) ;
#533 = VERTEX_POINT ( 'NONE', #33 ) ;
#534 = APPLICATION_PROTOCOL_DEFINITION ( 'international standard', 'config_control_design', 1994, #683 ) ;
#535 = ORIENTED_EDGE ( 'NONE', *, *, #420, .F. ) ;
#536 = DIRECTION ( 'NONE',  ( 1.000000000000000000, 0.000000000000000000, 0.000000000000000000 ) ) ;
#537 = VERTEX_POINT ( 'NONE', #235 ) ;
#538 = DATE_AND_TIME ( #590, #593 ) ;
#539 = DIRECTION ( 'NONE',  ( 0.000000000000000000, 0.000000000000000000, -1.000000000000000000 ) ) ;
#540 = EDGE_CURVE ( 'NONE', #74, #625, #611, .T. ) ;
#541 = EDGE_LOOP ( 'NONE', ( #100, #461, #454, #271 ) ) ;
#542 = DATE_AND_TIME ( #655, #660 ) ;
#543 = DIRECTION ( 'NONE',  ( 0.000000000000000000, 0.000000000000000000, 1.000000000000000000 ) ) ;
#544 = VECTOR ( 'NONE', #184, 1000.000000000000000 ) ;
#545 = AXIS2_PLACEMENT_3D ( 'NONE', #19, #408, #193 ) ;
#546 = CYLINDRICAL_SURFACE ( 'NONE', #631, 0.5000000000000000000 ) ;
#547 = CC_DESIGN_DATE_AND_TIME_ASSIGNMENT ( #273, #374, ( #410 ) ) ;
#548 = VERTEX_POINT ( 'NONE', #30 ) ;
#549 = ORIENTED_EDGE ( 'NONE', *, *, #389, .F. ) ;
#550 = CARTESIAN_POINT ( 'NONE',  ( -2.899999999999999911, 11.19999999999999929, 0.5000000000000000000 ) ) ;
#551 = EDGE_CURVE ( 'NONE', #462, #513, #452, .T. ) ;
#552 = DIRECTION ( 'NONE',  ( -1.000000000000000000, 0.000000000000000000, 0.000000000000000000 ) ) ;
#553 = ORIENTED_EDGE ( 'NONE', *, *, #377, .T. ) ;
#554 =( GEOMETRIC_REPRESENTATION_CONTEXT ( 3 ) GLOBAL_UNCERTAINTY_ASSIGNED_CONTEXT ( ( #341 ) ) GLOBAL_UNIT_ASSIGNED_CONTEXT ( ( #249, #626, #360 ) ) REPRESENTATION_CONTEXT ( 'NONE', 'WORKASPACE' ) );
#555 = CYLINDRICAL_SURFACE ( 'NONE', #601, 0.7000000000000000666 ) ;
#556 = ADVANCED_FACE ( 'NONE', ( #127 ), #561, .T. ) ;
#557 = ORIENTED_EDGE ( 'NONE', *, *, #183, .F. ) ;
#558 = LINE ( 'NONE', #675, #234 ) ;
#559 = CYLINDRICAL_SURFACE ( 'NONE', #70, 0.5000000000000004441 ) ;
#560 = DIRECTION ( 'NONE',  ( 0.000000000000000000, 0.000000000000000000, 1.000000000000000000 ) ) ;
#561 = CYLINDRICAL_SURFACE ( 'NONE', #122, 0.6999999999999992895 ) ;
#562 = ADVANCED_FACE ( 'NONE', ( #285 ), #559, .T. ) ;
#563 = DIRECTION ( 'NONE',  ( 1.000000000000000000, 0.000000000000000000, 0.000000000000000000 ) ) ;
#564 = AXIS2_PLACEMENT_3D ( 'NONE', #197, #413, #531 ) ;
#565 = ORIENTED_EDGE ( 'NONE', *, *, #190, .F. ) ;
#566 = DIRECTION ( 'NONE',  ( 0.000000000000000000, 0.000000000000000000, 1.000000000000000000 ) ) ;
#567 = CIRCLE ( 'NONE', #545, 0.5000000000000004441 ) ;
#568 = FACE_OUTER_BOUND ( 'NONE', #216, .T. ) ;
#569 = EDGE_CURVE ( 'NONE', #93, #638, #340, .T. ) ;
#570 = FACE_OUTER_BOUND ( 'NONE', #206, .T. ) ;
#571 = EDGE_CURVE ( 'NONE', #402, #74, #459, .T. ) ;
#572 = ORIENTED_EDGE ( 'NONE', *, *, #511, .F. ) ;
#573 = DIRECTION ( 'NONE',  ( 1.000000000000000000, 0.000000000000000000, 0.000000000000000000 ) ) ;
#574 = VERTEX_POINT ( 'NONE', #130 ) ;
#575 = FACE_OUTER_BOUND ( 'NONE', #515, .T. ) ;
#576 = CYLINDRICAL_SURFACE ( 'NONE', #283, 0.5000000000000000000 ) ;
#577 = EDGE_CURVE ( 'NONE', #161, #382, #439, .T. ) ;
#578 = AXIS2_PLACEMENT_3D ( 'NONE', #81, #254, #358 ) ;
#579 = VERTEX_POINT ( 'NONE', #501 ) ;
#580 = DIRECTION ( 'NONE',  ( 0.000000000000000000, 0.000000000000000000, 1.000000000000000000 ) ) ;
#581 = CARTESIAN_POINT ( 'NONE',  ( -3.600000000000000089, -13.50000000000000000, 0.5000000000000000000 ) ) ;
#582 = FACE_BOUND ( 'NONE', #673, .T. ) ;
#583 = CARTESIAN_POINT ( 'NONE',  ( -3.600000000000000089, 10.50000000000000000, 22.00000000000000000 ) ) ;
#584 = EDGE_LOOP ( 'NONE', ( #195, #535, #526, #518 ) ) ;
#585 = DIRECTION ( 'NONE',  ( 1.000000000000000000, 0.000000000000000000, 0.000000000000000000 ) ) ;
#586 = EDGE_LOOP ( 'NONE', ( #56, #146 ) ) ;
#587 = LINE ( 'NONE', #369, #609 ) ;
#588 = EDGE_CURVE ( 'NONE', #233, #537, #567, .T. ) ;
#589 = ORIENTED_EDGE ( 'NONE', *, *, #97, .F. ) ;
#590 = CALENDAR_DATE ( 2026, 20, 9 ) ;
#591 = AXIS2_PLACEMENT_3D ( 'NONE', #227, #179, #281 ) ;
#592 = DIRECTION ( 'NONE',  ( 0.000000000000000000, 0.000000000000000000, -1.000000000000000000 ) ) ;
#593 = LOCAL_TIME ( 23, 39, 39.00000000000000000, #64 ) ;
#594 = ADVANCED_FACE ( 'NONE', ( #678 ), #685, .T. ) ;
#595 = EDGE_LOOP ( 'NONE', ( #20, #226, #431, #66 ) ) ;
#596 = CALENDAR_DATE ( 2026, 20, 9 ) ;
#597 = DIRECTION ( 'NONE',  ( 0.000000000000000000, 0.000000000000000000, -1.000000000000000000 ) ) ;
#598 = EDGE_LOOP ( 'NONE', ( #187, #54, #677, #148 ) ) ;
#599 = CARTESIAN_POINT ( 'NONE',  ( 42.10000000000000142, 10.50000000000000000, 0.5000000000000000000 ) ) ;
#600 = CARTESIAN_POINT ( 'NONE',  ( 0.000000000000000000, -10.75000000000000000, -2.500000000000000000 ) ) ;
#601 = AXIS2_PLACEMENT_3D ( 'NONE', #514, #177, #552 ) ;
#602 = DIRECTION ( 'NONE',  ( 1.000000000000000000, 0.000000000000000000, 0.000000000000000000 ) ) ;
#603 = CARTESIAN_POINT ( 'NONE',  ( -2.899999999999999911, -13.50000000000000000, 0.5000000000000000000 ) ) ;
#604 = ADVANCED_FACE ( 'NONE', ( #570 ), #415, .T. ) ;
#605 = ADVANCED_FACE ( 'NONE', ( #202 ), #576, .T. ) ;
#606 = DIRECTION ( 'NONE',  ( 0.000000000000000000, 0.000000000000000000, 1.000000000000000000 ) ) ;
#607 = VECTOR ( 'NONE', #543, 1000.000000000000000 ) ;
#608 = CARTESIAN_POINT ( 'NONE',  ( 41.39999999999999858, 11.19999999999999929, 0.5000000000000000000 ) ) ;
#609 = VECTOR ( 'NONE', #373, 1000.000000000000000 ) ;
#610 = EDGE_CURVE ( 'NONE', #370, #503, #196, .T. ) ;
#611 = LINE ( 'NONE', #175, #691 ) ;
#612 = DIRECTION ( 'NONE',  ( 0.000000000000000000, 0.000000000000000000, -1.000000000000000000 ) ) ;
#613 = CARTESIAN_POINT ( 'NONE',  ( -2.899999999999999911, 11.19999999999999929, 22.00000000000000000 ) ) ;
#614 = CARTESIAN_POINT ( 'NONE',  ( -2.899999999999999911, -14.20000000000000107, 0.5000000000000000000 ) ) ;
#615 = EDGE_CURVE ( 'NONE', #477, #455, #679, .T. ) ;
#616 = VECTOR ( 'NONE', #560, 1000.000000000000000 ) ;
#617 = FACE_OUTER_BOUND ( 'NONE', #50, .T. ) ;
#618 = AXIS2_PLACEMENT_3D ( 'NONE', #390, #221, #336 ) ;
#619 = ORIENTED_EDGE ( 'NONE', *, *, #80, .T. ) ;
#620 = DIRECTION ( 'NONE',  ( 0.000000000000000000, 0.000000000000000000, 1.000000000000000000 ) ) ;
#621 = LINE ( 'NONE', #90, #351 ) ;
#622 = VERTEX_POINT ( 'NONE', #581 ) ;
#623 = CARTESIAN_POINT ( 'NONE',  ( -3.600000000000000089, -14.20000000000000107, 0.5000000000000000000 ) ) ;
#624 = DIRECTION ( 'NONE',  ( 1.000000000000000000, 0.000000000000000000, 0.000000000000000000 ) ) ;
#625 = VERTEX_POINT ( 'NONE', #189 ) ;
#626 =( NAMED_UNIT ( * ) PLANE_ANGLE_UNIT ( ) SI_UNIT ( $, .RADIAN. ) );
#627 = PRODUCT_DEFINITION_SHAPE ( 'NONE', 'NONE',  #410 ) ;
#628 = DIRECTION ( 'NONE',  ( -1.000000000000000000, 0.000000000000000000, 0.000000000000000000 ) ) ;
#629 = VECTOR ( 'NONE', #178, 1000.000000000000000 ) ;
#630 = CARTESIAN_POINT ( 'NONE',  ( 39.00000000000000000, -2.750000000000000000, -2.500000000000000000 ) ) ;
#631 = AXIS2_PLACEMENT_3D ( 'NONE', #276, #597, #63 ) ;
#632 = CARTESIAN_POINT ( 'NONE',  ( 38.50000000000000000, -2.750000000000000000, -2.500000000000000000 ) ) ;
#633 = ORIENTED_EDGE ( 'NONE', *, *, #89, .T. ) ;
#634 = DIRECTION ( 'NONE',  ( 1.000000000000000000, 0.000000000000000000, 0.000000000000000000 ) ) ;
#635 = EDGE_CURVE ( 'NONE', #400, #513, #379, .T. ) ;
#636 = EDGE_CURVE ( 'NONE', #165, #74, #29, .T. ) ;
#637 = CARTESIAN_POINT ( 'NONE',  ( 38.50000000000000000, -10.75000000000000000, -2.500000000000000000 ) ) ;
#638 = VERTEX_POINT ( 'NONE', #630 ) ;
#639 = ORIENTED_EDGE ( 'NONE', *, *, #335, .T. ) ;
#640 = DIRECTION ( 'NONE',  ( 0.000000000000000000, 0.000000000000000000, -1.000000000000000000 ) ) ;
#641 = CARTESIAN_POINT ( 'NONE',  ( -3.600000000000000089, -14.20000000000000107, 0.5000000000000000000 ) ) ;
#642 = VERTEX_POINT ( 'NONE', #479 ) ;
#643 = CARTESIAN_POINT ( 'NONE',  ( -3.600000000000000089, 10.50000000000000000, 0.5000000000000000000 ) ) ;
#644 = ORIENTED_EDGE ( 'NONE', *, *, #393, .T. ) ;
#645 = COORDINATED_UNIVERSAL_TIME_OFFSET ( 4, 0, .AHEAD. ) ;
#646 = CARTESIAN_POINT ( 'NONE',  ( 38.00000000000000000, -2.750000000000000000, -2.500000000000000000 ) ) ;
#647 = VECTOR ( 'NONE', #212, 1000.000000000000000 ) ;
#648 = ADVANCED_FACE ( 'NONE', ( #84 ), #522, .F. ) ;
#649 = ORIENTED_EDGE ( 'NONE', *, *, #97, .T. ) ;
#650 = DIRECTION ( 'NONE',  ( 0.000000000000000000, -1.000000000000000000, 0.000000000000000000 ) ) ;
#651 = VERTEX_POINT ( 'NONE', #467 ) ;
#652 = CALENDAR_DATE ( 2026, 20, 9 ) ;
#653 = EDGE_CURVE ( 'NONE', #165, #191, #244, .T. ) ;
#654 = CARTESIAN_POINT ( 'NONE',  ( 41.39999999999999858, 10.50000000000000000, 0.5000000000000000000 ) ) ;
#655 = CALENDAR_DATE ( 2026, 20, 9 ) ;
#656 = DIRECTION ( 'NONE',  ( 0.000000000000000000, 0.000000000000000000, -1.000000000000000000 ) ) ;
#657 = AXIS2_PLACEMENT_3D ( 'NONE', #55, #138, #694 ) ;
#658 = VECTOR ( 'NONE', #142, 1000.000000000000000 ) ;
#659 = AXIS2_PLACEMENT_3D ( 'NONE', #35, #354, #696 ) ;
#660 = LOCAL_TIME ( 23, 39, 39.00000000000000000, #432 ) ;
#661 = DIRECTION ( 'NONE',  ( 0.000000000000000000, 0.000000000000000000, 1.000000000000000000 ) ) ;
#662 = EDGE_CURVE ( 'NONE', #638, #93, #115, .T. ) ;
#663 = DIRECTION ( 'NONE',  ( 1.000000000000000000, 0.000000000000000000, 0.000000000000000000 ) ) ;
#664 = ORIENTED_EDGE ( 'NONE', *, *, #349, .T. ) ;
#665 = DIRECTION ( 'NONE',  ( 0.000000000000000000, -1.000000000000000000, 0.000000000000000000 ) ) ;
#666 = AXIS2_PLACEMENT_3D ( 'NONE', #199, #580, #624 ) ;
#667 = ORIENTED_EDGE ( 'NONE', *, *, #540, .T. ) ;
#668 = DIRECTION ( 'NONE',  ( 1.000000000000000000, 0.000000000000000000, 0.000000000000000000 ) ) ;
#669 = ORIENTED_EDGE ( 'NONE', *, *, #125, .T. ) ;
#670 = DIRECTION ( 'NONE',  ( 0.000000000000000000, 0.000000000000000000, 1.000000000000000000 ) ) ;
#671 = CC_DESIGN_PERSON_AND_ORGANIZATION_ASSIGNMENT ( #263, #15, ( #18 ) ) ;
#672 = DIRECTION ( 'NONE',  ( 1.000000000000000000, 0.000000000000000000, 0.000000000000000000 ) ) ;
#673 = EDGE_LOOP ( 'NONE', ( #445, #208 ) ) ;
#674 = CARTESIAN_POINT ( 'NONE',  ( 41.39999999999999858, 10.50000000000000000, 0.5000000000000000000 ) ) ;
#675 = CARTESIAN_POINT ( 'NONE',  ( 39.00000000000000000, -2.750000000000000000, -2.500000000000000000 ) ) ;
#676 = AXIS2_PLACEMENT_3D ( 'NONE', #486, #417, #256 ) ;
#677 = ORIENTED_EDGE ( 'NONE', *, *, #237, .T. ) ;
#678 = FACE_OUTER_BOUND ( 'NONE', #267, .T. ) ;
#679 = CIRCLE ( 'NONE', #332, 0.6999999999999992895 ) ;
#680 = FACE_BOUND ( 'NONE', #342, .T. ) ;
#681 = EDGE_CURVE ( 'NONE', #548, #400, #463, .T. ) ;
#682 = VERTEX_POINT ( 'NONE', #251 ) ;
#683 = APPLICATION_CONTEXT ( 'configuration controlled 3d designs of mechanical parts and assemblies' ) ;
#684 = DIRECTION ( 'NONE',  ( 1.000000000000000000, 0.000000000000000000, 0.000000000000000000 ) ) ;
#685 = PLANE ( 'NONE',  #578 ) ;
#686 = DIRECTION ( 'NONE',  ( 0.000000000000000000, 0.000000000000000000, 1.000000000000000000 ) ) ;
#687 = EDGE_LOOP ( 'NONE', ( #695, #238, #325, #77 ) ) ;
#688 = CARTESIAN_POINT ( 'NONE',  ( 42.10000000000000142, 10.50000000000000000, 0.5000000000000000000 ) ) ;
#689 = EDGE_LOOP ( 'NONE', ( #129, #639, #343, #229 ) ) ;
#690 = CARTESIAN_POINT ( 'NONE',  ( 41.39999999999999858, 10.50000000000000000, 22.00000000000000000 ) ) ;
#691 = VECTOR ( 'NONE', #406, 1000.000000000000000 ) ;
#692 = VECTOR ( 'NONE', #39, 1000.000000000000000 ) ;
#693 = ORIENTED_EDGE ( 'NONE', *, *, #519, .T. ) ;
#694 = DIRECTION ( 'NONE',  ( 1.000000000000000000, 0.000000000000000000, 0.000000000000000000 ) ) ;
#695 = ORIENTED_EDGE ( 'NONE', *, *, #89, .F. ) ;
#696 = DIRECTION ( 'NONE',  ( 0.000000000000000000, -1.000000000000000000, 0.000000000000000000 ) ) ;
#697 = LINE ( 'NONE', #209, #405 ) ;
ENDSEC;
END-ISO-10303-21;
