#VRML V2.0 utf8

Shape {
  appearance Appearance { material Material { diffuseColor 0.055 0.060 0.065 specularColor 0.08 0.08 0.08 shininess 0.12 } }
  geometry IndexedFaceSet {
    solid FALSE
    creaseAngle 0.45
    coord Coordinate { point [
          2.460630 -0.000000 5.807087,
          2.448781 -0.000000 6.048271,
          2.413350 -0.000000 6.287132,
          2.354676 -0.000000 6.521370,
          2.273326 -0.000000 6.748729,
          2.170082 -0.000000 6.967020,
          2.045939 -0.000000 7.174139,
          1.902093 -0.000000 7.368094,
          1.739928 -0.000000 7.547015,
          1.561007 -0.000000 7.709179,
          1.367053 -0.000000 7.853026,
          1.159933 -0.000000 7.977168,
          0.941642 -0.000000 8.080412,
          0.714283 -0.000000 8.161763,
          0.480045 -0.000000 8.220436,
          0.241184 -0.000000 8.255868,
          0.000000 -0.000000 8.267717,
          -0.241184 -0.000000 8.255868,
          -0.480045 -0.000000 8.220436,
          -0.714283 -0.000000 8.161763,
          -0.941642 -0.000000 8.080412,
          -1.159933 -0.000000 7.977168,
          -1.367053 -0.000000 7.853026,
          -1.561007 -0.000000 7.709179,
          -1.739928 -0.000000 7.547015,
          -1.902093 -0.000000 7.368094,
          -2.045939 -0.000000 7.174139,
          -2.170082 -0.000000 6.967020,
          -2.273326 -0.000000 6.748729,
          -2.354676 -0.000000 6.521370,
          -2.413350 -0.000000 6.287132,
          -2.448781 -0.000000 6.048271,
          -2.460630 -0.000000 5.807087,
          -2.448781 -0.000000 5.565903,
          -2.413350 -0.000000 5.327042,
          -2.354676 -0.000000 5.092803,
          -2.273326 -0.000000 4.865444,
          -2.170082 -0.000000 4.647154,
          -2.045939 -0.000000 4.440034,
          -1.902093 -0.000000 4.246080,
          -1.739928 -0.000000 4.067159,
          -1.561007 -0.000000 3.904994,
          -1.367053 -0.000000 3.761148,
          -1.159933 -0.000000 3.637005,
          -0.941642 -0.000000 3.533761,
          -0.714283 -0.000000 3.452411,
          -0.480045 -0.000000 3.393737,
          -0.241184 -0.000000 3.358305,
          -0.000000 -0.000000 3.346457,
          0.241184 -0.000000 3.358305,
          0.480045 -0.000000 3.393737,
          0.714283 -0.000000 3.452411,
          0.941642 -0.000000 3.533761,
          1.159933 -0.000000 3.637005,
          1.367053 -0.000000 3.761148,
          1.561007 -0.000000 3.904994,
          1.739928 -0.000000 4.067159,
          1.902093 -0.000000 4.246080,
          2.045939 -0.000000 4.440034,
          2.170082 -0.000000 4.647154,
          2.273326 -0.000000 4.865444,
          2.354676 -0.000000 5.092803,
          2.413350 -0.000000 5.327042,
          2.448781 -0.000000 5.565903,
          5.668984 -0.000000 5.807087,
          5.635928 -0.000000 6.362177,
          5.548768 -0.000000 6.910805,
          5.408499 -0.000000 7.447737,
          5.216621 -0.000000 7.967882,
          4.975106 -0.000000 8.466336,
          4.686387 -0.000000 8.938430,
          4.353319 -0.000000 9.379763,
          3.979158 -0.000000 9.786245,
          3.567522 -0.000000 10.154124,
          3.122357 -0.000000 10.480024,
          2.647902 -0.000000 10.760963,
          2.148647 -0.000000 10.994381,
          1.629296 -0.000000 11.178157,
          1.094722 -0.000000 11.310625,
          0.549927 -0.000000 11.390588,
          0.000000 -0.000000 11.417323,
          -0.549927 -0.000000 11.390588,
          -1.094722 -0.000000 11.310625,
          -1.629296 -0.000000 11.178157,
          -2.148647 -0.000000 10.994381,
          -2.647902 -0.000000 10.760963,
          -3.122357 -0.000000 10.480024,
          -3.567522 -0.000000 10.154124,
          -3.979158 -0.000000 9.786245,
          -4.353319 -0.000000 9.379763,
          -4.686387 -0.000000 8.938430,
          -4.975106 -0.000000 8.466336,
          -5.216621 -0.000000 7.967882,
          -5.408499 -0.000000 7.447737,
          -5.548768 -0.000000 6.910805,
          -5.635928 -0.000000 6.362177,
          -5.668984 -0.000000 5.807087,
          -5.669291 -0.000000 5.248710,
          -5.669291 -0.000000 4.679394,
          -5.669291 -0.000000 4.087326,
          -5.669291 -0.000000 3.458789,
          -5.669291 -0.000000 2.776787,
          -5.669291 -0.000000 2.018987,
          -5.669291 -0.000000 1.154419,
          -5.669291 -0.000000 0.137795,
          -4.765753 -0.000000 0.000000,
          -3.880171 -0.000000 0.000000,
          -3.103952 -0.000000 0.000000,
          -2.405374 -0.000000 0.000000,
          -1.761560 -0.000000 0.000000,
          -1.155101 -0.000000 0.000000,
          -0.571948 -0.000000 0.000000,
          -0.000000 -0.000000 0.000000,
          0.571948 -0.000000 0.000000,
          1.155101 -0.000000 0.000000,
          1.761560 -0.000000 0.000000,
          2.405374 -0.000000 0.000000,
          3.103952 -0.000000 0.000000,
          3.880171 -0.000000 0.000000,
          4.765753 -0.000000 0.000000,
          5.669291 -0.000000 0.137795,
          5.669291 -0.000000 1.154419,
          5.669291 -0.000000 2.018987,
          5.669291 -0.000000 2.776787,
          5.669291 -0.000000 3.458789,
          5.669291 -0.000000 4.087326,
          5.669291 -0.000000 4.679394,
          5.669291 -0.000000 5.248710,
          2.460630 -6.062992 5.807087,
          2.448781 -6.062992 6.048271,
          2.413350 -6.062992 6.287132,
          2.354676 -6.062992 6.521370,
          2.273326 -6.062992 6.748729,
          2.170082 -6.062992 6.967020,
          2.045939 -6.062992 7.174139,
          1.902093 -6.062992 7.368094,
          1.739928 -6.062992 7.547015,
          1.561007 -6.062992 7.709179,
          1.367053 -6.062992 7.853026,
          1.159933 -6.062992 7.977168,
          0.941642 -6.062992 8.080412,
          0.714283 -6.062992 8.161763,
          0.480045 -6.062992 8.220436,
          0.241184 -6.062992 8.255868,
          0.000000 -6.062992 8.267717,
          -0.241184 -6.062992 8.255868,
          -0.480045 -6.062992 8.220436,
          -0.714283 -6.062992 8.161763,
          -0.941642 -6.062992 8.080412,
          -1.159933 -6.062992 7.977168,
          -1.367053 -6.062992 7.853026,
          -1.561007 -6.062992 7.709179,
          -1.739928 -6.062992 7.547015,
          -1.902093 -6.062992 7.368094,
          -2.045939 -6.062992 7.174139,
          -2.170082 -6.062992 6.967020,
          -2.273326 -6.062992 6.748729,
          -2.354676 -6.062992 6.521370,
          -2.413350 -6.062992 6.287132,
          -2.448781 -6.062992 6.048271,
          -2.460630 -6.062992 5.807087,
          -2.448781 -6.062992 5.565903,
          -2.413350 -6.062992 5.327042,
          -2.354676 -6.062992 5.092803,
          -2.273326 -6.062992 4.865444,
          -2.170082 -6.062992 4.647154,
          -2.045939 -6.062992 4.440034,
          -1.902093 -6.062992 4.246080,
          -1.739928 -6.062992 4.067159,
          -1.561007 -6.062992 3.904994,
          -1.367053 -6.062992 3.761148,
          -1.159933 -6.062992 3.637005,
          -0.941642 -6.062992 3.533761,
          -0.714283 -6.062992 3.452411,
          -0.480045 -6.062992 3.393737,
          -0.241184 -6.062992 3.358305,
          -0.000000 -6.062992 3.346457,
          0.241184 -6.062992 3.358305,
          0.480045 -6.062992 3.393737,
          0.714283 -6.062992 3.452411,
          0.941642 -6.062992 3.533761,
          1.159933 -6.062992 3.637005,
          1.367053 -6.062992 3.761148,
          1.561007 -6.062992 3.904994,
          1.739928 -6.062992 4.067159,
          1.902093 -6.062992 4.246080,
          2.045939 -6.062992 4.440034,
          2.170082 -6.062992 4.647154,
          2.273326 -6.062992 4.865444,
          2.354676 -6.062992 5.092803,
          2.413350 -6.062992 5.327042,
          2.448781 -6.062992 5.565903,
          5.668984 -6.062992 5.807087,
          5.635928 -6.062992 6.362177,
          5.548768 -6.062992 6.910805,
          5.408499 -6.062992 7.447737,
          5.216621 -6.062992 7.967882,
          4.975106 -6.062992 8.466336,
          4.686387 -6.062992 8.938430,
          4.353319 -6.062992 9.379763,
          3.979158 -6.062992 9.786245,
          3.567522 -6.062992 10.154124,
          3.122357 -6.062992 10.480024,
          2.647902 -6.062992 10.760963,
          2.148647 -6.062992 10.994381,
          1.629296 -6.062992 11.178157,
          1.094722 -6.062992 11.310625,
          0.549927 -6.062992 11.390588,
          0.000000 -6.062992 11.417323,
          -0.549927 -6.062992 11.390588,
          -1.094722 -6.062992 11.310625,
          -1.629296 -6.062992 11.178157,
          -2.148647 -6.062992 10.994381,
          -2.647902 -6.062992 10.760963,
          -3.122357 -6.062992 10.480024,
          -3.567522 -6.062992 10.154124,
          -3.979158 -6.062992 9.786245,
          -4.353319 -6.062992 9.379763,
          -4.686387 -6.062992 8.938430,
          -4.975106 -6.062992 8.466336,
          -5.216621 -6.062992 7.967882,
          -5.408499 -6.062992 7.447737,
          -5.548768 -6.062992 6.910805,
          -5.635928 -6.062992 6.362177,
          -5.668984 -6.062992 5.807087,
          -5.669291 -6.062992 5.248710,
          -5.669291 -6.062992 4.679394,
          -5.669291 -6.062992 4.087326,
          -5.669291 -6.062992 3.458789,
          -5.669291 -6.062992 2.776787,
          -5.669291 -6.062992 2.018987,
          -5.669291 -6.062992 1.154419,
          -5.669291 -6.062992 0.137795,
          -4.765753 -6.062992 0.000000,
          -3.880171 -6.062992 0.000000,
          -3.103952 -6.062992 0.000000,
          -2.405374 -6.062992 0.000000,
          -1.761560 -6.062992 0.000000,
          -1.155101 -6.062992 0.000000,
          -0.571948 -6.062992 0.000000,
          -0.000000 -6.062992 0.000000,
          0.571948 -6.062992 0.000000,
          1.155101 -6.062992 0.000000,
          1.761560 -6.062992 0.000000,
          2.405374 -6.062992 0.000000,
          3.103952 -6.062992 0.000000,
          3.880171 -6.062992 0.000000,
          4.765753 -6.062992 0.000000,
          5.669291 -6.062992 0.137795,
          5.669291 -6.062992 1.154419,
          5.669291 -6.062992 2.018987,
          5.669291 -6.062992 2.776787,
          5.669291 -6.062992 3.458789,
          5.669291 -6.062992 4.087326,
          5.669291 -6.062992 4.679394,
          5.669291 -6.062992 5.248710
    ] }
    coordIndex [
          64, 65, 1, 0, -1,
          193, 192, 128, 129, -1,
          64, 192, 193, 65, -1,
          1, 129, 128, 0, -1,
          65, 66, 2, 1, -1,
          194, 193, 129, 130, -1,
          65, 193, 194, 66, -1,
          2, 130, 129, 1, -1,
          66, 67, 3, 2, -1,
          195, 194, 130, 131, -1,
          66, 194, 195, 67, -1,
          3, 131, 130, 2, -1,
          67, 68, 4, 3, -1,
          196, 195, 131, 132, -1,
          67, 195, 196, 68, -1,
          4, 132, 131, 3, -1,
          68, 69, 5, 4, -1,
          197, 196, 132, 133, -1,
          68, 196, 197, 69, -1,
          5, 133, 132, 4, -1,
          69, 70, 6, 5, -1,
          198, 197, 133, 134, -1,
          69, 197, 198, 70, -1,
          6, 134, 133, 5, -1,
          70, 71, 7, 6, -1,
          199, 198, 134, 135, -1,
          70, 198, 199, 71, -1,
          7, 135, 134, 6, -1,
          71, 72, 8, 7, -1,
          200, 199, 135, 136, -1,
          71, 199, 200, 72, -1,
          8, 136, 135, 7, -1,
          72, 73, 9, 8, -1,
          201, 200, 136, 137, -1,
          72, 200, 201, 73, -1,
          9, 137, 136, 8, -1,
          73, 74, 10, 9, -1,
          202, 201, 137, 138, -1,
          73, 201, 202, 74, -1,
          10, 138, 137, 9, -1,
          74, 75, 11, 10, -1,
          203, 202, 138, 139, -1,
          74, 202, 203, 75, -1,
          11, 139, 138, 10, -1,
          75, 76, 12, 11, -1,
          204, 203, 139, 140, -1,
          75, 203, 204, 76, -1,
          12, 140, 139, 11, -1,
          76, 77, 13, 12, -1,
          205, 204, 140, 141, -1,
          76, 204, 205, 77, -1,
          13, 141, 140, 12, -1,
          77, 78, 14, 13, -1,
          206, 205, 141, 142, -1,
          77, 205, 206, 78, -1,
          14, 142, 141, 13, -1,
          78, 79, 15, 14, -1,
          207, 206, 142, 143, -1,
          78, 206, 207, 79, -1,
          15, 143, 142, 14, -1,
          79, 80, 16, 15, -1,
          208, 207, 143, 144, -1,
          79, 207, 208, 80, -1,
          16, 144, 143, 15, -1,
          80, 81, 17, 16, -1,
          209, 208, 144, 145, -1,
          80, 208, 209, 81, -1,
          17, 145, 144, 16, -1,
          81, 82, 18, 17, -1,
          210, 209, 145, 146, -1,
          81, 209, 210, 82, -1,
          18, 146, 145, 17, -1,
          82, 83, 19, 18, -1,
          211, 210, 146, 147, -1,
          82, 210, 211, 83, -1,
          19, 147, 146, 18, -1,
          83, 84, 20, 19, -1,
          212, 211, 147, 148, -1,
          83, 211, 212, 84, -1,
          20, 148, 147, 19, -1,
          84, 85, 21, 20, -1,
          213, 212, 148, 149, -1,
          84, 212, 213, 85, -1,
          21, 149, 148, 20, -1,
          85, 86, 22, 21, -1,
          214, 213, 149, 150, -1,
          85, 213, 214, 86, -1,
          22, 150, 149, 21, -1,
          86, 87, 23, 22, -1,
          215, 214, 150, 151, -1,
          86, 214, 215, 87, -1,
          23, 151, 150, 22, -1,
          87, 88, 24, 23, -1,
          216, 215, 151, 152, -1,
          87, 215, 216, 88, -1,
          24, 152, 151, 23, -1,
          88, 89, 25, 24, -1,
          217, 216, 152, 153, -1,
          88, 216, 217, 89, -1,
          25, 153, 152, 24, -1,
          89, 90, 26, 25, -1,
          218, 217, 153, 154, -1,
          89, 217, 218, 90, -1,
          26, 154, 153, 25, -1,
          90, 91, 27, 26, -1,
          219, 218, 154, 155, -1,
          90, 218, 219, 91, -1,
          27, 155, 154, 26, -1,
          91, 92, 28, 27, -1,
          220, 219, 155, 156, -1,
          91, 219, 220, 92, -1,
          28, 156, 155, 27, -1,
          92, 93, 29, 28, -1,
          221, 220, 156, 157, -1,
          92, 220, 221, 93, -1,
          29, 157, 156, 28, -1,
          93, 94, 30, 29, -1,
          222, 221, 157, 158, -1,
          93, 221, 222, 94, -1,
          30, 158, 157, 29, -1,
          94, 95, 31, 30, -1,
          223, 222, 158, 159, -1,
          94, 222, 223, 95, -1,
          31, 159, 158, 30, -1,
          95, 96, 32, 31, -1,
          224, 223, 159, 160, -1,
          95, 223, 224, 96, -1,
          32, 160, 159, 31, -1,
          96, 97, 33, 32, -1,
          225, 224, 160, 161, -1,
          96, 224, 225, 97, -1,
          33, 161, 160, 32, -1,
          97, 98, 34, 33, -1,
          226, 225, 161, 162, -1,
          97, 225, 226, 98, -1,
          34, 162, 161, 33, -1,
          98, 99, 35, 34, -1,
          227, 226, 162, 163, -1,
          98, 226, 227, 99, -1,
          35, 163, 162, 34, -1,
          99, 100, 36, 35, -1,
          228, 227, 163, 164, -1,
          99, 227, 228, 100, -1,
          36, 164, 163, 35, -1,
          100, 101, 37, 36, -1,
          229, 228, 164, 165, -1,
          100, 228, 229, 101, -1,
          37, 165, 164, 36, -1,
          101, 102, 38, 37, -1,
          230, 229, 165, 166, -1,
          101, 229, 230, 102, -1,
          38, 166, 165, 37, -1,
          102, 103, 39, 38, -1,
          231, 230, 166, 167, -1,
          102, 230, 231, 103, -1,
          39, 167, 166, 38, -1,
          103, 104, 40, 39, -1,
          232, 231, 167, 168, -1,
          103, 231, 232, 104, -1,
          40, 168, 167, 39, -1,
          104, 105, 41, 40, -1,
          233, 232, 168, 169, -1,
          104, 232, 233, 105, -1,
          41, 169, 168, 40, -1,
          105, 106, 42, 41, -1,
          234, 233, 169, 170, -1,
          105, 233, 234, 106, -1,
          42, 170, 169, 41, -1,
          106, 107, 43, 42, -1,
          235, 234, 170, 171, -1,
          106, 234, 235, 107, -1,
          43, 171, 170, 42, -1,
          107, 108, 44, 43, -1,
          236, 235, 171, 172, -1,
          107, 235, 236, 108, -1,
          44, 172, 171, 43, -1,
          108, 109, 45, 44, -1,
          237, 236, 172, 173, -1,
          108, 236, 237, 109, -1,
          45, 173, 172, 44, -1,
          109, 110, 46, 45, -1,
          238, 237, 173, 174, -1,
          109, 237, 238, 110, -1,
          46, 174, 173, 45, -1,
          110, 111, 47, 46, -1,
          239, 238, 174, 175, -1,
          110, 238, 239, 111, -1,
          47, 175, 174, 46, -1,
          111, 112, 48, 47, -1,
          240, 239, 175, 176, -1,
          111, 239, 240, 112, -1,
          48, 176, 175, 47, -1,
          112, 113, 49, 48, -1,
          241, 240, 176, 177, -1,
          112, 240, 241, 113, -1,
          49, 177, 176, 48, -1,
          113, 114, 50, 49, -1,
          242, 241, 177, 178, -1,
          113, 241, 242, 114, -1,
          50, 178, 177, 49, -1,
          114, 115, 51, 50, -1,
          243, 242, 178, 179, -1,
          114, 242, 243, 115, -1,
          51, 179, 178, 50, -1,
          115, 116, 52, 51, -1,
          244, 243, 179, 180, -1,
          115, 243, 244, 116, -1,
          52, 180, 179, 51, -1,
          116, 117, 53, 52, -1,
          245, 244, 180, 181, -1,
          116, 244, 245, 117, -1,
          53, 181, 180, 52, -1,
          117, 118, 54, 53, -1,
          246, 245, 181, 182, -1,
          117, 245, 246, 118, -1,
          54, 182, 181, 53, -1,
          118, 119, 55, 54, -1,
          247, 246, 182, 183, -1,
          118, 246, 247, 119, -1,
          55, 183, 182, 54, -1,
          119, 120, 56, 55, -1,
          248, 247, 183, 184, -1,
          119, 247, 248, 120, -1,
          56, 184, 183, 55, -1,
          120, 121, 57, 56, -1,
          249, 248, 184, 185, -1,
          120, 248, 249, 121, -1,
          57, 185, 184, 56, -1,
          121, 122, 58, 57, -1,
          250, 249, 185, 186, -1,
          121, 249, 250, 122, -1,
          58, 186, 185, 57, -1,
          122, 123, 59, 58, -1,
          251, 250, 186, 187, -1,
          122, 250, 251, 123, -1,
          59, 187, 186, 58, -1,
          123, 124, 60, 59, -1,
          252, 251, 187, 188, -1,
          123, 251, 252, 124, -1,
          60, 188, 187, 59, -1,
          124, 125, 61, 60, -1,
          253, 252, 188, 189, -1,
          124, 252, 253, 125, -1,
          61, 189, 188, 60, -1,
          125, 126, 62, 61, -1,
          254, 253, 189, 190, -1,
          125, 253, 254, 126, -1,
          62, 190, 189, 61, -1,
          126, 127, 63, 62, -1,
          255, 254, 190, 191, -1,
          126, 254, 255, 127, -1,
          63, 191, 190, 62, -1,
          127, 64, 0, 63, -1,
          192, 255, 191, 128, -1,
          127, 255, 192, 64, -1,
          0, 128, 191, 63, -1
    ]
  }
}

Shape {
  appearance Appearance { material Material { diffuseColor 0.72 0.32 0.10 specularColor 0.80 0.58 0.28 shininess 0.78 } }
  geometry IndexedFaceSet {
    solid FALSE
    creaseAngle 0.45
    coord Coordinate { point [
          0.000000 1.377953 0.000000,
          -0.115211 1.389300 0.000000,
          -0.225994 1.422906 0.000000,
          -0.328093 1.477479 0.000000,
          -0.417583 1.550921 0.000000,
          -0.491025 1.640411 0.000000,
          -0.545598 1.742510 0.000000,
          -0.579204 1.853293 0.000000,
          -0.590551 1.968504 0.000000,
          -0.579204 2.083715 0.000000,
          -0.545598 2.194498 0.000000,
          -0.491025 2.296597 0.000000,
          -0.417583 2.386087 0.000000,
          -0.328093 2.459529 0.000000,
          -0.225994 2.514102 0.000000,
          -0.115211 2.547708 0.000000,
          -0.000000 2.559055 0.000000,
          0.115211 2.547708 0.000000,
          0.225994 2.514102 0.000000,
          0.328093 2.459529 0.000000,
          0.417583 2.386087 0.000000,
          0.491025 2.296597 0.000000,
          0.545598 2.194498 0.000000,
          0.579204 2.083715 0.000000,
          0.590551 1.968504 0.000000,
          0.579204 1.853293 0.000000,
          0.545598 1.742510 0.000000,
          0.491025 1.640411 0.000000,
          0.417583 1.550921 0.000000,
          0.328093 1.477479 0.000000,
          0.225994 1.422906 0.000000,
          0.115211 1.389300 0.000000,
          0.000000 1.377953 5.118110,
          -0.115211 1.389300 5.118110,
          -0.225994 1.422906 5.118110,
          -0.328093 1.477479 5.118110,
          -0.417583 1.550921 5.118110,
          -0.491025 1.640411 5.118110,
          -0.545598 1.742510 5.118110,
          -0.579204 1.853293 5.118110,
          -0.590551 1.968504 5.118110,
          -0.579204 2.083715 5.118110,
          -0.545598 2.194498 5.118110,
          -0.491025 2.296597 5.118110,
          -0.417583 2.386087 5.118110,
          -0.328093 2.459529 5.118110,
          -0.225994 2.514102 5.118110,
          -0.115211 2.547708 5.118110,
          -0.000000 2.559055 5.118110,
          0.115211 2.547708 5.118110,
          0.225994 2.514102 5.118110,
          0.328093 2.459529 5.118110,
          0.417583 2.386087 5.118110,
          0.491025 2.296597 5.118110,
          0.545598 2.194498 5.118110,
          0.579204 2.083715 5.118110,
          0.590551 1.968504 5.118110,
          0.579204 1.853293 5.118110,
          0.545598 1.742510 5.118110,
          0.491025 1.640411 5.118110,
          0.417583 1.550921 5.118110,
          0.328093 1.477479 5.118110,
          0.225994 1.422906 5.118110,
          0.115211 1.389300 5.118110,
          0.000000 1.968504 0.000000,
          0.000000 1.968504 5.118110
    ] }
    coordIndex [
          0, 1, 33, 32, -1,
          64, 1, 0, -1,
          65, 32, 33, -1,
          1, 2, 34, 33, -1,
          64, 2, 1, -1,
          65, 33, 34, -1,
          2, 3, 35, 34, -1,
          64, 3, 2, -1,
          65, 34, 35, -1,
          3, 4, 36, 35, -1,
          64, 4, 3, -1,
          65, 35, 36, -1,
          4, 5, 37, 36, -1,
          64, 5, 4, -1,
          65, 36, 37, -1,
          5, 6, 38, 37, -1,
          64, 6, 5, -1,
          65, 37, 38, -1,
          6, 7, 39, 38, -1,
          64, 7, 6, -1,
          65, 38, 39, -1,
          7, 8, 40, 39, -1,
          64, 8, 7, -1,
          65, 39, 40, -1,
          8, 9, 41, 40, -1,
          64, 9, 8, -1,
          65, 40, 41, -1,
          9, 10, 42, 41, -1,
          64, 10, 9, -1,
          65, 41, 42, -1,
          10, 11, 43, 42, -1,
          64, 11, 10, -1,
          65, 42, 43, -1,
          11, 12, 44, 43, -1,
          64, 12, 11, -1,
          65, 43, 44, -1,
          12, 13, 45, 44, -1,
          64, 13, 12, -1,
          65, 44, 45, -1,
          13, 14, 46, 45, -1,
          64, 14, 13, -1,
          65, 45, 46, -1,
          14, 15, 47, 46, -1,
          64, 15, 14, -1,
          65, 46, 47, -1,
          15, 16, 48, 47, -1,
          64, 16, 15, -1,
          65, 47, 48, -1,
          16, 17, 49, 48, -1,
          64, 17, 16, -1,
          65, 48, 49, -1,
          17, 18, 50, 49, -1,
          64, 18, 17, -1,
          65, 49, 50, -1,
          18, 19, 51, 50, -1,
          64, 19, 18, -1,
          65, 50, 51, -1,
          19, 20, 52, 51, -1,
          64, 20, 19, -1,
          65, 51, 52, -1,
          20, 21, 53, 52, -1,
          64, 21, 20, -1,
          65, 52, 53, -1,
          21, 22, 54, 53, -1,
          64, 22, 21, -1,
          65, 53, 54, -1,
          22, 23, 55, 54, -1,
          64, 23, 22, -1,
          65, 54, 55, -1,
          23, 24, 56, 55, -1,
          64, 24, 23, -1,
          65, 55, 56, -1,
          24, 25, 57, 56, -1,
          64, 25, 24, -1,
          65, 56, 57, -1,
          25, 26, 58, 57, -1,
          64, 26, 25, -1,
          65, 57, 58, -1,
          26, 27, 59, 58, -1,
          64, 27, 26, -1,
          65, 58, 59, -1,
          27, 28, 60, 59, -1,
          64, 28, 27, -1,
          65, 59, 60, -1,
          28, 29, 61, 60, -1,
          64, 29, 28, -1,
          65, 60, 61, -1,
          29, 30, 62, 61, -1,
          64, 30, 29, -1,
          65, 61, 62, -1,
          30, 31, 63, 62, -1,
          64, 31, 30, -1,
          65, 62, 63, -1,
          31, 0, 32, 63, -1,
          64, 0, 31, -1,
          65, 63, 32, -1
    ]
  }
}

Shape {
  appearance Appearance { material Material { diffuseColor 0.72 0.32 0.10 specularColor 0.80 0.58 0.28 shininess 0.78 } }
  geometry IndexedFaceSet {
    solid FALSE
    creaseAngle 0.45
    coord Coordinate { point [
          0.000000 -8.070866 0.000000,
          -0.115211 -8.059519 0.000000,
          -0.225994 -8.025913 0.000000,
          -0.328093 -7.971340 0.000000,
          -0.417583 -7.897898 0.000000,
          -0.491025 -7.808408 0.000000,
          -0.545598 -7.706309 0.000000,
          -0.579204 -7.595526 0.000000,
          -0.590551 -7.480315 0.000000,
          -0.579204 -7.365104 0.000000,
          -0.545598 -7.254321 0.000000,
          -0.491025 -7.152222 0.000000,
          -0.417583 -7.062732 0.000000,
          -0.328093 -6.989290 0.000000,
          -0.225994 -6.934717 0.000000,
          -0.115211 -6.901111 0.000000,
          -0.000000 -6.889764 0.000000,
          0.115211 -6.901111 0.000000,
          0.225994 -6.934717 0.000000,
          0.328093 -6.989290 0.000000,
          0.417583 -7.062732 0.000000,
          0.491025 -7.152222 0.000000,
          0.545598 -7.254321 0.000000,
          0.579204 -7.365104 0.000000,
          0.590551 -7.480315 0.000000,
          0.579204 -7.595526 0.000000,
          0.545598 -7.706309 0.000000,
          0.491025 -7.808408 0.000000,
          0.417583 -7.897898 0.000000,
          0.328093 -7.971340 0.000000,
          0.225994 -8.025913 0.000000,
          0.115211 -8.059519 0.000000,
          0.000000 -8.070866 5.118110,
          -0.115211 -8.059519 5.118110,
          -0.225994 -8.025913 5.118110,
          -0.328093 -7.971340 5.118110,
          -0.417583 -7.897898 5.118110,
          -0.491025 -7.808408 5.118110,
          -0.545598 -7.706309 5.118110,
          -0.579204 -7.595526 5.118110,
          -0.590551 -7.480315 5.118110,
          -0.579204 -7.365104 5.118110,
          -0.545598 -7.254321 5.118110,
          -0.491025 -7.152222 5.118110,
          -0.417583 -7.062732 5.118110,
          -0.328093 -6.989290 5.118110,
          -0.225994 -6.934717 5.118110,
          -0.115211 -6.901111 5.118110,
          -0.000000 -6.889764 5.118110,
          0.115211 -6.901111 5.118110,
          0.225994 -6.934717 5.118110,
          0.328093 -6.989290 5.118110,
          0.417583 -7.062732 5.118110,
          0.491025 -7.152222 5.118110,
          0.545598 -7.254321 5.118110,
          0.579204 -7.365104 5.118110,
          0.590551 -7.480315 5.118110,
          0.579204 -7.595526 5.118110,
          0.545598 -7.706309 5.118110,
          0.491025 -7.808408 5.118110,
          0.417583 -7.897898 5.118110,
          0.328093 -7.971340 5.118110,
          0.225994 -8.025913 5.118110,
          0.115211 -8.059519 5.118110,
          0.000000 -7.480315 0.000000,
          0.000000 -7.480315 5.118110
    ] }
    coordIndex [
          0, 1, 33, 32, -1,
          64, 1, 0, -1,
          65, 32, 33, -1,
          1, 2, 34, 33, -1,
          64, 2, 1, -1,
          65, 33, 34, -1,
          2, 3, 35, 34, -1,
          64, 3, 2, -1,
          65, 34, 35, -1,
          3, 4, 36, 35, -1,
          64, 4, 3, -1,
          65, 35, 36, -1,
          4, 5, 37, 36, -1,
          64, 5, 4, -1,
          65, 36, 37, -1,
          5, 6, 38, 37, -1,
          64, 6, 5, -1,
          65, 37, 38, -1,
          6, 7, 39, 38, -1,
          64, 7, 6, -1,
          65, 38, 39, -1,
          7, 8, 40, 39, -1,
          64, 8, 7, -1,
          65, 39, 40, -1,
          8, 9, 41, 40, -1,
          64, 9, 8, -1,
          65, 40, 41, -1,
          9, 10, 42, 41, -1,
          64, 10, 9, -1,
          65, 41, 42, -1,
          10, 11, 43, 42, -1,
          64, 11, 10, -1,
          65, 42, 43, -1,
          11, 12, 44, 43, -1,
          64, 12, 11, -1,
          65, 43, 44, -1,
          12, 13, 45, 44, -1,
          64, 13, 12, -1,
          65, 44, 45, -1,
          13, 14, 46, 45, -1,
          64, 14, 13, -1,
          65, 45, 46, -1,
          14, 15, 47, 46, -1,
          64, 15, 14, -1,
          65, 46, 47, -1,
          15, 16, 48, 47, -1,
          64, 16, 15, -1,
          65, 47, 48, -1,
          16, 17, 49, 48, -1,
          64, 17, 16, -1,
          65, 48, 49, -1,
          17, 18, 50, 49, -1,
          64, 18, 17, -1,
          65, 49, 50, -1,
          18, 19, 51, 50, -1,
          64, 19, 18, -1,
          65, 50, 51, -1,
          19, 20, 52, 51, -1,
          64, 20, 19, -1,
          65, 51, 52, -1,
          20, 21, 53, 52, -1,
          64, 21, 20, -1,
          65, 52, 53, -1,
          21, 22, 54, 53, -1,
          64, 22, 21, -1,
          65, 53, 54, -1,
          22, 23, 55, 54, -1,
          64, 23, 22, -1,
          65, 54, 55, -1,
          23, 24, 56, 55, -1,
          64, 24, 23, -1,
          65, 55, 56, -1,
          24, 25, 57, 56, -1,
          64, 25, 24, -1,
          65, 56, 57, -1,
          25, 26, 58, 57, -1,
          64, 26, 25, -1,
          65, 57, 58, -1,
          26, 27, 59, 58, -1,
          64, 27, 26, -1,
          65, 58, 59, -1,
          27, 28, 60, 59, -1,
          64, 28, 27, -1,
          65, 59, 60, -1,
          28, 29, 61, 60, -1,
          64, 29, 28, -1,
          65, 60, 61, -1,
          29, 30, 62, 61, -1,
          64, 30, 29, -1,
          65, 61, 62, -1,
          30, 31, 63, 62, -1,
          64, 31, 30, -1,
          65, 62, 63, -1,
          31, 0, 32, 63, -1,
          64, 0, 31, -1,
          65, 63, 32, -1
    ]
  }
}

Shape {
  appearance Appearance { material Material { diffuseColor 0.72 0.32 0.10 specularColor 0.80 0.58 0.28 shininess 0.78 } }
  geometry IndexedFaceSet {
    solid FALSE
    creaseAngle 0.45
    coord Coordinate { point [
          0.590551 1.968504 5.118110,
          0.579204 1.968504 5.002899,
          0.545598 1.968504 4.892116,
          0.491025 1.968504 4.790018,
          0.417583 1.968504 4.700527,
          0.328093 1.968504 4.627085,
          0.225994 1.968504 4.572512,
          0.115211 1.968504 4.538906,
          0.000000 1.968504 4.527559,
          -0.115211 1.968504 4.538906,
          -0.225994 1.968504 4.572512,
          -0.328093 1.968504 4.627085,
          -0.417583 1.968504 4.700527,
          -0.491025 1.968504 4.790018,
          -0.545598 1.968504 4.892116,
          -0.579204 1.968504 5.002899,
          -0.590551 1.968504 5.118110,
          -0.579204 1.968504 5.233321,
          -0.545598 1.968504 5.344104,
          -0.491025 1.968504 5.446203,
          -0.417583 1.968504 5.535693,
          -0.328093 1.968504 5.609136,
          -0.225994 1.968504 5.663708,
          -0.115211 1.968504 5.697314,
          -0.000000 1.968504 5.708661,
          0.115211 1.968504 5.697314,
          0.225994 1.968504 5.663708,
          0.328093 1.968504 5.609136,
          0.417583 1.968504 5.535693,
          0.491025 1.968504 5.446203,
          0.545598 1.968504 5.344104,
          0.579204 1.968504 5.233321,
          0.590551 -7.480315 5.118110,
          0.579204 -7.480315 5.002899,
          0.545598 -7.480315 4.892116,
          0.491025 -7.480315 4.790018,
          0.417583 -7.480315 4.700527,
          0.328093 -7.480315 4.627085,
          0.225994 -7.480315 4.572512,
          0.115211 -7.480315 4.538906,
          0.000000 -7.480315 4.527559,
          -0.115211 -7.480315 4.538906,
          -0.225994 -7.480315 4.572512,
          -0.328093 -7.480315 4.627085,
          -0.417583 -7.480315 4.700527,
          -0.491025 -7.480315 4.790018,
          -0.545598 -7.480315 4.892116,
          -0.579204 -7.480315 5.002899,
          -0.590551 -7.480315 5.118110,
          -0.579204 -7.480315 5.233321,
          -0.545598 -7.480315 5.344104,
          -0.491025 -7.480315 5.446203,
          -0.417583 -7.480315 5.535693,
          -0.328093 -7.480315 5.609136,
          -0.225994 -7.480315 5.663708,
          -0.115211 -7.480315 5.697314,
          -0.000000 -7.480315 5.708661,
          0.115211 -7.480315 5.697314,
          0.225994 -7.480315 5.663708,
          0.328093 -7.480315 5.609136,
          0.417583 -7.480315 5.535693,
          0.491025 -7.480315 5.446203,
          0.545598 -7.480315 5.344104,
          0.579204 -7.480315 5.233321,
          0.000000 1.968504 5.118110,
          0.000000 -7.480315 5.118110
    ] }
    coordIndex [
          0, 1, 33, 32, -1,
          64, 1, 0, -1,
          65, 32, 33, -1,
          1, 2, 34, 33, -1,
          64, 2, 1, -1,
          65, 33, 34, -1,
          2, 3, 35, 34, -1,
          64, 3, 2, -1,
          65, 34, 35, -1,
          3, 4, 36, 35, -1,
          64, 4, 3, -1,
          65, 35, 36, -1,
          4, 5, 37, 36, -1,
          64, 5, 4, -1,
          65, 36, 37, -1,
          5, 6, 38, 37, -1,
          64, 6, 5, -1,
          65, 37, 38, -1,
          6, 7, 39, 38, -1,
          64, 7, 6, -1,
          65, 38, 39, -1,
          7, 8, 40, 39, -1,
          64, 8, 7, -1,
          65, 39, 40, -1,
          8, 9, 41, 40, -1,
          64, 9, 8, -1,
          65, 40, 41, -1,
          9, 10, 42, 41, -1,
          64, 10, 9, -1,
          65, 41, 42, -1,
          10, 11, 43, 42, -1,
          64, 11, 10, -1,
          65, 42, 43, -1,
          11, 12, 44, 43, -1,
          64, 12, 11, -1,
          65, 43, 44, -1,
          12, 13, 45, 44, -1,
          64, 13, 12, -1,
          65, 44, 45, -1,
          13, 14, 46, 45, -1,
          64, 14, 13, -1,
          65, 45, 46, -1,
          14, 15, 47, 46, -1,
          64, 15, 14, -1,
          65, 46, 47, -1,
          15, 16, 48, 47, -1,
          64, 16, 15, -1,
          65, 47, 48, -1,
          16, 17, 49, 48, -1,
          64, 17, 16, -1,
          65, 48, 49, -1,
          17, 18, 50, 49, -1,
          64, 18, 17, -1,
          65, 49, 50, -1,
          18, 19, 51, 50, -1,
          64, 19, 18, -1,
          65, 50, 51, -1,
          19, 20, 52, 51, -1,
          64, 20, 19, -1,
          65, 51, 52, -1,
          20, 21, 53, 52, -1,
          64, 21, 20, -1,
          65, 52, 53, -1,
          21, 22, 54, 53, -1,
          64, 22, 21, -1,
          65, 53, 54, -1,
          22, 23, 55, 54, -1,
          64, 23, 22, -1,
          65, 54, 55, -1,
          23, 24, 56, 55, -1,
          64, 24, 23, -1,
          65, 55, 56, -1,
          24, 25, 57, 56, -1,
          64, 25, 24, -1,
          65, 56, 57, -1,
          25, 26, 58, 57, -1,
          64, 26, 25, -1,
          65, 57, 58, -1,
          26, 27, 59, 58, -1,
          64, 27, 26, -1,
          65, 58, 59, -1,
          27, 28, 60, 59, -1,
          64, 28, 27, -1,
          65, 59, 60, -1,
          28, 29, 61, 60, -1,
          64, 29, 28, -1,
          65, 60, 61, -1,
          29, 30, 62, 61, -1,
          64, 30, 29, -1,
          65, 61, 62, -1,
          30, 31, 63, 62, -1,
          64, 31, 30, -1,
          65, 62, 63, -1,
          31, 0, 32, 63, -1,
          64, 0, 31, -1,
          65, 63, 32, -1
    ]
  }
}
