%TF.GenerationSoftware,KiCad,Pcbnew,10.0.6*%
%TF.CreationDate,2026-09-23T17:14:21+04:00*%
%TF.ProjectId,evse,65767365-2e6b-4696-9361-645f70636258,rev?*%
%TF.SameCoordinates,Original*%
%TF.FileFunction,Legend,Bot*%
%TF.FilePolarity,Positive*%
%FSLAX46Y46*%
G04 Gerber Fmt 4.6, Leading zero omitted, Abs format (unit mm)*
G04 Created by KiCad (PCBNEW 10.0.6) date 2026-09-23 17:14:21*
%MOMM*%
%LPD*%
G01*
G04 APERTURE LIST*
G04 Aperture macros list*
%AMRoundRect*
0 Rectangle with rounded corners*
0 $1 Rounding radius*
0 $2 $3 $4 $5 $6 $7 $8 $9 X,Y pos of 4 corners*
0 Add a 4 corners polygon primitive as box body*
4,1,4,$2,$3,$4,$5,$6,$7,$8,$9,$2,$3,0*
0 Add four circle primitives for the rounded corners*
1,1,$1+$1,$2,$3*
1,1,$1+$1,$4,$5*
1,1,$1+$1,$6,$7*
1,1,$1+$1,$8,$9*
0 Add four rect primitives between the rounded corners*
20,1,$1+$1,$2,$3,$4,$5,0*
20,1,$1+$1,$4,$5,$6,$7,0*
20,1,$1+$1,$6,$7,$8,$9,0*
20,1,$1+$1,$8,$9,$2,$3,0*%
G04 Aperture macros list end*
%ADD10C,0.080000*%
%ADD11C,0.300000*%
%ADD12C,0.500000*%
%ADD13C,0.150000*%
%ADD14C,0.081280*%
%ADD15C,0.103632*%
%ADD16C,0.250000*%
%ADD17C,0.200000*%
%ADD18C,0.127000*%
%ADD19C,0.120000*%
%ADD20C,0.550000*%
%ADD21C,0.152400*%
%ADD22C,0.203200*%
%ADD23C,3.200000*%
%ADD24C,2.803200*%
%ADD25RoundRect,0.400000X0.600000X-0.600000X0.600000X0.600000X-0.600000X0.600000X-0.600000X-0.600000X0*%
%ADD26C,2.000000*%
%ADD27RoundRect,0.640000X0.960000X0.960000X-0.960000X0.960000X-0.960000X-0.960000X0.960000X-0.960000X0*%
%ADD28C,1.930400*%
%ADD29RoundRect,0.100000X0.712500X0.100000X-0.712500X0.100000X-0.712500X-0.100000X0.712500X-0.100000X0*%
%ADD30C,1.828800*%
%ADD31RoundRect,1.000000X3.000000X-0.800000X3.000000X0.800000X-3.000000X0.800000X-3.000000X-0.800000X0*%
%ADD32RoundRect,0.250000X1.250000X-0.850000X1.250000X0.850000X-1.250000X0.850000X-1.250000X-0.850000X0*%
%ADD33C,2.133600*%
%ADD34C,1.803200*%
%ADD35R,3.000000X3.000000*%
%ADD36C,3.000000*%
G04 APERTURE END LIST*
D10*
X-28486163Y57902065D02*
X-28486163Y58702065D01*
X-28486163Y58702065D02*
X-28699813Y58702065D01*
X-28699813Y58702065D02*
X-28753226Y58663970D01*
X-28753226Y58663970D02*
X-28779932Y58625875D01*
X-28779932Y58625875D02*
X-28806638Y58549684D01*
X-28806638Y58549684D02*
X-28806638Y58435399D01*
X-28806638Y58435399D02*
X-28779932Y58359208D01*
X-28779932Y58359208D02*
X-28753226Y58321113D01*
X-28753226Y58321113D02*
X-28699813Y58283018D01*
X-28699813Y58283018D02*
X-28486163Y58283018D01*
X-29020289Y57940160D02*
X-29100407Y57902065D01*
X-29100407Y57902065D02*
X-29233939Y57902065D01*
X-29233939Y57902065D02*
X-29287351Y57940160D01*
X-29287351Y57940160D02*
X-29314058Y57978256D01*
X-29314058Y57978256D02*
X-29340764Y58054446D01*
X-29340764Y58054446D02*
X-29340764Y58130637D01*
X-29340764Y58130637D02*
X-29314058Y58206827D01*
X-29314058Y58206827D02*
X-29287351Y58244922D01*
X-29287351Y58244922D02*
X-29233939Y58283018D01*
X-29233939Y58283018D02*
X-29127114Y58321113D01*
X-29127114Y58321113D02*
X-29073701Y58359208D01*
X-29073701Y58359208D02*
X-29046995Y58397303D01*
X-29046995Y58397303D02*
X-29020289Y58473494D01*
X-29020289Y58473494D02*
X-29020289Y58549684D01*
X-29020289Y58549684D02*
X-29046995Y58625875D01*
X-29046995Y58625875D02*
X-29073701Y58663970D01*
X-29073701Y58663970D02*
X-29127114Y58702065D01*
X-29127114Y58702065D02*
X-29260645Y58702065D01*
X-29260645Y58702065D02*
X-29340764Y58663970D01*
X-29874890Y57902065D02*
X-29554415Y57902065D01*
X-29714652Y57902065D02*
X-29714652Y58702065D01*
X-29714652Y58702065D02*
X-29661240Y58587780D01*
X-29661240Y58587780D02*
X-29607827Y58511589D01*
X-29607827Y58511589D02*
X-29554415Y58473494D01*
D11*
G36*
X-73354511Y97513458D02*
G01*
X-73740530Y97513458D01*
X-73829944Y97558165D01*
X-73866949Y97595170D01*
X-73911654Y97684582D01*
X-73911654Y97828049D01*
X-73866949Y97917460D01*
X-73829944Y97954465D01*
X-73740530Y97999172D01*
X-73354511Y97999172D01*
X-73354511Y97513458D01*
G37*
G36*
X-71854511Y97513458D02*
G01*
X-72240530Y97513458D01*
X-72329944Y97558165D01*
X-72366949Y97595170D01*
X-72411654Y97684582D01*
X-72411654Y97828049D01*
X-72366949Y97917460D01*
X-72329944Y97954465D01*
X-72240530Y97999172D01*
X-71854511Y97999172D01*
X-71854511Y97513458D01*
G37*
G36*
X-71387844Y96335387D02*
G01*
X-74378321Y96335387D01*
X-74378321Y97863458D01*
X-74211654Y97863458D01*
X-74211654Y97649172D01*
X-74208772Y97619908D01*
X-74206710Y97614930D01*
X-74206328Y97609554D01*
X-74195818Y97582090D01*
X-74124390Y97439233D01*
X-74116463Y97426640D01*
X-74114947Y97422980D01*
X-74111566Y97418861D01*
X-74108725Y97414347D01*
X-74105732Y97411751D01*
X-74096292Y97400249D01*
X-74024863Y97328820D01*
X-74013359Y97319379D01*
X-74010764Y97316387D01*
X-74006255Y97313549D01*
X-74002132Y97310165D01*
X-73998471Y97308649D01*
X-73985879Y97300722D01*
X-73843021Y97229294D01*
X-73815558Y97218784D01*
X-73810183Y97218403D01*
X-73805204Y97216340D01*
X-73775940Y97213458D01*
X-73354511Y97213458D01*
X-73354511Y96649172D01*
X-73351629Y96619908D01*
X-73329231Y96565836D01*
X-73287847Y96524452D01*
X-73233775Y96502054D01*
X-73175247Y96502054D01*
X-73121175Y96524452D01*
X-73079791Y96565836D01*
X-73057393Y96619908D01*
X-73054511Y96649172D01*
X-73054511Y97863458D01*
X-72711654Y97863458D01*
X-72711654Y97649172D01*
X-72708772Y97619908D01*
X-72706710Y97614930D01*
X-72706328Y97609554D01*
X-72695818Y97582090D01*
X-72624390Y97439233D01*
X-72616463Y97426640D01*
X-72614947Y97422980D01*
X-72611566Y97418861D01*
X-72608725Y97414347D01*
X-72605732Y97411751D01*
X-72596292Y97400249D01*
X-72524863Y97328820D01*
X-72513359Y97319379D01*
X-72510764Y97316387D01*
X-72506255Y97313549D01*
X-72502132Y97310165D01*
X-72498471Y97308649D01*
X-72485879Y97300722D01*
X-72343021Y97229294D01*
X-72315558Y97218784D01*
X-72310183Y97218403D01*
X-72305204Y97216340D01*
X-72275940Y97213458D01*
X-71854511Y97213458D01*
X-71854511Y96649172D01*
X-71851629Y96619908D01*
X-71829231Y96565836D01*
X-71787847Y96524452D01*
X-71733775Y96502054D01*
X-71675247Y96502054D01*
X-71621175Y96524452D01*
X-71579791Y96565836D01*
X-71557393Y96619908D01*
X-71554511Y96649172D01*
X-71554511Y98149172D01*
X-71557393Y98178436D01*
X-71579791Y98232508D01*
X-71621175Y98273892D01*
X-71675247Y98296290D01*
X-71704511Y98299172D01*
X-72275940Y98299172D01*
X-72305204Y98296290D01*
X-72310185Y98294227D01*
X-72315559Y98293845D01*
X-72343023Y98283336D01*
X-72485879Y98211907D01*
X-72498473Y98203980D01*
X-72502132Y98202464D01*
X-72506253Y98199083D01*
X-72510765Y98196242D01*
X-72513362Y98193249D01*
X-72524862Y98183810D01*
X-72596291Y98112382D01*
X-72605731Y98100880D01*
X-72608725Y98098283D01*
X-72611567Y98093769D01*
X-72614946Y98089651D01*
X-72616462Y98085993D01*
X-72624390Y98073397D01*
X-72695818Y97930540D01*
X-72706328Y97903076D01*
X-72706710Y97897701D01*
X-72708772Y97892722D01*
X-72711654Y97863458D01*
X-73054511Y97863458D01*
X-73054511Y98149172D01*
X-73057393Y98178436D01*
X-73079791Y98232508D01*
X-73121175Y98273892D01*
X-73175247Y98296290D01*
X-73204511Y98299172D01*
X-73775940Y98299172D01*
X-73805204Y98296290D01*
X-73810185Y98294227D01*
X-73815559Y98293845D01*
X-73843023Y98283336D01*
X-73985879Y98211907D01*
X-73998473Y98203980D01*
X-74002132Y98202464D01*
X-74006253Y98199083D01*
X-74010765Y98196242D01*
X-74013362Y98193249D01*
X-74024862Y98183810D01*
X-74096291Y98112382D01*
X-74105731Y98100880D01*
X-74108725Y98098283D01*
X-74111567Y98093769D01*
X-74114946Y98089651D01*
X-74116462Y98085993D01*
X-74124390Y98073397D01*
X-74195818Y97930540D01*
X-74206328Y97903076D01*
X-74206710Y97897701D01*
X-74208772Y97892722D01*
X-74211654Y97863458D01*
X-74378321Y97863458D01*
X-74378321Y98465839D01*
X-71387844Y98465839D01*
X-71387844Y96335387D01*
G37*
G36*
X-73154511Y85613458D02*
G01*
X-73540530Y85613458D01*
X-73629944Y85658165D01*
X-73666949Y85695170D01*
X-73711654Y85784582D01*
X-73711654Y85928049D01*
X-73666949Y86017460D01*
X-73629944Y86054465D01*
X-73540530Y86099172D01*
X-73154511Y86099172D01*
X-73154511Y85613458D01*
G37*
G36*
X-71654511Y85613458D02*
G01*
X-72040530Y85613458D01*
X-72129944Y85658165D01*
X-72166949Y85695170D01*
X-72211654Y85784582D01*
X-72211654Y85928049D01*
X-72166949Y86017460D01*
X-72129944Y86054465D01*
X-72040530Y86099172D01*
X-71654511Y86099172D01*
X-71654511Y85613458D01*
G37*
G36*
X-71187844Y84435387D02*
G01*
X-74178321Y84435387D01*
X-74178321Y85963458D01*
X-74011654Y85963458D01*
X-74011654Y85749172D01*
X-74008772Y85719908D01*
X-74006710Y85714930D01*
X-74006328Y85709554D01*
X-73995818Y85682090D01*
X-73924390Y85539233D01*
X-73916463Y85526640D01*
X-73914947Y85522980D01*
X-73911566Y85518861D01*
X-73908725Y85514347D01*
X-73905732Y85511751D01*
X-73896292Y85500249D01*
X-73824863Y85428820D01*
X-73813359Y85419379D01*
X-73810764Y85416387D01*
X-73806255Y85413549D01*
X-73802132Y85410165D01*
X-73798471Y85408649D01*
X-73785879Y85400722D01*
X-73643021Y85329294D01*
X-73615558Y85318784D01*
X-73610183Y85318403D01*
X-73605204Y85316340D01*
X-73575940Y85313458D01*
X-73154511Y85313458D01*
X-73154511Y84749172D01*
X-73151629Y84719908D01*
X-73129231Y84665836D01*
X-73087847Y84624452D01*
X-73033775Y84602054D01*
X-72975247Y84602054D01*
X-72921175Y84624452D01*
X-72879791Y84665836D01*
X-72857393Y84719908D01*
X-72854511Y84749172D01*
X-72854511Y85963458D01*
X-72511654Y85963458D01*
X-72511654Y85749172D01*
X-72508772Y85719908D01*
X-72506710Y85714930D01*
X-72506328Y85709554D01*
X-72495818Y85682090D01*
X-72424390Y85539233D01*
X-72416463Y85526640D01*
X-72414947Y85522980D01*
X-72411566Y85518861D01*
X-72408725Y85514347D01*
X-72405732Y85511751D01*
X-72396292Y85500249D01*
X-72324863Y85428820D01*
X-72313359Y85419379D01*
X-72310764Y85416387D01*
X-72306255Y85413549D01*
X-72302132Y85410165D01*
X-72298471Y85408649D01*
X-72285879Y85400722D01*
X-72143021Y85329294D01*
X-72115558Y85318784D01*
X-72110183Y85318403D01*
X-72105204Y85316340D01*
X-72075940Y85313458D01*
X-71654511Y85313458D01*
X-71654511Y84749172D01*
X-71651629Y84719908D01*
X-71629231Y84665836D01*
X-71587847Y84624452D01*
X-71533775Y84602054D01*
X-71475247Y84602054D01*
X-71421175Y84624452D01*
X-71379791Y84665836D01*
X-71357393Y84719908D01*
X-71354511Y84749172D01*
X-71354511Y86249172D01*
X-71357393Y86278436D01*
X-71379791Y86332508D01*
X-71421175Y86373892D01*
X-71475247Y86396290D01*
X-71504511Y86399172D01*
X-72075940Y86399172D01*
X-72105204Y86396290D01*
X-72110185Y86394227D01*
X-72115559Y86393845D01*
X-72143023Y86383336D01*
X-72285879Y86311907D01*
X-72298473Y86303980D01*
X-72302132Y86302464D01*
X-72306253Y86299083D01*
X-72310765Y86296242D01*
X-72313362Y86293249D01*
X-72324862Y86283810D01*
X-72396291Y86212382D01*
X-72405731Y86200880D01*
X-72408725Y86198283D01*
X-72411567Y86193769D01*
X-72414946Y86189651D01*
X-72416462Y86185993D01*
X-72424390Y86173397D01*
X-72495818Y86030540D01*
X-72506328Y86003076D01*
X-72506710Y85997701D01*
X-72508772Y85992722D01*
X-72511654Y85963458D01*
X-72854511Y85963458D01*
X-72854511Y86249172D01*
X-72857393Y86278436D01*
X-72879791Y86332508D01*
X-72921175Y86373892D01*
X-72975247Y86396290D01*
X-73004511Y86399172D01*
X-73575940Y86399172D01*
X-73605204Y86396290D01*
X-73610185Y86394227D01*
X-73615559Y86393845D01*
X-73643023Y86383336D01*
X-73785879Y86311907D01*
X-73798473Y86303980D01*
X-73802132Y86302464D01*
X-73806253Y86299083D01*
X-73810765Y86296242D01*
X-73813362Y86293249D01*
X-73824862Y86283810D01*
X-73896291Y86212382D01*
X-73905731Y86200880D01*
X-73908725Y86198283D01*
X-73911567Y86193769D01*
X-73914946Y86189651D01*
X-73916462Y86185993D01*
X-73924390Y86173397D01*
X-73995818Y86030540D01*
X-74006328Y86003076D01*
X-74006710Y85997701D01*
X-74008772Y85992722D01*
X-74011654Y85963458D01*
X-74178321Y85963458D01*
X-74178321Y86565839D01*
X-71187844Y86565839D01*
X-71187844Y84435387D01*
G37*
G36*
X-69440726Y81832505D02*
G01*
X-74141429Y81832505D01*
X-74141429Y83630411D01*
X-73974762Y83630411D01*
X-73968242Y83601738D01*
X-73468242Y82101738D01*
X-73456254Y82074887D01*
X-73449232Y82066790D01*
X-73444439Y82057205D01*
X-73430233Y82044884D01*
X-73417907Y82030672D01*
X-73408320Y82025879D01*
X-73400225Y82018858D01*
X-73382383Y82012911D01*
X-73365559Y82004499D01*
X-73354869Y82003740D01*
X-73344701Y82000350D01*
X-73325945Y82001683D01*
X-73307179Y82000349D01*
X-73297009Y82003740D01*
X-73286320Y82004499D01*
X-73269499Y82012910D01*
X-73251655Y82018858D01*
X-73243559Y82025881D01*
X-73233973Y82030673D01*
X-73221650Y82044882D01*
X-73207441Y82057205D01*
X-73202649Y82066791D01*
X-73195626Y82074887D01*
X-73183638Y82101738D01*
X-72953541Y82792029D01*
X-72547369Y82792029D01*
X-72547369Y82434886D01*
X-72544487Y82405622D01*
X-72542424Y82400642D01*
X-72542042Y82395267D01*
X-72531533Y82367804D01*
X-72460104Y82224947D01*
X-72452177Y82212354D01*
X-72450661Y82208694D01*
X-72447280Y82204575D01*
X-72444439Y82200061D01*
X-72441446Y82197465D01*
X-72432006Y82185963D01*
X-72360577Y82114534D01*
X-72349073Y82105093D01*
X-72346478Y82102101D01*
X-72341969Y82099263D01*
X-72337846Y82095879D01*
X-72334185Y82094363D01*
X-72321593Y82086436D01*
X-72178735Y82015008D01*
X-72151272Y82004498D01*
X-72145897Y82004117D01*
X-72140918Y82002054D01*
X-72111654Y81999172D01*
X-71754511Y81999172D01*
X-71725247Y82002054D01*
X-71720269Y82004117D01*
X-71714893Y82004498D01*
X-71687429Y82015008D01*
X-71544572Y82086436D01*
X-71531977Y82094365D01*
X-71528318Y82095880D01*
X-71524201Y82099260D01*
X-71519686Y82102101D01*
X-71517090Y82105096D01*
X-71505587Y82114535D01*
X-71434159Y82185964D01*
X-71415505Y82208694D01*
X-71393108Y82262767D01*
X-71393109Y82321293D01*
X-71415506Y82375365D01*
X-71456892Y82416750D01*
X-71510964Y82439147D01*
X-71569490Y82439146D01*
X-71623562Y82416749D01*
X-71646293Y82398094D01*
X-71700510Y82343878D01*
X-71789921Y82299172D01*
X-72076244Y82299172D01*
X-72165658Y82343879D01*
X-72202662Y82380883D01*
X-72247369Y82470297D01*
X-72247369Y82749864D01*
X-71044486Y82749864D01*
X-71044486Y82691336D01*
X-71022088Y82637264D01*
X-70980704Y82595880D01*
X-70926632Y82573482D01*
X-70897368Y82570600D01*
X-70475940Y82570600D01*
X-70475940Y82149172D01*
X-70473058Y82119908D01*
X-70450660Y82065836D01*
X-70409276Y82024452D01*
X-70355204Y82002054D01*
X-70296676Y82002054D01*
X-70242604Y82024452D01*
X-70201220Y82065836D01*
X-70178822Y82119908D01*
X-70175940Y82149172D01*
X-70175940Y82570600D01*
X-69754511Y82570600D01*
X-69725247Y82573482D01*
X-69671175Y82595880D01*
X-69629791Y82637264D01*
X-69607393Y82691336D01*
X-69607393Y82749864D01*
X-69629791Y82803936D01*
X-69671175Y82845320D01*
X-69725247Y82867718D01*
X-69754511Y82870600D01*
X-70175940Y82870600D01*
X-70175940Y83292029D01*
X-70178822Y83321293D01*
X-70201220Y83375365D01*
X-70242604Y83416749D01*
X-70296676Y83439147D01*
X-70355204Y83439147D01*
X-70409276Y83416749D01*
X-70450660Y83375365D01*
X-70473058Y83321293D01*
X-70475940Y83292029D01*
X-70475940Y82870600D01*
X-70897368Y82870600D01*
X-70926632Y82867718D01*
X-70980704Y82845320D01*
X-71022088Y82803936D01*
X-71044486Y82749864D01*
X-72247369Y82749864D01*
X-72247369Y82756619D01*
X-72202662Y82846033D01*
X-72165658Y82883037D01*
X-72076244Y82927743D01*
X-71789921Y82927743D01*
X-71700510Y82883038D01*
X-71646293Y82828821D01*
X-71623562Y82810166D01*
X-71616584Y82807276D01*
X-71610738Y82802493D01*
X-71589747Y82796160D01*
X-71569490Y82787769D01*
X-71561938Y82787769D01*
X-71554706Y82785587D01*
X-71532890Y82787769D01*
X-71510964Y82787768D01*
X-71503986Y82790659D01*
X-71496469Y82791410D01*
X-71477150Y82801775D01*
X-71456892Y82810165D01*
X-71451550Y82815508D01*
X-71444894Y82819078D01*
X-71431014Y82836044D01*
X-71415506Y82851550D01*
X-71412616Y82858530D01*
X-71407833Y82864374D01*
X-71401499Y82885369D01*
X-71393109Y82905622D01*
X-71393109Y82913172D01*
X-71390926Y82920406D01*
X-71390970Y82949812D01*
X-71462398Y83664097D01*
X-71464536Y83674762D01*
X-71464536Y83678436D01*
X-71465964Y83681882D01*
X-71468178Y83692929D01*
X-71478543Y83712251D01*
X-71486934Y83732508D01*
X-71492275Y83737849D01*
X-71495845Y83744504D01*
X-71512813Y83758387D01*
X-71528318Y83773892D01*
X-71535298Y83776784D01*
X-71541142Y83781565D01*
X-71562131Y83787899D01*
X-71582390Y83796290D01*
X-71593602Y83797395D01*
X-71597174Y83798472D01*
X-71600832Y83798107D01*
X-71611654Y83799172D01*
X-72325940Y83799172D01*
X-72355204Y83796290D01*
X-72409276Y83773892D01*
X-72450660Y83732508D01*
X-72473058Y83678436D01*
X-72473058Y83619908D01*
X-72450660Y83565836D01*
X-72409276Y83524452D01*
X-72355204Y83502054D01*
X-72325940Y83499172D01*
X-71747403Y83499172D01*
X-71719762Y83222763D01*
X-71720269Y83222799D01*
X-71725247Y83224861D01*
X-71754511Y83227743D01*
X-72111654Y83227743D01*
X-72140918Y83224861D01*
X-72145897Y83222799D01*
X-72151272Y83222417D01*
X-72178735Y83211907D01*
X-72321593Y83140479D01*
X-72334185Y83132553D01*
X-72337846Y83131036D01*
X-72341969Y83127653D01*
X-72346478Y83124814D01*
X-72349073Y83121823D01*
X-72360577Y83112381D01*
X-72432006Y83040952D01*
X-72441446Y83029451D01*
X-72444439Y83026854D01*
X-72447280Y83022341D01*
X-72450661Y83018221D01*
X-72452177Y83014562D01*
X-72460104Y83001968D01*
X-72531533Y82859111D01*
X-72542042Y82831648D01*
X-72542424Y82826274D01*
X-72544487Y82821293D01*
X-72547369Y82792029D01*
X-72953541Y82792029D01*
X-72683637Y83601738D01*
X-72677117Y83630412D01*
X-72681267Y83688792D01*
X-72707441Y83741139D01*
X-72751655Y83779486D01*
X-72807179Y83797995D01*
X-72865559Y83793845D01*
X-72917907Y83767672D01*
X-72956254Y83723457D01*
X-72968242Y83696606D01*
X-73325940Y82623514D01*
X-73683638Y83696606D01*
X-73695626Y83723457D01*
X-73733973Y83767671D01*
X-73786320Y83793845D01*
X-73844701Y83797994D01*
X-73900225Y83779486D01*
X-73944439Y83741139D01*
X-73970613Y83688792D01*
X-73974762Y83630411D01*
X-74141429Y83630411D01*
X-74141429Y83965839D01*
X-69440726Y83965839D01*
X-69440726Y81832505D01*
G37*
G36*
X-72414793Y94704465D02*
G01*
X-72377789Y94667461D01*
X-72333083Y94578049D01*
X-72333083Y94220296D01*
X-72377790Y94130883D01*
X-72414795Y94093878D01*
X-72504207Y94049172D01*
X-72647673Y94049172D01*
X-72737086Y94093878D01*
X-72774090Y94130882D01*
X-72818797Y94220297D01*
X-72818797Y94578048D01*
X-72774090Y94667462D01*
X-72737086Y94704466D01*
X-72647673Y94749172D01*
X-72504207Y94749172D01*
X-72414793Y94704465D01*
G37*
G36*
X-69404511Y94763458D02*
G01*
X-69790530Y94763458D01*
X-69879944Y94808165D01*
X-69916949Y94845170D01*
X-69961654Y94934582D01*
X-69961654Y95078049D01*
X-69916949Y95167460D01*
X-69879944Y95204465D01*
X-69790530Y95249172D01*
X-69404511Y95249172D01*
X-69404511Y94763458D01*
G37*
G36*
X-68937844Y93582505D02*
G01*
X-74282582Y93582505D01*
X-74282582Y94928436D01*
X-74115915Y94928436D01*
X-74115915Y94869908D01*
X-74093517Y94815836D01*
X-74052133Y94774452D01*
X-73998061Y94752054D01*
X-73968797Y94749172D01*
X-73761654Y94749172D01*
X-73761654Y94148868D01*
X-73794887Y94082404D01*
X-73861350Y94049172D01*
X-73968797Y94049172D01*
X-73998061Y94046290D01*
X-74052133Y94023892D01*
X-74093517Y93982508D01*
X-74115915Y93928436D01*
X-74115915Y93869908D01*
X-74093517Y93815836D01*
X-74052133Y93774452D01*
X-73998061Y93752054D01*
X-73968797Y93749172D01*
X-73825940Y93749172D01*
X-73796676Y93752054D01*
X-73791698Y93754117D01*
X-73786322Y93754498D01*
X-73758858Y93765008D01*
X-73616001Y93836436D01*
X-73611107Y93839517D01*
X-73608799Y93840286D01*
X-73605925Y93842779D01*
X-73591115Y93852101D01*
X-73578793Y93866310D01*
X-73564584Y93878632D01*
X-73555262Y93893442D01*
X-73552769Y93896316D01*
X-73552000Y93898624D01*
X-73548919Y93903518D01*
X-73477490Y94046376D01*
X-73466980Y94073839D01*
X-73466598Y94079217D01*
X-73464536Y94084194D01*
X-73461654Y94113458D01*
X-73461654Y94613458D01*
X-73118797Y94613458D01*
X-73118797Y94184886D01*
X-73115915Y94155622D01*
X-73113852Y94150642D01*
X-73113470Y94145267D01*
X-73102961Y94117804D01*
X-73031532Y93974947D01*
X-73023604Y93962352D01*
X-73022089Y93958695D01*
X-73018710Y93954578D01*
X-73015867Y93950061D01*
X-73012873Y93947464D01*
X-73003435Y93935964D01*
X-72932007Y93864535D01*
X-72920502Y93855093D01*
X-72917907Y93852101D01*
X-72913397Y93849262D01*
X-72909276Y93845880D01*
X-72905617Y93844365D01*
X-72893022Y93836436D01*
X-72750164Y93765008D01*
X-72722701Y93754498D01*
X-72717326Y93754117D01*
X-72712347Y93752054D01*
X-72683083Y93749172D01*
X-72468797Y93749172D01*
X-72439533Y93752054D01*
X-72434555Y93754117D01*
X-72429179Y93754498D01*
X-72401715Y93765008D01*
X-72258858Y93836436D01*
X-72246265Y93844364D01*
X-72242605Y93845879D01*
X-72238486Y93849261D01*
X-72233972Y93852101D01*
X-72231376Y93855095D01*
X-72219874Y93864534D01*
X-72166474Y93917934D01*
X-71831905Y93917934D01*
X-71827757Y93859554D01*
X-71801582Y93807205D01*
X-71757367Y93768858D01*
X-71701845Y93750350D01*
X-71643465Y93754498D01*
X-71616001Y93765008D01*
X-71473144Y93836436D01*
X-71468250Y93839517D01*
X-71465942Y93840286D01*
X-71463068Y93842779D01*
X-71448258Y93852101D01*
X-71435936Y93866310D01*
X-71421727Y93878632D01*
X-71412405Y93893442D01*
X-71409912Y93896316D01*
X-71409143Y93898624D01*
X-71406062Y93903518D01*
X-71334633Y94046376D01*
X-71324123Y94073839D01*
X-71323741Y94079217D01*
X-71321679Y94084194D01*
X-71318797Y94113458D01*
X-71318797Y94899172D01*
X-70904511Y94899172D01*
X-70904511Y93899172D01*
X-70901629Y93869908D01*
X-70879231Y93815836D01*
X-70837847Y93774452D01*
X-70783775Y93752054D01*
X-70725247Y93752054D01*
X-70671175Y93774452D01*
X-70629791Y93815836D01*
X-70607393Y93869908D01*
X-70604511Y93899172D01*
X-70604511Y94899172D01*
X-70607393Y94928436D01*
X-70629791Y94982508D01*
X-70671175Y95023892D01*
X-70725247Y95046290D01*
X-70783775Y95046290D01*
X-70837847Y95023892D01*
X-70879231Y94982508D01*
X-70901629Y94928436D01*
X-70904511Y94899172D01*
X-71318797Y94899172D01*
X-71318797Y95357005D01*
X-70973058Y95357005D01*
X-70973058Y95298479D01*
X-70967714Y95285579D01*
X-70950661Y95244408D01*
X-70950660Y95244407D01*
X-70932005Y95221676D01*
X-70860576Y95150248D01*
X-70837847Y95131595D01*
X-70837846Y95131594D01*
X-70806172Y95118475D01*
X-70783775Y95109197D01*
X-70783774Y95109197D01*
X-70783773Y95109197D01*
X-70725248Y95109197D01*
X-70725247Y95109197D01*
X-70714961Y95113458D01*
X-70261654Y95113458D01*
X-70261654Y94899172D01*
X-70258772Y94869908D01*
X-70256710Y94864930D01*
X-70256328Y94859554D01*
X-70245818Y94832090D01*
X-70174390Y94689233D01*
X-70166463Y94676640D01*
X-70164947Y94672980D01*
X-70161566Y94668861D01*
X-70158725Y94664347D01*
X-70155732Y94661751D01*
X-70146292Y94650249D01*
X-70074863Y94578820D01*
X-70063359Y94569379D01*
X-70060764Y94566387D01*
X-70056255Y94563549D01*
X-70052132Y94560165D01*
X-70048471Y94558649D01*
X-70035879Y94550722D01*
X-69893021Y94479294D01*
X-69865558Y94468784D01*
X-69860183Y94468403D01*
X-69855204Y94466340D01*
X-69825940Y94463458D01*
X-69404511Y94463458D01*
X-69404511Y93899172D01*
X-69401629Y93869908D01*
X-69379231Y93815836D01*
X-69337847Y93774452D01*
X-69283775Y93752054D01*
X-69225247Y93752054D01*
X-69171175Y93774452D01*
X-69129791Y93815836D01*
X-69107393Y93869908D01*
X-69104511Y93899172D01*
X-69104511Y95399172D01*
X-69107393Y95428436D01*
X-69129791Y95482508D01*
X-69171175Y95523892D01*
X-69225247Y95546290D01*
X-69254511Y95549172D01*
X-69825940Y95549172D01*
X-69855204Y95546290D01*
X-69860185Y95544227D01*
X-69865559Y95543845D01*
X-69893023Y95533336D01*
X-70035879Y95461907D01*
X-70048473Y95453980D01*
X-70052132Y95452464D01*
X-70056253Y95449083D01*
X-70060765Y95446242D01*
X-70063362Y95443249D01*
X-70074862Y95433810D01*
X-70146291Y95362382D01*
X-70155731Y95350880D01*
X-70158725Y95348283D01*
X-70161567Y95343769D01*
X-70164946Y95339651D01*
X-70166462Y95335993D01*
X-70174390Y95323397D01*
X-70245818Y95180540D01*
X-70256328Y95153076D01*
X-70256710Y95147701D01*
X-70258772Y95142722D01*
X-70261654Y95113458D01*
X-70714961Y95113458D01*
X-70702850Y95118475D01*
X-70671176Y95131594D01*
X-70648445Y95150249D01*
X-70577017Y95221677D01*
X-70558362Y95244407D01*
X-70535966Y95298480D01*
X-70535966Y95324888D01*
X-70535965Y95357005D01*
X-70558362Y95411078D01*
X-70577016Y95433808D01*
X-70648444Y95505237D01*
X-70671175Y95523892D01*
X-70671176Y95523893D01*
X-70702850Y95537013D01*
X-70725247Y95546290D01*
X-70783775Y95546290D01*
X-70806172Y95537013D01*
X-70837846Y95523893D01*
X-70860577Y95505238D01*
X-70932006Y95433809D01*
X-70950661Y95411078D01*
X-70970831Y95362381D01*
X-70973058Y95357005D01*
X-71318797Y95357005D01*
X-71318797Y95399172D01*
X-71321679Y95428436D01*
X-71344077Y95482508D01*
X-71385461Y95523892D01*
X-71439533Y95546290D01*
X-71498061Y95546290D01*
X-71552133Y95523892D01*
X-71593517Y95482508D01*
X-71615915Y95428436D01*
X-71618797Y95399172D01*
X-71618797Y94148868D01*
X-71652030Y94082404D01*
X-71750165Y94033336D01*
X-71775050Y94017671D01*
X-71813397Y93973456D01*
X-71831905Y93917934D01*
X-72166474Y93917934D01*
X-72148445Y93935963D01*
X-72139004Y93947468D01*
X-72136012Y93950062D01*
X-72133174Y93954572D01*
X-72129790Y93958694D01*
X-72128274Y93962356D01*
X-72120347Y93974947D01*
X-72048919Y94117805D01*
X-72038409Y94145268D01*
X-72038028Y94150644D01*
X-72035965Y94155622D01*
X-72033083Y94184886D01*
X-72033083Y94613458D01*
X-72035965Y94642722D01*
X-72038028Y94647701D01*
X-72038409Y94653076D01*
X-72048919Y94680539D01*
X-72120347Y94823397D01*
X-72128276Y94835992D01*
X-72129791Y94839651D01*
X-72133173Y94843772D01*
X-72136012Y94848282D01*
X-72139004Y94850877D01*
X-72148446Y94862382D01*
X-72219875Y94933810D01*
X-72231375Y94943248D01*
X-72233972Y94946242D01*
X-72238489Y94949085D01*
X-72242606Y94952464D01*
X-72246263Y94953979D01*
X-72258858Y94961907D01*
X-72401715Y95033336D01*
X-72429178Y95043845D01*
X-72434553Y95044227D01*
X-72439533Y95046290D01*
X-72468797Y95049172D01*
X-72683083Y95049172D01*
X-72712347Y95046290D01*
X-72717328Y95044227D01*
X-72722702Y95043845D01*
X-72750166Y95033336D01*
X-72893022Y94961907D01*
X-72905614Y94953981D01*
X-72909276Y94952464D01*
X-72913399Y94949081D01*
X-72917908Y94946242D01*
X-72920504Y94943250D01*
X-72932006Y94933809D01*
X-73003434Y94862381D01*
X-73012874Y94850880D01*
X-73015867Y94848283D01*
X-73018708Y94843770D01*
X-73022089Y94839650D01*
X-73023605Y94835991D01*
X-73031532Y94823397D01*
X-73102961Y94680540D01*
X-73113470Y94653077D01*
X-73113852Y94647703D01*
X-73115915Y94642722D01*
X-73118797Y94613458D01*
X-73461654Y94613458D01*
X-73461654Y94749172D01*
X-73397369Y94749172D01*
X-73368105Y94752054D01*
X-73314033Y94774452D01*
X-73272649Y94815836D01*
X-73250251Y94869908D01*
X-73250251Y94928436D01*
X-73272649Y94982508D01*
X-73314033Y95023892D01*
X-73368105Y95046290D01*
X-73397369Y95049172D01*
X-73461654Y95049172D01*
X-73461654Y95399172D01*
X-73464536Y95428436D01*
X-73486934Y95482508D01*
X-73528318Y95523892D01*
X-73582390Y95546290D01*
X-73640918Y95546290D01*
X-73694990Y95523892D01*
X-73736374Y95482508D01*
X-73758772Y95428436D01*
X-73761654Y95399172D01*
X-73761654Y95049172D01*
X-73968797Y95049172D01*
X-73998061Y95046290D01*
X-74052133Y95023892D01*
X-74093517Y94982508D01*
X-74115915Y94928436D01*
X-74282582Y94928436D01*
X-74282582Y95715839D01*
X-68937844Y95715839D01*
X-68937844Y93582505D01*
G37*
G36*
X-72414793Y90654465D02*
G01*
X-72377789Y90617461D01*
X-72333083Y90528049D01*
X-72333083Y90170296D01*
X-72377790Y90080883D01*
X-72414795Y90043878D01*
X-72504207Y89999172D01*
X-72647673Y89999172D01*
X-72737086Y90043878D01*
X-72774090Y90080882D01*
X-72818797Y90170297D01*
X-72818797Y90528048D01*
X-72774090Y90617462D01*
X-72737086Y90654466D01*
X-72647673Y90699172D01*
X-72504207Y90699172D01*
X-72414793Y90654465D01*
G37*
G36*
X-69404511Y90713458D02*
G01*
X-69790530Y90713458D01*
X-69879944Y90758165D01*
X-69916949Y90795170D01*
X-69961654Y90884582D01*
X-69961654Y91028049D01*
X-69916949Y91117460D01*
X-69879944Y91154465D01*
X-69790530Y91199172D01*
X-69404511Y91199172D01*
X-69404511Y90713458D01*
G37*
G36*
X-68937844Y89532505D02*
G01*
X-74282582Y89532505D01*
X-74282582Y90878436D01*
X-74115915Y90878436D01*
X-74115915Y90819908D01*
X-74093517Y90765836D01*
X-74052133Y90724452D01*
X-73998061Y90702054D01*
X-73968797Y90699172D01*
X-73761654Y90699172D01*
X-73761654Y90098868D01*
X-73794887Y90032404D01*
X-73861350Y89999172D01*
X-73968797Y89999172D01*
X-73998061Y89996290D01*
X-74052133Y89973892D01*
X-74093517Y89932508D01*
X-74115915Y89878436D01*
X-74115915Y89819908D01*
X-74093517Y89765836D01*
X-74052133Y89724452D01*
X-73998061Y89702054D01*
X-73968797Y89699172D01*
X-73825940Y89699172D01*
X-73796676Y89702054D01*
X-73791698Y89704117D01*
X-73786322Y89704498D01*
X-73758858Y89715008D01*
X-73616001Y89786436D01*
X-73611107Y89789517D01*
X-73608799Y89790286D01*
X-73605925Y89792779D01*
X-73591115Y89802101D01*
X-73578793Y89816310D01*
X-73564584Y89828632D01*
X-73555262Y89843442D01*
X-73552769Y89846316D01*
X-73552000Y89848624D01*
X-73548919Y89853518D01*
X-73477490Y89996376D01*
X-73466980Y90023839D01*
X-73466598Y90029217D01*
X-73464536Y90034194D01*
X-73461654Y90063458D01*
X-73461654Y90563458D01*
X-73118797Y90563458D01*
X-73118797Y90134886D01*
X-73115915Y90105622D01*
X-73113852Y90100642D01*
X-73113470Y90095267D01*
X-73102961Y90067804D01*
X-73031532Y89924947D01*
X-73023604Y89912352D01*
X-73022089Y89908695D01*
X-73018710Y89904578D01*
X-73015867Y89900061D01*
X-73012873Y89897464D01*
X-73003435Y89885964D01*
X-72932007Y89814535D01*
X-72920502Y89805093D01*
X-72917907Y89802101D01*
X-72913397Y89799262D01*
X-72909276Y89795880D01*
X-72905617Y89794365D01*
X-72893022Y89786436D01*
X-72750164Y89715008D01*
X-72722701Y89704498D01*
X-72717326Y89704117D01*
X-72712347Y89702054D01*
X-72683083Y89699172D01*
X-72468797Y89699172D01*
X-72439533Y89702054D01*
X-72434555Y89704117D01*
X-72429179Y89704498D01*
X-72401715Y89715008D01*
X-72258858Y89786436D01*
X-72246265Y89794364D01*
X-72242605Y89795879D01*
X-72238486Y89799261D01*
X-72233972Y89802101D01*
X-72231376Y89805095D01*
X-72219874Y89814534D01*
X-72166474Y89867934D01*
X-71831905Y89867934D01*
X-71827757Y89809554D01*
X-71801582Y89757205D01*
X-71757367Y89718858D01*
X-71701845Y89700350D01*
X-71643465Y89704498D01*
X-71616001Y89715008D01*
X-71473144Y89786436D01*
X-71468250Y89789517D01*
X-71465942Y89790286D01*
X-71463068Y89792779D01*
X-71448258Y89802101D01*
X-71435936Y89816310D01*
X-71421727Y89828632D01*
X-71412405Y89843442D01*
X-71409912Y89846316D01*
X-71409143Y89848624D01*
X-71406062Y89853518D01*
X-71334633Y89996376D01*
X-71324123Y90023839D01*
X-71323741Y90029217D01*
X-71321679Y90034194D01*
X-71318797Y90063458D01*
X-71318797Y90849172D01*
X-70904511Y90849172D01*
X-70904511Y89849172D01*
X-70901629Y89819908D01*
X-70879231Y89765836D01*
X-70837847Y89724452D01*
X-70783775Y89702054D01*
X-70725247Y89702054D01*
X-70671175Y89724452D01*
X-70629791Y89765836D01*
X-70607393Y89819908D01*
X-70604511Y89849172D01*
X-70604511Y90849172D01*
X-70607393Y90878436D01*
X-70629791Y90932508D01*
X-70671175Y90973892D01*
X-70725247Y90996290D01*
X-70783775Y90996290D01*
X-70837847Y90973892D01*
X-70879231Y90932508D01*
X-70901629Y90878436D01*
X-70904511Y90849172D01*
X-71318797Y90849172D01*
X-71318797Y91307005D01*
X-70973058Y91307005D01*
X-70973058Y91248479D01*
X-70967714Y91235579D01*
X-70950661Y91194408D01*
X-70950660Y91194407D01*
X-70932005Y91171676D01*
X-70860576Y91100248D01*
X-70837847Y91081595D01*
X-70837846Y91081594D01*
X-70806172Y91068475D01*
X-70783775Y91059197D01*
X-70783774Y91059197D01*
X-70783773Y91059197D01*
X-70725248Y91059197D01*
X-70725247Y91059197D01*
X-70714961Y91063458D01*
X-70261654Y91063458D01*
X-70261654Y90849172D01*
X-70258772Y90819908D01*
X-70256710Y90814930D01*
X-70256328Y90809554D01*
X-70245818Y90782090D01*
X-70174390Y90639233D01*
X-70166463Y90626640D01*
X-70164947Y90622980D01*
X-70161566Y90618861D01*
X-70158725Y90614347D01*
X-70155732Y90611751D01*
X-70146292Y90600249D01*
X-70074863Y90528820D01*
X-70063359Y90519379D01*
X-70060764Y90516387D01*
X-70056255Y90513549D01*
X-70052132Y90510165D01*
X-70048471Y90508649D01*
X-70035879Y90500722D01*
X-69893021Y90429294D01*
X-69865558Y90418784D01*
X-69860183Y90418403D01*
X-69855204Y90416340D01*
X-69825940Y90413458D01*
X-69404511Y90413458D01*
X-69404511Y89849172D01*
X-69401629Y89819908D01*
X-69379231Y89765836D01*
X-69337847Y89724452D01*
X-69283775Y89702054D01*
X-69225247Y89702054D01*
X-69171175Y89724452D01*
X-69129791Y89765836D01*
X-69107393Y89819908D01*
X-69104511Y89849172D01*
X-69104511Y91349172D01*
X-69107393Y91378436D01*
X-69129791Y91432508D01*
X-69171175Y91473892D01*
X-69225247Y91496290D01*
X-69254511Y91499172D01*
X-69825940Y91499172D01*
X-69855204Y91496290D01*
X-69860185Y91494227D01*
X-69865559Y91493845D01*
X-69893023Y91483336D01*
X-70035879Y91411907D01*
X-70048473Y91403980D01*
X-70052132Y91402464D01*
X-70056253Y91399083D01*
X-70060765Y91396242D01*
X-70063362Y91393249D01*
X-70074862Y91383810D01*
X-70146291Y91312382D01*
X-70155731Y91300880D01*
X-70158725Y91298283D01*
X-70161567Y91293769D01*
X-70164946Y91289651D01*
X-70166462Y91285993D01*
X-70174390Y91273397D01*
X-70245818Y91130540D01*
X-70256328Y91103076D01*
X-70256710Y91097701D01*
X-70258772Y91092722D01*
X-70261654Y91063458D01*
X-70714961Y91063458D01*
X-70702850Y91068475D01*
X-70671176Y91081594D01*
X-70648445Y91100249D01*
X-70577017Y91171677D01*
X-70558362Y91194407D01*
X-70535966Y91248480D01*
X-70535966Y91274888D01*
X-70535965Y91307005D01*
X-70558362Y91361078D01*
X-70577016Y91383808D01*
X-70648444Y91455237D01*
X-70671175Y91473892D01*
X-70671176Y91473893D01*
X-70702850Y91487013D01*
X-70725247Y91496290D01*
X-70783775Y91496290D01*
X-70806172Y91487013D01*
X-70837846Y91473893D01*
X-70860577Y91455238D01*
X-70932006Y91383809D01*
X-70950661Y91361078D01*
X-70970831Y91312381D01*
X-70973058Y91307005D01*
X-71318797Y91307005D01*
X-71318797Y91349172D01*
X-71321679Y91378436D01*
X-71344077Y91432508D01*
X-71385461Y91473892D01*
X-71439533Y91496290D01*
X-71498061Y91496290D01*
X-71552133Y91473892D01*
X-71593517Y91432508D01*
X-71615915Y91378436D01*
X-71618797Y91349172D01*
X-71618797Y90098868D01*
X-71652030Y90032404D01*
X-71750165Y89983336D01*
X-71775050Y89967671D01*
X-71813397Y89923456D01*
X-71831905Y89867934D01*
X-72166474Y89867934D01*
X-72148445Y89885963D01*
X-72139004Y89897468D01*
X-72136012Y89900062D01*
X-72133174Y89904572D01*
X-72129790Y89908694D01*
X-72128274Y89912356D01*
X-72120347Y89924947D01*
X-72048919Y90067805D01*
X-72038409Y90095268D01*
X-72038028Y90100644D01*
X-72035965Y90105622D01*
X-72033083Y90134886D01*
X-72033083Y90563458D01*
X-72035965Y90592722D01*
X-72038028Y90597701D01*
X-72038409Y90603076D01*
X-72048919Y90630539D01*
X-72120347Y90773397D01*
X-72128276Y90785992D01*
X-72129791Y90789651D01*
X-72133173Y90793772D01*
X-72136012Y90798282D01*
X-72139004Y90800877D01*
X-72148446Y90812382D01*
X-72219875Y90883810D01*
X-72231375Y90893248D01*
X-72233972Y90896242D01*
X-72238489Y90899085D01*
X-72242606Y90902464D01*
X-72246263Y90903979D01*
X-72258858Y90911907D01*
X-72401715Y90983336D01*
X-72429178Y90993845D01*
X-72434553Y90994227D01*
X-72439533Y90996290D01*
X-72468797Y90999172D01*
X-72683083Y90999172D01*
X-72712347Y90996290D01*
X-72717328Y90994227D01*
X-72722702Y90993845D01*
X-72750166Y90983336D01*
X-72893022Y90911907D01*
X-72905614Y90903981D01*
X-72909276Y90902464D01*
X-72913399Y90899081D01*
X-72917908Y90896242D01*
X-72920504Y90893250D01*
X-72932006Y90883809D01*
X-73003434Y90812381D01*
X-73012874Y90800880D01*
X-73015867Y90798283D01*
X-73018708Y90793770D01*
X-73022089Y90789650D01*
X-73023605Y90785991D01*
X-73031532Y90773397D01*
X-73102961Y90630540D01*
X-73113470Y90603077D01*
X-73113852Y90597703D01*
X-73115915Y90592722D01*
X-73118797Y90563458D01*
X-73461654Y90563458D01*
X-73461654Y90699172D01*
X-73397369Y90699172D01*
X-73368105Y90702054D01*
X-73314033Y90724452D01*
X-73272649Y90765836D01*
X-73250251Y90819908D01*
X-73250251Y90878436D01*
X-73272649Y90932508D01*
X-73314033Y90973892D01*
X-73368105Y90996290D01*
X-73397369Y90999172D01*
X-73461654Y90999172D01*
X-73461654Y91349172D01*
X-73464536Y91378436D01*
X-73486934Y91432508D01*
X-73528318Y91473892D01*
X-73582390Y91496290D01*
X-73640918Y91496290D01*
X-73694990Y91473892D01*
X-73736374Y91432508D01*
X-73758772Y91378436D01*
X-73761654Y91349172D01*
X-73761654Y90999172D01*
X-73968797Y90999172D01*
X-73998061Y90996290D01*
X-74052133Y90973892D01*
X-74093517Y90932508D01*
X-74115915Y90878436D01*
X-74282582Y90878436D01*
X-74282582Y91665839D01*
X-68937844Y91665839D01*
X-68937844Y89532505D01*
G37*
G36*
X8300071Y83281671D02*
G01*
X8406431Y83228490D01*
X8507037Y83127884D01*
X8559571Y82970283D01*
X8559571Y82787482D01*
X7359571Y82787482D01*
X7359571Y82970285D01*
X7412104Y83127884D01*
X7512711Y83228491D01*
X7619070Y83281670D01*
X7870892Y83344625D01*
X8048250Y83344625D01*
X8300071Y83281671D01*
G37*
G36*
X9026238Y79892244D02*
G01*
X6892904Y79892244D01*
X6892904Y80238175D01*
X7062453Y80238175D01*
X7062453Y80179647D01*
X7084851Y80125575D01*
X7126235Y80084191D01*
X7180307Y80061793D01*
X7209571Y80058911D01*
X8709571Y80058911D01*
X8738835Y80061793D01*
X8792907Y80084191D01*
X8834291Y80125575D01*
X8856689Y80179647D01*
X8859571Y80208911D01*
X8859571Y80923197D01*
X8856689Y80952461D01*
X8834291Y81006533D01*
X8792907Y81047917D01*
X8738835Y81070315D01*
X8680307Y81070315D01*
X8626235Y81047917D01*
X8584851Y81006533D01*
X8562453Y80952461D01*
X8559571Y80923197D01*
X8559571Y80358911D01*
X8145285Y80358911D01*
X8145285Y80708911D01*
X8142403Y80738175D01*
X8120005Y80792247D01*
X8078621Y80833631D01*
X8024549Y80856029D01*
X7966021Y80856029D01*
X7911949Y80833631D01*
X7870565Y80792247D01*
X7848167Y80738175D01*
X7845285Y80708911D01*
X7845285Y80358911D01*
X7209571Y80358911D01*
X7180307Y80356029D01*
X7126235Y80333631D01*
X7084851Y80292247D01*
X7062453Y80238175D01*
X6892904Y80238175D01*
X6892904Y81738175D01*
X7062453Y81738175D01*
X7062453Y81679647D01*
X7084851Y81625575D01*
X7126235Y81584191D01*
X7180307Y81561793D01*
X7209571Y81558911D01*
X8559571Y81558911D01*
X8559571Y81280340D01*
X8562453Y81251076D01*
X8584851Y81197004D01*
X8626235Y81155620D01*
X8680307Y81133222D01*
X8738835Y81133222D01*
X8792907Y81155620D01*
X8834291Y81197004D01*
X8856689Y81251076D01*
X8859571Y81280340D01*
X8859571Y82137482D01*
X8856689Y82166746D01*
X8834291Y82220818D01*
X8792907Y82262202D01*
X8738835Y82284600D01*
X8680307Y82284600D01*
X8626235Y82262202D01*
X8584851Y82220818D01*
X8562453Y82166746D01*
X8559571Y82137482D01*
X8559571Y81858911D01*
X7209571Y81858911D01*
X7180307Y81856029D01*
X7126235Y81833631D01*
X7084851Y81792247D01*
X7062453Y81738175D01*
X6892904Y81738175D01*
X6892904Y82994625D01*
X7059571Y82994625D01*
X7059571Y82637482D01*
X7062453Y82608218D01*
X7084851Y82554146D01*
X7126235Y82512762D01*
X7180307Y82490364D01*
X7209571Y82487482D01*
X8709571Y82487482D01*
X8738835Y82490364D01*
X8792907Y82512762D01*
X8834291Y82554146D01*
X8856689Y82608218D01*
X8859571Y82637482D01*
X8859571Y82994625D01*
X8858112Y83009437D01*
X8858393Y83013386D01*
X8857211Y83018581D01*
X8856689Y83023889D01*
X8855172Y83027551D01*
X8851873Y83042060D01*
X8780444Y83256345D01*
X8768456Y83283196D01*
X8764926Y83287266D01*
X8762863Y83292247D01*
X8744208Y83314977D01*
X8601351Y83457834D01*
X8589849Y83467274D01*
X8587253Y83470267D01*
X8582739Y83473108D01*
X8578620Y83476489D01*
X8574960Y83478005D01*
X8562367Y83485932D01*
X8419510Y83557361D01*
X8417369Y83558181D01*
X8416499Y83558825D01*
X8404221Y83563212D01*
X8392047Y83567870D01*
X8390966Y83567947D01*
X8388808Y83568718D01*
X8103094Y83640146D01*
X8098022Y83640896D01*
X8095978Y83641743D01*
X8084955Y83642829D01*
X8074005Y83644448D01*
X8071817Y83644123D01*
X8066714Y83644625D01*
X7852428Y83644625D01*
X7847324Y83644123D01*
X7845137Y83644448D01*
X7834186Y83642829D01*
X7823164Y83641743D01*
X7821119Y83640896D01*
X7816048Y83640146D01*
X7530334Y83568718D01*
X7528175Y83567947D01*
X7527095Y83567870D01*
X7514914Y83563210D01*
X7502643Y83558825D01*
X7501773Y83558181D01*
X7499631Y83557361D01*
X7356775Y83485932D01*
X7344183Y83478006D01*
X7340521Y83476489D01*
X7336398Y83473106D01*
X7331889Y83470267D01*
X7329293Y83467275D01*
X7317791Y83457834D01*
X7174934Y83314977D01*
X7156279Y83292246D01*
X7154216Y83287267D01*
X7150686Y83283196D01*
X7138697Y83256345D01*
X7067269Y83042059D01*
X7063970Y83027552D01*
X7062453Y83023889D01*
X7061930Y83018581D01*
X7060749Y83013386D01*
X7061029Y83009437D01*
X7059571Y82994625D01*
X6892904Y82994625D01*
X6892904Y84166746D01*
X7062453Y84166746D01*
X7062453Y84108218D01*
X7084851Y84054146D01*
X7126235Y84012762D01*
X7180307Y83990364D01*
X7209571Y83987482D01*
X8709571Y83987482D01*
X8738835Y83990364D01*
X8792907Y84012762D01*
X8834291Y84054146D01*
X8856689Y84108218D01*
X8856689Y84166746D01*
X8834291Y84220818D01*
X8792907Y84262202D01*
X8738835Y84284600D01*
X8709571Y84287482D01*
X7209571Y84287482D01*
X7180307Y84284600D01*
X7126235Y84262202D01*
X7084851Y84220818D01*
X7062453Y84166746D01*
X6892904Y84166746D01*
X6892904Y84454149D01*
X9026238Y84454149D01*
X9026238Y79892244D01*
G37*
D12*
G36*
X-61658180Y17512400D02*
G01*
X-62457465Y17512400D01*
X-62457465Y19446804D01*
X-63751952Y19446804D01*
X-63979924Y19477655D01*
X-64123717Y19557667D01*
X-64208886Y19683102D01*
X-64240132Y19870260D01*
X-64240132Y20130684D01*
X-63434131Y20130684D01*
X-62457465Y20130684D01*
X-62457465Y22182324D01*
X-63434131Y22182324D01*
X-63434131Y20130684D01*
X-64240132Y20130684D01*
X-64240132Y22442748D01*
X-64208886Y22629905D01*
X-64123717Y22755341D01*
X-63979924Y22835352D01*
X-63751952Y22866204D01*
X-61658180Y22866204D01*
X-61658180Y17512400D01*
G37*
G36*
X-67025416Y17512400D02*
G01*
X-64808913Y17512400D01*
X-64808913Y22866204D01*
X-67004961Y22866204D01*
X-67004961Y22162784D01*
X-65608197Y22162784D01*
X-65608197Y20599630D01*
X-66810483Y20599630D01*
X-66810483Y19915750D01*
X-65608197Y19915750D01*
X-65608197Y18215820D01*
X-67025416Y18215820D01*
X-67025416Y17512400D01*
G37*
G36*
X-25758668Y17793600D02*
G01*
X-23658180Y17793600D01*
X-23658180Y23147404D01*
X-24457465Y23147404D01*
X-24457465Y18516559D01*
X-25758668Y18516559D01*
X-25758668Y17793600D01*
G37*
G36*
X-4366528Y17793600D02*
G01*
X-3666467Y17793600D01*
X-2385718Y21163236D01*
X-2425785Y20929172D01*
X-2436704Y20776722D01*
X-2436704Y17793600D01*
X-1658180Y17793600D01*
X-1658180Y23147404D01*
X-2358241Y23147404D01*
X-3638989Y19846156D01*
X-3598922Y20080220D01*
X-3588004Y20232671D01*
X-3588004Y23147404D01*
X-4366528Y23147404D01*
X-4366528Y17793600D01*
G37*
D13*
G36*
X-73439667Y65252590D02*
G01*
X-73409260Y65222183D01*
X-73375002Y65153667D01*
X-73375002Y64903363D01*
X-73409261Y64834847D01*
X-73439668Y64804439D01*
X-73508183Y64770181D01*
X-73615630Y64770181D01*
X-73684146Y64804439D01*
X-73714553Y64834847D01*
X-73748811Y64903363D01*
X-73748811Y65153667D01*
X-73714553Y65222183D01*
X-73684146Y65252590D01*
X-73615630Y65286848D01*
X-73508183Y65286848D01*
X-73439667Y65252590D01*
G37*
G36*
X-70070189Y65258328D02*
G01*
X-70041668Y65201286D01*
X-70041668Y65120001D01*
X-70367858Y65185239D01*
X-70367858Y65201286D01*
X-70339338Y65258328D01*
X-70282296Y65286848D01*
X-70127230Y65286848D01*
X-70070189Y65258328D01*
G37*
G36*
X-66637699Y64509070D02*
G01*
X-75960862Y64509070D01*
X-75960862Y64709813D01*
X-75849751Y64709813D01*
X-75849751Y64680549D01*
X-75838552Y64653513D01*
X-75817860Y64632821D01*
X-75790824Y64621622D01*
X-75776192Y64620181D01*
X-75204764Y64620181D01*
X-75190132Y64621622D01*
X-75163096Y64632821D01*
X-75142404Y64653513D01*
X-75131205Y64680549D01*
X-75131205Y64704562D01*
X-74945841Y64704562D01*
X-74943767Y64675372D01*
X-74930680Y64649197D01*
X-74908572Y64630024D01*
X-74880811Y64620770D01*
X-74851621Y64622844D01*
X-74837889Y64628099D01*
X-74742651Y64675718D01*
X-74740204Y64677259D01*
X-74739050Y64677643D01*
X-74737614Y64678889D01*
X-74730208Y64683550D01*
X-74724047Y64690655D01*
X-74716942Y64696816D01*
X-74712281Y64704222D01*
X-74711035Y64705658D01*
X-74710651Y64706812D01*
X-74709110Y64709259D01*
X-74661491Y64804498D01*
X-74656236Y64818230D01*
X-74656046Y64820918D01*
X-74655014Y64823407D01*
X-74653573Y64838039D01*
X-74653573Y65361848D01*
X-74327383Y65361848D01*
X-74327383Y64695181D01*
X-74325942Y64680549D01*
X-74314743Y64653513D01*
X-74294051Y64632821D01*
X-74267015Y64621622D01*
X-74237751Y64621622D01*
X-74210715Y64632821D01*
X-74190023Y64653513D01*
X-74178824Y64680549D01*
X-74177383Y64695181D01*
X-74177383Y65171372D01*
X-73898811Y65171372D01*
X-73898811Y64885658D01*
X-73897370Y64871026D01*
X-73896339Y64868537D01*
X-73896148Y64865849D01*
X-73890893Y64852117D01*
X-73843274Y64756879D01*
X-73839311Y64750583D01*
X-73838553Y64748753D01*
X-73836864Y64746695D01*
X-73835442Y64744436D01*
X-73833944Y64743137D01*
X-73829226Y64737388D01*
X-73781607Y64689768D01*
X-73775858Y64685050D01*
X-73774557Y64683550D01*
X-73772298Y64682128D01*
X-73770241Y64680440D01*
X-73768414Y64679683D01*
X-73762114Y64675718D01*
X-73666876Y64628099D01*
X-73653145Y64622844D01*
X-73650456Y64622653D01*
X-73647967Y64621622D01*
X-73633335Y64620181D01*
X-73490478Y64620181D01*
X-73475846Y64621622D01*
X-73473357Y64622654D01*
X-73470669Y64622844D01*
X-73456937Y64628099D01*
X-73361699Y64675718D01*
X-73355400Y64679683D01*
X-73353572Y64680440D01*
X-73351516Y64682128D01*
X-73349256Y64683550D01*
X-73347956Y64685050D01*
X-73342206Y64689768D01*
X-73294588Y64737387D01*
X-73289870Y64743137D01*
X-73288371Y64744436D01*
X-73286950Y64746695D01*
X-73285260Y64748753D01*
X-73284503Y64750583D01*
X-73280539Y64756879D01*
X-73232920Y64852117D01*
X-73227665Y64865848D01*
X-73227474Y64868538D01*
X-73226443Y64871026D01*
X-73225002Y64885658D01*
X-73225002Y65171372D01*
X-73226443Y65186004D01*
X-73227474Y65188493D01*
X-73227665Y65191182D01*
X-73232920Y65204913D01*
X-73280539Y65300151D01*
X-73284504Y65306451D01*
X-73285261Y65308278D01*
X-73286950Y65310335D01*
X-73288371Y65312594D01*
X-73289870Y65313894D01*
X-73294588Y65319643D01*
X-73342207Y65367262D01*
X-73347957Y65371981D01*
X-73349256Y65373479D01*
X-73351516Y65374901D01*
X-73353572Y65376589D01*
X-73355400Y65377347D01*
X-73361699Y65381311D01*
X-73456937Y65428930D01*
X-73470669Y65434185D01*
X-73473357Y65434376D01*
X-73475846Y65435407D01*
X-73490478Y65436848D01*
X-73633335Y65436848D01*
X-73647967Y65435407D01*
X-73650456Y65434377D01*
X-73653145Y65434185D01*
X-73666876Y65428930D01*
X-73762114Y65381311D01*
X-73768414Y65377347D01*
X-73770241Y65376589D01*
X-73772298Y65374901D01*
X-73774557Y65373479D01*
X-73775857Y65371981D01*
X-73781606Y65367262D01*
X-73829225Y65319643D01*
X-73833944Y65313894D01*
X-73835442Y65312594D01*
X-73836864Y65310335D01*
X-73838552Y65308278D01*
X-73839310Y65306451D01*
X-73843274Y65300151D01*
X-73890893Y65204913D01*
X-73896148Y65191181D01*
X-73896339Y65188494D01*
X-73897370Y65186004D01*
X-73898811Y65171372D01*
X-74177383Y65171372D01*
X-74177383Y65361848D01*
X-74178824Y65376480D01*
X-74190023Y65403516D01*
X-74210715Y65424208D01*
X-74237751Y65435407D01*
X-74267015Y65435407D01*
X-74294051Y65424208D01*
X-74314743Y65403516D01*
X-74325942Y65376480D01*
X-74327383Y65361848D01*
X-74653573Y65361848D01*
X-74653573Y65662193D01*
X-74373561Y65662193D01*
X-74373561Y65632931D01*
X-74362362Y65605894D01*
X-74353035Y65594529D01*
X-74305416Y65546910D01*
X-74294051Y65537583D01*
X-74267015Y65526384D01*
X-74267014Y65526384D01*
X-74237752Y65526384D01*
X-74237751Y65526384D01*
X-74210715Y65537583D01*
X-74199350Y65546910D01*
X-74151731Y65594529D01*
X-74142404Y65605894D01*
X-74138809Y65614574D01*
X-72992608Y65614574D01*
X-72992608Y65585312D01*
X-72981409Y65558275D01*
X-72960717Y65537583D01*
X-72933680Y65526384D01*
X-72904418Y65526384D01*
X-72877381Y65537583D01*
X-72866016Y65546910D01*
X-72830916Y65582010D01*
X-72716403Y65620181D01*
X-72645505Y65620181D01*
X-72530992Y65582010D01*
X-72456879Y65507897D01*
X-72418386Y65430910D01*
X-72375002Y65257376D01*
X-72375002Y65132987D01*
X-72418386Y64959453D01*
X-72456880Y64882466D01*
X-72530992Y64808353D01*
X-72645505Y64770181D01*
X-72716403Y64770181D01*
X-72830916Y64808352D01*
X-72866015Y64843452D01*
X-72877381Y64852780D01*
X-72904417Y64863979D01*
X-72933680Y64863979D01*
X-72960716Y64852781D01*
X-72981409Y64832088D01*
X-72992608Y64805052D01*
X-72992608Y64775789D01*
X-72981410Y64748753D01*
X-72972083Y64737388D01*
X-72924464Y64689768D01*
X-72913098Y64680440D01*
X-72910610Y64679410D01*
X-72908573Y64677643D01*
X-72895147Y64671649D01*
X-72752291Y64624030D01*
X-72745036Y64622381D01*
X-72743205Y64621622D01*
X-72740552Y64621361D01*
X-72737954Y64620770D01*
X-72735980Y64620911D01*
X-72728573Y64620181D01*
X-72633335Y64620181D01*
X-72625930Y64620911D01*
X-72623955Y64620770D01*
X-72621358Y64621361D01*
X-72618703Y64621622D01*
X-72616872Y64622381D01*
X-72609618Y64624030D01*
X-72466761Y64671649D01*
X-72453336Y64677643D01*
X-72451301Y64679409D01*
X-72448810Y64680440D01*
X-72437445Y64689767D01*
X-72342206Y64785007D01*
X-72337489Y64790756D01*
X-72335990Y64792055D01*
X-72334569Y64794314D01*
X-72332879Y64796372D01*
X-72332122Y64798202D01*
X-72328158Y64804498D01*
X-72280539Y64899736D01*
X-72280130Y64900806D01*
X-72279807Y64901241D01*
X-72277615Y64907378D01*
X-72275284Y64913467D01*
X-72275246Y64914008D01*
X-72274860Y64915087D01*
X-72227241Y65105563D01*
X-72226866Y65108100D01*
X-72226443Y65109121D01*
X-72225901Y65114634D01*
X-72225091Y65120107D01*
X-72225254Y65121200D01*
X-72225002Y65123753D01*
X-72225002Y65266610D01*
X-72225254Y65269164D01*
X-72225091Y65270256D01*
X-72225901Y65275730D01*
X-72226443Y65281242D01*
X-72226866Y65282264D01*
X-72227241Y65284800D01*
X-72250161Y65376480D01*
X-72087846Y65376480D01*
X-72087846Y65347216D01*
X-72076647Y65320180D01*
X-72055955Y65299488D01*
X-72028919Y65288289D01*
X-72014287Y65286848D01*
X-71851192Y65286848D01*
X-71851192Y64855744D01*
X-71879713Y64798702D01*
X-71936754Y64770181D01*
X-72014287Y64770181D01*
X-72028919Y64768740D01*
X-72055955Y64757541D01*
X-72076647Y64736849D01*
X-72087846Y64709813D01*
X-72087846Y64680549D01*
X-72076647Y64653513D01*
X-72055955Y64632821D01*
X-72028919Y64621622D01*
X-72014287Y64620181D01*
X-71919049Y64620181D01*
X-71904417Y64621622D01*
X-71901928Y64622654D01*
X-71899240Y64622844D01*
X-71885508Y64628099D01*
X-71790270Y64675718D01*
X-71787823Y64677259D01*
X-71786669Y64677643D01*
X-71785233Y64678889D01*
X-71777827Y64683550D01*
X-71771666Y64690655D01*
X-71764561Y64696816D01*
X-71759900Y64704222D01*
X-71758654Y64705658D01*
X-71758270Y64706812D01*
X-71756729Y64709259D01*
X-71709110Y64804498D01*
X-71703855Y64818230D01*
X-71703665Y64820918D01*
X-71702633Y64823407D01*
X-71701192Y64838039D01*
X-71701192Y65218991D01*
X-71375001Y65218991D01*
X-71375001Y64695181D01*
X-71373560Y64680549D01*
X-71362361Y64653513D01*
X-71341669Y64632821D01*
X-71314633Y64621622D01*
X-71285369Y64621622D01*
X-71258333Y64632821D01*
X-71237641Y64653513D01*
X-71226442Y64680549D01*
X-71225001Y64695181D01*
X-71225001Y65201286D01*
X-71196481Y65258328D01*
X-71139439Y65286848D01*
X-71031992Y65286848D01*
X-70963476Y65252590D01*
X-70946430Y65235544D01*
X-70946430Y64695181D01*
X-70944989Y64680549D01*
X-70933790Y64653513D01*
X-70913098Y64632821D01*
X-70886062Y64621622D01*
X-70856798Y64621622D01*
X-70829762Y64632821D01*
X-70809070Y64653513D01*
X-70797871Y64680549D01*
X-70796430Y64695181D01*
X-70796430Y65218991D01*
X-70517858Y65218991D01*
X-70517858Y65123753D01*
X-70516417Y65109121D01*
X-70513606Y65102333D01*
X-70512179Y65095124D01*
X-70508060Y65088945D01*
X-70505218Y65082085D01*
X-70500023Y65076890D01*
X-70495947Y65070776D01*
X-70489777Y65066644D01*
X-70484526Y65061393D01*
X-70477738Y65058582D01*
X-70471632Y65054492D01*
X-70457567Y65050209D01*
X-70041668Y64967031D01*
X-70041668Y64855744D01*
X-70070189Y64798702D01*
X-70127230Y64770181D01*
X-70282296Y64770181D01*
X-70361698Y64809882D01*
X-70375430Y64815137D01*
X-70404620Y64817211D01*
X-70432381Y64807957D01*
X-70454489Y64788784D01*
X-70467576Y64762609D01*
X-70469650Y64733419D01*
X-70460396Y64705658D01*
X-70441223Y64683550D01*
X-70428780Y64675718D01*
X-70333542Y64628099D01*
X-70319811Y64622844D01*
X-70317122Y64622653D01*
X-70314633Y64621622D01*
X-70300001Y64620181D01*
X-70109525Y64620181D01*
X-70094893Y64621622D01*
X-70092404Y64622654D01*
X-70089716Y64622844D01*
X-70075984Y64628099D01*
X-69980746Y64675718D01*
X-69978299Y64677259D01*
X-69977145Y64677643D01*
X-69975709Y64678889D01*
X-69968303Y64683550D01*
X-69962142Y64690655D01*
X-69955037Y64696816D01*
X-69950376Y64704222D01*
X-69949130Y64705658D01*
X-69948746Y64706812D01*
X-69947205Y64709259D01*
X-69899586Y64804498D01*
X-69894331Y64818230D01*
X-69894141Y64820918D01*
X-69893109Y64823407D01*
X-69891668Y64838039D01*
X-69891668Y65218991D01*
X-69893109Y65233623D01*
X-69894140Y65236112D01*
X-69894331Y65238801D01*
X-69899586Y65252532D01*
X-69947205Y65347770D01*
X-69948746Y65350218D01*
X-69949130Y65351371D01*
X-69950376Y65352808D01*
X-69955037Y65360213D01*
X-69962142Y65366375D01*
X-69968303Y65373479D01*
X-69973070Y65376480D01*
X-69754512Y65376480D01*
X-69754512Y65347216D01*
X-69743313Y65320180D01*
X-69722621Y65299488D01*
X-69695585Y65288289D01*
X-69680953Y65286848D01*
X-69603420Y65286848D01*
X-69534904Y65252590D01*
X-69504497Y65222183D01*
X-69470239Y65153667D01*
X-69470239Y64695181D01*
X-69468798Y64680549D01*
X-69457599Y64653513D01*
X-69436907Y64632821D01*
X-69409871Y64621622D01*
X-69380607Y64621622D01*
X-69353571Y64632821D01*
X-69332879Y64653513D01*
X-69321680Y64680549D01*
X-69320239Y64695181D01*
X-69320239Y65361848D01*
X-69321680Y65376480D01*
X-69135464Y65376480D01*
X-69135464Y65347216D01*
X-69124265Y65320180D01*
X-69103573Y65299488D01*
X-69076537Y65288289D01*
X-69061905Y65286848D01*
X-68984372Y65286848D01*
X-68915856Y65252590D01*
X-68885449Y65222183D01*
X-68851191Y65153667D01*
X-68851191Y64695181D01*
X-68849750Y64680549D01*
X-68838551Y64653513D01*
X-68817859Y64632821D01*
X-68790823Y64621622D01*
X-68761559Y64621622D01*
X-68734523Y64632821D01*
X-68713831Y64653513D01*
X-68702632Y64680549D01*
X-68701191Y64695181D01*
X-68701191Y65361848D01*
X-68375000Y65361848D01*
X-68375000Y64695181D01*
X-68373559Y64680549D01*
X-68362360Y64653513D01*
X-68341668Y64632821D01*
X-68314632Y64621622D01*
X-68285368Y64621622D01*
X-68258332Y64632821D01*
X-68238931Y64652223D01*
X-68190684Y64628099D01*
X-68176953Y64622844D01*
X-68174264Y64622653D01*
X-68171775Y64621622D01*
X-68157143Y64620181D01*
X-68014286Y64620181D01*
X-67999654Y64621622D01*
X-67997165Y64622654D01*
X-67994477Y64622844D01*
X-67980745Y64628099D01*
X-67885507Y64675718D01*
X-67883060Y64677259D01*
X-67881906Y64677643D01*
X-67880470Y64678889D01*
X-67873064Y64683550D01*
X-67866903Y64690655D01*
X-67859798Y64696816D01*
X-67855137Y64704222D01*
X-67853891Y64705658D01*
X-67853507Y64706812D01*
X-67851966Y64709259D01*
X-67804347Y64804498D01*
X-67799092Y64818230D01*
X-67798902Y64820918D01*
X-67797870Y64823407D01*
X-67796429Y64838039D01*
X-67796429Y65361848D01*
X-67797870Y65376480D01*
X-67809069Y65403516D01*
X-67829761Y65424208D01*
X-67856797Y65435407D01*
X-67886061Y65435407D01*
X-67913097Y65424208D01*
X-67933789Y65403516D01*
X-67944988Y65376480D01*
X-67946429Y65361848D01*
X-67946429Y64855744D01*
X-67974950Y64798702D01*
X-68031991Y64770181D01*
X-68139438Y64770181D01*
X-68207954Y64804439D01*
X-68225000Y64821486D01*
X-68225000Y65361848D01*
X-68226441Y65376480D01*
X-68237640Y65403516D01*
X-68258332Y65424208D01*
X-68285368Y65435407D01*
X-68314632Y65435407D01*
X-68341668Y65424208D01*
X-68362360Y65403516D01*
X-68373559Y65376480D01*
X-68375000Y65361848D01*
X-68701191Y65361848D01*
X-68702632Y65376480D01*
X-68713831Y65403516D01*
X-68734523Y65424208D01*
X-68761559Y65435407D01*
X-68790823Y65435407D01*
X-68817859Y65424208D01*
X-68838551Y65403516D01*
X-68846057Y65385396D01*
X-68933126Y65428930D01*
X-68946858Y65434185D01*
X-68949546Y65434376D01*
X-68952035Y65435407D01*
X-68966667Y65436848D01*
X-69061905Y65436848D01*
X-69076537Y65435407D01*
X-69103573Y65424208D01*
X-69124265Y65403516D01*
X-69135464Y65376480D01*
X-69321680Y65376480D01*
X-69332879Y65403516D01*
X-69353571Y65424208D01*
X-69380607Y65435407D01*
X-69409871Y65435407D01*
X-69436907Y65424208D01*
X-69457599Y65403516D01*
X-69465105Y65385396D01*
X-69552174Y65428930D01*
X-69565906Y65434185D01*
X-69568594Y65434376D01*
X-69571083Y65435407D01*
X-69585715Y65436848D01*
X-69680953Y65436848D01*
X-69695585Y65435407D01*
X-69722621Y65424208D01*
X-69743313Y65403516D01*
X-69754512Y65376480D01*
X-69973070Y65376480D01*
X-69975709Y65378141D01*
X-69977145Y65379386D01*
X-69978299Y65379771D01*
X-69980746Y65381311D01*
X-70075984Y65428930D01*
X-70089716Y65434185D01*
X-70092404Y65434376D01*
X-70094893Y65435407D01*
X-70109525Y65436848D01*
X-70300001Y65436848D01*
X-70314633Y65435407D01*
X-70317122Y65434377D01*
X-70319811Y65434185D01*
X-70333542Y65428930D01*
X-70428780Y65381311D01*
X-70431228Y65379771D01*
X-70432381Y65379386D01*
X-70433818Y65378141D01*
X-70441223Y65373479D01*
X-70447385Y65366375D01*
X-70454489Y65360213D01*
X-70459151Y65352808D01*
X-70460396Y65351371D01*
X-70460781Y65350218D01*
X-70462321Y65347770D01*
X-70509940Y65252532D01*
X-70515195Y65238800D01*
X-70515386Y65236113D01*
X-70516417Y65233623D01*
X-70517858Y65218991D01*
X-70796430Y65218991D01*
X-70796430Y65361848D01*
X-70797871Y65376480D01*
X-70809070Y65403516D01*
X-70829762Y65424208D01*
X-70856798Y65435407D01*
X-70886062Y65435407D01*
X-70913098Y65424208D01*
X-70932500Y65404807D01*
X-70980746Y65428930D01*
X-70994478Y65434185D01*
X-70997166Y65434376D01*
X-70999655Y65435407D01*
X-71014287Y65436848D01*
X-71157144Y65436848D01*
X-71171776Y65435407D01*
X-71174265Y65434377D01*
X-71176954Y65434185D01*
X-71190685Y65428930D01*
X-71285923Y65381311D01*
X-71288371Y65379771D01*
X-71289524Y65379386D01*
X-71290961Y65378141D01*
X-71298366Y65373479D01*
X-71304528Y65366375D01*
X-71311632Y65360213D01*
X-71316294Y65352808D01*
X-71317539Y65351371D01*
X-71317924Y65350218D01*
X-71319464Y65347770D01*
X-71367083Y65252532D01*
X-71372338Y65238800D01*
X-71372529Y65236113D01*
X-71373560Y65233623D01*
X-71375001Y65218991D01*
X-71701192Y65218991D01*
X-71701192Y65286848D01*
X-71633335Y65286848D01*
X-71618703Y65288289D01*
X-71591667Y65299488D01*
X-71570975Y65320180D01*
X-71559776Y65347216D01*
X-71559776Y65376480D01*
X-71570975Y65403516D01*
X-71591667Y65424208D01*
X-71618703Y65435407D01*
X-71633335Y65436848D01*
X-71701192Y65436848D01*
X-71701192Y65614574D01*
X-67516416Y65614574D01*
X-67516416Y65585312D01*
X-67505217Y65558275D01*
X-67484525Y65537583D01*
X-67457488Y65526384D01*
X-67428226Y65526384D01*
X-67401189Y65537583D01*
X-67389824Y65546910D01*
X-67354724Y65582010D01*
X-67240211Y65620181D01*
X-67169313Y65620181D01*
X-67054800Y65582010D01*
X-66980687Y65507897D01*
X-66942194Y65430910D01*
X-66898810Y65257376D01*
X-66898810Y65132987D01*
X-66942194Y64959453D01*
X-66980688Y64882466D01*
X-67054800Y64808353D01*
X-67169313Y64770181D01*
X-67240211Y64770181D01*
X-67354724Y64808352D01*
X-67389823Y64843452D01*
X-67401189Y64852780D01*
X-67428225Y64863979D01*
X-67457488Y64863979D01*
X-67484524Y64852781D01*
X-67505217Y64832088D01*
X-67516416Y64805052D01*
X-67516416Y64775789D01*
X-67505218Y64748753D01*
X-67495891Y64737388D01*
X-67448272Y64689768D01*
X-67436906Y64680440D01*
X-67434418Y64679410D01*
X-67432381Y64677643D01*
X-67418955Y64671649D01*
X-67276099Y64624030D01*
X-67268844Y64622381D01*
X-67267013Y64621622D01*
X-67264360Y64621361D01*
X-67261762Y64620770D01*
X-67259788Y64620911D01*
X-67252381Y64620181D01*
X-67157143Y64620181D01*
X-67149738Y64620911D01*
X-67147763Y64620770D01*
X-67145166Y64621361D01*
X-67142511Y64621622D01*
X-67140680Y64622381D01*
X-67133426Y64624030D01*
X-66990569Y64671649D01*
X-66977144Y64677643D01*
X-66975109Y64679409D01*
X-66972618Y64680440D01*
X-66961253Y64689767D01*
X-66866014Y64785007D01*
X-66861297Y64790756D01*
X-66859798Y64792055D01*
X-66858377Y64794314D01*
X-66856687Y64796372D01*
X-66855930Y64798202D01*
X-66851966Y64804498D01*
X-66804347Y64899736D01*
X-66803938Y64900806D01*
X-66803615Y64901241D01*
X-66801423Y64907378D01*
X-66799092Y64913467D01*
X-66799054Y64914008D01*
X-66798668Y64915087D01*
X-66751049Y65105563D01*
X-66750674Y65108100D01*
X-66750251Y65109121D01*
X-66749709Y65114634D01*
X-66748899Y65120107D01*
X-66749062Y65121200D01*
X-66748810Y65123753D01*
X-66748810Y65266610D01*
X-66749062Y65269164D01*
X-66748899Y65270256D01*
X-66749709Y65275730D01*
X-66750251Y65281242D01*
X-66750674Y65282264D01*
X-66751049Y65284800D01*
X-66798668Y65475276D01*
X-66799054Y65476356D01*
X-66799092Y65476896D01*
X-66801429Y65483003D01*
X-66803615Y65489122D01*
X-66803938Y65489558D01*
X-66804347Y65490627D01*
X-66851966Y65585865D01*
X-66855929Y65592160D01*
X-66856687Y65593992D01*
X-66858379Y65596054D01*
X-66859798Y65598308D01*
X-66861295Y65599607D01*
X-66866015Y65605357D01*
X-66961253Y65700595D01*
X-66972618Y65709922D01*
X-66975109Y65710954D01*
X-66977144Y65712719D01*
X-66990569Y65718713D01*
X-67133426Y65766332D01*
X-67140680Y65767982D01*
X-67142511Y65768740D01*
X-67145166Y65769002D01*
X-67147763Y65769592D01*
X-67149738Y65769452D01*
X-67157143Y65770181D01*
X-67252381Y65770181D01*
X-67259788Y65769452D01*
X-67261762Y65769592D01*
X-67264360Y65769002D01*
X-67267013Y65768740D01*
X-67268844Y65767982D01*
X-67276099Y65766332D01*
X-67418955Y65718713D01*
X-67432381Y65712719D01*
X-67434418Y65710953D01*
X-67436906Y65709922D01*
X-67448271Y65700595D01*
X-67495890Y65652976D01*
X-67505217Y65641611D01*
X-67516416Y65614574D01*
X-71701192Y65614574D01*
X-71701192Y65695181D01*
X-71702633Y65709813D01*
X-71713832Y65736849D01*
X-71734524Y65757541D01*
X-71761560Y65768740D01*
X-71790824Y65768740D01*
X-71817860Y65757541D01*
X-71838552Y65736849D01*
X-71849751Y65709813D01*
X-71851192Y65695181D01*
X-71851192Y65436848D01*
X-72014287Y65436848D01*
X-72028919Y65435407D01*
X-72055955Y65424208D01*
X-72076647Y65403516D01*
X-72087846Y65376480D01*
X-72250161Y65376480D01*
X-72274860Y65475276D01*
X-72275246Y65476356D01*
X-72275284Y65476896D01*
X-72277621Y65483003D01*
X-72279807Y65489122D01*
X-72280130Y65489558D01*
X-72280539Y65490627D01*
X-72328158Y65585865D01*
X-72332121Y65592160D01*
X-72332879Y65593992D01*
X-72334571Y65596054D01*
X-72335990Y65598308D01*
X-72337487Y65599607D01*
X-72342207Y65605357D01*
X-72437445Y65700595D01*
X-72448810Y65709922D01*
X-72451301Y65710954D01*
X-72453336Y65712719D01*
X-72466761Y65718713D01*
X-72609618Y65766332D01*
X-72616872Y65767982D01*
X-72618703Y65768740D01*
X-72621358Y65769002D01*
X-72623955Y65769592D01*
X-72625930Y65769452D01*
X-72633335Y65770181D01*
X-72728573Y65770181D01*
X-72735980Y65769452D01*
X-72737954Y65769592D01*
X-72740552Y65769002D01*
X-72743205Y65768740D01*
X-72745036Y65767982D01*
X-72752291Y65766332D01*
X-72895147Y65718713D01*
X-72908573Y65712719D01*
X-72910610Y65710953D01*
X-72913098Y65709922D01*
X-72924463Y65700595D01*
X-72972082Y65652976D01*
X-72981409Y65641611D01*
X-72992608Y65614574D01*
X-74138809Y65614574D01*
X-74131205Y65632930D01*
X-74131205Y65662193D01*
X-74133010Y65666552D01*
X-74142404Y65689230D01*
X-74151731Y65700595D01*
X-74199350Y65748214D01*
X-74210715Y65757541D01*
X-74237751Y65768740D01*
X-74237752Y65768740D01*
X-74267015Y65768740D01*
X-74294051Y65757541D01*
X-74305416Y65748214D01*
X-74353035Y65700595D01*
X-74362362Y65689230D01*
X-74373561Y65662193D01*
X-74653573Y65662193D01*
X-74653573Y65695181D01*
X-74655014Y65709813D01*
X-74666213Y65736849D01*
X-74686905Y65757541D01*
X-74713941Y65768740D01*
X-74743205Y65768740D01*
X-74770241Y65757541D01*
X-74790933Y65736849D01*
X-74802132Y65709813D01*
X-74803573Y65695181D01*
X-74803573Y64855744D01*
X-74832094Y64798702D01*
X-74904971Y64762263D01*
X-74917414Y64754431D01*
X-74936587Y64732323D01*
X-74945841Y64704562D01*
X-75131205Y64704562D01*
X-75131205Y64709813D01*
X-75142404Y64736849D01*
X-75163096Y64757541D01*
X-75190132Y64768740D01*
X-75204764Y64770181D01*
X-75415478Y64770181D01*
X-75415478Y65466496D01*
X-75353035Y65404053D01*
X-75347285Y65399333D01*
X-75345986Y65397836D01*
X-75343732Y65396417D01*
X-75341670Y65394725D01*
X-75339838Y65393967D01*
X-75333543Y65390004D01*
X-75238305Y65342385D01*
X-75224574Y65337130D01*
X-75195384Y65335056D01*
X-75167622Y65344310D01*
X-75145515Y65363483D01*
X-75132427Y65389658D01*
X-75130353Y65418848D01*
X-75139607Y65446609D01*
X-75158780Y65468717D01*
X-75171223Y65476549D01*
X-75255575Y65518725D01*
X-75336956Y65600106D01*
X-75428074Y65736784D01*
X-75428109Y65736827D01*
X-75428118Y65736849D01*
X-75428170Y65736901D01*
X-75437390Y65748159D01*
X-75443560Y65752291D01*
X-75448810Y65757541D01*
X-75455600Y65760354D01*
X-75461705Y65764442D01*
X-75468986Y65765899D01*
X-75475846Y65768740D01*
X-75483194Y65768740D01*
X-75490399Y65770181D01*
X-75497683Y65768740D01*
X-75505110Y65768740D01*
X-75511899Y65765928D01*
X-75519107Y65764502D01*
X-75525286Y65760383D01*
X-75532146Y65757541D01*
X-75537342Y65752346D01*
X-75543456Y65748269D01*
X-75547588Y65742100D01*
X-75552838Y65736849D01*
X-75555651Y65730060D01*
X-75559739Y65723954D01*
X-75561196Y65716674D01*
X-75564037Y65709813D01*
X-75565463Y65695337D01*
X-75565478Y65695260D01*
X-75565473Y65695234D01*
X-75565478Y65695181D01*
X-75565478Y64770181D01*
X-75776192Y64770181D01*
X-75790824Y64768740D01*
X-75817860Y64757541D01*
X-75838552Y64736849D01*
X-75849751Y64709813D01*
X-75960862Y64709813D01*
X-75960862Y65881292D01*
X-66637699Y65881292D01*
X-66637699Y64509070D01*
G37*
X-9852067Y28332781D02*
X-9852067Y27618496D01*
X-9852067Y27618496D02*
X-9804448Y27475639D01*
X-9804448Y27475639D02*
X-9709210Y27380400D01*
X-9709210Y27380400D02*
X-9566353Y27332781D01*
X-9566353Y27332781D02*
X-9471115Y27332781D01*
X-10756829Y27999448D02*
X-10756829Y27332781D01*
X-10518734Y28380400D02*
X-10280639Y27666115D01*
X-10280639Y27666115D02*
X-10899686Y27666115D01*
X-82597667Y43953781D02*
X-82597667Y43239496D01*
X-82597667Y43239496D02*
X-82550048Y43096639D01*
X-82550048Y43096639D02*
X-82454810Y43001400D01*
X-82454810Y43001400D02*
X-82311953Y42953781D01*
X-82311953Y42953781D02*
X-82216715Y42953781D01*
X-83550048Y43953781D02*
X-83073858Y43953781D01*
X-83073858Y43953781D02*
X-83026239Y43477591D01*
X-83026239Y43477591D02*
X-83073858Y43525210D01*
X-83073858Y43525210D02*
X-83169096Y43572829D01*
X-83169096Y43572829D02*
X-83407191Y43572829D01*
X-83407191Y43572829D02*
X-83502429Y43525210D01*
X-83502429Y43525210D02*
X-83550048Y43477591D01*
X-83550048Y43477591D02*
X-83597667Y43382353D01*
X-83597667Y43382353D02*
X-83597667Y43144258D01*
X-83597667Y43144258D02*
X-83550048Y43049020D01*
X-83550048Y43049020D02*
X-83502429Y43001400D01*
X-83502429Y43001400D02*
X-83407191Y42953781D01*
X-83407191Y42953781D02*
X-83169096Y42953781D01*
X-83169096Y42953781D02*
X-83073858Y43001400D01*
X-83073858Y43001400D02*
X-83026239Y43049020D01*
X-1050096Y109138781D02*
X-1050096Y108329258D01*
X-1050096Y108329258D02*
X-1097715Y108234020D01*
X-1097715Y108234020D02*
X-1145334Y108186400D01*
X-1145334Y108186400D02*
X-1240572Y108138781D01*
X-1240572Y108138781D02*
X-1431048Y108138781D01*
X-1431048Y108138781D02*
X-1526286Y108186400D01*
X-1526286Y108186400D02*
X-1573905Y108234020D01*
X-1573905Y108234020D02*
X-1621524Y108329258D01*
X-1621524Y108329258D02*
X-1621524Y109138781D01*
X-2002477Y109138781D02*
X-2621524Y109138781D01*
X-2621524Y109138781D02*
X-2288191Y108757829D01*
X-2288191Y108757829D02*
X-2431048Y108757829D01*
X-2431048Y108757829D02*
X-2526286Y108710210D01*
X-2526286Y108710210D02*
X-2573905Y108662591D01*
X-2573905Y108662591D02*
X-2621524Y108567353D01*
X-2621524Y108567353D02*
X-2621524Y108329258D01*
X-2621524Y108329258D02*
X-2573905Y108234020D01*
X-2573905Y108234020D02*
X-2526286Y108186400D01*
X-2526286Y108186400D02*
X-2431048Y108138781D01*
X-2431048Y108138781D02*
X-2145334Y108138781D01*
X-2145334Y108138781D02*
X-2050096Y108186400D01*
X-2050096Y108186400D02*
X-2002477Y108234020D01*
D14*
G36*
X12416236Y90345899D02*
G01*
X11596311Y90345899D01*
X11596311Y90505949D01*
X11700169Y90505949D01*
X11700169Y90474845D01*
X11722163Y90452851D01*
X11737715Y90449757D01*
X12271841Y90449757D01*
X12287393Y90452851D01*
X12309387Y90474845D01*
X12309387Y90505949D01*
X12287393Y90527943D01*
X12271841Y90531037D01*
X12045418Y90531037D01*
X12045418Y91290893D01*
X12059984Y91269043D01*
X12062826Y91266195D01*
X12065062Y91262849D01*
X12154083Y91173828D01*
X12159503Y91170207D01*
X12164645Y91166216D01*
X12253666Y91121704D01*
X12268960Y91117517D01*
X12298468Y91127353D01*
X12312378Y91155173D01*
X12302543Y91184681D01*
X12290016Y91194403D01*
X12206895Y91235964D01*
X12125378Y91317481D01*
X12038592Y91447660D01*
X12027391Y91458884D01*
X12023288Y91459705D01*
X12020330Y91462663D01*
X12008496Y91462663D01*
X11996891Y91464984D01*
X11993410Y91462663D01*
X11989226Y91462663D01*
X11980857Y91454295D01*
X11971011Y91447730D01*
X11970190Y91443628D01*
X11967232Y91440669D01*
X11964138Y91425117D01*
X11964138Y90531037D01*
X11737715Y90531037D01*
X11722163Y90527943D01*
X11700169Y90505949D01*
X11596311Y90505949D01*
X11596311Y91568842D01*
X12416236Y91568842D01*
X12416236Y90345899D01*
G37*
D13*
X-7861906Y60245181D02*
X-7861906Y61245181D01*
X-8433334Y60245181D02*
X-8004763Y60816610D01*
X-8433334Y61245181D02*
X-7861906Y60673753D01*
X-8814287Y61149943D02*
X-8861906Y61197562D01*
X-8861906Y61197562D02*
X-8957144Y61245181D01*
X-8957144Y61245181D02*
X-9195239Y61245181D01*
X-9195239Y61245181D02*
X-9290477Y61197562D01*
X-9290477Y61197562D02*
X-9338096Y61149943D01*
X-9338096Y61149943D02*
X-9385715Y61054705D01*
X-9385715Y61054705D02*
X-9385715Y60959467D01*
X-9385715Y60959467D02*
X-9338096Y60816610D01*
X-9338096Y60816610D02*
X-8766668Y60245181D01*
X-8766668Y60245181D02*
X-9385715Y60245181D01*
X-63043381Y42535821D02*
X-64043381Y42535821D01*
X-64043381Y42535821D02*
X-63329096Y42202488D01*
X-63329096Y42202488D02*
X-64043381Y41869155D01*
X-64043381Y41869155D02*
X-63043381Y41869155D01*
X-64043381Y41488202D02*
X-64043381Y40869155D01*
X-64043381Y40869155D02*
X-63662429Y41202488D01*
X-63662429Y41202488D02*
X-63662429Y41059631D01*
X-63662429Y41059631D02*
X-63614810Y40964393D01*
X-63614810Y40964393D02*
X-63567191Y40916774D01*
X-63567191Y40916774D02*
X-63471953Y40869155D01*
X-63471953Y40869155D02*
X-63233858Y40869155D01*
X-63233858Y40869155D02*
X-63138620Y40916774D01*
X-63138620Y40916774D02*
X-63091000Y40964393D01*
X-63091000Y40964393D02*
X-63043381Y41059631D01*
X-63043381Y41059631D02*
X-63043381Y41345345D01*
X-63043381Y41345345D02*
X-63091000Y41440583D01*
X-63091000Y41440583D02*
X-63138620Y41488202D01*
D15*
X-63364378Y33638173D02*
X-64073546Y33638173D01*
X-64073546Y33638173D02*
X-63566997Y33401784D01*
X-63566997Y33401784D02*
X-64073546Y33165394D01*
X-64073546Y33165394D02*
X-63364378Y33165394D01*
X-64073546Y32692615D02*
X-64073546Y32557536D01*
X-64073546Y32557536D02*
X-64039776Y32489996D01*
X-64039776Y32489996D02*
X-63972236Y32422456D01*
X-63972236Y32422456D02*
X-63837156Y32388686D01*
X-63837156Y32388686D02*
X-63600767Y32388686D01*
X-63600767Y32388686D02*
X-63465687Y32422456D01*
X-63465687Y32422456D02*
X-63398147Y32489996D01*
X-63398147Y32489996D02*
X-63364378Y32557536D01*
X-63364378Y32557536D02*
X-63364378Y32692615D01*
X-63364378Y32692615D02*
X-63398147Y32760155D01*
X-63398147Y32760155D02*
X-63465687Y32827695D01*
X-63465687Y32827695D02*
X-63600767Y32861465D01*
X-63600767Y32861465D02*
X-63837156Y32861465D01*
X-63837156Y32861465D02*
X-63972236Y32827695D01*
X-63972236Y32827695D02*
X-64039776Y32760155D01*
X-64039776Y32760155D02*
X-64073546Y32692615D01*
X-64073546Y32186067D02*
X-63364378Y31949677D01*
X-63364378Y31949677D02*
X-64073546Y31713288D01*
D13*
X-61130620Y47851380D02*
X-60130620Y47851380D01*
X-60130620Y47851380D02*
X-60844905Y48184713D01*
X-60844905Y48184713D02*
X-60130620Y48518046D01*
X-60130620Y48518046D02*
X-61130620Y48518046D01*
X-60225858Y48946618D02*
X-60178239Y48994237D01*
X-60178239Y48994237D02*
X-60130620Y49089475D01*
X-60130620Y49089475D02*
X-60130620Y49327570D01*
X-60130620Y49327570D02*
X-60178239Y49422808D01*
X-60178239Y49422808D02*
X-60225858Y49470427D01*
X-60225858Y49470427D02*
X-60321096Y49518046D01*
X-60321096Y49518046D02*
X-60416334Y49518046D01*
X-60416334Y49518046D02*
X-60559191Y49470427D01*
X-60559191Y49470427D02*
X-61130620Y48898999D01*
X-61130620Y48898999D02*
X-61130620Y49518046D01*
D15*
X-60809623Y56749028D02*
X-60100455Y56749028D01*
X-60100455Y56749028D02*
X-60607004Y56985417D01*
X-60607004Y56985417D02*
X-60100455Y57221807D01*
X-60100455Y57221807D02*
X-60809623Y57221807D01*
X-60100455Y57694586D02*
X-60100455Y57829665D01*
X-60100455Y57829665D02*
X-60134225Y57897205D01*
X-60134225Y57897205D02*
X-60201765Y57964745D01*
X-60201765Y57964745D02*
X-60336845Y57998515D01*
X-60336845Y57998515D02*
X-60573234Y57998515D01*
X-60573234Y57998515D02*
X-60708314Y57964745D01*
X-60708314Y57964745D02*
X-60775853Y57897205D01*
X-60775853Y57897205D02*
X-60809623Y57829665D01*
X-60809623Y57829665D02*
X-60809623Y57694586D01*
X-60809623Y57694586D02*
X-60775853Y57627046D01*
X-60775853Y57627046D02*
X-60708314Y57559506D01*
X-60708314Y57559506D02*
X-60573234Y57525736D01*
X-60573234Y57525736D02*
X-60336845Y57525736D01*
X-60336845Y57525736D02*
X-60201765Y57559506D01*
X-60201765Y57559506D02*
X-60134225Y57627046D01*
X-60134225Y57627046D02*
X-60100455Y57694586D01*
X-60100455Y58201134D02*
X-60809623Y58437524D01*
X-60809623Y58437524D02*
X-60100455Y58673913D01*
D13*
G36*
X-69099604Y74063832D02*
G01*
X-75898956Y74063832D01*
X-75898956Y74264575D01*
X-73264035Y74264575D01*
X-73264035Y74235311D01*
X-73252836Y74208275D01*
X-73232144Y74187583D01*
X-73205108Y74176384D01*
X-73190476Y74174943D01*
X-72428571Y74174943D01*
X-72413939Y74176384D01*
X-72386903Y74187583D01*
X-72366211Y74208275D01*
X-72355012Y74235311D01*
X-72355012Y74264575D01*
X-72366211Y74291611D01*
X-72386903Y74312303D01*
X-72413939Y74323502D01*
X-72428571Y74324943D01*
X-73190476Y74324943D01*
X-73205108Y74323502D01*
X-73232144Y74312303D01*
X-73252836Y74291611D01*
X-73264035Y74264575D01*
X-75898956Y74264575D01*
X-75898956Y74359813D01*
X-75787845Y74359813D01*
X-75787845Y74330549D01*
X-75776646Y74303513D01*
X-75755954Y74282821D01*
X-75728918Y74271622D01*
X-75714286Y74270181D01*
X-75142858Y74270181D01*
X-75128226Y74271622D01*
X-75101190Y74282821D01*
X-75080498Y74303513D01*
X-75069299Y74330549D01*
X-75069299Y74359813D01*
X-75080498Y74386849D01*
X-75101190Y74407541D01*
X-75128226Y74418740D01*
X-75142858Y74420181D01*
X-75353572Y74420181D01*
X-75353572Y75116496D01*
X-75291129Y75054053D01*
X-75285379Y75049333D01*
X-75284080Y75047836D01*
X-75281826Y75046417D01*
X-75279764Y75044725D01*
X-75277932Y75043967D01*
X-75271637Y75040004D01*
X-75176399Y74992385D01*
X-75162668Y74987130D01*
X-75133478Y74985056D01*
X-75105716Y74994310D01*
X-75083609Y75013483D01*
X-75070521Y75039658D01*
X-75068447Y75068848D01*
X-75077701Y75096609D01*
X-75096874Y75118717D01*
X-75109317Y75126549D01*
X-75193669Y75168725D01*
X-75275050Y75250106D01*
X-75348187Y75359813D01*
X-74930702Y75359813D01*
X-74930702Y75330549D01*
X-74919503Y75303513D01*
X-74898811Y75282821D01*
X-74871775Y75271622D01*
X-74857143Y75270181D01*
X-74646429Y75270181D01*
X-74646429Y74345181D01*
X-74644988Y74330549D01*
X-74633789Y74303513D01*
X-74613097Y74282821D01*
X-74586061Y74271622D01*
X-74556797Y74271622D01*
X-74529761Y74282821D01*
X-74509069Y74303513D01*
X-74497870Y74330549D01*
X-74496429Y74345181D01*
X-74496429Y75264574D01*
X-74073559Y75264574D01*
X-74073559Y75235312D01*
X-74062360Y75208275D01*
X-74041668Y75187583D01*
X-74014631Y75176384D01*
X-73985369Y75176384D01*
X-73958332Y75187583D01*
X-73946967Y75196910D01*
X-73911867Y75232010D01*
X-73797354Y75270181D01*
X-73726456Y75270181D01*
X-73611943Y75232010D01*
X-73537830Y75157897D01*
X-73499337Y75080910D01*
X-73455953Y74907376D01*
X-73455953Y74782987D01*
X-73499337Y74609453D01*
X-73537831Y74532466D01*
X-73611943Y74458353D01*
X-73726456Y74420181D01*
X-73797354Y74420181D01*
X-73911867Y74458352D01*
X-73946966Y74493452D01*
X-73958332Y74502780D01*
X-73985368Y74513979D01*
X-74014631Y74513979D01*
X-74041667Y74502781D01*
X-74062360Y74482088D01*
X-74073559Y74455052D01*
X-74073559Y74425789D01*
X-74062361Y74398753D01*
X-74053034Y74387388D01*
X-74005415Y74339768D01*
X-73994049Y74330440D01*
X-73991561Y74329410D01*
X-73989524Y74327643D01*
X-73976098Y74321649D01*
X-73833242Y74274030D01*
X-73825987Y74272381D01*
X-73824156Y74271622D01*
X-73821503Y74271361D01*
X-73818905Y74270770D01*
X-73816931Y74270911D01*
X-73809524Y74270181D01*
X-73714286Y74270181D01*
X-73706881Y74270911D01*
X-73704906Y74270770D01*
X-73702309Y74271361D01*
X-73699654Y74271622D01*
X-73697823Y74272381D01*
X-73690569Y74274030D01*
X-73547712Y74321649D01*
X-73534287Y74327643D01*
X-73532252Y74329409D01*
X-73529761Y74330440D01*
X-73518396Y74339767D01*
X-73423157Y74435007D01*
X-73418440Y74440756D01*
X-73416941Y74442055D01*
X-73415520Y74444314D01*
X-73413830Y74446372D01*
X-73413073Y74448202D01*
X-73409109Y74454498D01*
X-73361490Y74549736D01*
X-73361081Y74550806D01*
X-73360758Y74551241D01*
X-73358566Y74557378D01*
X-73356235Y74563467D01*
X-73356197Y74564008D01*
X-73355811Y74565087D01*
X-73308192Y74755563D01*
X-73307817Y74758100D01*
X-73307394Y74759121D01*
X-73306852Y74764634D01*
X-73306042Y74770107D01*
X-73306205Y74771200D01*
X-73305953Y74773753D01*
X-73305953Y74916610D01*
X-73306205Y74919164D01*
X-73306042Y74920256D01*
X-73306852Y74925730D01*
X-73307394Y74931242D01*
X-73307817Y74932264D01*
X-73308192Y74934800D01*
X-73355811Y75125276D01*
X-73356197Y75126356D01*
X-73356235Y75126896D01*
X-73358572Y75133003D01*
X-73360758Y75139122D01*
X-73361081Y75139558D01*
X-73361490Y75140627D01*
X-73409109Y75235865D01*
X-73413072Y75242160D01*
X-73413830Y75243992D01*
X-73415522Y75246054D01*
X-73416941Y75248308D01*
X-73418438Y75249607D01*
X-73423158Y75255357D01*
X-73512982Y75345181D01*
X-72265477Y75345181D01*
X-72265477Y74345181D01*
X-72264036Y74330549D01*
X-72252837Y74303513D01*
X-72232145Y74282821D01*
X-72205109Y74271622D01*
X-72175845Y74271622D01*
X-72148809Y74282821D01*
X-72128117Y74303513D01*
X-72116918Y74330549D01*
X-72115477Y74345181D01*
X-72115477Y75264574D01*
X-71835464Y75264574D01*
X-71835464Y75235312D01*
X-71824265Y75208275D01*
X-71803573Y75187583D01*
X-71776536Y75176384D01*
X-71747274Y75176384D01*
X-71720237Y75187583D01*
X-71708872Y75196910D01*
X-71673772Y75232010D01*
X-71559259Y75270181D01*
X-71488361Y75270181D01*
X-71373848Y75232010D01*
X-71299735Y75157897D01*
X-71261242Y75080910D01*
X-71217858Y74907376D01*
X-71217858Y74782987D01*
X-71261242Y74609453D01*
X-71299736Y74532466D01*
X-71373848Y74458353D01*
X-71488361Y74420181D01*
X-71559259Y74420181D01*
X-71673772Y74458352D01*
X-71708871Y74493452D01*
X-71720237Y74502780D01*
X-71747273Y74513979D01*
X-71776536Y74513979D01*
X-71803572Y74502781D01*
X-71824265Y74482088D01*
X-71835464Y74455052D01*
X-71835464Y74425789D01*
X-71824266Y74398753D01*
X-71814939Y74387388D01*
X-71767320Y74339768D01*
X-71755954Y74330440D01*
X-71753466Y74329410D01*
X-71751429Y74327643D01*
X-71738003Y74321649D01*
X-71595147Y74274030D01*
X-71587892Y74272381D01*
X-71586061Y74271622D01*
X-71583408Y74271361D01*
X-71580810Y74270770D01*
X-71578836Y74270911D01*
X-71571429Y74270181D01*
X-71476191Y74270181D01*
X-71468786Y74270911D01*
X-71466811Y74270770D01*
X-71464214Y74271361D01*
X-71461559Y74271622D01*
X-71459728Y74272381D01*
X-71452474Y74274030D01*
X-71309617Y74321649D01*
X-71296192Y74327643D01*
X-71294157Y74329409D01*
X-71291666Y74330440D01*
X-71280301Y74339767D01*
X-71185062Y74435007D01*
X-71180345Y74440756D01*
X-71178846Y74442055D01*
X-71177425Y74444314D01*
X-71175735Y74446372D01*
X-71174978Y74448202D01*
X-71171014Y74454498D01*
X-71123395Y74549736D01*
X-71122986Y74550806D01*
X-71122663Y74551241D01*
X-71120471Y74557378D01*
X-71118140Y74563467D01*
X-71118102Y74564008D01*
X-71117716Y74565087D01*
X-71070097Y74755563D01*
X-71069722Y74758100D01*
X-71069299Y74759121D01*
X-71068757Y74764634D01*
X-71067947Y74770107D01*
X-71068110Y74771200D01*
X-71067858Y74773753D01*
X-71067858Y74916610D01*
X-71068110Y74919164D01*
X-71067947Y74920256D01*
X-71068757Y74925730D01*
X-71069299Y74931242D01*
X-71069722Y74932264D01*
X-71070097Y74934800D01*
X-71117716Y75125276D01*
X-71118102Y75126356D01*
X-71118140Y75126896D01*
X-71120477Y75133003D01*
X-71122663Y75139122D01*
X-71122986Y75139558D01*
X-71123395Y75140627D01*
X-71171014Y75235865D01*
X-71174977Y75242160D01*
X-71175735Y75243992D01*
X-71177427Y75246054D01*
X-71178846Y75248308D01*
X-71180343Y75249607D01*
X-71185063Y75255357D01*
X-71280301Y75350595D01*
X-71291533Y75359813D01*
X-70883083Y75359813D01*
X-70883083Y75330549D01*
X-70871884Y75303513D01*
X-70851192Y75282821D01*
X-70824156Y75271622D01*
X-70809524Y75270181D01*
X-70408334Y75270181D01*
X-70408334Y74943991D01*
X-70666667Y74943991D01*
X-70681299Y74942550D01*
X-70708335Y74931351D01*
X-70729027Y74910659D01*
X-70740226Y74883623D01*
X-70740226Y74854359D01*
X-70729027Y74827323D01*
X-70708335Y74806631D01*
X-70681299Y74795432D01*
X-70666667Y74793991D01*
X-70408334Y74793991D01*
X-70408334Y74345181D01*
X-70406893Y74330549D01*
X-70395694Y74303513D01*
X-70375002Y74282821D01*
X-70347966Y74271622D01*
X-70318702Y74271622D01*
X-70291666Y74282821D01*
X-70270974Y74303513D01*
X-70259775Y74330549D01*
X-70258334Y74345181D01*
X-70258334Y74773753D01*
X-69979762Y74773753D01*
X-69979762Y74440420D01*
X-69978321Y74425788D01*
X-69974404Y74416332D01*
X-69967123Y74398753D01*
X-69957796Y74387388D01*
X-69910177Y74339768D01*
X-69898811Y74330440D01*
X-69896323Y74329410D01*
X-69894286Y74327643D01*
X-69880860Y74321649D01*
X-69738004Y74274030D01*
X-69730749Y74272381D01*
X-69728918Y74271622D01*
X-69726265Y74271361D01*
X-69723667Y74270770D01*
X-69721693Y74270911D01*
X-69714286Y74270181D01*
X-69619048Y74270181D01*
X-69611643Y74270911D01*
X-69609668Y74270770D01*
X-69607071Y74271361D01*
X-69604416Y74271622D01*
X-69602585Y74272381D01*
X-69595331Y74274030D01*
X-69452474Y74321649D01*
X-69439049Y74327643D01*
X-69437014Y74329409D01*
X-69434523Y74330440D01*
X-69423158Y74339767D01*
X-69327919Y74435007D01*
X-69323202Y74440756D01*
X-69321703Y74442055D01*
X-69320282Y74444314D01*
X-69318592Y74446372D01*
X-69317835Y74448202D01*
X-69313871Y74454498D01*
X-69266252Y74549736D01*
X-69265843Y74550806D01*
X-69265520Y74551241D01*
X-69263328Y74557378D01*
X-69260997Y74563467D01*
X-69260959Y74564008D01*
X-69260573Y74565087D01*
X-69212954Y74755563D01*
X-69212579Y74758100D01*
X-69212156Y74759121D01*
X-69211614Y74764634D01*
X-69210804Y74770107D01*
X-69210967Y74771200D01*
X-69210715Y74773753D01*
X-69210715Y74916610D01*
X-69210967Y74919164D01*
X-69210804Y74920256D01*
X-69211614Y74925730D01*
X-69212156Y74931242D01*
X-69212579Y74932264D01*
X-69212954Y74934800D01*
X-69260573Y75125276D01*
X-69260959Y75126356D01*
X-69260997Y75126896D01*
X-69263334Y75133003D01*
X-69265520Y75139122D01*
X-69265843Y75139558D01*
X-69266252Y75140627D01*
X-69313871Y75235865D01*
X-69317834Y75242160D01*
X-69318592Y75243992D01*
X-69320284Y75246054D01*
X-69321703Y75248308D01*
X-69323200Y75249607D01*
X-69327920Y75255357D01*
X-69423158Y75350595D01*
X-69434523Y75359922D01*
X-69437014Y75360954D01*
X-69439049Y75362719D01*
X-69452474Y75368713D01*
X-69595331Y75416332D01*
X-69602585Y75417982D01*
X-69604416Y75418740D01*
X-69607071Y75419002D01*
X-69609668Y75419592D01*
X-69611643Y75419452D01*
X-69619048Y75420181D01*
X-69761905Y75420181D01*
X-69776537Y75418740D01*
X-69779026Y75417710D01*
X-69781715Y75417518D01*
X-69795446Y75412263D01*
X-69890684Y75364644D01*
X-69903127Y75356812D01*
X-69922300Y75334704D01*
X-69931554Y75306943D01*
X-69929480Y75277753D01*
X-69916393Y75251578D01*
X-69894285Y75232405D01*
X-69866524Y75223151D01*
X-69837334Y75225225D01*
X-69823602Y75230480D01*
X-69744200Y75270181D01*
X-69631218Y75270181D01*
X-69516705Y75232010D01*
X-69442592Y75157897D01*
X-69404099Y75080910D01*
X-69360715Y74907376D01*
X-69360715Y74782987D01*
X-69404099Y74609453D01*
X-69442593Y74532466D01*
X-69516705Y74458353D01*
X-69631218Y74420181D01*
X-69702116Y74420181D01*
X-69816629Y74458352D01*
X-69829762Y74471486D01*
X-69829762Y74698753D01*
X-69714286Y74698753D01*
X-69699654Y74700194D01*
X-69672618Y74711393D01*
X-69651926Y74732085D01*
X-69640727Y74759121D01*
X-69640727Y74788385D01*
X-69651926Y74815421D01*
X-69672618Y74836113D01*
X-69699654Y74847312D01*
X-69714286Y74848753D01*
X-69904762Y74848753D01*
X-69919394Y74847312D01*
X-69946430Y74836113D01*
X-69967122Y74815421D01*
X-69978321Y74788385D01*
X-69979762Y74773753D01*
X-70258334Y74773753D01*
X-70258334Y75345181D01*
X-70259775Y75359813D01*
X-70270974Y75386849D01*
X-70291666Y75407541D01*
X-70318702Y75418740D01*
X-70333334Y75420181D01*
X-70809524Y75420181D01*
X-70824156Y75418740D01*
X-70851192Y75407541D01*
X-70871884Y75386849D01*
X-70883083Y75359813D01*
X-71291533Y75359813D01*
X-71291666Y75359922D01*
X-71294157Y75360954D01*
X-71296192Y75362719D01*
X-71309617Y75368713D01*
X-71452474Y75416332D01*
X-71459728Y75417982D01*
X-71461559Y75418740D01*
X-71464214Y75419002D01*
X-71466811Y75419592D01*
X-71468786Y75419452D01*
X-71476191Y75420181D01*
X-71571429Y75420181D01*
X-71578836Y75419452D01*
X-71580810Y75419592D01*
X-71583408Y75419002D01*
X-71586061Y75418740D01*
X-71587892Y75417982D01*
X-71595147Y75416332D01*
X-71738003Y75368713D01*
X-71751429Y75362719D01*
X-71753466Y75360953D01*
X-71755954Y75359922D01*
X-71767319Y75350595D01*
X-71814938Y75302976D01*
X-71824265Y75291611D01*
X-71835464Y75264574D01*
X-72115477Y75264574D01*
X-72115477Y75345181D01*
X-72116918Y75359813D01*
X-72128117Y75386849D01*
X-72148809Y75407541D01*
X-72175845Y75418740D01*
X-72205109Y75418740D01*
X-72232145Y75407541D01*
X-72252837Y75386849D01*
X-72264036Y75359813D01*
X-72265477Y75345181D01*
X-73512982Y75345181D01*
X-73518396Y75350595D01*
X-73529761Y75359922D01*
X-73532252Y75360954D01*
X-73534287Y75362719D01*
X-73547712Y75368713D01*
X-73690569Y75416332D01*
X-73697823Y75417982D01*
X-73699654Y75418740D01*
X-73702309Y75419002D01*
X-73704906Y75419592D01*
X-73706881Y75419452D01*
X-73714286Y75420181D01*
X-73809524Y75420181D01*
X-73816931Y75419452D01*
X-73818905Y75419592D01*
X-73821503Y75419002D01*
X-73824156Y75418740D01*
X-73825987Y75417982D01*
X-73833242Y75416332D01*
X-73976098Y75368713D01*
X-73989524Y75362719D01*
X-73991561Y75360953D01*
X-73994049Y75359922D01*
X-74005414Y75350595D01*
X-74053033Y75302976D01*
X-74062360Y75291611D01*
X-74073559Y75264574D01*
X-74496429Y75264574D01*
X-74496429Y75270181D01*
X-74285715Y75270181D01*
X-74271083Y75271622D01*
X-74244047Y75282821D01*
X-74223355Y75303513D01*
X-74212156Y75330549D01*
X-74212156Y75359813D01*
X-74223355Y75386849D01*
X-74244047Y75407541D01*
X-74271083Y75418740D01*
X-74285715Y75420181D01*
X-74857143Y75420181D01*
X-74871775Y75418740D01*
X-74898811Y75407541D01*
X-74919503Y75386849D01*
X-74930702Y75359813D01*
X-75348187Y75359813D01*
X-75366168Y75386784D01*
X-75366203Y75386827D01*
X-75366212Y75386849D01*
X-75366264Y75386901D01*
X-75375484Y75398159D01*
X-75381654Y75402291D01*
X-75386904Y75407541D01*
X-75393694Y75410354D01*
X-75399799Y75414442D01*
X-75407080Y75415899D01*
X-75413940Y75418740D01*
X-75421288Y75418740D01*
X-75428493Y75420181D01*
X-75435777Y75418740D01*
X-75443204Y75418740D01*
X-75449993Y75415928D01*
X-75457201Y75414502D01*
X-75463380Y75410383D01*
X-75470240Y75407541D01*
X-75475436Y75402346D01*
X-75481550Y75398269D01*
X-75485682Y75392100D01*
X-75490932Y75386849D01*
X-75493745Y75380060D01*
X-75497833Y75373954D01*
X-75499290Y75366674D01*
X-75502131Y75359813D01*
X-75503557Y75345337D01*
X-75503572Y75345260D01*
X-75503567Y75345234D01*
X-75503572Y75345181D01*
X-75503572Y74420181D01*
X-75714286Y74420181D01*
X-75728918Y74418740D01*
X-75755954Y74407541D01*
X-75776646Y74386849D01*
X-75787845Y74359813D01*
X-75898956Y74359813D01*
X-75898956Y75531292D01*
X-69099604Y75531292D01*
X-69099604Y74063832D01*
G37*
X-74926867Y62724381D02*
X-74926867Y62010096D01*
X-74926867Y62010096D02*
X-74879248Y61867239D01*
X-74879248Y61867239D02*
X-74784010Y61772000D01*
X-74784010Y61772000D02*
X-74641153Y61724381D01*
X-74641153Y61724381D02*
X-74545915Y61724381D01*
X-75307820Y62724381D02*
X-75974486Y62724381D01*
X-75974486Y62724381D02*
X-75545915Y61724381D01*
X-733467Y28383581D02*
X-733467Y27669296D01*
X-733467Y27669296D02*
X-685848Y27526439D01*
X-685848Y27526439D02*
X-590610Y27431200D01*
X-590610Y27431200D02*
X-447753Y27383581D01*
X-447753Y27383581D02*
X-352515Y27383581D01*
X-1638229Y28383581D02*
X-1447753Y28383581D01*
X-1447753Y28383581D02*
X-1352515Y28335962D01*
X-1352515Y28335962D02*
X-1304896Y28288343D01*
X-1304896Y28288343D02*
X-1209658Y28145486D01*
X-1209658Y28145486D02*
X-1162039Y27955010D01*
X-1162039Y27955010D02*
X-1162039Y27574058D01*
X-1162039Y27574058D02*
X-1209658Y27478820D01*
X-1209658Y27478820D02*
X-1257277Y27431200D01*
X-1257277Y27431200D02*
X-1352515Y27383581D01*
X-1352515Y27383581D02*
X-1542991Y27383581D01*
X-1542991Y27383581D02*
X-1638229Y27431200D01*
X-1638229Y27431200D02*
X-1685848Y27478820D01*
X-1685848Y27478820D02*
X-1733467Y27574058D01*
X-1733467Y27574058D02*
X-1733467Y27812153D01*
X-1733467Y27812153D02*
X-1685848Y27907391D01*
X-1685848Y27907391D02*
X-1638229Y27955010D01*
X-1638229Y27955010D02*
X-1542991Y28002629D01*
X-1542991Y28002629D02*
X-1352515Y28002629D01*
X-1352515Y28002629D02*
X-1257277Y27955010D01*
X-1257277Y27955010D02*
X-1209658Y27907391D01*
X-1209658Y27907391D02*
X-1162039Y27812153D01*
X-69135667Y27723181D02*
X-69135667Y27008896D01*
X-69135667Y27008896D02*
X-69088048Y26866039D01*
X-69088048Y26866039D02*
X-68992810Y26770800D01*
X-68992810Y26770800D02*
X-68849953Y26723181D01*
X-68849953Y26723181D02*
X-68754715Y26723181D01*
X-69754715Y27294610D02*
X-69659477Y27342229D01*
X-69659477Y27342229D02*
X-69611858Y27389848D01*
X-69611858Y27389848D02*
X-69564239Y27485086D01*
X-69564239Y27485086D02*
X-69564239Y27532705D01*
X-69564239Y27532705D02*
X-69611858Y27627943D01*
X-69611858Y27627943D02*
X-69659477Y27675562D01*
X-69659477Y27675562D02*
X-69754715Y27723181D01*
X-69754715Y27723181D02*
X-69945191Y27723181D01*
X-69945191Y27723181D02*
X-70040429Y27675562D01*
X-70040429Y27675562D02*
X-70088048Y27627943D01*
X-70088048Y27627943D02*
X-70135667Y27532705D01*
X-70135667Y27532705D02*
X-70135667Y27485086D01*
X-70135667Y27485086D02*
X-70088048Y27389848D01*
X-70088048Y27389848D02*
X-70040429Y27342229D01*
X-70040429Y27342229D02*
X-69945191Y27294610D01*
X-69945191Y27294610D02*
X-69754715Y27294610D01*
X-69754715Y27294610D02*
X-69659477Y27246991D01*
X-69659477Y27246991D02*
X-69611858Y27199372D01*
X-69611858Y27199372D02*
X-69564239Y27104134D01*
X-69564239Y27104134D02*
X-69564239Y26913658D01*
X-69564239Y26913658D02*
X-69611858Y26818420D01*
X-69611858Y26818420D02*
X-69659477Y26770800D01*
X-69659477Y26770800D02*
X-69754715Y26723181D01*
X-69754715Y26723181D02*
X-69945191Y26723181D01*
X-69945191Y26723181D02*
X-70040429Y26770800D01*
X-70040429Y26770800D02*
X-70088048Y26818420D01*
X-70088048Y26818420D02*
X-70135667Y26913658D01*
X-70135667Y26913658D02*
X-70135667Y27104134D01*
X-70135667Y27104134D02*
X-70088048Y27199372D01*
X-70088048Y27199372D02*
X-70040429Y27246991D01*
X-70040429Y27246991D02*
X-69945191Y27294610D01*
X-47875867Y26961181D02*
X-47875867Y26246896D01*
X-47875867Y26246896D02*
X-47828248Y26104039D01*
X-47828248Y26104039D02*
X-47733010Y26008800D01*
X-47733010Y26008800D02*
X-47590153Y25961181D01*
X-47590153Y25961181D02*
X-47494915Y25961181D01*
X-48399677Y25961181D02*
X-48590153Y25961181D01*
X-48590153Y25961181D02*
X-48685391Y26008800D01*
X-48685391Y26008800D02*
X-48733010Y26056420D01*
X-48733010Y26056420D02*
X-48828248Y26199277D01*
X-48828248Y26199277D02*
X-48875867Y26389753D01*
X-48875867Y26389753D02*
X-48875867Y26770705D01*
X-48875867Y26770705D02*
X-48828248Y26865943D01*
X-48828248Y26865943D02*
X-48780629Y26913562D01*
X-48780629Y26913562D02*
X-48685391Y26961181D01*
X-48685391Y26961181D02*
X-48494915Y26961181D01*
X-48494915Y26961181D02*
X-48399677Y26913562D01*
X-48399677Y26913562D02*
X-48352058Y26865943D01*
X-48352058Y26865943D02*
X-48304439Y26770705D01*
X-48304439Y26770705D02*
X-48304439Y26532610D01*
X-48304439Y26532610D02*
X-48352058Y26437372D01*
X-48352058Y26437372D02*
X-48399677Y26389753D01*
X-48399677Y26389753D02*
X-48494915Y26342134D01*
X-48494915Y26342134D02*
X-48685391Y26342134D01*
X-48685391Y26342134D02*
X-48780629Y26389753D01*
X-48780629Y26389753D02*
X-48828248Y26437372D01*
X-48828248Y26437372D02*
X-48875867Y26532610D01*
X-30011906Y60195181D02*
X-30011906Y61195181D01*
X-30583334Y60195181D02*
X-30154763Y60766610D01*
X-30583334Y61195181D02*
X-30011906Y60623753D01*
X-31535715Y60195181D02*
X-30964287Y60195181D01*
X-31250001Y60195181D02*
X-31250001Y61195181D01*
X-31250001Y61195181D02*
X-31154763Y61052324D01*
X-31154763Y61052324D02*
X-31059525Y60957086D01*
X-31059525Y60957086D02*
X-30964287Y60909467D01*
X-67630620Y37098580D02*
X-66630620Y37098580D01*
X-66630620Y37098580D02*
X-67344905Y37431913D01*
X-67344905Y37431913D02*
X-66630620Y37765246D01*
X-66630620Y37765246D02*
X-67630620Y37765246D01*
X-67630620Y38765246D02*
X-67630620Y38193818D01*
X-67630620Y38479532D02*
X-66630620Y38479532D01*
X-66630620Y38479532D02*
X-66773477Y38384294D01*
X-66773477Y38384294D02*
X-66868715Y38289056D01*
X-66868715Y38289056D02*
X-66916334Y38193818D01*
D15*
X-67309623Y45996228D02*
X-66600455Y45996228D01*
X-66600455Y45996228D02*
X-67107004Y46232617D01*
X-67107004Y46232617D02*
X-66600455Y46469007D01*
X-66600455Y46469007D02*
X-67309623Y46469007D01*
X-66600455Y46941786D02*
X-66600455Y47076865D01*
X-66600455Y47076865D02*
X-66634225Y47144405D01*
X-66634225Y47144405D02*
X-66701765Y47211945D01*
X-66701765Y47211945D02*
X-66836845Y47245715D01*
X-66836845Y47245715D02*
X-67073234Y47245715D01*
X-67073234Y47245715D02*
X-67208314Y47211945D01*
X-67208314Y47211945D02*
X-67275853Y47144405D01*
X-67275853Y47144405D02*
X-67309623Y47076865D01*
X-67309623Y47076865D02*
X-67309623Y46941786D01*
X-67309623Y46941786D02*
X-67275853Y46874246D01*
X-67275853Y46874246D02*
X-67208314Y46806706D01*
X-67208314Y46806706D02*
X-67073234Y46772936D01*
X-67073234Y46772936D02*
X-66836845Y46772936D01*
X-66836845Y46772936D02*
X-66701765Y46806706D01*
X-66701765Y46806706D02*
X-66634225Y46874246D01*
X-66634225Y46874246D02*
X-66600455Y46941786D01*
X-66600455Y47448334D02*
X-67309623Y47684724D01*
X-67309623Y47684724D02*
X-66600455Y47921113D01*
D13*
X-36835715Y75845181D02*
X-36835715Y76845181D01*
X-36835715Y76845181D02*
X-37216667Y76845181D01*
X-37216667Y76845181D02*
X-37311905Y76797562D01*
X-37311905Y76797562D02*
X-37359524Y76749943D01*
X-37359524Y76749943D02*
X-37407143Y76654705D01*
X-37407143Y76654705D02*
X-37407143Y76511848D01*
X-37407143Y76511848D02*
X-37359524Y76416610D01*
X-37359524Y76416610D02*
X-37311905Y76368991D01*
X-37311905Y76368991D02*
X-37216667Y76321372D01*
X-37216667Y76321372D02*
X-36835715Y76321372D01*
X-37788096Y75892800D02*
X-37930953Y75845181D01*
X-37930953Y75845181D02*
X-38169048Y75845181D01*
X-38169048Y75845181D02*
X-38264286Y75892800D01*
X-38264286Y75892800D02*
X-38311905Y75940420D01*
X-38311905Y75940420D02*
X-38359524Y76035658D01*
X-38359524Y76035658D02*
X-38359524Y76130896D01*
X-38359524Y76130896D02*
X-38311905Y76226134D01*
X-38311905Y76226134D02*
X-38264286Y76273753D01*
X-38264286Y76273753D02*
X-38169048Y76321372D01*
X-38169048Y76321372D02*
X-37978572Y76368991D01*
X-37978572Y76368991D02*
X-37883334Y76416610D01*
X-37883334Y76416610D02*
X-37835715Y76464229D01*
X-37835715Y76464229D02*
X-37788096Y76559467D01*
X-37788096Y76559467D02*
X-37788096Y76654705D01*
X-37788096Y76654705D02*
X-37835715Y76749943D01*
X-37835715Y76749943D02*
X-37883334Y76797562D01*
X-37883334Y76797562D02*
X-37978572Y76845181D01*
X-37978572Y76845181D02*
X-38216667Y76845181D01*
X-38216667Y76845181D02*
X-38359524Y76797562D01*
X-39311905Y75845181D02*
X-38740477Y75845181D01*
X-39026191Y75845181D02*
X-39026191Y76845181D01*
X-39026191Y76845181D02*
X-38930953Y76702324D01*
X-38930953Y76702324D02*
X-38835715Y76607086D01*
X-38835715Y76607086D02*
X-38740477Y76559467D01*
%TO.C,CurrentCoil1*%
D16*
X-83587000Y63093600D02*
X-83587000Y63643600D01*
X-83312000Y63368600D02*
X-83862000Y63368600D01*
D17*
X-77887000Y62543600D02*
X-77887000Y67883600D01*
D16*
X-84137000Y67883600D02*
X-76537000Y67883600D01*
X-76537000Y62543600D01*
X-84137000Y62543600D01*
X-84137000Y67883600D01*
%TO.C,Pilot2*%
X-83587000Y82093600D02*
X-83587000Y82643600D01*
X-83312000Y82368600D02*
X-83862000Y82368600D01*
D17*
X-77887000Y81543600D02*
X-77887000Y91963600D01*
D16*
X-84137000Y91963600D02*
X-76537000Y91963600D01*
X-76537000Y81543600D01*
X-84137000Y81543600D01*
X-84137000Y91963600D01*
%TO.C,J4*%
X-20837000Y26943600D02*
X-11837000Y26943600D01*
X-11837000Y12943600D01*
X-20837000Y12943600D01*
X-20837000Y26943600D01*
D17*
X-14137000Y19943600D02*
G75*
G02*
X-18537000Y19943600I-2200000J0D01*
G01*
X-18537000Y19943600D02*
G75*
G02*
X-14137000Y19943600I2200000J0D01*
G01*
%TO.C,F1*%
D18*
X-46558850Y27823450D02*
X-38158850Y27823450D01*
X-38158850Y23823450D01*
X-46558850Y23823450D01*
X-46558850Y27823450D01*
%TO.C,Pilot1*%
D16*
X-83587000Y94093600D02*
X-83587000Y94643600D01*
X-83312000Y94368600D02*
X-83862000Y94368600D01*
D17*
X-77887000Y93543600D02*
X-77887000Y98883600D01*
D16*
X-84137000Y98883600D02*
X-76537000Y98883600D01*
X-76537000Y93543600D01*
X-84137000Y93543600D01*
X-84137000Y98883600D01*
%TO.C,J5*%
X-80837000Y43943600D02*
X-71837000Y43943600D01*
X-71837000Y29943600D01*
X-80837000Y29943600D01*
X-80837000Y43943600D01*
D17*
X-74137000Y36943600D02*
G75*
G02*
X-78537000Y36943600I-2200000J0D01*
G01*
X-78537000Y36943600D02*
G75*
G02*
X-74137000Y36943600I2200000J0D01*
G01*
%TO.C,U3*%
D19*
X2565500Y107578600D02*
X2565500Y107403600D01*
X2565500Y104533600D02*
X2565500Y104358600D01*
X2565500Y104358600D02*
X5785500Y104358600D01*
X5785500Y107578600D02*
X2565500Y107578600D01*
X5785500Y107403600D02*
X5785500Y107578600D01*
X5785500Y104358600D02*
X5785500Y104533600D01*
X6335500Y107408600D02*
X6575500Y107738600D01*
X6095500Y107738600D01*
X6335500Y107408600D01*
G36*
X6335500Y107408600D02*
G01*
X6095500Y107738600D01*
X6575500Y107738600D01*
X6335500Y107408600D01*
G37*
%TO.C,K2*%
D16*
X-9337000Y59443600D02*
X10663000Y59443600D01*
X10663000Y29443600D01*
X-9337000Y29443600D01*
X-9337000Y59443600D01*
D20*
X10238000Y30143600D02*
G75*
G02*
X9688000Y30143600I-275000J0D01*
G01*
X9688000Y30143600D02*
G75*
G02*
X10238000Y30143600I275000J0D01*
G01*
%TO.C,M3*%
D21*
X-65877000Y37673600D02*
X-60797000Y32593600D01*
D22*
X-64537000Y44013600D02*
X-64537000Y23983600D01*
X-64537000Y23983600D02*
X-62137000Y23983600D01*
X-62137000Y44013600D02*
X-64537000Y44013600D01*
X-62137000Y23983600D02*
X-62137000Y44013600D01*
D21*
X-60797000Y32593600D02*
X-60797000Y31323600D01*
%TO.C,M2*%
X-63377000Y57793600D02*
X-63377000Y59063600D01*
D22*
X-62037000Y66403600D02*
X-62037000Y46373600D01*
X-62037000Y46373600D02*
X-59637000Y46373600D01*
X-59637000Y66403600D02*
X-62037000Y66403600D01*
X-59637000Y46373600D02*
X-59637000Y66403600D01*
D21*
X-58297000Y52713600D02*
X-63377000Y57793600D01*
%TO.C,GFCI_CT1*%
D16*
X-83587000Y70093600D02*
X-83587000Y70643600D01*
X-83312000Y70368600D02*
X-83862000Y70368600D01*
D17*
X-77887000Y69543600D02*
X-77887000Y79963600D01*
D16*
X-84137000Y79963600D02*
X-76537000Y79963600D01*
X-76537000Y69543600D01*
X-84137000Y69543600D01*
X-84137000Y79963600D01*
%TO.C,J7*%
X-80837000Y60943600D02*
X-71837000Y60943600D01*
X-71837000Y46943600D01*
X-80837000Y46943600D01*
X-80837000Y60943600D01*
D17*
X-74137000Y53943600D02*
G75*
G02*
X-78537000Y53943600I-2200000J0D01*
G01*
X-78537000Y53943600D02*
G75*
G02*
X-74137000Y53943600I2200000J0D01*
G01*
%TO.C,J6*%
D16*
X1163000Y26943600D02*
X10163000Y26943600D01*
X10163000Y12943600D01*
X1163000Y12943600D01*
X1163000Y26943600D01*
D17*
X7863000Y19943600D02*
G75*
G02*
X3463000Y19943600I-2200000J0D01*
G01*
X3463000Y19943600D02*
G75*
G02*
X7863000Y19943600I2200000J0D01*
G01*
%TO.C,J8*%
D16*
X-80837000Y26943600D02*
X-71837000Y26943600D01*
X-71837000Y12943600D01*
X-80837000Y12943600D01*
X-80837000Y26943600D01*
D17*
X-74137000Y19943600D02*
G75*
G02*
X-78537000Y19943600I-2200000J0D01*
G01*
X-78537000Y19943600D02*
G75*
G02*
X-74137000Y19943600I2200000J0D01*
G01*
%TO.C,J9*%
D16*
X-58837000Y26943600D02*
X-49837000Y26943600D01*
X-49837000Y12943600D01*
X-58837000Y12943600D01*
X-58837000Y26943600D01*
D17*
X-52137000Y19943600D02*
G75*
G02*
X-56537000Y19943600I-2200000J0D01*
G01*
X-56537000Y19943600D02*
G75*
G02*
X-52137000Y19943600I2200000J0D01*
G01*
%TO.C,K1*%
D16*
X-31337000Y59443600D02*
X-11337000Y59443600D01*
X-11337000Y29443600D01*
X-31337000Y29443600D01*
X-31337000Y59443600D01*
D20*
X-11762000Y30143600D02*
G75*
G02*
X-12312000Y30143600I-275000J0D01*
G01*
X-12312000Y30143600D02*
G75*
G02*
X-11762000Y30143600I275000J0D01*
G01*
%TO.C,M1*%
D21*
X-69877000Y47040800D02*
X-69877000Y48310800D01*
D22*
X-68537000Y55650800D02*
X-68537000Y35620800D01*
X-68537000Y35620800D02*
X-66137000Y35620800D01*
X-66137000Y55650800D02*
X-68537000Y55650800D01*
X-66137000Y35620800D02*
X-66137000Y55650800D01*
D21*
X-64797000Y41960800D02*
X-69877000Y47040800D01*
%TO.C,PS1*%
D19*
X-58637000Y29243600D02*
X-58637000Y75143600D01*
X-43337000Y28943600D02*
X-45337000Y28943600D01*
X-33037000Y75143600D02*
X-58637000Y75143600D01*
X-33037000Y29243600D02*
X-58637000Y29243600D01*
X-33037000Y29243600D02*
X-33037000Y75143600D01*
%TD*%
%LPC*%
D23*
%TO.C,UNK_HOLE_1*%
X-25337000Y13943600D03*
%TD*%
%TO.C,*%
X-5337000Y13943600D03*
%TD*%
%TO.C,*%
X12663000Y106943600D03*
%TD*%
D24*
%TO.C,G2*%
X-81337000Y106943600D03*
%TD*%
D25*
%TO.C,CurrentCoil1*%
X-80337000Y63943600D03*
D26*
X-80337000Y66483600D03*
%TD*%
D25*
%TO.C,Pilot2*%
X-80337000Y82943600D03*
D26*
X-80337000Y85483600D03*
X-80337000Y88023600D03*
X-80337000Y90563600D03*
%TD*%
D23*
%TO.C,J4*%
X-13837000Y14993600D03*
D27*
X-13837000Y24893600D03*
D23*
X-18837000Y14993600D03*
X-18837000Y24893600D03*
%TD*%
D28*
%TO.C,F1*%
X-44898850Y25823450D03*
X-39818850Y25823450D03*
%TD*%
D25*
%TO.C,Pilot1*%
X-80337000Y94943600D03*
D26*
X-80337000Y97483600D03*
%TD*%
D23*
%TO.C,J5*%
X-73837000Y31993600D03*
D27*
X-73837000Y41893600D03*
D23*
X-78837000Y31993600D03*
X-78837000Y41893600D03*
%TD*%
D29*
%TO.C,U3*%
X6288000Y106943600D03*
X6288000Y106293600D03*
X6288000Y105643600D03*
X6288000Y104993600D03*
X2063000Y104993600D03*
X2063000Y105643600D03*
X2063000Y106293600D03*
X2063000Y106943600D03*
%TD*%
D30*
%TO.C,J1*%
X11933000Y93403600D03*
X9393000Y93403600D03*
X11933000Y95943600D03*
X9393000Y95943600D03*
X11933000Y98483600D03*
X9393000Y98483600D03*
%TD*%
D31*
%TO.C,K2*%
X5743000Y32093600D03*
X-4417000Y32093600D03*
D32*
X5743000Y56693600D03*
X-4417000Y56693600D03*
%TD*%
D33*
%TO.C,M3*%
X-64607000Y38943600D03*
X-62067000Y29053600D03*
%TD*%
%TO.C,M2*%
X-59567000Y51443600D03*
X-62107000Y61333600D03*
%TD*%
D25*
%TO.C,GFCI_CT1*%
X-80337000Y70943600D03*
D26*
X-80337000Y73483600D03*
X-80337000Y76023600D03*
X-80337000Y78563600D03*
%TD*%
D23*
%TO.C,J7*%
X-73837000Y48993600D03*
D27*
X-73837000Y58893600D03*
D23*
X-78837000Y48993600D03*
X-78837000Y58893600D03*
%TD*%
%TO.C,J6*%
X8163000Y14993600D03*
D27*
X8163000Y24893600D03*
D23*
X3163000Y14993600D03*
X3163000Y24893600D03*
%TD*%
%TO.C,J8*%
X-73837000Y14993600D03*
D27*
X-73837000Y24893600D03*
D23*
X-78837000Y14993600D03*
X-78837000Y24893600D03*
%TD*%
%TO.C,J9*%
X-51837000Y14993600D03*
D27*
X-51837000Y24893600D03*
D23*
X-56837000Y14993600D03*
X-56837000Y24893600D03*
%TD*%
D31*
%TO.C,K1*%
X-16257000Y32093600D03*
X-26417000Y32093600D03*
D32*
X-16257000Y56693600D03*
X-26417000Y56693600D03*
%TD*%
D34*
%TO.C,FTDI1*%
X11383000Y86943600D03*
X11383000Y84943600D03*
X11383000Y82943600D03*
X11383000Y80943600D03*
X11383000Y78943600D03*
X11383000Y76943600D03*
%TD*%
D33*
%TO.C,M1*%
X-66067000Y40690800D03*
X-68607000Y50580800D03*
%TD*%
D35*
%TO.C,PS1*%
X-44337000Y32943600D03*
D36*
X-55087000Y32943600D03*
X-55087000Y71443600D03*
X-47087000Y71443600D03*
%TD*%
%LPD*%
M02*
