%TF.GenerationSoftware,KiCad,Pcbnew,10.0.6*%
%TF.CreationDate,2026-09-23T17:14:21+04:00*%
%TF.ProjectId,evse,65767365-2e6b-4696-9361-645f70636258,rev?*%
%TF.SameCoordinates,Original*%
%TF.FileFunction,Soldermask,Bot*%
%TF.FilePolarity,Negative*%
%FSLAX46Y46*%
G04 Gerber Fmt 4.6, Leading zero omitted, Abs format (unit mm)*
G04 Created by KiCad (PCBNEW 10.0.6) date 2026-09-23 17:14:21*
%MOMM*%
%LPD*%
G01*
G04 APERTURE LIST*
G04 Aperture macros list*
%AMRoundRect*
0 Rectangle with rounded corners*
0 $1 Rounding radius*
0 $2 $3 $4 $5 $6 $7 $8 $9 X,Y pos of 4 corners*
0 Add a 4 corners polygon primitive as box body*
4,1,4,$2,$3,$4,$5,$6,$7,$8,$9,$2,$3,0*
0 Add four circle primitives for the rounded corners*
1,1,$1+$1,$2,$3*
1,1,$1+$1,$4,$5*
1,1,$1+$1,$6,$7*
1,1,$1+$1,$8,$9*
0 Add four rect primitives between the rounded corners*
20,1,$1+$1,$2,$3,$4,$5,0*
20,1,$1+$1,$4,$5,$6,$7,0*
20,1,$1+$1,$6,$7,$8,$9,0*
20,1,$1+$1,$8,$9,$2,$3,0*%
G04 Aperture macros list end*
%ADD10C,3.200000*%
%ADD11C,2.803200*%
%ADD12RoundRect,0.400000X0.600000X-0.600000X0.600000X0.600000X-0.600000X0.600000X-0.600000X-0.600000X0*%
%ADD13C,2.000000*%
%ADD14RoundRect,0.640000X0.960000X0.960000X-0.960000X0.960000X-0.960000X-0.960000X0.960000X-0.960000X0*%
%ADD15C,1.930400*%
%ADD16RoundRect,0.100000X0.712500X0.100000X-0.712500X0.100000X-0.712500X-0.100000X0.712500X-0.100000X0*%
%ADD17C,1.828800*%
%ADD18RoundRect,1.000000X3.000000X-0.800000X3.000000X0.800000X-3.000000X0.800000X-3.000000X-0.800000X0*%
%ADD19RoundRect,0.250000X1.250000X-0.850000X1.250000X0.850000X-1.250000X0.850000X-1.250000X-0.850000X0*%
%ADD20C,2.133600*%
%ADD21C,1.803200*%
%ADD22R,3.000000X3.000000*%
%ADD23C,3.000000*%
G04 APERTURE END LIST*
D10*
%TO.C,UNK_HOLE_1*%
X-25337000Y13943600D03*
%TD*%
%TO.C,*%
X-5337000Y13943600D03*
%TD*%
%TO.C,*%
X12663000Y106943600D03*
%TD*%
D11*
%TO.C,G2*%
X-81337000Y106943600D03*
%TD*%
D12*
%TO.C,CurrentCoil1*%
X-80337000Y63943600D03*
D13*
X-80337000Y66483600D03*
%TD*%
D12*
%TO.C,Pilot2*%
X-80337000Y82943600D03*
D13*
X-80337000Y85483600D03*
X-80337000Y88023600D03*
X-80337000Y90563600D03*
%TD*%
D10*
%TO.C,J4*%
X-13837000Y14993600D03*
D14*
X-13837000Y24893600D03*
D10*
X-18837000Y14993600D03*
X-18837000Y24893600D03*
%TD*%
D15*
%TO.C,F1*%
X-44898850Y25823450D03*
X-39818850Y25823450D03*
%TD*%
D12*
%TO.C,Pilot1*%
X-80337000Y94943600D03*
D13*
X-80337000Y97483600D03*
%TD*%
D10*
%TO.C,J5*%
X-73837000Y31993600D03*
D14*
X-73837000Y41893600D03*
D10*
X-78837000Y31993600D03*
X-78837000Y41893600D03*
%TD*%
D16*
%TO.C,U3*%
X6288000Y106943600D03*
X6288000Y106293600D03*
X6288000Y105643600D03*
X6288000Y104993600D03*
X2063000Y104993600D03*
X2063000Y105643600D03*
X2063000Y106293600D03*
X2063000Y106943600D03*
%TD*%
D17*
%TO.C,J1*%
X11933000Y93403600D03*
X9393000Y93403600D03*
X11933000Y95943600D03*
X9393000Y95943600D03*
X11933000Y98483600D03*
X9393000Y98483600D03*
%TD*%
D18*
%TO.C,K2*%
X5743000Y32093600D03*
X-4417000Y32093600D03*
D19*
X5743000Y56693600D03*
X-4417000Y56693600D03*
%TD*%
D20*
%TO.C,M3*%
X-64607000Y38943600D03*
X-62067000Y29053600D03*
%TD*%
%TO.C,M2*%
X-59567000Y51443600D03*
X-62107000Y61333600D03*
%TD*%
D12*
%TO.C,GFCI_CT1*%
X-80337000Y70943600D03*
D13*
X-80337000Y73483600D03*
X-80337000Y76023600D03*
X-80337000Y78563600D03*
%TD*%
D10*
%TO.C,J7*%
X-73837000Y48993600D03*
D14*
X-73837000Y58893600D03*
D10*
X-78837000Y48993600D03*
X-78837000Y58893600D03*
%TD*%
%TO.C,J6*%
X8163000Y14993600D03*
D14*
X8163000Y24893600D03*
D10*
X3163000Y14993600D03*
X3163000Y24893600D03*
%TD*%
%TO.C,J8*%
X-73837000Y14993600D03*
D14*
X-73837000Y24893600D03*
D10*
X-78837000Y14993600D03*
X-78837000Y24893600D03*
%TD*%
%TO.C,J9*%
X-51837000Y14993600D03*
D14*
X-51837000Y24893600D03*
D10*
X-56837000Y14993600D03*
X-56837000Y24893600D03*
%TD*%
D18*
%TO.C,K1*%
X-16257000Y32093600D03*
X-26417000Y32093600D03*
D19*
X-16257000Y56693600D03*
X-26417000Y56693600D03*
%TD*%
D21*
%TO.C,FTDI1*%
X11383000Y86943600D03*
X11383000Y84943600D03*
X11383000Y82943600D03*
X11383000Y80943600D03*
X11383000Y78943600D03*
X11383000Y76943600D03*
%TD*%
D20*
%TO.C,M1*%
X-66067000Y40690800D03*
X-68607000Y50580800D03*
%TD*%
D22*
%TO.C,PS1*%
X-44337000Y32943600D03*
D23*
X-55087000Y32943600D03*
X-55087000Y71443600D03*
X-47087000Y71443600D03*
%TD*%
M02*
