M48
; DRILL file KiCad 10.0.6 date 2026-09-23T17:14:21
; FORMAT={-:-/ absolute / inch / decimal}
; #@! TF.CreationDate,2026-09-23T17:14:21+04:00
; #@! TF.GenerationSoftware,Kicad,Pcbnew,10.0.6
; #@! TF.FileFunction,Plated,1,2,PTH
FMAT,2
INCH
; #@! TA.AperFunction,Plated,PTH,ComponentDrill
T1C0.0276
; #@! TA.AperFunction,Plated,PTH,ComponentDrill
T2C0.0354
; #@! TA.AperFunction,Plated,PTH,ComponentDrill
T3C0.0394
; #@! TA.AperFunction,Plated,PTH,ComponentDrill
T4C0.0472
; #@! TA.AperFunction,Plated,PTH,ComponentDrill
T5C0.0516
; #@! TA.AperFunction,Plated,PTH,ComponentDrill
T6C0.0551
; #@! TA.AperFunction,Plated,PTH,ComponentDrill
T7C0.0591
; #@! TA.AperFunction,Plated,PTH,ComponentDrill
T8C0.0748
%
G90
G05
T1
X0.4481Y3.423
X0.4481Y3.3442
X0.4481Y3.2655
X0.4481Y3.1868
X0.4481Y3.108
X0.4481Y3.0293
T2
X0.3698Y3.8773
X0.3698Y3.7773
X0.3698Y3.6773
X0.4698Y3.8773
X0.4698Y3.7773
X0.4698Y3.6773
T3
X-2.7011Y1.9914
X-2.6011Y1.602
X-2.5436Y1.5332
X-2.4452Y2.4147
X-2.4436Y1.1438
X-2.3452Y2.0253
X-1.7677Y1.0167
X-1.5677Y1.0167
T4
X-3.1629Y3.8379
X-3.1629Y3.7379
X-3.1629Y3.5655
X-3.1629Y3.4655
X-3.1629Y3.3655
X-3.1629Y3.2655
X-3.1629Y3.0931
X-3.1629Y2.9931
X-3.1629Y2.8931
X-3.1629Y2.7931
X-3.1629Y2.6175
X-3.1629Y2.5175
T5
X-3.2022Y4.2104
T7
X-2.1688Y2.8127
X-2.1688Y1.297
X-1.8538Y2.8127
X-1.7456Y1.297
T8
X-3.1038Y2.3186
X-3.1038Y1.9289
X-3.1038Y1.6494
X-3.1038Y1.2596
X-3.1038Y0.9801
X-3.1038Y0.5903
X-2.907Y2.3186
X-2.907Y1.9289
X-2.907Y1.6494
X-2.907Y1.2596
X-2.907Y0.9801
X-2.907Y0.5903
X-2.2377Y0.9801
X-2.2377Y0.5903
X-2.0408Y0.9801
X-2.0408Y0.5903
X-0.7416Y0.9801
X-0.7416Y0.5903
X-0.5448Y0.9801
X-0.5448Y0.5903
X0.1245Y0.9801
X0.1245Y0.5903
X0.3214Y0.9801
X0.3214Y0.5903
T2
G00X-1.0597Y2.232
M15
G01X-1.0204Y2.232
M16
G05
G00X-0.6597Y2.232
M15
G01X-0.6204Y2.232
M16
G05
G00X-0.1936Y2.232
M15
G01X-0.1542Y2.232
M16
G05
G00X0.2064Y2.232
M15
G01X0.2458Y2.232
M16
G05
T6
G00X-1.1188Y1.2635
M15
G01X-0.9613Y1.2635
M16
G05
G00X-0.7188Y1.2635
M15
G01X-0.5613Y1.2635
M16
G05
G00X-0.2526Y1.2635
M15
G01X-0.0952Y1.2635
M16
G05
G00X0.1474Y1.2635
M15
G01X0.3048Y1.2635
M16
G05
M30
