%TF.GenerationSoftware,KiCad,Pcbnew,10.0.6*%
%TF.CreationDate,2026-09-23T17:14:21+04:00*%
%TF.ProjectId,evse,65767365-2e6b-4696-9361-645f70636258,rev?*%
%TF.SameCoordinates,Original*%
%TF.FileFunction,Paste,Top*%
%TF.FilePolarity,Positive*%
%FSLAX46Y46*%
G04 Gerber Fmt 4.6, Leading zero omitted, Abs format (unit mm)*
G04 Created by KiCad (PCBNEW 10.0.6) date 2026-09-23 17:14:21*
%MOMM*%
%LPD*%
G01*
G04 APERTURE LIST*
G04 Aperture macros list*
%AMRoundRect*
0 Rectangle with rounded corners*
0 $1 Rounding radius*
0 $2 $3 $4 $5 $6 $7 $8 $9 X,Y pos of 4 corners*
0 Add a 4 corners polygon primitive as box body*
4,1,4,$2,$3,$4,$5,$6,$7,$8,$9,$2,$3,0*
0 Add four circle primitives for the rounded corners*
1,1,$1+$1,$2,$3*
1,1,$1+$1,$4,$5*
1,1,$1+$1,$6,$7*
1,1,$1+$1,$8,$9*
0 Add four rect primitives between the rounded corners*
20,1,$1+$1,$2,$3,$4,$5,0*
20,1,$1+$1,$4,$5,$6,$7,0*
20,1,$1+$1,$6,$7,$8,$9,0*
20,1,$1+$1,$8,$9,$2,$3,0*%
G04 Aperture macros list end*
%ADD10RoundRect,0.250000X-0.250000X-0.475000X0.250000X-0.475000X0.250000X0.475000X-0.250000X0.475000X0*%
%ADD11R,1.200000X1.400000*%
%ADD12R,1.600000X0.550000*%
%ADD13R,0.550000X1.600000*%
%ADD14RoundRect,0.218750X-0.218750X-0.381250X0.218750X-0.381250X0.218750X0.381250X-0.218750X0.381250X0*%
%ADD15R,0.900000X0.800000*%
%ADD16RoundRect,0.079500X-0.079500X-0.100500X0.079500X-0.100500X0.079500X0.100500X-0.079500X0.100500X0*%
%ADD17RoundRect,0.225000X0.225000X0.250000X-0.225000X0.250000X-0.225000X-0.250000X0.225000X-0.250000X0*%
%ADD18RoundRect,0.250000X-0.325000X-0.650000X0.325000X-0.650000X0.325000X0.650000X-0.325000X0.650000X0*%
%ADD19RoundRect,0.225000X-0.225000X-0.375000X0.225000X-0.375000X0.225000X0.375000X-0.225000X0.375000X0*%
%ADD20RoundRect,0.250000X-0.312500X-1.075000X0.312500X-1.075000X0.312500X1.075000X-0.312500X1.075000X0*%
%ADD21RoundRect,0.250000X-0.262500X-0.450000X0.262500X-0.450000X0.262500X0.450000X-0.262500X0.450000X0*%
%ADD22RoundRect,0.250000X-1.000000X-0.650000X1.000000X-0.650000X1.000000X0.650000X-1.000000X0.650000X0*%
%ADD23RoundRect,0.150000X-0.587500X-0.150000X0.587500X-0.150000X0.587500X0.150000X-0.587500X0.150000X0*%
%ADD24R,1.500000X1.900000*%
%ADD25R,1.500000X3.600000*%
%ADD26RoundRect,0.150000X-0.512500X-0.150000X0.512500X-0.150000X0.512500X0.150000X-0.512500X0.150000X0*%
%ADD27RoundRect,0.140000X-0.140000X-0.170000X0.140000X-0.170000X0.140000X0.170000X-0.140000X0.170000X0*%
%ADD28RoundRect,0.150000X-0.825000X-0.150000X0.825000X-0.150000X0.825000X0.150000X-0.825000X0.150000X0*%
%ADD29R,2.400000X2.400000*%
G04 APERTURE END LIST*
D10*
%TO.C,C2*%
X-38013600Y84785200D03*
X-39913600Y84785200D03*
%TD*%
%TO.C,C1*%
X-39913600Y91186000D03*
X-38013600Y91186000D03*
%TD*%
D11*
%TO.C,Y1*%
X-38023800Y86852400D03*
X-38023800Y89052400D03*
X-39723800Y89052400D03*
X-39723800Y86852400D03*
%TD*%
D12*
%TO.C,U4*%
X-35879600Y93139600D03*
X-35879600Y92339600D03*
X-35879600Y91539600D03*
X-35879600Y90739600D03*
X-35879600Y89939600D03*
X-35879600Y89139600D03*
X-35879600Y88339600D03*
X-35879600Y87539600D03*
D13*
X-34429600Y86089600D03*
X-33629600Y86089600D03*
X-32829600Y86089600D03*
X-32029600Y86089600D03*
X-31229600Y86089600D03*
X-30429600Y86089600D03*
X-29629600Y86089600D03*
X-28829600Y86089600D03*
D12*
X-27379600Y87539600D03*
X-27379600Y88339600D03*
X-27379600Y89139600D03*
X-27379600Y89939600D03*
X-27379600Y90739600D03*
X-27379600Y91539600D03*
X-27379600Y92339600D03*
X-27379600Y93139600D03*
D13*
X-28829600Y94589600D03*
X-29629600Y94589600D03*
X-30429600Y94589600D03*
X-31229600Y94589600D03*
X-32029600Y94589600D03*
X-32829600Y94589600D03*
X-33629600Y94589600D03*
X-34429600Y94589600D03*
%TD*%
D14*
%TO.C,L1*%
X-155167300Y44500000D03*
X-153042300Y44500000D03*
%TD*%
D15*
%TO.C,D11*%
X-137054800Y48100000D03*
X-137054800Y46200000D03*
X-134954800Y47150000D03*
%TD*%
D10*
%TO.C,C33*%
X-146204800Y50290000D03*
X-144304800Y50290000D03*
%TD*%
%TO.C,C29*%
X-146204800Y53300000D03*
X-144304800Y53300000D03*
%TD*%
%TO.C,C28*%
X-146204800Y56310000D03*
X-144304800Y56310000D03*
%TD*%
%TO.C,C27*%
X-146204800Y59320000D03*
X-144304800Y59320000D03*
%TD*%
%TO.C,C24*%
X-150654800Y47280000D03*
X-148754800Y47280000D03*
%TD*%
%TO.C,C23*%
X-150654800Y50290000D03*
X-148754800Y50290000D03*
%TD*%
%TO.C,C21*%
X-150654800Y53300000D03*
X-148754800Y53300000D03*
%TD*%
%TO.C,C20*%
X-150654800Y56310000D03*
X-148754800Y56310000D03*
%TD*%
%TO.C,C19*%
X-150654800Y59320000D03*
X-148754800Y59320000D03*
%TD*%
D16*
%TO.C,C18*%
X-146899800Y44900000D03*
X-146209800Y44900000D03*
%TD*%
D17*
%TO.C,C17*%
X-150554800Y44520000D03*
X-149004800Y44520000D03*
%TD*%
D10*
%TO.C,C15*%
X-155104800Y47280000D03*
X-153204800Y47280000D03*
%TD*%
%TO.C,C12*%
X-155104800Y50290000D03*
X-153204800Y50290000D03*
%TD*%
%TO.C,C9*%
X-155104800Y53300000D03*
X-153204800Y53300000D03*
%TD*%
%TO.C,C4*%
X-155104800Y56310000D03*
X-153204800Y56310000D03*
%TD*%
%TO.C,C3*%
X-155104800Y59320000D03*
X-153204800Y59320000D03*
%TD*%
D18*
%TO.C,C22*%
X-147226000Y80299800D03*
X-144276000Y80299800D03*
%TD*%
D19*
%TO.C,D6*%
X-144006000Y86999800D03*
X-147306000Y86999800D03*
%TD*%
%TO.C,D4*%
X-144006000Y93699800D03*
X-147306000Y93699800D03*
%TD*%
D20*
%TO.C,R37*%
X-160933500Y120619800D03*
X-158008500Y120619800D03*
%TD*%
D10*
%TO.C,C5*%
X-141511000Y94549800D03*
X-139611000Y94549800D03*
%TD*%
D21*
%TO.C,R9*%
X-150963500Y121249800D03*
X-149138500Y121249800D03*
%TD*%
D20*
%TO.C,R34*%
X-166543500Y112199800D03*
X-163618500Y112199800D03*
%TD*%
D10*
%TO.C,C26*%
X-132611000Y97559800D03*
X-130711000Y97559800D03*
%TD*%
D22*
%TO.C,D10*%
X-150596000Y86149800D03*
X-154596000Y86149800D03*
%TD*%
D10*
%TO.C,C7*%
X-137061000Y100569800D03*
X-135161000Y100569800D03*
%TD*%
D21*
%TO.C,R15*%
X-150963500Y109449800D03*
X-149138500Y109449800D03*
%TD*%
D23*
%TO.C,Q3*%
X-166368500Y91499800D03*
X-166368500Y89599800D03*
X-164493500Y90549800D03*
%TD*%
D21*
%TO.C,R20*%
X-146553500Y115349800D03*
X-144728500Y115349800D03*
%TD*%
D10*
%TO.C,C10*%
X-137061000Y97559800D03*
X-135161000Y97559800D03*
%TD*%
D21*
%TO.C,R7*%
X-155373500Y106499800D03*
X-153548500Y106499800D03*
%TD*%
D19*
%TO.C,D2*%
X-147306000Y100399800D03*
X-144006000Y100399800D03*
%TD*%
D20*
%TO.C,R33*%
X-166543500Y116409800D03*
X-163618500Y116409800D03*
%TD*%
D21*
%TO.C,R8*%
X-155373500Y103549800D03*
X-153548500Y103549800D03*
%TD*%
%TO.C,R2*%
X-155373500Y118299800D03*
X-153548500Y118299800D03*
%TD*%
D24*
%TO.C,IC8*%
X-141129800Y78424800D03*
X-138589800Y78424800D03*
X-136049800Y78424800D03*
X-133509800Y78424800D03*
X-133509800Y88584800D03*
X-136049800Y88584800D03*
X-138589800Y88584800D03*
X-141129800Y88584800D03*
%TD*%
D23*
%TO.C,Q2*%
X-166368500Y95949800D03*
X-166368500Y94049800D03*
X-164493500Y94999800D03*
%TD*%
%TO.C,D1*%
X-166368500Y100399800D03*
X-166368500Y98499800D03*
X-164493500Y99449800D03*
%TD*%
D20*
%TO.C,R35*%
X-166543500Y107989800D03*
X-163618500Y107989800D03*
%TD*%
D21*
%TO.C,R19*%
X-146553500Y118299800D03*
X-144728500Y118299800D03*
%TD*%
%TO.C,R21*%
X-146553500Y112399800D03*
X-144728500Y112399800D03*
%TD*%
D19*
%TO.C,D5*%
X-147306000Y90349800D03*
X-144006000Y90349800D03*
%TD*%
D25*
%TO.C,L2*%
X-166636000Y80223200D03*
X-163586000Y80223200D03*
%TD*%
D21*
%TO.C,R22*%
X-146553500Y109449800D03*
X-144728500Y109449800D03*
%TD*%
%TO.C,R27*%
X-142143500Y115349800D03*
X-140318500Y115349800D03*
%TD*%
D26*
%TO.C,U1*%
X-160898500Y81424800D03*
X-160898500Y80474800D03*
X-160898500Y79524800D03*
X-158623500Y79524800D03*
X-158623500Y80474800D03*
X-158623500Y81424800D03*
%TD*%
D21*
%TO.C,R24*%
X-146553500Y103549800D03*
X-144728500Y103549800D03*
%TD*%
D20*
%TO.C,R38*%
X-160933500Y116409800D03*
X-158008500Y116409800D03*
%TD*%
D21*
%TO.C,R17*%
X-150963500Y103549800D03*
X-149138500Y103549800D03*
%TD*%
D27*
%TO.C,C35*%
X-155711000Y78049800D03*
X-154751000Y78049800D03*
%TD*%
D28*
%TO.C,IC3*%
X-137276000Y114684800D03*
X-137276000Y113414800D03*
X-137276000Y112144800D03*
X-137276000Y110874800D03*
X-132326000Y110874800D03*
X-132326000Y112144800D03*
X-132326000Y113414800D03*
X-132326000Y114684800D03*
%TD*%
D10*
%TO.C,C6*%
X-141511000Y91539800D03*
X-139611000Y91539800D03*
%TD*%
D28*
%TO.C,IC1*%
X-137276000Y121269800D03*
X-137276000Y119999800D03*
X-137276000Y118729800D03*
X-137276000Y117459800D03*
X-132326000Y117459800D03*
X-132326000Y118729800D03*
X-132326000Y119999800D03*
X-132326000Y121269800D03*
%TD*%
D21*
%TO.C,R26*%
X-142143500Y118299800D03*
X-140318500Y118299800D03*
%TD*%
D10*
%TO.C,C11*%
X-137061000Y94549800D03*
X-135161000Y94549800D03*
%TD*%
D21*
%TO.C,R6*%
X-155373500Y109449800D03*
X-153548500Y109449800D03*
%TD*%
%TO.C,R23*%
X-146553500Y106499800D03*
X-144728500Y106499800D03*
%TD*%
%TO.C,R16*%
X-150963500Y106499800D03*
X-149138500Y106499800D03*
%TD*%
%TO.C,R14*%
X-150963500Y112399800D03*
X-149138500Y112399800D03*
%TD*%
%TO.C,R10*%
X-150963500Y118299800D03*
X-149138500Y118299800D03*
%TD*%
%TO.C,R5*%
X-155373500Y112399800D03*
X-153548500Y112399800D03*
%TD*%
%TO.C,R18*%
X-146553500Y121249800D03*
X-144728500Y121249800D03*
%TD*%
D10*
%TO.C,C32*%
X-132611000Y94549800D03*
X-130711000Y94549800D03*
%TD*%
%TO.C,C13*%
X-137061000Y91539800D03*
X-135161000Y91539800D03*
%TD*%
%TO.C,C16*%
X-132611000Y100569800D03*
X-130711000Y100569800D03*
%TD*%
D29*
%TO.C,TVS1*%
X-165861000Y85599800D03*
X-161461000Y85599800D03*
%TD*%
D21*
%TO.C,R31*%
X-142143500Y112399800D03*
X-140318500Y112399800D03*
%TD*%
D22*
%TO.C,D7*%
X-150596000Y99799800D03*
X-154596000Y99799800D03*
%TD*%
D20*
%TO.C,R32*%
X-166543500Y120619800D03*
X-163618500Y120619800D03*
%TD*%
D28*
%TO.C,U2*%
X-137276000Y108099800D03*
X-137276000Y106829800D03*
X-137276000Y105559800D03*
X-137276000Y104289800D03*
X-132326000Y104289800D03*
X-132326000Y105559800D03*
X-132326000Y106829800D03*
X-132326000Y108099800D03*
%TD*%
D18*
%TO.C,C14*%
X-147226000Y83649800D03*
X-144276000Y83649800D03*
%TD*%
D21*
%TO.C,R41*%
X-142143500Y106499800D03*
X-140318500Y106499800D03*
%TD*%
D20*
%TO.C,R36*%
X-166543500Y103779800D03*
X-163618500Y103779800D03*
%TD*%
%TO.C,R39*%
X-160933500Y112199800D03*
X-158008500Y112199800D03*
%TD*%
D21*
%TO.C,R3*%
X-155373500Y115349800D03*
X-153548500Y115349800D03*
%TD*%
D22*
%TO.C,D9*%
X-150596000Y90699800D03*
X-154596000Y90699800D03*
%TD*%
%TO.C,D8*%
X-150596000Y95249800D03*
X-154596000Y95249800D03*
%TD*%
D21*
%TO.C,R1*%
X-155373500Y121249800D03*
X-153548500Y121249800D03*
%TD*%
%TO.C,R11*%
X-150963500Y115349800D03*
X-149138500Y115349800D03*
%TD*%
D19*
%TO.C,D3*%
X-144006000Y97049800D03*
X-147306000Y97049800D03*
%TD*%
D21*
%TO.C,R40*%
X-142143500Y109449800D03*
X-140318500Y109449800D03*
%TD*%
D10*
%TO.C,C34*%
X-132611000Y91539800D03*
X-130711000Y91539800D03*
%TD*%
D21*
%TO.C,R25*%
X-142143500Y121249800D03*
X-140318500Y121249800D03*
%TD*%
M02*
