%TF.GenerationSoftware,KiCad,Pcbnew,10.0.6*%
%TF.CreationDate,2026-09-23T17:14:21+04:00*%
%TF.ProjectId,evse,65767365-2e6b-4696-9361-645f70636258,rev?*%
%TF.SameCoordinates,Original*%
%TF.FileFunction,Copper,L2,Bot*%
%TF.FilePolarity,Positive*%
%FSLAX46Y46*%
G04 Gerber Fmt 4.6, Leading zero omitted, Abs format (unit mm)*
G04 Created by KiCad (PCBNEW 10.0.6) date 2026-09-23 17:14:21*
%MOMM*%
%LPD*%
G01*
G04 APERTURE LIST*
G04 Aperture macros list*
%AMRoundRect*
0 Rectangle with rounded corners*
0 $1 Rounding radius*
0 $2 $3 $4 $5 $6 $7 $8 $9 X,Y pos of 4 corners*
0 Add a 4 corners polygon primitive as box body*
4,1,4,$2,$3,$4,$5,$6,$7,$8,$9,$2,$3,0*
0 Add four circle primitives for the rounded corners*
1,1,$1+$1,$2,$3*
1,1,$1+$1,$4,$5*
1,1,$1+$1,$6,$7*
1,1,$1+$1,$8,$9*
0 Add four rect primitives between the rounded corners*
20,1,$1+$1,$2,$3,$4,$5,0*
20,1,$1+$1,$4,$5,$6,$7,0*
20,1,$1+$1,$6,$7,$8,$9,0*
20,1,$1+$1,$8,$9,$2,$3,0*%
G04 Aperture macros list end*
%ADD10C,0.300000*%
%TA.AperFunction,ComponentPad*%
%ADD11C,2.600000*%
%TD*%
%TA.AperFunction,ComponentPad*%
%ADD12RoundRect,0.400000X0.600000X-0.600000X0.600000X0.600000X-0.600000X0.600000X-0.600000X-0.600000X0*%
%TD*%
%TA.AperFunction,ComponentPad*%
%ADD13C,2.000000*%
%TD*%
%TA.AperFunction,ComponentPad*%
%ADD14C,3.200000*%
%TD*%
%TA.AperFunction,ComponentPad*%
%ADD15RoundRect,0.640000X0.960000X0.960000X-0.960000X0.960000X-0.960000X-0.960000X0.960000X-0.960000X0*%
%TD*%
%TA.AperFunction,ComponentPad*%
%ADD16C,1.930400*%
%TD*%
%TA.AperFunction,SMDPad,CuDef*%
%ADD17RoundRect,0.100000X0.712500X0.100000X-0.712500X0.100000X-0.712500X-0.100000X0.712500X-0.100000X0*%
%TD*%
%TA.AperFunction,ComponentPad*%
%ADD18C,1.625600*%
%TD*%
%TA.AperFunction,ComponentPad*%
%ADD19RoundRect,1.000000X3.000000X-0.800000X3.000000X0.800000X-3.000000X0.800000X-3.000000X-0.800000X0*%
%TD*%
%TA.AperFunction,ComponentPad*%
%ADD20RoundRect,0.250000X1.250000X-0.850000X1.250000X0.850000X-1.250000X0.850000X-1.250000X-0.850000X0*%
%TD*%
%TA.AperFunction,ComponentPad*%
%ADD21C,1.600000*%
%TD*%
%TA.AperFunction,ComponentPad*%
%ADD22R,3.000000X3.000000*%
%TD*%
%TA.AperFunction,ComponentPad*%
%ADD23C,3.000000*%
%TD*%
%TA.AperFunction,Conductor*%
%ADD24C,0.250000*%
%TD*%
%TA.AperFunction,Conductor*%
%ADD25C,1.000000*%
%TD*%
%TA.AperFunction,Conductor*%
%ADD26C,2.000000*%
%TD*%
G04 APERTURE END LIST*
D10*
G36*
X-73225940Y87499172D02*
G01*
X-73408740Y87499172D01*
X-73566343Y87551706D01*
X-73666948Y87652312D01*
X-73720129Y87758672D01*
X-73783083Y88010493D01*
X-73783083Y88187852D01*
X-73720129Y88439673D01*
X-73666948Y88546033D01*
X-73566342Y88646639D01*
X-73408740Y88699172D01*
X-73225940Y88699172D01*
X-73225940Y87499172D01*
G37*
G36*
X-69616416Y87032505D02*
G01*
X-74249750Y87032505D01*
X-74249750Y88206315D01*
X-74083083Y88206315D01*
X-74083083Y87992029D01*
X-74082581Y87986926D01*
X-74082906Y87984738D01*
X-74081287Y87973788D01*
X-74080201Y87962765D01*
X-74079354Y87960721D01*
X-74078604Y87955649D01*
X-74007176Y87669935D01*
X-74006405Y87667777D01*
X-74006328Y87666696D01*
X-74001670Y87654522D01*
X-73997283Y87642244D01*
X-73996639Y87641374D01*
X-73995819Y87639233D01*
X-73924390Y87496376D01*
X-73916463Y87483783D01*
X-73914947Y87480123D01*
X-73911566Y87476004D01*
X-73908725Y87471490D01*
X-73905732Y87468894D01*
X-73896292Y87457392D01*
X-73753435Y87314534D01*
X-73730705Y87295879D01*
X-73725726Y87293817D01*
X-73721654Y87290285D01*
X-73694803Y87278297D01*
X-73480517Y87206869D01*
X-73466005Y87203570D01*
X-73462347Y87202054D01*
X-73457045Y87201532D01*
X-73451843Y87200349D01*
X-73447889Y87200631D01*
X-73433083Y87199172D01*
X-73075940Y87199172D01*
X-73046676Y87202054D01*
X-72992604Y87224452D01*
X-72951220Y87265836D01*
X-72928822Y87319908D01*
X-72925940Y87349172D01*
X-72925940Y88849172D01*
X-72511654Y88849172D01*
X-72511654Y87349172D01*
X-72510913Y87341647D01*
X-72511288Y87338695D01*
X-72510246Y87334875D01*
X-72508772Y87319908D01*
X-72501137Y87301476D01*
X-72495888Y87282231D01*
X-72490034Y87274672D01*
X-72486374Y87265836D01*
X-72472267Y87251729D01*
X-72460053Y87235957D01*
X-72451751Y87231213D01*
X-72444990Y87224452D01*
X-72426560Y87216818D01*
X-72409237Y87206919D01*
X-72399752Y87205714D01*
X-72390918Y87202054D01*
X-72370968Y87202054D01*
X-72351177Y87199538D01*
X-72341952Y87202054D01*
X-72332390Y87202054D01*
X-72313958Y87209690D01*
X-72294713Y87214938D01*
X-72287154Y87220793D01*
X-72278318Y87224452D01*
X-72264211Y87238560D01*
X-72248439Y87250773D01*
X-72239734Y87263037D01*
X-72236934Y87265836D01*
X-72235796Y87268584D01*
X-72231418Y87274751D01*
X-71654511Y88284337D01*
X-71654511Y87349172D01*
X-71651629Y87319908D01*
X-71629231Y87265836D01*
X-71587847Y87224452D01*
X-71533775Y87202054D01*
X-71475247Y87202054D01*
X-71421175Y87224452D01*
X-71379791Y87265836D01*
X-71357393Y87319908D01*
X-71354511Y87349172D01*
X-71354511Y87992029D01*
X-71011654Y87992029D01*
X-71011654Y87492029D01*
X-71008772Y87462765D01*
X-70986374Y87408693D01*
X-70986371Y87408690D01*
X-70967721Y87385964D01*
X-70896293Y87314535D01*
X-70873562Y87295880D01*
X-70868586Y87293819D01*
X-70864511Y87290285D01*
X-70837660Y87278297D01*
X-70623374Y87206869D01*
X-70608862Y87203570D01*
X-70605204Y87202054D01*
X-70599902Y87201532D01*
X-70594700Y87200349D01*
X-70590746Y87200631D01*
X-70575940Y87199172D01*
X-70433083Y87199172D01*
X-70418278Y87200631D01*
X-70414323Y87200349D01*
X-70409122Y87201532D01*
X-70403819Y87202054D01*
X-70400162Y87203570D01*
X-70385649Y87206869D01*
X-70171363Y87278297D01*
X-70144512Y87290285D01*
X-70140441Y87293817D01*
X-70135461Y87295879D01*
X-70112731Y87314534D01*
X-69969874Y87457392D01*
X-69960436Y87468894D01*
X-69957441Y87471490D01*
X-69954601Y87476004D01*
X-69951219Y87480123D01*
X-69949704Y87483783D01*
X-69941776Y87496376D01*
X-69870347Y87639232D01*
X-69869528Y87641375D01*
X-69868883Y87642244D01*
X-69864499Y87654516D01*
X-69859838Y87666696D01*
X-69859762Y87667777D01*
X-69858990Y87669935D01*
X-69787562Y87955649D01*
X-69786813Y87960721D01*
X-69785965Y87962765D01*
X-69784880Y87973788D01*
X-69783260Y87984738D01*
X-69783586Y87986926D01*
X-69783083Y87992029D01*
X-69783083Y88206315D01*
X-69783586Y88211419D01*
X-69783260Y88213606D01*
X-69784880Y88224557D01*
X-69785965Y88235579D01*
X-69786813Y88237624D01*
X-69787562Y88242695D01*
X-69858990Y88528409D01*
X-69859762Y88530568D01*
X-69859838Y88531648D01*
X-69864499Y88543829D01*
X-69868883Y88556100D01*
X-69869528Y88556970D01*
X-69870347Y88559112D01*
X-69941776Y88701968D01*
X-69949703Y88714560D01*
X-69951219Y88718222D01*
X-69954603Y88722345D01*
X-69957441Y88726854D01*
X-69960434Y88729450D01*
X-69969874Y88740952D01*
X-70112731Y88883809D01*
X-70135462Y88902464D01*
X-70140442Y88904527D01*
X-70144512Y88908057D01*
X-70171363Y88920046D01*
X-70385649Y88991474D01*
X-70400157Y88994773D01*
X-70403819Y88996290D01*
X-70409128Y88996813D01*
X-70414322Y88997994D01*
X-70418272Y88997714D01*
X-70433083Y88999172D01*
X-70647368Y88999172D01*
X-70676632Y88996290D01*
X-70681610Y88994229D01*
X-70686987Y88993846D01*
X-70714450Y88983336D01*
X-70857308Y88911907D01*
X-70882194Y88896242D01*
X-70920540Y88852027D01*
X-70939048Y88796505D01*
X-70934900Y88738124D01*
X-70908725Y88685775D01*
X-70864510Y88647429D01*
X-70808988Y88628921D01*
X-70750607Y88633069D01*
X-70723144Y88643579D01*
X-70611958Y88699172D01*
X-70457423Y88699172D01*
X-70299825Y88646639D01*
X-70199218Y88546032D01*
X-70146039Y88439673D01*
X-70083083Y88187852D01*
X-70083083Y88010493D01*
X-70146039Y87758672D01*
X-70199218Y87652312D01*
X-70299824Y87551706D01*
X-70457426Y87499172D01*
X-70551597Y87499172D01*
X-70709200Y87551706D01*
X-70711654Y87554161D01*
X-70711654Y87842029D01*
X-70575940Y87842029D01*
X-70546676Y87844911D01*
X-70492604Y87867309D01*
X-70451220Y87908693D01*
X-70428822Y87962765D01*
X-70428822Y88021293D01*
X-70451220Y88075365D01*
X-70492604Y88116749D01*
X-70546676Y88139147D01*
X-70575940Y88142029D01*
X-70861654Y88142029D01*
X-70890918Y88139147D01*
X-70944990Y88116749D01*
X-70986374Y88075365D01*
X-71008772Y88021293D01*
X-71011654Y87992029D01*
X-71354511Y87992029D01*
X-71354511Y88849172D01*
X-71355253Y88856699D01*
X-71354877Y88859650D01*
X-71355920Y88863472D01*
X-71357393Y88878436D01*
X-71365029Y88896869D01*
X-71370277Y88916113D01*
X-71376132Y88923673D01*
X-71379791Y88932508D01*
X-71393899Y88946616D01*
X-71406112Y88962387D01*
X-71414415Y88967132D01*
X-71421175Y88973892D01*
X-71439606Y88981527D01*
X-71456928Y88991425D01*
X-71466414Y88992631D01*
X-71475247Y88996290D01*
X-71495197Y88996290D01*
X-71514988Y88998806D01*
X-71524213Y88996290D01*
X-71533775Y88996290D01*
X-71552204Y88988657D01*
X-71571452Y88983407D01*
X-71579014Y88977551D01*
X-71587847Y88973892D01*
X-71601953Y88959787D01*
X-71617726Y88947571D01*
X-71626432Y88935308D01*
X-71629231Y88932508D01*
X-71630370Y88929761D01*
X-71634747Y88923593D01*
X-72211654Y87914006D01*
X-72211654Y88849172D01*
X-72214536Y88878436D01*
X-72236934Y88932508D01*
X-72278318Y88973892D01*
X-72332390Y88996290D01*
X-72390918Y88996290D01*
X-72444990Y88973892D01*
X-72486374Y88932508D01*
X-72508772Y88878436D01*
X-72511654Y88849172D01*
X-72925940Y88849172D01*
X-72928822Y88878436D01*
X-72951220Y88932508D01*
X-72992604Y88973892D01*
X-73046676Y88996290D01*
X-73075940Y88999172D01*
X-73433083Y88999172D01*
X-73447895Y88997714D01*
X-73451844Y88997994D01*
X-73457039Y88996813D01*
X-73462347Y88996290D01*
X-73466009Y88994774D01*
X-73480518Y88991474D01*
X-73694803Y88920045D01*
X-73721654Y88908057D01*
X-73725724Y88904528D01*
X-73730705Y88902464D01*
X-73753435Y88883809D01*
X-73896292Y88740952D01*
X-73905732Y88729451D01*
X-73908725Y88726854D01*
X-73911566Y88722341D01*
X-73914947Y88718221D01*
X-73916463Y88714562D01*
X-73924390Y88701968D01*
X-73995819Y88559111D01*
X-73996639Y88556971D01*
X-73997283Y88556100D01*
X-74001670Y88543823D01*
X-74006328Y88531648D01*
X-74006405Y88530568D01*
X-74007176Y88528409D01*
X-74078604Y88242695D01*
X-74079354Y88237624D01*
X-74080201Y88235579D01*
X-74081287Y88224557D01*
X-74082906Y88213606D01*
X-74082581Y88211419D01*
X-74083083Y88206315D01*
X-74249750Y88206315D01*
X-74249750Y89165839D01*
X-69616416Y89165839D01*
X-69616416Y87032505D01*
G37*
D11*
%TO.P,G2,1*%
%TO.N,GND*%
X-81337000Y106943600D03*
%TD*%
D12*
%TO.P,CurrentCoil1,1,Pin_1_1*%
%TO.N,AMP_READ*%
X-80337000Y63943600D03*
D13*
%TO.P,CurrentCoil1,2,Pin_2_2*%
%TO.N,AMP_CT_SENSE*%
X-80337000Y66483600D03*
%TD*%
D12*
%TO.P,Pilot2,1,Pin_1_1*%
%TO.N,+5V*%
X-80337000Y82943600D03*
D13*
%TO.P,Pilot2,2,Pin_2_2*%
%TO.N,PP*%
X-80337000Y85483600D03*
%TO.P,Pilot2,3,Pin_3_3*%
%TO.N,GND*%
X-80337000Y88023600D03*
%TO.P,Pilot2,4,Pin_4_4*%
%TO.N,PILOT*%
X-80337000Y90563600D03*
%TD*%
D14*
%TO.P,J4,1,Terminal_1*%
%TO.N,AC_L_OUT*%
X-13837000Y14993600D03*
D15*
X-13837000Y24893600D03*
D14*
X-18837000Y14993600D03*
X-18837000Y24893600D03*
%TD*%
D16*
%TO.P,F1,1*%
%TO.N,ACNIN*%
X-44898850Y25823450D03*
%TO.P,F1,2*%
%TO.N,Net-(PS1-AC{slash}N)*%
X-39818850Y25823450D03*
%TD*%
D12*
%TO.P,Pilot1,1,Pin_1_1*%
%TO.N,PILOT*%
X-80337000Y94943600D03*
D13*
%TO.P,Pilot1,2,Pin_2_2*%
%TO.N,PP*%
X-80337000Y97483600D03*
%TD*%
D14*
%TO.P,J5,1,Terminal_1*%
%TO.N,ACLIN*%
X-73837000Y31993600D03*
D15*
X-73837000Y41893600D03*
D14*
X-78837000Y31993600D03*
X-78837000Y41893600D03*
%TD*%
D17*
%TO.P,U3,1,SDA_1*%
%TO.N,SDA*%
X6288000Y106943600D03*
%TO.P,U3,2,SCL_2*%
%TO.N,SCL*%
X6288000Y106293600D03*
%TO.P,U3,3,Alert_3*%
%TO.N,unconnected-(U3-Alert-Pad3)*%
X6288000Y105643600D03*
%TO.P,U3,4,GND_4*%
%TO.N,GND*%
X6288000Y104993600D03*
%TO.P,U3,5,A2_5*%
%TO.N,unconnected-(U3-A2-Pad5)*%
X2063000Y104993600D03*
%TO.P,U3,6,A1_6*%
%TO.N,unconnected-(U3-A1-Pad6)*%
X2063000Y105643600D03*
%TO.P,U3,7,A0_7*%
%TO.N,unconnected-(U3-A0-Pad7)*%
X2063000Y106293600D03*
%TO.P,U3,8,V_{DD}_8*%
%TO.N,+5V*%
X2063000Y106943600D03*
%TD*%
D18*
%TO.P,J1,1,MISO_1*%
%TO.N,MISO*%
X11933000Y93403600D03*
%TO.P,J1,2,VCC_2*%
%TO.N,+5V*%
X9393000Y93403600D03*
%TO.P,J1,3,SCK_3*%
%TO.N,AVR_SCK*%
X11933000Y95943600D03*
%TO.P,J1,4,MOSI_4*%
%TO.N,MOSI*%
X9393000Y95943600D03*
%TO.P,J1,5,~{RESET}_5*%
%TO.N,RESET*%
X11933000Y98483600D03*
%TO.P,J1,6,GND_6*%
%TO.N,GND*%
X9393000Y98483600D03*
%TD*%
D19*
%TO.P,K2,13*%
%TO.N,AC_N_OUT*%
X5743000Y32093600D03*
%TO.P,K2,14*%
%TO.N,ACNIN*%
X-4417000Y32093600D03*
D20*
%TO.P,K2,A1*%
%TO.N,DC_RELAY_C2*%
X5743000Y56693600D03*
%TO.P,K2,A2*%
%TO.N,+12V*%
X-4417000Y56693600D03*
%TD*%
D16*
%TO.P,M3,P$1,1_P$1*%
%TO.N,ACLIN*%
X-64607000Y38943600D03*
%TO.P,M3,P$2,2_P$2*%
%TO.N,PE*%
X-62067000Y29053600D03*
%TD*%
%TO.P,M2,P$1,1_P$1*%
%TO.N,ACNIN*%
X-59567000Y51443600D03*
%TO.P,M2,P$2,2_P$2*%
%TO.N,PE*%
X-62107000Y61333600D03*
%TD*%
D12*
%TO.P,GFCI_CT1,1,Pin_1_1*%
%TO.N,GND*%
X-80337000Y70943600D03*
D13*
%TO.P,GFCI_CT1,2,Pin_2_2*%
%TO.N,Net-(GFCI_CT1-Pin_2)*%
X-80337000Y73483600D03*
%TO.P,GFCI_CT1,3,Pin_3_3*%
%TO.N,Net-(D1-K2)*%
X-80337000Y76023600D03*
%TO.P,GFCI_CT1,4,Pin_4_4*%
%TO.N,GND*%
X-80337000Y78563600D03*
%TD*%
D14*
%TO.P,J7,1,Terminal_1*%
%TO.N,ACNIN*%
X-73837000Y48993600D03*
D15*
X-73837000Y58893600D03*
D14*
X-78837000Y48993600D03*
X-78837000Y58893600D03*
%TD*%
%TO.P,J6,1,Terminal_1*%
%TO.N,AC_N_OUT*%
X8163000Y14993600D03*
D15*
X8163000Y24893600D03*
D14*
X3163000Y14993600D03*
X3163000Y24893600D03*
%TD*%
%TO.P,J8,1,Terminal_1*%
%TO.N,PE*%
X-73837000Y14993600D03*
D15*
X-73837000Y24893600D03*
D14*
X-78837000Y14993600D03*
X-78837000Y24893600D03*
%TD*%
%TO.P,J9,1,Terminal_1*%
%TO.N,PE*%
X-51837000Y14993600D03*
D15*
X-51837000Y24893600D03*
D14*
X-56837000Y14993600D03*
X-56837000Y24893600D03*
%TD*%
D19*
%TO.P,K1,13*%
%TO.N,AC_L_OUT*%
X-16257000Y32093600D03*
%TO.P,K1,14*%
%TO.N,ACLIN*%
X-26417000Y32093600D03*
D20*
%TO.P,K1,A1*%
%TO.N,DC_RELAY_C1*%
X-16257000Y56693600D03*
%TO.P,K1,A2*%
%TO.N,+12V*%
X-26417000Y56693600D03*
%TD*%
D21*
%TO.P,FTDI1,1,Pin_1_1*%
%TO.N,GND*%
X11383000Y86943600D03*
%TO.P,FTDI1,2,Pin_2_2*%
%TO.N,+12V*%
X11383000Y84943600D03*
%TO.P,FTDI1,3,Pin_3_3*%
%TO.N,+5V*%
X11383000Y82943600D03*
%TO.P,FTDI1,4,Pin_4_4*%
%TO.N,RX-I*%
X11383000Y80943600D03*
%TO.P,FTDI1,5,Pin_5_5*%
%TO.N,TX*%
X11383000Y78943600D03*
%TO.P,FTDI1,6,Pin_6_6*%
%TO.N,RESET*%
X11383000Y76943600D03*
%TD*%
D16*
%TO.P,M1,P$1,1_P$1*%
%TO.N,ACLIN*%
X-66067000Y40690800D03*
%TO.P,M1,P$2,2_P$2*%
%TO.N,ACNIN*%
X-68607000Y50580800D03*
%TD*%
D22*
%TO.P,PS1,1,AC/N_1*%
%TO.N,Net-(PS1-AC{slash}N)*%
X-44337000Y32943600D03*
D23*
%TO.P,PS1,2,AC/L_2*%
%TO.N,ACLIN*%
X-55087000Y32943600D03*
%TO.P,PS1,3,-Vo_3*%
%TO.N,GND*%
X-55087000Y71443600D03*
%TO.P,PS1,4,+Vo_4*%
%TO.N,+12V*%
X-47087000Y71443600D03*
%TD*%
%TO.N,GND*%
D24*
X6288000Y104993600D02*
X6438000Y104993600D01*
%TO.N,+5V*%
X-80337000Y82943600D02*
X-79287000Y82943600D01*
X2063000Y106943600D02*
X2213000Y106943600D01*
%TO.N,ACNIN*%
D25*
X-44898850Y25823450D02*
X-48869600Y29794200D01*
X-48869600Y39246200D02*
X-61067000Y51443600D01*
X-48869600Y29794200D02*
X-48869600Y39246200D01*
%TO.N,SDA*%
D24*
X6288000Y106943600D02*
X6438000Y106943600D01*
%TO.N,SCL*%
X6288000Y106293600D02*
X6438000Y106293600D01*
X6438000Y106293600D02*
X5543600Y106293600D01*
%TO.N,+12V*%
D25*
X-47087000Y64919400D02*
X-35660000Y53492400D01*
D24*
X-47087000Y64714600D02*
X-47087000Y71443600D01*
D25*
X-7618200Y53492400D02*
X-23215800Y53492400D01*
X-35660000Y53492400D02*
X-29618200Y53492400D01*
X-23215800Y53492400D02*
X-26417000Y56693600D01*
X-29618200Y53492400D02*
X-26417000Y56693600D01*
X-4417000Y56693600D02*
X-7618200Y53492400D01*
X-47087000Y71443600D02*
X-47087000Y64919400D01*
%TO.N,PE*%
D26*
X-61067000Y29323600D02*
X-61067000Y32183000D01*
X-65000000Y46050000D02*
X-65000000Y59940600D01*
X-59950000Y41000000D02*
X-65000000Y46050000D01*
X-61067000Y32183000D02*
X-59950000Y33300000D01*
X-59950000Y33300000D02*
X-59950000Y41000000D01*
X-65000000Y59940600D02*
X-63607000Y61333600D01*
D25*
X-60797000Y29053600D02*
X-61067000Y29323600D01*
%TD*%
M02*
