%TF.GenerationSoftware,KiCad,Pcbnew,10.0.6*%
%TF.CreationDate,2026-09-23T17:14:21+04:00*%
%TF.ProjectId,evse,65767365-2e6b-4696-9361-645f70636258,rev?*%
%TF.SameCoordinates,Original*%
%TF.FileFunction,Copper,L1,Top*%
%TF.FilePolarity,Positive*%
%FSLAX46Y46*%
G04 Gerber Fmt 4.6, Leading zero omitted, Abs format (unit mm)*
G04 Created by KiCad (PCBNEW 10.0.6) date 2026-09-23 17:14:21*
%MOMM*%
%LPD*%
G01*
G04 APERTURE LIST*
G04 Aperture macros list*
%AMRoundRect*
0 Rectangle with rounded corners*
0 $1 Rounding radius*
0 $2 $3 $4 $5 $6 $7 $8 $9 X,Y pos of 4 corners*
0 Add a 4 corners polygon primitive as box body*
4,1,4,$2,$3,$4,$5,$6,$7,$8,$9,$2,$3,0*
0 Add four circle primitives for the rounded corners*
1,1,$1+$1,$2,$3*
1,1,$1+$1,$4,$5*
1,1,$1+$1,$6,$7*
1,1,$1+$1,$8,$9*
0 Add four rect primitives between the rounded corners*
20,1,$1+$1,$2,$3,$4,$5,0*
20,1,$1+$1,$4,$5,$6,$7,0*
20,1,$1+$1,$6,$7,$8,$9,0*
20,1,$1+$1,$8,$9,$2,$3,0*%
G04 Aperture macros list end*
%TA.AperFunction,SMDPad,CuDef*%
%ADD10RoundRect,0.250000X-0.250000X-0.475000X0.250000X-0.475000X0.250000X0.475000X-0.250000X0.475000X0*%
%TD*%
%TA.AperFunction,SMDPad,CuDef*%
%ADD11R,1.270000X1.270000*%
%TD*%
%TA.AperFunction,SMDPad,CuDef*%
%ADD12R,1.200000X1.400000*%
%TD*%
%TA.AperFunction,SMDPad,CuDef*%
%ADD13R,1.600000X0.550000*%
%TD*%
%TA.AperFunction,SMDPad,CuDef*%
%ADD14R,0.550000X1.600000*%
%TD*%
%TA.AperFunction,SMDPad,CuDef*%
%ADD15RoundRect,0.218750X-0.218750X-0.381250X0.218750X-0.381250X0.218750X0.381250X-0.218750X0.381250X0*%
%TD*%
%TA.AperFunction,SMDPad,CuDef*%
%ADD16R,0.900000X0.800000*%
%TD*%
%TA.AperFunction,SMDPad,CuDef*%
%ADD17RoundRect,0.100000X-0.130000X-0.100000X0.130000X-0.100000X0.130000X0.100000X-0.130000X0.100000X0*%
%TD*%
%TA.AperFunction,SMDPad,CuDef*%
%ADD18RoundRect,0.225000X0.225000X0.250000X-0.225000X0.250000X-0.225000X-0.250000X0.225000X-0.250000X0*%
%TD*%
%TA.AperFunction,SMDPad,CuDef*%
%ADD19RoundRect,0.250000X-0.325000X-0.650000X0.325000X-0.650000X0.325000X0.650000X-0.325000X0.650000X0*%
%TD*%
%TA.AperFunction,SMDPad,CuDef*%
%ADD20RoundRect,0.225000X-0.225000X-0.375000X0.225000X-0.375000X0.225000X0.375000X-0.225000X0.375000X0*%
%TD*%
%TA.AperFunction,SMDPad,CuDef*%
%ADD21RoundRect,0.500000X-0.000010X-0.000010X0.000010X-0.000010X0.000010X0.000010X-0.000010X0.000010X0*%
%TD*%
%TA.AperFunction,SMDPad,CuDef*%
%ADD22RoundRect,0.250000X-0.312500X-1.075000X0.312500X-1.075000X0.312500X1.075000X-0.312500X1.075000X0*%
%TD*%
%TA.AperFunction,SMDPad,CuDef*%
%ADD23RoundRect,0.250000X-0.262500X-0.450000X0.262500X-0.450000X0.262500X0.450000X-0.262500X0.450000X0*%
%TD*%
%TA.AperFunction,SMDPad,CuDef*%
%ADD24RoundRect,0.250000X-1.000000X-0.650000X1.000000X-0.650000X1.000000X0.650000X-1.000000X0.650000X0*%
%TD*%
%TA.AperFunction,SMDPad,CuDef*%
%ADD25RoundRect,0.150000X-0.587500X-0.150000X0.587500X-0.150000X0.587500X0.150000X-0.587500X0.150000X0*%
%TD*%
%TA.AperFunction,SMDPad,CuDef*%
%ADD26R,1.500000X1.900000*%
%TD*%
%TA.AperFunction,SMDPad,CuDef*%
%ADD27R,1.500000X3.600000*%
%TD*%
%TA.AperFunction,SMDPad,CuDef*%
%ADD28RoundRect,0.150000X-0.512500X-0.150000X0.512500X-0.150000X0.512500X0.150000X-0.512500X0.150000X0*%
%TD*%
%TA.AperFunction,SMDPad,CuDef*%
%ADD29RoundRect,0.140000X-0.140000X-0.170000X0.140000X-0.170000X0.140000X0.170000X-0.140000X0.170000X0*%
%TD*%
%TA.AperFunction,SMDPad,CuDef*%
%ADD30RoundRect,0.150000X-0.825000X-0.150000X0.825000X-0.150000X0.825000X0.150000X-0.825000X0.150000X0*%
%TD*%
%TA.AperFunction,SMDPad,CuDef*%
%ADD31R,2.400000X2.400000*%
%TD*%
%TA.AperFunction,ComponentPad*%
%ADD32C,2.600000*%
%TD*%
%TA.AperFunction,ComponentPad*%
%ADD33RoundRect,0.400000X0.600000X-0.600000X0.600000X0.600000X-0.600000X0.600000X-0.600000X-0.600000X0*%
%TD*%
%TA.AperFunction,ComponentPad*%
%ADD34C,2.000000*%
%TD*%
%TA.AperFunction,ComponentPad*%
%ADD35C,3.200000*%
%TD*%
%TA.AperFunction,ComponentPad*%
%ADD36RoundRect,0.640000X0.960000X0.960000X-0.960000X0.960000X-0.960000X-0.960000X0.960000X-0.960000X0*%
%TD*%
%TA.AperFunction,ComponentPad*%
%ADD37C,1.930400*%
%TD*%
%TA.AperFunction,ComponentPad*%
%ADD38C,1.625600*%
%TD*%
%TA.AperFunction,ComponentPad*%
%ADD39RoundRect,1.000000X3.000000X-0.800000X3.000000X0.800000X-3.000000X0.800000X-3.000000X-0.800000X0*%
%TD*%
%TA.AperFunction,ComponentPad*%
%ADD40RoundRect,0.250000X1.250000X-0.850000X1.250000X0.850000X-1.250000X0.850000X-1.250000X-0.850000X0*%
%TD*%
%TA.AperFunction,ComponentPad*%
%ADD41C,1.600000*%
%TD*%
%TA.AperFunction,ComponentPad*%
%ADD42R,3.000000X3.000000*%
%TD*%
%TA.AperFunction,ComponentPad*%
%ADD43C,3.000000*%
%TD*%
%TA.AperFunction,Conductor*%
%ADD44C,0.250000*%
%TD*%
%TA.AperFunction,Conductor*%
%ADD45C,0.500000*%
%TD*%
%TA.AperFunction,Conductor*%
%ADD46C,1.000000*%
%TD*%
%TA.AperFunction,Conductor*%
%ADD47C,2.000000*%
%TD*%
G04 APERTURE END LIST*
D10*
%TO.P,C2,2*%
%TO.N,Net-(U4-XTAL2{slash}PB7)*%
X-38013600Y84785200D03*
%TO.P,C2,1*%
%TO.N,XGND*%
X-39913600Y84785200D03*
%TD*%
D11*
%TO.P,SH2,1,1_1*%
%TO.N,UGND*%
X-42037000Y88696800D03*
%TO.P,SH2,2,2_2*%
%TO.N,XGND*%
X-42037000Y87426800D03*
%TD*%
D10*
%TO.P,C1,1*%
%TO.N,XGND*%
X-39913600Y91186000D03*
%TO.P,C1,2*%
%TO.N,Net-(U4-XTAL1{slash}PB6)*%
X-38013600Y91186000D03*
%TD*%
D12*
%TO.P,Y1,1,1_1*%
%TO.N,Net-(U4-XTAL2{slash}PB7)*%
X-38023800Y86852400D03*
%TO.P,Y1,2,2_2*%
%TO.N,Net-(U4-XTAL1{slash}PB6)*%
X-38023800Y89052400D03*
%TO.P,Y1,3,NC1_3*%
%TO.N,unconnected-(Y1-NC1-Pad3)*%
X-39723800Y89052400D03*
%TO.P,Y1,4,NC2_4*%
%TO.N,unconnected-(Y1-NC2-Pad4)*%
X-39723800Y86852400D03*
%TD*%
D13*
%TO.P,U4,1,PD3_1*%
%TO.N,WELD_DETECT*%
X-35879600Y93139600D03*
%TO.P,U4,2,PD4_2*%
%TO.N,GMI_LINE*%
X-35879600Y92339600D03*
%TO.P,U4,3,GND_3*%
%TO.N,UGND*%
X-35879600Y91539600D03*
%TO.P,U4,4,VCC_4*%
%TO.N,VCC*%
X-35879600Y90739600D03*
%TO.P,U4,5,GND_5*%
%TO.N,UGND*%
X-35879600Y89939600D03*
%TO.P,U4,6,VCC_6*%
%TO.N,VCC*%
X-35879600Y89139600D03*
%TO.P,U4,7,XTAL1/PB6_7*%
%TO.N,Net-(U4-XTAL1{slash}PB6)*%
X-35879600Y88339600D03*
%TO.P,U4,8,XTAL2/PB7_8*%
%TO.N,Net-(U4-XTAL2{slash}PB7)*%
X-35879600Y87539600D03*
D14*
%TO.P,U4,9,PD5_9*%
%TO.N,DC_RELAY_1*%
X-34429600Y86089600D03*
%TO.P,U4,10,PD6_10*%
%TO.N,DC_RELAY_2*%
X-33629600Y86089600D03*
%TO.P,U4,11,PD7_11*%
%TO.N,Net-(U4-PD7)*%
X-32829600Y86089600D03*
%TO.P,U4,12,PB0_12*%
%TO.N,GFCI_TEST*%
X-32029600Y86089600D03*
%TO.P,U4,13,PB1_13*%
%TO.N,unconnected-(U4-PB1-Pad13)*%
X-31229600Y86089600D03*
%TO.P,U4,14,PB2_14*%
%TO.N,PWM*%
X-30429600Y86089600D03*
%TO.P,U4,15,PB3_15*%
%TO.N,MOSI*%
X-29629600Y86089600D03*
%TO.P,U4,16,PB4_16*%
%TO.N,MISO*%
X-28829600Y86089600D03*
D13*
%TO.P,U4,17,PB5_17*%
%TO.N,AVR_SCK*%
X-27379600Y87539600D03*
%TO.P,U4,18,AVCC_18*%
%TO.N,+5V*%
X-27379600Y88339600D03*
%TO.P,U4,19,ADC6_19*%
%TO.N,ADC6*%
X-27379600Y89139600D03*
%TO.P,U4,20,AREF_20*%
%TO.N,AREF*%
X-27379600Y89939600D03*
%TO.P,U4,21,GND_21*%
%TO.N,UGND*%
X-27379600Y90739600D03*
%TO.P,U4,22,ADC7_22*%
%TO.N,unconnected-(U4-ADC7-Pad22)*%
X-27379600Y91539600D03*
%TO.P,U4,23,PC0_23*%
%TO.N,AMP_READ*%
X-27379600Y92339600D03*
%TO.P,U4,24,PC1_24*%
%TO.N,PILOT_READ*%
X-27379600Y93139600D03*
D14*
%TO.P,U4,25,PC2_25*%
%TO.N,PP_READ*%
X-28829600Y94589600D03*
%TO.P,U4,26,PC3_26*%
%TO.N,unconnected-(U4-PC3-Pad26)*%
X-29629600Y94589600D03*
%TO.P,U4,27,PC4_27*%
%TO.N,SDA*%
X-30429600Y94589600D03*
%TO.P,U4,28,PC5_28*%
%TO.N,SCL*%
X-31229600Y94589600D03*
%TO.P,U4,29,~{RESET}/PC6_29*%
%TO.N,RESET*%
X-32029600Y94589600D03*
%TO.P,U4,30,PD0_30*%
%TO.N,RX-I*%
X-32829600Y94589600D03*
%TO.P,U4,31,PD1_31*%
%TO.N,TX*%
X-33629600Y94589600D03*
%TO.P,U4,32,PD2_32*%
%TO.N,GFCI_INT*%
X-34429600Y94589600D03*
%TD*%
D15*
%TO.P,L1,1,1_1*%
%TO.N,+5V*%
X-155167300Y44500000D03*
%TO.P,L1,2,2_2*%
%TO.N,Net-(L1-Pad2)*%
X-153042300Y44500000D03*
%TD*%
D16*
%TO.P,D11,1,K1_1*%
%TO.N,AMP_CT_SENSE*%
X-137054800Y48100000D03*
%TO.P,D11,2,K2_2*%
%TO.N,AMP_READ*%
X-137054800Y46200000D03*
%TO.P,D11,3,AA_3*%
%TO.N,unconnected-(D11-AA-Pad3)*%
X-134954800Y47150000D03*
%TD*%
D10*
%TO.P,C33,1*%
%TO.N,+5V*%
X-146204800Y50290000D03*
%TO.P,C33,2*%
%TO.N,GND*%
X-144304800Y50290000D03*
%TD*%
%TO.P,C29,1*%
%TO.N,+5V*%
X-146204800Y53300000D03*
%TO.P,C29,2*%
%TO.N,GND*%
X-144304800Y53300000D03*
%TD*%
%TO.P,C28,1*%
%TO.N,GND*%
X-146204800Y56310000D03*
%TO.P,C28,2*%
%TO.N,+12V*%
X-144304800Y56310000D03*
%TD*%
%TO.P,C27,1*%
%TO.N,GND*%
X-146204800Y59320000D03*
%TO.P,C27,2*%
%TO.N,RESET*%
X-144304800Y59320000D03*
%TD*%
%TO.P,C24,1*%
%TO.N,+12V*%
X-150654800Y47280000D03*
%TO.P,C24,2*%
%TO.N,GND*%
X-148754800Y47280000D03*
%TD*%
%TO.P,C23,1*%
%TO.N,+12V*%
X-150654800Y50290000D03*
%TO.P,C23,2*%
%TO.N,GND*%
X-148754800Y50290000D03*
%TD*%
%TO.P,C21,1*%
%TO.N,+5V*%
X-150654800Y53300000D03*
%TO.P,C21,2*%
%TO.N,UGND*%
X-148754800Y53300000D03*
%TD*%
%TO.P,C20,1*%
%TO.N,AREF*%
X-150654800Y56310000D03*
%TO.P,C20,2*%
%TO.N,UGND*%
X-148754800Y56310000D03*
%TD*%
%TO.P,C19,1*%
%TO.N,VCC*%
X-150654800Y59320000D03*
%TO.P,C19,2*%
%TO.N,UGND*%
X-148754800Y59320000D03*
%TD*%
D17*
%TO.P,C18,1*%
%TO.N,VCC*%
X-146874800Y44900000D03*
%TO.P,C18,2*%
%TO.N,GND*%
X-146234800Y44900000D03*
%TD*%
D18*
%TO.P,C17,1*%
%TO.N,VCC*%
X-150554800Y44520000D03*
%TO.P,C17,2*%
%TO.N,GND*%
X-149004800Y44520000D03*
%TD*%
D10*
%TO.P,C15,1*%
%TO.N,Net-(IC1A--)*%
X-155104800Y47280000D03*
%TO.P,C15,2*%
%TO.N,GND*%
X-153204800Y47280000D03*
%TD*%
%TO.P,C12,1*%
%TO.N,UGND*%
X-155104800Y50290000D03*
%TO.P,C12,2*%
%TO.N,AREF*%
X-153204800Y50290000D03*
%TD*%
%TO.P,C9,1*%
%TO.N,GND*%
X-155104800Y53300000D03*
%TO.P,C9,2*%
%TO.N,+5V*%
X-153204800Y53300000D03*
%TD*%
%TO.P,C4,1*%
%TO.N,GND*%
X-155104800Y56310000D03*
%TO.P,C4,2*%
%TO.N,+5V*%
X-153204800Y56310000D03*
%TD*%
%TO.P,C3,1*%
%TO.N,GND*%
X-155104800Y59320000D03*
%TO.P,C3,2*%
%TO.N,+5V*%
X-153204800Y59320000D03*
%TD*%
D19*
%TO.P,C22,1*%
%TO.N,+12V*%
X-147226000Y80299800D03*
%TO.P,C22,2*%
%TO.N,GND*%
X-144276000Y80299800D03*
%TD*%
D20*
%TO.P,D6,A,A_A*%
%TO.N,GND*%
X-144006000Y86999800D03*
%TO.P,D6,C,C_C*%
%TO.N,PP_READ*%
X-147306000Y86999800D03*
%TD*%
%TO.P,D4,A,A_A*%
%TO.N,Net-(IC3B-OUT2)*%
X-144006000Y93699800D03*
%TO.P,D4,C,C_C*%
%TO.N,GFCI_INT*%
X-147306000Y93699800D03*
%TD*%
D21*
%TO.P,FID4,1*%
%TO.N,N/C*%
X10663000Y103943600D03*
%TD*%
D22*
%TO.P,R37,1,1_1*%
%TO.N,Net-(R36-Pad2)*%
X-160933500Y120619800D03*
%TO.P,R37,2,2_2*%
%TO.N,AC_L_OUT*%
X-158008500Y120619800D03*
%TD*%
D10*
%TO.P,C5,1*%
%TO.N,GND*%
X-141511000Y94549800D03*
%TO.P,C5,2*%
%TO.N,Net-(IC1C-V-)*%
X-139611000Y94549800D03*
%TD*%
D23*
%TO.P,R9,1*%
%TO.N,Net-(IC1A--)*%
X-150963500Y121249800D03*
%TO.P,R9,2*%
%TO.N,+5V*%
X-149138500Y121249800D03*
%TD*%
D22*
%TO.P,R34,1,1_1*%
%TO.N,Net-(D8-PadA)*%
X-166543500Y112199800D03*
%TO.P,R34,2,2_2*%
%TO.N,Net-(R34-Pad2)*%
X-163618500Y112199800D03*
%TD*%
D10*
%TO.P,C26,1*%
%TO.N,GND*%
X-132611000Y97559800D03*
%TO.P,C26,2*%
%TO.N,Net-(IC1C-V-)*%
X-130711000Y97559800D03*
%TD*%
D24*
%TO.P,D10,A,A_A*%
%TO.N,Net-(D10-PadA)*%
X-150596000Y86149800D03*
%TO.P,D10,C,C_C*%
%TO.N,Net-(IC8-I2+)*%
X-154596000Y86149800D03*
%TD*%
D10*
%TO.P,C7,1,1_1*%
%TO.N,Net-(IC3A--IN1)*%
X-137061000Y100569800D03*
%TO.P,C7,2,2_2*%
%TO.N,Net-(C14-+)*%
X-135161000Y100569800D03*
%TD*%
D23*
%TO.P,R15,1,1_1*%
%TO.N,Net-(IC3B--IN2)*%
X-150963500Y109449800D03*
%TO.P,R15,2,2_2*%
%TO.N,GND*%
X-149138500Y109449800D03*
%TD*%
D25*
%TO.P,Q3,1,B_1*%
%TO.N,Net-(Q3-B)*%
X-166368500Y91499800D03*
%TO.P,Q3,2,E_2*%
%TO.N,GND*%
X-166368500Y89599800D03*
%TO.P,Q3,3,C_3*%
%TO.N,DC_RELAY_C2*%
X-164493500Y90549800D03*
%TD*%
D23*
%TO.P,R20,1,1_1*%
%TO.N,Net-(IC3A--IN1)*%
X-146553500Y115349800D03*
%TO.P,R20,2,2_2*%
%TO.N,Net-(D1-K2)*%
X-144728500Y115349800D03*
%TD*%
D10*
%TO.P,C10,1*%
%TO.N,+12V*%
X-137061000Y97559800D03*
%TO.P,C10,2*%
%TO.N,GND*%
X-135161000Y97559800D03*
%TD*%
D23*
%TO.P,R7,1*%
%TO.N,PILOT_READ*%
X-155373500Y106499800D03*
%TO.P,R7,2*%
%TO.N,PILOT*%
X-153548500Y106499800D03*
%TD*%
D20*
%TO.P,D2,1,K_1*%
%TO.N,+12V*%
X-147306000Y100399800D03*
%TO.P,D2,2,A_2*%
%TO.N,DC_RELAY_C2*%
X-144006000Y100399800D03*
%TD*%
D22*
%TO.P,R33,1,1_1*%
%TO.N,Net-(R32-Pad2)*%
X-166543500Y116409800D03*
%TO.P,R33,2,2_2*%
%TO.N,ACLIN*%
X-163618500Y116409800D03*
%TD*%
D23*
%TO.P,R8,1*%
%TO.N,GND*%
X-155373500Y103549800D03*
%TO.P,R8,2*%
%TO.N,Net-(IC1A--)*%
X-153548500Y103549800D03*
%TD*%
%TO.P,R2,1,1_1*%
%TO.N,PP*%
X-155373500Y118299800D03*
%TO.P,R2,2,2_2*%
%TO.N,PP_READ*%
X-153548500Y118299800D03*
%TD*%
D26*
%TO.P,IC8,P$1,I1+_P$1*%
%TO.N,Net-(IC8-I1+)*%
X-141129800Y78424800D03*
%TO.P,IC8,P$2,I1-_P$2*%
%TO.N,PE*%
X-138589800Y78424800D03*
%TO.P,IC8,P$3,I2-_P$3*%
X-136049800Y78424800D03*
%TO.P,IC8,P$4,I2+_P$4*%
%TO.N,Net-(IC8-I2+)*%
X-133509800Y78424800D03*
%TO.P,IC8,P$5,GND_P$5*%
%TO.N,GND*%
X-133509800Y88584800D03*
%TO.P,IC8,P$6,O2_P$6*%
%TO.N,WELD_DETECT*%
X-136049800Y88584800D03*
%TO.P,IC8,P$7,O1_P$7*%
%TO.N,GMI_LINE*%
X-138589800Y88584800D03*
%TO.P,IC8,P$8,VCC_P$8*%
%TO.N,+5V*%
X-141129800Y88584800D03*
%TD*%
D25*
%TO.P,Q2,1,B_1*%
%TO.N,Net-(Q2-B)*%
X-166368500Y95949800D03*
%TO.P,Q2,2,E_2*%
%TO.N,GND*%
X-166368500Y94049800D03*
%TO.P,Q2,3,C_3*%
%TO.N,DC_RELAY_C1*%
X-164493500Y94999800D03*
%TD*%
%TO.P,D1,1,K1_1*%
%TO.N,GND*%
X-166368500Y100399800D03*
%TO.P,D1,2,K2_2*%
%TO.N,Net-(D1-K2)*%
X-166368500Y98499800D03*
%TO.P,D1,3,AA_3*%
%TO.N,unconnected-(D1-AA-Pad3)*%
X-164493500Y99449800D03*
%TD*%
D22*
%TO.P,R35,1,1_1*%
%TO.N,Net-(R34-Pad2)*%
X-166543500Y107989800D03*
%TO.P,R35,2,2_2*%
%TO.N,ACNIN*%
X-163618500Y107989800D03*
%TD*%
D23*
%TO.P,R19,1,1_1*%
%TO.N,GFCI_INT*%
X-146553500Y118299800D03*
%TO.P,R19,2,2_2*%
%TO.N,GND*%
X-144728500Y118299800D03*
%TD*%
%TO.P,R21,1,1_1*%
%TO.N,GND*%
X-146553500Y112399800D03*
%TO.P,R21,2,2_2*%
%TO.N,AMP_CT_SENSE*%
X-144728500Y112399800D03*
%TD*%
D20*
%TO.P,D5,1,K_1*%
%TO.N,+12V*%
X-147306000Y90349800D03*
%TO.P,D5,2,A_2*%
%TO.N,DC_RELAY_C1*%
X-144006000Y90349800D03*
%TD*%
D27*
%TO.P,L2,1*%
%TO.N,Net-(U1-SW)*%
X-166636000Y80223200D03*
%TO.P,L2,2*%
%TO.N,+5V*%
X-163586000Y80223200D03*
%TD*%
D23*
%TO.P,R22,1*%
%TO.N,+5V*%
X-146553500Y109449800D03*
%TO.P,R22,2*%
%TO.N,ADC6*%
X-144728500Y109449800D03*
%TD*%
%TO.P,R27,1*%
%TO.N,Net-(L1-Pad2)*%
X-142143500Y115349800D03*
%TO.P,R27,2*%
%TO.N,VCC*%
X-140318500Y115349800D03*
%TD*%
D28*
%TO.P,U1,1,FB_1*%
%TO.N,+5V*%
X-160898500Y81424800D03*
%TO.P,U1,2,EN_2*%
%TO.N,+12V*%
X-160898500Y80474800D03*
%TO.P,U1,3,IN_3*%
X-160898500Y79524800D03*
%TO.P,U1,4,GND_4*%
%TO.N,GND*%
X-158623500Y79524800D03*
%TO.P,U1,5,SW_5*%
%TO.N,Net-(U1-SW)*%
X-158623500Y80474800D03*
%TO.P,U1,6,BST_6*%
%TO.N,Net-(U1-BST)*%
X-158623500Y81424800D03*
%TD*%
D23*
%TO.P,R24,1*%
%TO.N,Net-(Q2-B)*%
X-146553500Y103549800D03*
%TO.P,R24,2*%
%TO.N,DC_RELAY_1*%
X-144728500Y103549800D03*
%TD*%
D22*
%TO.P,R38,1,1_1*%
%TO.N,Net-(D10-PadA)*%
X-160933500Y116409800D03*
%TO.P,R38,2,2_2*%
%TO.N,Net-(R38-Pad2)*%
X-158008500Y116409800D03*
%TD*%
D23*
%TO.P,R17,1,1_1*%
%TO.N,GND*%
X-150963500Y103549800D03*
%TO.P,R17,2,2_2*%
%TO.N,Net-(D1-K2)*%
X-149138500Y103549800D03*
%TD*%
D29*
%TO.P,C35,1*%
%TO.N,VCC*%
X-155711000Y78049800D03*
%TO.P,C35,2*%
%TO.N,UGND*%
X-154751000Y78049800D03*
%TD*%
D30*
%TO.P,IC3,1,OUT1_1*%
%TO.N,Net-(IC3A-OUT1)*%
X-137276000Y114684800D03*
%TO.P,IC3,2,-IN1_2*%
%TO.N,Net-(IC3A--IN1)*%
X-137276000Y113414800D03*
%TO.P,IC3,3,+IN1_3*%
%TO.N,GND*%
X-137276000Y112144800D03*
%TO.P,IC3,4,GND_4*%
X-137276000Y110874800D03*
%TO.P,IC3,5,+IN2_5*%
%TO.N,Net-(IC3B-+IN2)*%
X-132326000Y110874800D03*
%TO.P,IC3,6,-IN2_6*%
%TO.N,Net-(IC3B--IN2)*%
X-132326000Y112144800D03*
%TO.P,IC3,7,OUT2_7*%
%TO.N,Net-(IC3B-OUT2)*%
X-132326000Y113414800D03*
%TO.P,IC3,8,+V_8*%
%TO.N,+5V*%
X-132326000Y114684800D03*
%TD*%
D10*
%TO.P,C6,1*%
%TO.N,+12V*%
X-141511000Y91539800D03*
%TO.P,C6,2*%
%TO.N,GND*%
X-139611000Y91539800D03*
%TD*%
D11*
%TO.P,SH1,1,1_1*%
%TO.N,GND*%
X-47244000Y98704400D03*
%TO.P,SH1,2,2_2*%
%TO.N,UGND*%
X-48514000Y98704400D03*
%TD*%
D30*
%TO.P,IC1,1*%
%TO.N,Net-(IC1-Pad1)*%
X-137276000Y121269800D03*
%TO.P,IC1,2,-_2*%
%TO.N,Net-(IC1A--)*%
X-137276000Y119999800D03*
%TO.P,IC1,3,+_3*%
%TO.N,PWM*%
X-137276000Y118729800D03*
%TO.P,IC1,4,V-_4*%
%TO.N,Net-(IC1C-V-)*%
X-137276000Y117459800D03*
%TO.P,IC1,5,+_5*%
%TO.N,GND*%
X-132326000Y117459800D03*
%TO.P,IC1,6,-_6*%
%TO.N,Net-(IC1B--)*%
X-132326000Y118729800D03*
%TO.P,IC1,7*%
X-132326000Y119999800D03*
%TO.P,IC1,8,V+_8*%
%TO.N,+12V*%
X-132326000Y121269800D03*
%TD*%
D23*
%TO.P,R26,1,1_1*%
%TO.N,AMP_CT_SENSE*%
X-142143500Y118299800D03*
%TO.P,R26,2,2_2*%
%TO.N,AMP_READ*%
X-140318500Y118299800D03*
%TD*%
D10*
%TO.P,C11,1,1_1*%
%TO.N,AMP_CT_SENSE*%
X-137061000Y94549800D03*
%TO.P,C11,2,2_2*%
%TO.N,GND*%
X-135161000Y94549800D03*
%TD*%
D23*
%TO.P,R6,1*%
%TO.N,GND*%
X-155373500Y109449800D03*
%TO.P,R6,2*%
%TO.N,PILOT_READ*%
X-153548500Y109449800D03*
%TD*%
%TO.P,R23,1,1_1*%
%TO.N,GFCI_TEST*%
X-146553500Y106499800D03*
%TO.P,R23,2,2_2*%
%TO.N,Net-(GFCI_CT1-Pin_2)*%
X-144728500Y106499800D03*
%TD*%
%TO.P,R16,1,1_1*%
%TO.N,Net-(C14-+)*%
X-150963500Y106499800D03*
%TO.P,R16,2,2_2*%
%TO.N,Net-(IC3A--IN1)*%
X-149138500Y106499800D03*
%TD*%
%TO.P,R14,1,1_1*%
%TO.N,+5V*%
X-150963500Y112399800D03*
%TO.P,R14,2,2_2*%
%TO.N,Net-(IC3B--IN2)*%
X-149138500Y112399800D03*
%TD*%
%TO.P,R10,1*%
%TO.N,+5V*%
X-150963500Y118299800D03*
%TO.P,R10,2*%
%TO.N,RESET*%
X-149138500Y118299800D03*
%TD*%
%TO.P,R5,1*%
%TO.N,+5V*%
X-155373500Y112399800D03*
%TO.P,R5,2*%
%TO.N,PILOT_READ*%
X-153548500Y112399800D03*
%TD*%
%TO.P,R18,1,1_1*%
%TO.N,Net-(IC3B-+IN2)*%
X-146553500Y121249800D03*
%TO.P,R18,2,2_2*%
%TO.N,Net-(C14-+)*%
X-144728500Y121249800D03*
%TD*%
D10*
%TO.P,C32,1*%
%TO.N,Net-(U1-SW)*%
X-132611000Y94549800D03*
%TO.P,C32,2*%
%TO.N,Net-(U1-BST)*%
X-130711000Y94549800D03*
%TD*%
%TO.P,C13,1*%
%TO.N,Net-(U2-CAP+)*%
X-137061000Y91539800D03*
%TO.P,C13,2*%
%TO.N,Net-(U2-CAP-)*%
X-135161000Y91539800D03*
%TD*%
%TO.P,C16,1,1_1*%
%TO.N,GND*%
X-132611000Y100569800D03*
%TO.P,C16,2,2_2*%
%TO.N,Net-(IC3B--IN2)*%
X-130711000Y100569800D03*
%TD*%
D31*
%TO.P,TVS1,1,A1_1*%
%TO.N,GND*%
X-165861000Y85599800D03*
%TO.P,TVS1,2,A2_2*%
%TO.N,PILOT*%
X-161461000Y85599800D03*
%TD*%
D23*
%TO.P,R31,1*%
%TO.N,Net-(U4-PD7)*%
X-142143500Y112399800D03*
%TO.P,R31,2*%
%TO.N,+5V*%
X-140318500Y112399800D03*
%TD*%
D24*
%TO.P,D7,A,A_A*%
%TO.N,Net-(D7-PadA)*%
X-150596000Y99799800D03*
%TO.P,D7,C,C_C*%
%TO.N,Net-(IC8-I1+)*%
X-154596000Y99799800D03*
%TD*%
D22*
%TO.P,R32,1,1_1*%
%TO.N,Net-(D7-PadA)*%
X-166543500Y120619800D03*
%TO.P,R32,2,2_2*%
%TO.N,Net-(R32-Pad2)*%
X-163618500Y120619800D03*
%TD*%
D30*
%TO.P,U2,1,BOOST_1*%
%TO.N,+12V*%
X-137276000Y108099800D03*
%TO.P,U2,2,CAP+_2*%
%TO.N,Net-(U2-CAP+)*%
X-137276000Y106829800D03*
%TO.P,U2,3,GND_3*%
%TO.N,GND*%
X-137276000Y105559800D03*
%TO.P,U2,4,CAP-_4*%
%TO.N,Net-(U2-CAP-)*%
X-137276000Y104289800D03*
%TO.P,U2,5,VOUT_5*%
%TO.N,Net-(IC1C-V-)*%
X-132326000Y104289800D03*
%TO.P,U2,6,LV_6*%
%TO.N,unconnected-(U2-LV-Pad6)*%
X-132326000Y105559800D03*
%TO.P,U2,7,OSC_7*%
%TO.N,unconnected-(U2-OSC-Pad7)*%
X-132326000Y106829800D03*
%TO.P,U2,8,V+_8*%
%TO.N,+12V*%
X-132326000Y108099800D03*
%TD*%
D19*
%TO.P,C14,A,+_A*%
%TO.N,Net-(C14-+)*%
X-147226000Y83649800D03*
%TO.P,C14,C,-_C*%
%TO.N,GND*%
X-144276000Y83649800D03*
%TD*%
D23*
%TO.P,R41,1,1_1*%
%TO.N,+5V*%
X-142143500Y106499800D03*
%TO.P,R41,2,2_2*%
%TO.N,SCL*%
X-140318500Y106499800D03*
%TD*%
D22*
%TO.P,R36,1,1_1*%
%TO.N,Net-(D9-PadA)*%
X-166543500Y103779800D03*
%TO.P,R36,2,2_2*%
%TO.N,Net-(R36-Pad2)*%
X-163618500Y103779800D03*
%TD*%
%TO.P,R39,1,1_1*%
%TO.N,Net-(R38-Pad2)*%
X-160933500Y112199800D03*
%TO.P,R39,2,2_2*%
%TO.N,AC_N_OUT*%
X-158008500Y112199800D03*
%TD*%
D23*
%TO.P,R3,1,1_1*%
%TO.N,+5V*%
X-155373500Y115349800D03*
%TO.P,R3,2,2_2*%
%TO.N,PP*%
X-153548500Y115349800D03*
%TD*%
D24*
%TO.P,D9,A,A_A*%
%TO.N,Net-(D9-PadA)*%
X-150596000Y90699800D03*
%TO.P,D9,C,C_C*%
%TO.N,Net-(IC8-I2+)*%
X-154596000Y90699800D03*
%TD*%
%TO.P,D8,A,A_A*%
%TO.N,Net-(D8-PadA)*%
X-150596000Y95249800D03*
%TO.P,D8,C,C_C*%
%TO.N,Net-(IC8-I1+)*%
X-154596000Y95249800D03*
%TD*%
D23*
%TO.P,R1,1*%
%TO.N,Net-(IC1-Pad1)*%
X-155373500Y121249800D03*
%TO.P,R1,2*%
%TO.N,PILOT*%
X-153548500Y121249800D03*
%TD*%
%TO.P,R11,1*%
%TO.N,DC_RELAY_2*%
X-150963500Y115349800D03*
%TO.P,R11,2*%
%TO.N,Net-(Q3-B)*%
X-149138500Y115349800D03*
%TD*%
D21*
%TO.P,FID4,1*%
%TO.N,N/C*%
X-78337000Y103943600D03*
%TD*%
D20*
%TO.P,D3,A,A_A*%
%TO.N,Net-(IC3A-OUT1)*%
X-144006000Y97049800D03*
%TO.P,D3,C,C_C*%
%TO.N,Net-(C14-+)*%
X-147306000Y97049800D03*
%TD*%
D23*
%TO.P,R40,1,1_1*%
%TO.N,SDA*%
X-142143500Y109449800D03*
%TO.P,R40,2,2_2*%
%TO.N,+5V*%
X-140318500Y109449800D03*
%TD*%
D32*
%TO.P,G2,1*%
%TO.N,GND*%
X-81337000Y106943600D03*
%TD*%
D10*
%TO.P,C34,1,1_1*%
%TO.N,+5V*%
X-132611000Y91539800D03*
%TO.P,C34,2,2_2*%
%TO.N,GND*%
X-130711000Y91539800D03*
%TD*%
D23*
%TO.P,R25,1,1_1*%
%TO.N,AMP_CT_SENSE*%
X-142143500Y121249800D03*
%TO.P,R25,2,2_2*%
%TO.N,+5V*%
X-140318500Y121249800D03*
%TD*%
D33*
%TO.P,CurrentCoil1,1,Pin_1_1*%
%TO.N,AMP_READ*%
X-80337000Y63943600D03*
D34*
%TO.P,CurrentCoil1,2,Pin_2_2*%
%TO.N,AMP_CT_SENSE*%
X-80337000Y66483600D03*
%TD*%
D33*
%TO.P,Pilot2,1,Pin_1_1*%
%TO.N,+5V*%
X-80337000Y82943600D03*
D34*
%TO.P,Pilot2,2,Pin_2_2*%
%TO.N,PP*%
X-80337000Y85483600D03*
%TO.P,Pilot2,3,Pin_3_3*%
%TO.N,GND*%
X-80337000Y88023600D03*
%TO.P,Pilot2,4,Pin_4_4*%
%TO.N,PILOT*%
X-80337000Y90563600D03*
%TD*%
D35*
%TO.P,J4,1,Terminal_1*%
%TO.N,AC_L_OUT*%
X-13837000Y14993600D03*
D36*
X-13837000Y24893600D03*
D35*
X-18837000Y14993600D03*
X-18837000Y24893600D03*
%TD*%
D37*
%TO.P,F1,1*%
%TO.N,ACNIN*%
X-44898850Y25823450D03*
%TO.P,F1,2*%
%TO.N,Net-(PS1-AC{slash}N)*%
X-39818850Y25823450D03*
%TD*%
D33*
%TO.P,Pilot1,1,Pin_1_1*%
%TO.N,PILOT*%
X-80337000Y94943600D03*
D34*
%TO.P,Pilot1,2,Pin_2_2*%
%TO.N,PP*%
X-80337000Y97483600D03*
%TD*%
D35*
%TO.P,J5,1,Terminal_1*%
%TO.N,ACLIN*%
X-73837000Y31993600D03*
D36*
X-73837000Y41893600D03*
D35*
X-78837000Y31993600D03*
X-78837000Y41893600D03*
%TD*%
D38*
%TO.P,J1,1,MISO_1*%
%TO.N,MISO*%
X11933000Y93403600D03*
%TO.P,J1,2,VCC_2*%
%TO.N,+5V*%
X9393000Y93403600D03*
%TO.P,J1,3,SCK_3*%
%TO.N,AVR_SCK*%
X11933000Y95943600D03*
%TO.P,J1,4,MOSI_4*%
%TO.N,MOSI*%
X9393000Y95943600D03*
%TO.P,J1,5,~{RESET}_5*%
%TO.N,RESET*%
X11933000Y98483600D03*
%TO.P,J1,6,GND_6*%
%TO.N,GND*%
X9393000Y98483600D03*
%TD*%
D39*
%TO.P,K2,13*%
%TO.N,AC_N_OUT*%
X5743000Y32093600D03*
%TO.P,K2,14*%
%TO.N,ACNIN*%
X-4417000Y32093600D03*
D40*
%TO.P,K2,A1*%
%TO.N,DC_RELAY_C2*%
X5743000Y56693600D03*
%TO.P,K2,A2*%
%TO.N,+12V*%
X-4417000Y56693600D03*
%TD*%
D37*
%TO.P,M3,P$1,1_P$1*%
%TO.N,ACLIN*%
X-64607000Y38943600D03*
%TO.P,M3,P$2,2_P$2*%
%TO.N,PE*%
X-62067000Y29053600D03*
%TD*%
%TO.P,M2,P$1,1_P$1*%
%TO.N,ACNIN*%
X-59567000Y51443600D03*
%TO.P,M2,P$2,2_P$2*%
%TO.N,PE*%
X-62107000Y61333600D03*
%TD*%
D33*
%TO.P,GFCI_CT1,1,Pin_1_1*%
%TO.N,GND*%
X-80337000Y70943600D03*
D34*
%TO.P,GFCI_CT1,2,Pin_2_2*%
%TO.N,Net-(GFCI_CT1-Pin_2)*%
X-80337000Y73483600D03*
%TO.P,GFCI_CT1,3,Pin_3_3*%
%TO.N,Net-(D1-K2)*%
X-80337000Y76023600D03*
%TO.P,GFCI_CT1,4,Pin_4_4*%
%TO.N,GND*%
X-80337000Y78563600D03*
%TD*%
D35*
%TO.P,J7,1,Terminal_1*%
%TO.N,ACNIN*%
X-73837000Y48993600D03*
D36*
X-73837000Y58893600D03*
D35*
X-78837000Y48993600D03*
X-78837000Y58893600D03*
%TD*%
%TO.P,J6,1,Terminal_1*%
%TO.N,AC_N_OUT*%
X8163000Y14993600D03*
D36*
X8163000Y24893600D03*
D35*
X3163000Y14993600D03*
X3163000Y24893600D03*
%TD*%
%TO.P,J8,1,Terminal_1*%
%TO.N,PE*%
X-73837000Y14993600D03*
D36*
X-73837000Y24893600D03*
D35*
X-78837000Y14993600D03*
X-78837000Y24893600D03*
%TD*%
%TO.P,J9,1,Terminal_1*%
%TO.N,PE*%
X-51837000Y14993600D03*
D36*
X-51837000Y24893600D03*
D35*
X-56837000Y14993600D03*
X-56837000Y24893600D03*
%TD*%
D39*
%TO.P,K1,13*%
%TO.N,AC_L_OUT*%
X-16257000Y32093600D03*
%TO.P,K1,14*%
%TO.N,ACLIN*%
X-26417000Y32093600D03*
D40*
%TO.P,K1,A1*%
%TO.N,DC_RELAY_C1*%
X-16257000Y56693600D03*
%TO.P,K1,A2*%
%TO.N,+12V*%
X-26417000Y56693600D03*
%TD*%
D41*
%TO.P,FTDI1,1,Pin_1_1*%
%TO.N,GND*%
X11383000Y86943600D03*
%TO.P,FTDI1,2,Pin_2_2*%
%TO.N,+12V*%
X11383000Y84943600D03*
%TO.P,FTDI1,3,Pin_3_3*%
%TO.N,+5V*%
X11383000Y82943600D03*
%TO.P,FTDI1,4,Pin_4_4*%
%TO.N,RX-I*%
X11383000Y80943600D03*
%TO.P,FTDI1,5,Pin_5_5*%
%TO.N,TX*%
X11383000Y78943600D03*
%TO.P,FTDI1,6,Pin_6_6*%
%TO.N,RESET*%
X11383000Y76943600D03*
%TD*%
D37*
%TO.P,M1,P$1,1_P$1*%
%TO.N,ACLIN*%
X-66067000Y40690800D03*
%TO.P,M1,P$2,2_P$2*%
%TO.N,ACNIN*%
X-68607000Y50580800D03*
%TD*%
D42*
%TO.P,PS1,1,AC/N_1*%
%TO.N,Net-(PS1-AC{slash}N)*%
X-44337000Y32943600D03*
D43*
%TO.P,PS1,2,AC/L_2*%
%TO.N,ACLIN*%
X-55087000Y32943600D03*
%TO.P,PS1,3,-Vo_3*%
%TO.N,GND*%
X-55087000Y71443600D03*
%TO.P,PS1,4,+Vo_4*%
%TO.N,+12V*%
X-47087000Y71443600D03*
%TD*%
%TO.N,Net-(U4-XTAL1{slash}PB6)*%
D44*
X-38013600Y89062600D02*
X-38023800Y89052400D01*
X-38013600Y91186000D02*
X-38013600Y89062600D01*
%TO.N,Net-(U4-XTAL2{slash}PB7)*%
D45*
X-38023800Y84795400D02*
X-38013600Y84785200D01*
X-38023800Y86852400D02*
X-38023800Y84795400D01*
%TO.N,Net-(U4-XTAL1{slash}PB6)*%
X-37551000Y88315800D02*
X-38125400Y88890200D01*
X-37236400Y88315800D02*
X-37551000Y88315800D01*
X-37212600Y88339600D02*
X-37236400Y88315800D01*
X-35879600Y88339600D02*
X-37212600Y88339600D01*
%TO.N,Net-(U4-XTAL2{slash}PB7)*%
X-35890800Y87528400D02*
X-35879600Y87539600D01*
X-37347800Y87528400D02*
X-35890800Y87528400D01*
X-38023800Y86852400D02*
X-37347800Y87528400D01*
%TO.N,GND*%
D44*
X-56311500Y71620200D02*
X-56253300Y71678400D01*
X-55251600Y71678400D02*
X-56253300Y71678400D01*
%TO.N,AMP_READ*%
X-80012000Y64268600D02*
X-80337000Y63943600D01*
%TO.N,AMP_CT_SENSE*%
X-80022000Y66168600D02*
X-80337000Y66483600D01*
%TO.N,+5V*%
X-80243400Y82850000D02*
X-80337000Y82943600D01*
%TO.N,Net-(PS1-AC{slash}N)*%
D46*
X-39818850Y31767050D02*
X-39818850Y25823450D01*
X-40995400Y32943600D02*
X-39818850Y31767050D01*
X-44337000Y32943600D02*
X-40995400Y32943600D01*
%TO.N,DC_RELAY_C2*%
D44*
X5750500Y56701100D02*
X5743000Y56693600D01*
D45*
X5743000Y56693600D02*
X5493000Y56943600D01*
%TO.N,+12V*%
D44*
X-47113200Y72530600D02*
X-47113200Y71828900D01*
X-47113200Y72530600D02*
X-46211500Y72530600D01*
X-48023800Y71109300D02*
X-47832800Y71109300D01*
X-47832800Y71109300D02*
X-47113200Y71828900D01*
D45*
X-26417000Y56693600D02*
X-26167000Y56943600D01*
D44*
X-46327800Y71043500D02*
X-47113200Y71828900D01*
D45*
X-26417000Y56693600D02*
X-27162000Y57438600D01*
D44*
X-48023800Y70407600D02*
X-48023800Y71109300D01*
D45*
X-26167000Y56943600D02*
X-25306400Y56943600D01*
%TO.N,PE*%
D47*
X-60797000Y28997000D02*
X-56837000Y25037000D01*
D46*
X-60797000Y29053600D02*
X-60797000Y28997000D01*
X-56837000Y25037000D02*
X-56837000Y24893600D01*
%TO.N,Net-(GFCI_CT1-Pin_2)*%
D44*
X-79970600Y73850000D02*
X-80337000Y73483600D01*
%TO.N,DC_RELAY_C1*%
X-16387000Y56823600D02*
X-16257000Y56693600D01*
D45*
X-16257000Y56693600D02*
X-16257000Y56707000D01*
%TD*%
%TA.AperFunction,Conductor*%
%TO.N,ACLIN*%
G36*
X-31335823Y43943485D02*
G01*
X-31144261Y43924617D01*
X-31139660Y43923703D01*
X-30956578Y43868166D01*
X-30952231Y43866365D01*
X-30783512Y43776183D01*
X-30779601Y43773569D01*
X-30631721Y43652207D01*
X-30628394Y43648880D01*
X-30507032Y43501000D01*
X-30504418Y43497089D01*
X-30414236Y43328370D01*
X-30412435Y43324023D01*
X-30356900Y43140948D01*
X-30355983Y43136333D01*
X-30337116Y42944778D01*
X-30337000Y42942426D01*
X-30337000Y35943600D01*
X-23338174Y35943600D01*
X-23335823Y35943485D01*
X-23144261Y35924617D01*
X-23139660Y35923703D01*
X-22956578Y35868166D01*
X-22952231Y35866365D01*
X-22783512Y35776183D01*
X-22779601Y35773569D01*
X-22631721Y35652207D01*
X-22628394Y35648880D01*
X-22507032Y35501000D01*
X-22504418Y35497089D01*
X-22414236Y35328370D01*
X-22412435Y35324023D01*
X-22356900Y35140948D01*
X-22355983Y35136333D01*
X-22337116Y34944778D01*
X-22337000Y34942426D01*
X-22337000Y28944775D01*
X-22337116Y28942423D01*
X-22355983Y28750868D01*
X-22356900Y28746253D01*
X-22412435Y28563178D01*
X-22414236Y28558831D01*
X-22504418Y28390112D01*
X-22507032Y28386201D01*
X-22628394Y28238321D01*
X-22631721Y28234994D01*
X-22779601Y28113632D01*
X-22783512Y28111018D01*
X-22952231Y28020836D01*
X-22956578Y28019035D01*
X-23139653Y27963500D01*
X-23144268Y27962583D01*
X-23335822Y27943716D01*
X-23338174Y27943600D01*
X-30320659Y27943600D01*
X-30336111Y27950000D01*
X-30337000Y27950000D01*
X-30340200Y27950000D01*
X-37298826Y27950000D01*
X-37301178Y27950116D01*
X-37492733Y27968983D01*
X-37497348Y27969900D01*
X-37680423Y28025435D01*
X-37684770Y28027236D01*
X-37853489Y28117418D01*
X-37857400Y28120032D01*
X-38005280Y28241394D01*
X-38008607Y28244721D01*
X-38129969Y28392601D01*
X-38132583Y28396512D01*
X-38222765Y28565231D01*
X-38224566Y28569578D01*
X-38280103Y28752660D01*
X-38281017Y28757261D01*
X-38299884Y28948823D01*
X-38300000Y28951175D01*
X-38300000Y35943599D01*
X-38300000Y35943600D01*
X-38300001Y35943600D01*
X-52336999Y35943600D01*
X-52337000Y35943600D01*
X-52337000Y35943599D01*
X-52337000Y33247200D01*
X-52343552Y33231382D01*
X-52343268Y33231125D01*
X-52343989Y33230326D01*
X-52344029Y33230229D01*
X-52344105Y33230198D01*
X-52350417Y33223200D01*
X-52349727Y33216528D01*
X-52349727Y33216526D01*
X-52347952Y33199348D01*
X-52347922Y33199042D01*
X-52345787Y33175424D01*
X-52345740Y33174807D01*
X-52344219Y33151217D01*
X-52344201Y33150908D01*
X-52338667Y33043550D01*
X-52338654Y33043280D01*
X-52337761Y33021092D01*
X-52337746Y33020552D01*
X-52337356Y32998521D01*
X-52337352Y32998251D01*
X-52337041Y32950033D01*
X-52337041Y32949954D01*
X-52337021Y32943601D01*
X-52337021Y32943448D01*
X-52337041Y32937245D01*
X-52337041Y32937167D01*
X-52337352Y32888950D01*
X-52337356Y32888680D01*
X-52337746Y32866649D01*
X-52337761Y32866109D01*
X-52338654Y32843921D01*
X-52338667Y32843650D01*
X-52344118Y32737904D01*
X-52344136Y32737596D01*
X-52345761Y32712396D01*
X-52345808Y32711780D01*
X-52348088Y32686554D01*
X-52348118Y32686246D01*
X-52358678Y32584092D01*
X-52358712Y32583785D01*
X-52361632Y32558700D01*
X-52361711Y32558088D01*
X-52365285Y32533020D01*
X-52365331Y32532714D01*
X-52381124Y32431311D01*
X-52381173Y32431006D01*
X-52385392Y32406033D01*
X-52385503Y32405424D01*
X-52390356Y32380615D01*
X-52390417Y32380313D01*
X-52411437Y32279722D01*
X-52411503Y32279419D01*
X-52416973Y32254830D01*
X-52417114Y32254230D01*
X-52423246Y32229662D01*
X-52423323Y32229362D01*
X-52449484Y32130025D01*
X-52449565Y32129727D01*
X-52456310Y32105392D01*
X-52456483Y32104798D01*
X-52463859Y32080623D01*
X-52463951Y32080328D01*
X-52495190Y31982469D01*
X-52495286Y31982175D01*
X-52503272Y31958228D01*
X-52503475Y31957645D01*
X-52512101Y31933840D01*
X-52512208Y31933550D01*
X-52548425Y31837481D01*
X-52548536Y31837192D01*
X-52557767Y31813630D01*
X-52557999Y31813058D01*
X-52567825Y31789764D01*
X-52567917Y31789548D01*
X-52609073Y31695376D01*
X-52609199Y31695094D01*
X-52619621Y31672059D01*
X-52619883Y31671499D01*
X-52630883Y31648765D01*
X-52631019Y31648488D01*
X-52676949Y31556597D01*
X-52677089Y31556321D01*
X-52688665Y31533888D01*
X-52688955Y31533343D01*
X-52701154Y31511125D01*
X-52701305Y31510855D01*
X-52751871Y31421511D01*
X-52752025Y31421243D01*
X-52764755Y31399411D01*
X-52765073Y31398882D01*
X-52778361Y31377383D01*
X-52778526Y31377120D01*
X-52833683Y31290406D01*
X-52833849Y31290148D01*
X-52847658Y31269041D01*
X-52848004Y31268527D01*
X-52862378Y31247747D01*
X-52862555Y31247494D01*
X-52922102Y31163735D01*
X-52922283Y31163484D01*
X-52937159Y31143119D01*
X-52937530Y31142625D01*
X-52952954Y31122613D01*
X-52953144Y31122369D01*
X-53016888Y31041831D01*
X-53017081Y31041591D01*
X-53033048Y31021942D01*
X-53033445Y31021466D01*
X-53049880Y31002274D01*
X-53050082Y31002041D01*
X-53117883Y30924895D01*
X-53118088Y30924665D01*
X-53135011Y30905902D01*
X-53135431Y30905448D01*
X-53152828Y30887132D01*
X-53153042Y30886909D01*
X-53224765Y30813314D01*
X-53224983Y30813094D01*
X-53242829Y30795249D01*
X-53243270Y30794819D01*
X-53261611Y30777398D01*
X-53261838Y30777186D01*
X-53337213Y30707421D01*
X-53337440Y30707212D01*
X-53356200Y30690291D01*
X-53356665Y30689883D01*
X-53375895Y30673417D01*
X-53376130Y30673218D01*
X-53454916Y30607490D01*
X-53455156Y30607293D01*
X-53474851Y30591289D01*
X-53475335Y30590906D01*
X-53495349Y30575480D01*
X-53495595Y30575293D01*
X-53577706Y30513676D01*
X-53577954Y30513492D01*
X-53598399Y30498557D01*
X-53598903Y30498199D01*
X-53619654Y30483845D01*
X-53619909Y30483671D01*
X-53705157Y30426312D01*
X-53705415Y30426141D01*
X-53726547Y30412315D01*
X-53727068Y30411984D01*
X-53748577Y30398688D01*
X-53748840Y30398527D01*
X-53766318Y30388031D01*
X-53766319Y30388030D01*
X-53836919Y30345637D01*
X-53837186Y30345480D01*
X-53859023Y30332748D01*
X-53859560Y30332444D01*
X-53881693Y30320291D01*
X-53881965Y30320144D01*
X-53921169Y30299270D01*
X-53972607Y30271883D01*
X-53972880Y30271739D01*
X-53995383Y30260127D01*
X-53995935Y30259851D01*
X-54018668Y30248851D01*
X-54018948Y30248718D01*
X-54111990Y30205169D01*
X-54112271Y30205040D01*
X-54135303Y30194620D01*
X-54135869Y30194373D01*
X-54159122Y30184565D01*
X-54159408Y30184446D01*
X-54254580Y30145741D01*
X-54254866Y30145627D01*
X-54278385Y30136412D01*
X-54278965Y30136193D01*
X-54302737Y30127581D01*
X-54303027Y30127478D01*
X-54400078Y30093718D01*
X-54400370Y30093619D01*
X-54424313Y30085634D01*
X-54424902Y30085446D01*
X-54449018Y30078088D01*
X-54449314Y30077999D01*
X-54519876Y30057459D01*
X-54519877Y30057459D01*
X-54548033Y30049264D01*
X-54548330Y30049180D01*
X-54572619Y30042448D01*
X-54573216Y30042291D01*
X-54597806Y30036152D01*
X-54598106Y30036079D01*
X-54698001Y30012504D01*
X-54698303Y30012435D01*
X-54723017Y30006938D01*
X-54723621Y30006811D01*
X-54748463Y30001952D01*
X-54748767Y30001895D01*
X-54849728Y29983497D01*
X-54850033Y29983443D01*
X-54874999Y29979225D01*
X-54875609Y29979130D01*
X-54900700Y29975552D01*
X-54901007Y29975511D01*
X-55002763Y29962337D01*
X-55003069Y29962299D01*
X-55028197Y29959374D01*
X-55028812Y29959310D01*
X-55054047Y29957030D01*
X-55054354Y29957005D01*
X-55113310Y29952440D01*
X-55113311Y29952440D01*
X-55156694Y29949082D01*
X-55157002Y29949060D01*
X-55182241Y29947433D01*
X-55182859Y29947401D01*
X-55208125Y29946425D01*
X-55208433Y29946415D01*
X-55249306Y29945362D01*
X-55311122Y29943770D01*
X-55311430Y29943764D01*
X-55336691Y29943438D01*
X-55337311Y29943438D01*
X-55362572Y29943764D01*
X-55362880Y29943770D01*
X-55424695Y29945362D01*
X-55465568Y29946415D01*
X-55465876Y29946425D01*
X-55491142Y29947401D01*
X-55491760Y29947433D01*
X-55516999Y29949060D01*
X-55517307Y29949082D01*
X-55560691Y29952440D01*
X-55619648Y29957005D01*
X-55619955Y29957030D01*
X-55645189Y29959310D01*
X-55645804Y29959374D01*
X-55670932Y29962299D01*
X-55671238Y29962337D01*
X-55772994Y29975511D01*
X-55773301Y29975552D01*
X-55798392Y29979130D01*
X-55799002Y29979225D01*
X-55823968Y29983443D01*
X-55824273Y29983497D01*
X-55925234Y30001895D01*
X-55925538Y30001952D01*
X-55950380Y30006811D01*
X-55950984Y30006937D01*
X-55975699Y30012434D01*
X-55976001Y30012504D01*
X-56075969Y30036097D01*
X-56076269Y30036170D01*
X-56100749Y30042281D01*
X-56101346Y30042438D01*
X-56125671Y30049180D01*
X-56125968Y30049264D01*
X-56154124Y30057459D01*
X-56154125Y30057459D01*
X-56224688Y30077999D01*
X-56224984Y30078088D01*
X-56249111Y30085450D01*
X-56249699Y30085638D01*
X-56273608Y30093611D01*
X-56273901Y30093710D01*
X-56370950Y30127469D01*
X-56371240Y30127572D01*
X-56395048Y30136198D01*
X-56395628Y30136417D01*
X-56419135Y30145627D01*
X-56419421Y30145741D01*
X-56514593Y30184446D01*
X-56514879Y30184565D01*
X-56538132Y30194373D01*
X-56538698Y30194620D01*
X-56561730Y30205040D01*
X-56562011Y30205169D01*
X-56655053Y30248718D01*
X-56655276Y30248824D01*
X-56669419Y30255667D01*
X-56678066Y30259851D01*
X-56678618Y30260127D01*
X-56701154Y30271756D01*
X-56701427Y30271900D01*
X-56752832Y30299270D01*
X-56792037Y30320144D01*
X-56792265Y30320267D01*
X-56814446Y30332446D01*
X-56814978Y30332748D01*
X-56836815Y30345480D01*
X-56837082Y30345637D01*
X-56907681Y30388030D01*
X-56907681Y30388031D01*
X-56925205Y30398554D01*
X-56925470Y30398715D01*
X-56946923Y30411977D01*
X-56947443Y30412308D01*
X-56968586Y30426141D01*
X-56968844Y30426312D01*
X-57054093Y30483671D01*
X-57054273Y30483793D01*
X-57075122Y30498216D01*
X-57075602Y30498557D01*
X-57096047Y30513492D01*
X-57096295Y30513676D01*
X-57162262Y30563178D01*
X-57178406Y30575293D01*
X-57178652Y30575480D01*
X-57198666Y30590906D01*
X-57199150Y30591289D01*
X-57218845Y30607293D01*
X-57219000Y30607420D01*
X-57297875Y30673221D01*
X-57298106Y30673417D01*
X-57317336Y30689883D01*
X-57317763Y30690257D01*
X-57336570Y30707220D01*
X-57336788Y30707421D01*
X-57412163Y30777186D01*
X-57412390Y30777398D01*
X-57430731Y30794819D01*
X-57431172Y30795249D01*
X-57449018Y30813094D01*
X-57449236Y30813314D01*
X-57520959Y30886909D01*
X-57521173Y30887132D01*
X-57538570Y30905448D01*
X-57538990Y30905902D01*
X-57555913Y30924665D01*
X-57556118Y30924895D01*
X-57623919Y31002041D01*
X-57624121Y31002274D01*
X-57640556Y31021466D01*
X-57640953Y31021942D01*
X-57656920Y31041591D01*
X-57657113Y31041831D01*
X-57720857Y31122369D01*
X-57721047Y31122613D01*
X-57736471Y31142625D01*
X-57736842Y31143119D01*
X-57751774Y31163561D01*
X-57751899Y31163735D01*
X-57811446Y31247494D01*
X-57811623Y31247747D01*
X-57825997Y31268527D01*
X-57826322Y31269009D01*
X-57840152Y31290148D01*
X-57840318Y31290406D01*
X-57895475Y31377120D01*
X-57895640Y31377383D01*
X-57908928Y31398882D01*
X-57909246Y31399411D01*
X-57921976Y31421243D01*
X-57922130Y31421511D01*
X-57972696Y31510855D01*
X-57972847Y31511125D01*
X-57985046Y31533343D01*
X-57985336Y31533888D01*
X-57996943Y31556382D01*
X-57997052Y31556597D01*
X-58042982Y31648488D01*
X-58043118Y31648765D01*
X-58054118Y31671499D01*
X-58054380Y31672059D01*
X-58064802Y31695094D01*
X-58064928Y31695376D01*
X-58072798Y31713384D01*
X-58106118Y31789627D01*
X-58116024Y31813111D01*
X-58116234Y31813630D01*
X-58125465Y31837192D01*
X-58125576Y31837481D01*
X-58161793Y31933550D01*
X-58161900Y31933840D01*
X-58170526Y31957645D01*
X-58170715Y31958186D01*
X-58178772Y31982349D01*
X-58210051Y32080330D01*
X-58210142Y32080623D01*
X-58217518Y32104798D01*
X-58217691Y32105392D01*
X-58224436Y32129727D01*
X-58224517Y32130025D01*
X-58250718Y32229516D01*
X-58256890Y32254240D01*
X-58257028Y32254830D01*
X-58262545Y32279634D01*
X-58283587Y32380327D01*
X-58283645Y32380615D01*
X-58288498Y32405424D01*
X-58288609Y32406033D01*
X-58292828Y32431006D01*
X-58292877Y32431311D01*
X-58308670Y32532714D01*
X-58308716Y32533020D01*
X-58312290Y32558088D01*
X-58312369Y32558700D01*
X-58315289Y32583785D01*
X-58315323Y32584092D01*
X-58325883Y32686246D01*
X-58325913Y32686554D01*
X-58328193Y32711780D01*
X-58328240Y32712396D01*
X-58329865Y32737596D01*
X-58329868Y32737651D01*
X-58329881Y32737862D01*
X-58335171Y32840494D01*
X-58335183Y32840771D01*
X-58335305Y32843921D01*
X-58336160Y32866045D01*
X-58336175Y32866657D01*
X-58336501Y32891944D01*
X-58336503Y32892253D01*
X-58336503Y32994948D01*
X-58336501Y32995257D01*
X-58336462Y32998251D01*
X-58336175Y33020552D01*
X-58336159Y33021161D01*
X-58335182Y33046467D01*
X-58335169Y33046739D01*
X-58329800Y33150904D01*
X-58329799Y33150908D01*
X-58329797Y33150960D01*
X-58329782Y33151213D01*
X-58328258Y33174847D01*
X-58328218Y33175384D01*
X-58326075Y33199090D01*
X-58326049Y33199349D01*
X-58324273Y33216527D01*
X-58324273Y33216528D01*
X-58323583Y33223200D01*
X-58323584Y33223200D01*
X-58329896Y33230198D01*
X-58329971Y33230229D01*
X-58330012Y33230326D01*
X-58330732Y33231125D01*
X-58330449Y33231382D01*
X-58337000Y33247200D01*
X-58337000Y35943599D01*
X-58337000Y35943600D01*
X-58337001Y35943600D01*
X-71336999Y35943600D01*
X-71337000Y35943600D01*
X-71337000Y35943599D01*
X-71337000Y30944775D01*
X-71337116Y30942423D01*
X-71355983Y30750868D01*
X-71356900Y30746253D01*
X-71412435Y30563178D01*
X-71414236Y30558831D01*
X-71504418Y30390112D01*
X-71507032Y30386201D01*
X-71628394Y30238321D01*
X-71631721Y30234994D01*
X-71779601Y30113632D01*
X-71783512Y30111018D01*
X-71952231Y30020836D01*
X-71956578Y30019035D01*
X-72139653Y29963500D01*
X-72144268Y29962583D01*
X-72335822Y29943716D01*
X-72338174Y29943600D01*
X-80335826Y29943600D01*
X-80338178Y29943716D01*
X-80529733Y29962583D01*
X-80534348Y29963500D01*
X-80717423Y30019035D01*
X-80721770Y30020836D01*
X-80890489Y30111018D01*
X-80894400Y30113632D01*
X-81042280Y30234994D01*
X-81045607Y30238321D01*
X-81166969Y30386201D01*
X-81169583Y30390112D01*
X-81188890Y30426232D01*
X-81259765Y30558831D01*
X-81261566Y30563178D01*
X-81274948Y30607293D01*
X-81317103Y30746260D01*
X-81318017Y30750861D01*
X-81336884Y30942423D01*
X-81337000Y30944775D01*
X-81337000Y42942426D01*
X-81336884Y42944778D01*
X-81318017Y43136342D01*
X-81317103Y43140939D01*
X-81261565Y43324028D01*
X-81259767Y43328366D01*
X-81169580Y43497095D01*
X-81166973Y43500995D01*
X-81045604Y43648884D01*
X-81042284Y43652204D01*
X-80894395Y43773573D01*
X-80890495Y43776180D01*
X-80721766Y43866367D01*
X-80717428Y43868165D01*
X-80534339Y43923703D01*
X-80529742Y43924617D01*
X-80338178Y43943485D01*
X-80335826Y43943600D01*
X-31338174Y43943600D01*
X-31335823Y43943485D01*
G37*
%TD.AperFunction*%
%TD*%
%TA.AperFunction,Conductor*%
%TO.N,AC_L_OUT*%
G36*
X-13335823Y33908885D02*
G01*
X-13144261Y33890017D01*
X-13139660Y33889103D01*
X-12956578Y33833566D01*
X-12952231Y33831765D01*
X-12783512Y33741583D01*
X-12779601Y33738969D01*
X-12631721Y33617607D01*
X-12628394Y33614280D01*
X-12507032Y33466400D01*
X-12504418Y33462489D01*
X-12414236Y33293770D01*
X-12412435Y33289423D01*
X-12356900Y33106348D01*
X-12355983Y33101733D01*
X-12337116Y32910178D01*
X-12337000Y32907826D01*
X-12337000Y25943600D01*
X-11338174Y25943600D01*
X-11335823Y25943485D01*
X-11144261Y25924617D01*
X-11139660Y25923703D01*
X-10956578Y25868166D01*
X-10952231Y25866365D01*
X-10783512Y25776183D01*
X-10779601Y25773569D01*
X-10631721Y25652207D01*
X-10628394Y25648880D01*
X-10507032Y25501000D01*
X-10504418Y25497089D01*
X-10414236Y25328370D01*
X-10412435Y25324023D01*
X-10356900Y25140948D01*
X-10355983Y25136333D01*
X-10337116Y24944778D01*
X-10337000Y24942426D01*
X-10337000Y14944775D01*
X-10337116Y14942423D01*
X-10355983Y14750868D01*
X-10356900Y14746253D01*
X-10412435Y14563178D01*
X-10414236Y14558831D01*
X-10504418Y14390112D01*
X-10507032Y14386201D01*
X-10628394Y14238321D01*
X-10631721Y14234994D01*
X-10779601Y14113632D01*
X-10783512Y14111018D01*
X-10952231Y14020836D01*
X-10956578Y14019035D01*
X-11139653Y13963500D01*
X-11144268Y13962583D01*
X-11335822Y13943716D01*
X-11338174Y13943600D01*
X-12337000Y13943600D01*
X-20337000Y13943600D01*
X-21335826Y13943600D01*
X-21338178Y13943716D01*
X-21529733Y13962583D01*
X-21534348Y13963500D01*
X-21717423Y14019035D01*
X-21721770Y14020836D01*
X-21890489Y14111018D01*
X-21894400Y14113632D01*
X-22042280Y14234994D01*
X-22045607Y14238321D01*
X-22166969Y14386201D01*
X-22169583Y14390112D01*
X-22259765Y14558831D01*
X-22261566Y14563178D01*
X-22317103Y14746260D01*
X-22318017Y14750861D01*
X-22336884Y14942423D01*
X-22337000Y14944775D01*
X-22337000Y24942426D01*
X-22336884Y24944778D01*
X-22318017Y25136342D01*
X-22317103Y25140939D01*
X-22261565Y25324028D01*
X-22259767Y25328366D01*
X-22169580Y25497095D01*
X-22166973Y25500995D01*
X-22045604Y25648884D01*
X-22042284Y25652204D01*
X-21894395Y25773573D01*
X-21890495Y25776180D01*
X-21721766Y25866367D01*
X-21717428Y25868165D01*
X-21534339Y25923703D01*
X-21529742Y25924617D01*
X-21338178Y25943485D01*
X-21335826Y25943600D01*
X-20337001Y25943600D01*
X-20337000Y25943600D01*
X-20337000Y32907826D01*
X-20336884Y32910178D01*
X-20318017Y33101742D01*
X-20317103Y33106339D01*
X-20261565Y33289428D01*
X-20259767Y33293766D01*
X-20169580Y33462495D01*
X-20166973Y33466395D01*
X-20045604Y33614284D01*
X-20042284Y33617604D01*
X-19894395Y33738973D01*
X-19890495Y33741580D01*
X-19721766Y33831767D01*
X-19717428Y33833565D01*
X-19534339Y33889103D01*
X-19529742Y33890017D01*
X-19338178Y33908885D01*
X-19335826Y33909000D01*
X-13338174Y33909000D01*
X-13335823Y33908885D01*
G37*
%TD.AperFunction*%
%TD*%
%TA.AperFunction,Conductor*%
%TO.N,ACNIN*%
G36*
X-72335823Y60943485D02*
G01*
X-72144261Y60924617D01*
X-72139660Y60923703D01*
X-71956578Y60868166D01*
X-71952231Y60866365D01*
X-71783512Y60776183D01*
X-71779601Y60773569D01*
X-71631721Y60652207D01*
X-71628394Y60648880D01*
X-71507032Y60501000D01*
X-71504418Y60497089D01*
X-71414236Y60328370D01*
X-71412435Y60324023D01*
X-71356900Y60140948D01*
X-71355983Y60136333D01*
X-71337116Y59944778D01*
X-71337000Y59942426D01*
X-71337000Y54943600D01*
X-609600Y54943600D01*
X-476459Y54943600D01*
X-470248Y54942783D01*
X-411363Y54927004D01*
X-400604Y54920793D01*
X-359808Y54879997D01*
X-353597Y54869238D01*
X-337818Y54810353D01*
X-337000Y54804141D01*
X-337000Y31277975D01*
X-337116Y31275623D01*
X-355983Y31084068D01*
X-356900Y31079453D01*
X-412435Y30896378D01*
X-414236Y30892031D01*
X-504418Y30723312D01*
X-507032Y30719401D01*
X-628394Y30571521D01*
X-631721Y30568194D01*
X-779601Y30446832D01*
X-783512Y30444218D01*
X-952231Y30354036D01*
X-956578Y30352235D01*
X-1139653Y30296700D01*
X-1144268Y30295783D01*
X-1335822Y30276916D01*
X-1338174Y30276800D01*
X-7335826Y30276800D01*
X-7338178Y30276916D01*
X-7529733Y30295783D01*
X-7534348Y30296700D01*
X-7717423Y30352235D01*
X-7721770Y30354036D01*
X-7890489Y30444218D01*
X-7894400Y30446832D01*
X-8042280Y30568194D01*
X-8045607Y30571521D01*
X-8166969Y30719401D01*
X-8169583Y30723312D01*
X-8259765Y30892031D01*
X-8261566Y30896378D01*
X-8317103Y31079460D01*
X-8318017Y31084061D01*
X-8336884Y31275623D01*
X-8337000Y31277975D01*
X-8337000Y46943599D01*
X-8337000Y46943600D01*
X-8337001Y46943600D01*
X-80355026Y46943600D01*
X-80357378Y46943716D01*
X-80548933Y46962583D01*
X-80553548Y46963500D01*
X-80736623Y47019035D01*
X-80740970Y47020836D01*
X-80909689Y47111018D01*
X-80913600Y47113632D01*
X-81061480Y47234994D01*
X-81064807Y47238321D01*
X-81186169Y47386201D01*
X-81188783Y47390112D01*
X-81278965Y47558831D01*
X-81280766Y47563178D01*
X-81336303Y47746260D01*
X-81337217Y47750861D01*
X-81356084Y47942423D01*
X-81356200Y47944775D01*
X-81356200Y54919600D01*
X-81349171Y54936571D01*
X-81340396Y54940206D01*
X-81337001Y54943600D01*
X-81337000Y54943600D01*
X-81337000Y59942426D01*
X-81336884Y59944778D01*
X-81318017Y60136342D01*
X-81317103Y60140939D01*
X-81261565Y60324028D01*
X-81259767Y60328366D01*
X-81169580Y60497095D01*
X-81166973Y60500995D01*
X-81045604Y60648884D01*
X-81042284Y60652204D01*
X-80894395Y60773573D01*
X-80890495Y60776180D01*
X-80721766Y60866367D01*
X-80717428Y60868165D01*
X-80534339Y60923703D01*
X-80529742Y60924617D01*
X-80338178Y60943485D01*
X-80335826Y60943600D01*
X-72338174Y60943600D01*
X-72335823Y60943485D01*
G37*
%TD.AperFunction*%
%TD*%
%TA.AperFunction,Conductor*%
%TO.N,AC_N_OUT*%
G36*
X8664177Y33959685D02*
G01*
X8855739Y33940817D01*
X8860340Y33939903D01*
X9043422Y33884366D01*
X9047769Y33882565D01*
X9216488Y33792383D01*
X9220399Y33789769D01*
X9368279Y33668407D01*
X9371606Y33665080D01*
X9492968Y33517200D01*
X9495582Y33513289D01*
X9585764Y33344570D01*
X9587565Y33340223D01*
X9643100Y33157148D01*
X9644017Y33152533D01*
X9662884Y32960978D01*
X9663000Y32958626D01*
X9663000Y25943600D01*
X10661826Y25943600D01*
X10664177Y25943485D01*
X10855739Y25924617D01*
X10860340Y25923703D01*
X11043422Y25868166D01*
X11047769Y25866365D01*
X11216488Y25776183D01*
X11220399Y25773569D01*
X11368279Y25652207D01*
X11371606Y25648880D01*
X11492968Y25501000D01*
X11495582Y25497089D01*
X11585764Y25328370D01*
X11587565Y25324023D01*
X11643100Y25140948D01*
X11644017Y25136333D01*
X11662884Y24944778D01*
X11663000Y24942426D01*
X11663000Y14944775D01*
X11662884Y14942423D01*
X11644017Y14750868D01*
X11643100Y14746253D01*
X11587565Y14563178D01*
X11585764Y14558831D01*
X11495582Y14390112D01*
X11492968Y14386201D01*
X11371606Y14238321D01*
X11368279Y14234994D01*
X11220399Y14113632D01*
X11216488Y14111018D01*
X11047769Y14020836D01*
X11043422Y14019035D01*
X10860347Y13963500D01*
X10855732Y13962583D01*
X10664178Y13943716D01*
X10661826Y13943600D01*
X9663000Y13943600D01*
X1663000Y13943600D01*
X664174Y13943600D01*
X661822Y13943716D01*
X470267Y13962583D01*
X465652Y13963500D01*
X282577Y14019035D01*
X278230Y14020836D01*
X109511Y14111018D01*
X105600Y14113632D01*
X-42280Y14234994D01*
X-45607Y14238321D01*
X-166969Y14386201D01*
X-169583Y14390112D01*
X-259765Y14558831D01*
X-261566Y14563178D01*
X-317103Y14746260D01*
X-318017Y14750861D01*
X-336884Y14942423D01*
X-337000Y14944775D01*
X-337000Y24942426D01*
X-336884Y24944778D01*
X-318017Y25136342D01*
X-317103Y25140939D01*
X-261565Y25324028D01*
X-259767Y25328366D01*
X-169580Y25497095D01*
X-166973Y25500995D01*
X-45604Y25648884D01*
X-42284Y25652204D01*
X105605Y25773573D01*
X109505Y25776180D01*
X278234Y25866367D01*
X282572Y25868165D01*
X465661Y25923703D01*
X470258Y25924617D01*
X661822Y25943485D01*
X664174Y25943600D01*
X1662999Y25943600D01*
X1663000Y25943600D01*
X1663000Y32958626D01*
X1663116Y32960978D01*
X1681983Y33152542D01*
X1682897Y33157139D01*
X1738435Y33340228D01*
X1740233Y33344566D01*
X1830420Y33513295D01*
X1833027Y33517195D01*
X1954396Y33665084D01*
X1957716Y33668404D01*
X2105605Y33789773D01*
X2109505Y33792380D01*
X2278234Y33882567D01*
X2282572Y33884365D01*
X2465661Y33939903D01*
X2470258Y33940817D01*
X2661822Y33959685D01*
X2664174Y33959800D01*
X8661826Y33959800D01*
X8664177Y33959685D01*
G37*
%TD.AperFunction*%
%TD*%
%TA.AperFunction,Conductor*%
%TO.N,PE*%
G36*
X-72335823Y27943485D02*
G01*
X-72144261Y27924617D01*
X-72139660Y27923703D01*
X-71956578Y27868166D01*
X-71952231Y27866365D01*
X-71783512Y27776183D01*
X-71779601Y27773569D01*
X-71631721Y27652207D01*
X-71628394Y27648880D01*
X-71507032Y27501000D01*
X-71504418Y27497089D01*
X-71414236Y27328370D01*
X-71412435Y27324023D01*
X-71356900Y27140948D01*
X-71355983Y27136333D01*
X-71337116Y26944778D01*
X-71337000Y26942426D01*
X-71337000Y23943600D01*
X-60337000Y23943600D01*
X-59337001Y23943600D01*
X-59337000Y23943600D01*
X-59337000Y26942426D01*
X-59336884Y26944778D01*
X-59318017Y27136342D01*
X-59317103Y27140939D01*
X-59261565Y27324028D01*
X-59259767Y27328366D01*
X-59169580Y27497095D01*
X-59166973Y27500995D01*
X-59045604Y27648884D01*
X-59042284Y27652204D01*
X-58894395Y27773573D01*
X-58890495Y27776180D01*
X-58721766Y27866367D01*
X-58717428Y27868165D01*
X-58534339Y27923703D01*
X-58529742Y27924617D01*
X-58338178Y27943485D01*
X-58335826Y27943600D01*
X-50338174Y27943600D01*
X-50335823Y27943485D01*
X-50144261Y27924617D01*
X-50139660Y27923703D01*
X-49956578Y27868166D01*
X-49952231Y27866365D01*
X-49783512Y27776183D01*
X-49779601Y27773569D01*
X-49631721Y27652207D01*
X-49628394Y27648880D01*
X-49507032Y27501000D01*
X-49504418Y27497089D01*
X-49414236Y27328370D01*
X-49412435Y27324023D01*
X-49356900Y27140948D01*
X-49355983Y27136333D01*
X-49337116Y26944778D01*
X-49337000Y26942426D01*
X-49337000Y12944775D01*
X-49337116Y12942423D01*
X-49355983Y12750868D01*
X-49356900Y12746253D01*
X-49412435Y12563178D01*
X-49414236Y12558831D01*
X-49504418Y12390112D01*
X-49507032Y12386201D01*
X-49628394Y12238321D01*
X-49631721Y12234994D01*
X-49779601Y12113632D01*
X-49783512Y12111018D01*
X-49952231Y12020836D01*
X-49956578Y12019035D01*
X-50139653Y11963500D01*
X-50144268Y11962583D01*
X-50335822Y11943716D01*
X-50338174Y11943600D01*
X-58335826Y11943600D01*
X-58338178Y11943716D01*
X-58529733Y11962583D01*
X-58534348Y11963500D01*
X-58717423Y12019035D01*
X-58721770Y12020836D01*
X-58890489Y12111018D01*
X-58894400Y12113632D01*
X-59042280Y12234994D01*
X-59045607Y12238321D01*
X-59166969Y12386201D01*
X-59169583Y12390112D01*
X-59259765Y12558831D01*
X-59261566Y12563178D01*
X-59317103Y12746260D01*
X-59318017Y12750861D01*
X-59336884Y12942423D01*
X-59337000Y12944775D01*
X-59337000Y15943599D01*
X-59337000Y15943600D01*
X-59337001Y15943600D01*
X-71336999Y15943600D01*
X-71337000Y15943600D01*
X-71337000Y15943599D01*
X-71337000Y12944775D01*
X-71337116Y12942423D01*
X-71355983Y12750868D01*
X-71356900Y12746253D01*
X-71412435Y12563178D01*
X-71414236Y12558831D01*
X-71504418Y12390112D01*
X-71507032Y12386201D01*
X-71628394Y12238321D01*
X-71631721Y12234994D01*
X-71779601Y12113632D01*
X-71783512Y12111018D01*
X-71952231Y12020836D01*
X-71956578Y12019035D01*
X-72139653Y11963500D01*
X-72144268Y11962583D01*
X-72335822Y11943716D01*
X-72338174Y11943600D01*
X-80335826Y11943600D01*
X-80338178Y11943716D01*
X-80529733Y11962583D01*
X-80534348Y11963500D01*
X-80717423Y12019035D01*
X-80721770Y12020836D01*
X-80890489Y12111018D01*
X-80894400Y12113632D01*
X-81042280Y12234994D01*
X-81045607Y12238321D01*
X-81166969Y12386201D01*
X-81169583Y12390112D01*
X-81259765Y12558831D01*
X-81261566Y12563178D01*
X-81317103Y12746260D01*
X-81318017Y12750861D01*
X-81336884Y12942423D01*
X-81337000Y12944775D01*
X-81337000Y26942426D01*
X-81336884Y26944778D01*
X-81318017Y27136342D01*
X-81317103Y27140939D01*
X-81261565Y27324028D01*
X-81259767Y27328366D01*
X-81169580Y27497095D01*
X-81166973Y27500995D01*
X-81045604Y27648884D01*
X-81042284Y27652204D01*
X-80894395Y27773573D01*
X-80890495Y27776180D01*
X-80721766Y27866367D01*
X-80717428Y27868165D01*
X-80534339Y27923703D01*
X-80529742Y27924617D01*
X-80338178Y27943485D01*
X-80335826Y27943600D01*
X-72338174Y27943600D01*
X-72335823Y27943485D01*
G37*
%TD.AperFunction*%
%TD*%
%TA.AperFunction,Conductor*%
%TO.N,XGND*%
G36*
X-37076619Y92412175D02*
G01*
X-37058023Y92368268D01*
X-37035405Y89925462D01*
X-37053301Y89881100D01*
X-37097323Y89862386D01*
X-37141685Y89880282D01*
X-37155075Y89899635D01*
X-37167566Y89927925D01*
X-37248275Y90008634D01*
X-37352691Y90054738D01*
X-37352693Y90054739D01*
X-37378221Y90057700D01*
X-37520800Y90057700D01*
X-37564994Y90076006D01*
X-37583300Y90120200D01*
X-37583300Y90142646D01*
X-37564994Y90186840D01*
X-37543732Y90200787D01*
X-37488883Y90222416D01*
X-37367252Y90314652D01*
X-37275016Y90436283D01*
X-37219016Y90578289D01*
X-37208300Y90667524D01*
X-37208300Y91704476D01*
X-37219016Y91793711D01*
X-37275016Y91935717D01*
X-37367252Y92057348D01*
X-37488883Y92149584D01*
X-37488886Y92149586D01*
X-37488891Y92149588D01*
X-37630888Y92205584D01*
X-37720114Y92216299D01*
X-37720118Y92216300D01*
X-37720124Y92216300D01*
X-38307076Y92216300D01*
X-38307083Y92216300D01*
X-38307087Y92216299D01*
X-38396313Y92205584D01*
X-38538310Y92149588D01*
X-38538319Y92149583D01*
X-38659948Y92057348D01*
X-38752183Y91935719D01*
X-38752188Y91935710D01*
X-38808184Y91793713D01*
X-38818899Y91704487D01*
X-38818900Y91704470D01*
X-38818900Y90667531D01*
X-38818899Y90667514D01*
X-38808184Y90578288D01*
X-38752188Y90436291D01*
X-38752186Y90436286D01*
X-38752184Y90436283D01*
X-38659948Y90314652D01*
X-38538317Y90222416D01*
X-38483471Y90200788D01*
X-38449074Y90167546D01*
X-38443900Y90142646D01*
X-38443900Y90120200D01*
X-38462206Y90076006D01*
X-38506400Y90057700D01*
X-38669379Y90057700D01*
X-38694910Y90054738D01*
X-38694911Y90054738D01*
X-38799327Y90008633D01*
X-38829606Y89978353D01*
X-38873800Y89960047D01*
X-38917994Y89978353D01*
X-38948274Y90008633D01*
X-38948275Y90008634D01*
X-39052691Y90054738D01*
X-39052693Y90054739D01*
X-39078221Y90057700D01*
X-39481266Y90057700D01*
X-39525460Y90076006D01*
X-39543766Y90120200D01*
X-39525460Y90164394D01*
X-39504194Y90178343D01*
X-39389528Y90223561D01*
X-39389525Y90223562D01*
X-39268181Y90315581D01*
X-39176162Y90436925D01*
X-39176161Y90436928D01*
X-39120292Y90578603D01*
X-39109602Y90667622D01*
X-39109600Y90667639D01*
X-39109600Y91034000D01*
X-40717600Y91034000D01*
X-40717600Y90667639D01*
X-40717599Y90667622D01*
X-40706909Y90578603D01*
X-40651040Y90436928D01*
X-40651039Y90436925D01*
X-40559020Y90315581D01*
X-40437676Y90223562D01*
X-40437673Y90223561D01*
X-40323006Y90178343D01*
X-40288609Y90145101D01*
X-40287791Y90097272D01*
X-40321033Y90062875D01*
X-40345932Y90057700D01*
X-40369378Y90057700D01*
X-40394910Y90054738D01*
X-40394911Y90054738D01*
X-40499327Y90008633D01*
X-40580033Y89927927D01*
X-40580034Y89927926D01*
X-40580034Y89927925D01*
X-40588015Y89909851D01*
X-40626139Y89823508D01*
X-40629100Y89797979D01*
X-40629100Y88306822D01*
X-40626138Y88281291D01*
X-40580034Y88176875D01*
X-40499325Y88096166D01*
X-40394909Y88050062D01*
X-40369379Y88047100D01*
X-39078222Y88047101D01*
X-39052691Y88050062D01*
X-38948275Y88096166D01*
X-38917994Y88126447D01*
X-38873800Y88144753D01*
X-38829606Y88126447D01*
X-38799325Y88096166D01*
X-38694909Y88050062D01*
X-38669379Y88047100D01*
X-38093502Y88047101D01*
X-38049308Y88028795D01*
X-37984907Y87964394D01*
X-37966601Y87920200D01*
X-37984907Y87876006D01*
X-38029101Y87857700D01*
X-38669379Y87857700D01*
X-38694910Y87854738D01*
X-38694911Y87854738D01*
X-38799327Y87808633D01*
X-38829606Y87778353D01*
X-38873800Y87760047D01*
X-38917994Y87778353D01*
X-38948274Y87808633D01*
X-38948275Y87808634D01*
X-39052691Y87854738D01*
X-39052693Y87854739D01*
X-39074872Y87857312D01*
X-39078221Y87857700D01*
X-39078222Y87857700D01*
X-40369379Y87857700D01*
X-40394910Y87854738D01*
X-40394911Y87854738D01*
X-40499327Y87808633D01*
X-40580033Y87727927D01*
X-40626139Y87623508D01*
X-40629100Y87597979D01*
X-40629100Y86106822D01*
X-40626138Y86081293D01*
X-40626138Y86081291D01*
X-40580034Y85976875D01*
X-40499325Y85896166D01*
X-40429417Y85865299D01*
X-40396384Y85830703D01*
X-40397488Y85782880D01*
X-40431731Y85749984D01*
X-40437669Y85747643D01*
X-40437676Y85747639D01*
X-40559020Y85655620D01*
X-40651039Y85534276D01*
X-40651040Y85534273D01*
X-40706909Y85392598D01*
X-40717599Y85303579D01*
X-40717600Y85303562D01*
X-40717600Y84937200D01*
X-39109600Y84937200D01*
X-39109600Y85303562D01*
X-39109602Y85303579D01*
X-39120292Y85392598D01*
X-39176161Y85534273D01*
X-39176162Y85534276D01*
X-39268181Y85655620D01*
X-39372596Y85734801D01*
X-39396749Y85776091D01*
X-39384631Y85822366D01*
X-39343341Y85846519D01*
X-39334834Y85847101D01*
X-39078222Y85847101D01*
X-39052691Y85850062D01*
X-38948275Y85896166D01*
X-38917994Y85926447D01*
X-38873800Y85944753D01*
X-38829606Y85926447D01*
X-38799325Y85896166D01*
X-38694909Y85850062D01*
X-38669379Y85847100D01*
X-38641601Y85847101D01*
X-38597407Y85828797D01*
X-38579100Y85784603D01*
X-38579100Y85748901D01*
X-38597406Y85704707D01*
X-38603835Y85699101D01*
X-38659948Y85656549D01*
X-38752183Y85534919D01*
X-38752188Y85534910D01*
X-38808184Y85392913D01*
X-38818899Y85303687D01*
X-38818900Y85303670D01*
X-38818900Y84266731D01*
X-38818899Y84266714D01*
X-38808184Y84177488D01*
X-38752188Y84035491D01*
X-38752186Y84035486D01*
X-38752184Y84035483D01*
X-38659948Y83913852D01*
X-38538317Y83821616D01*
X-38538312Y83821614D01*
X-38538310Y83821613D01*
X-38462863Y83791861D01*
X-38396311Y83765616D01*
X-38396308Y83765616D01*
X-38395037Y83765294D01*
X-38394522Y83764911D01*
X-38392584Y83764146D01*
X-38392792Y83763621D01*
X-38356676Y83736717D01*
X-38349759Y83689384D01*
X-38378336Y83651023D01*
X-38410353Y83642200D01*
X-39524897Y83642200D01*
X-39569091Y83660506D01*
X-39587397Y83704700D01*
X-39569091Y83748894D01*
X-39534977Y83765478D01*
X-39535086Y83765910D01*
X-39533003Y83766437D01*
X-39532350Y83766754D01*
X-39531203Y83766892D01*
X-39389528Y83822761D01*
X-39389525Y83822762D01*
X-39268181Y83914781D01*
X-39176162Y84036125D01*
X-39176161Y84036128D01*
X-39120292Y84177803D01*
X-39109602Y84266822D01*
X-39109600Y84266839D01*
X-39109600Y84633200D01*
X-40717600Y84633200D01*
X-40717600Y84266839D01*
X-40717599Y84266822D01*
X-40706909Y84177803D01*
X-40651040Y84036128D01*
X-40651039Y84036125D01*
X-40559020Y83914781D01*
X-40437676Y83822762D01*
X-40437673Y83822761D01*
X-40295998Y83766892D01*
X-40295999Y83766892D01*
X-40294850Y83766754D01*
X-40294358Y83766478D01*
X-40292114Y83765910D01*
X-40292268Y83765303D01*
X-40253154Y83743309D01*
X-40240249Y83697247D01*
X-40263694Y83655551D01*
X-40302303Y83642200D01*
X-42914300Y83642200D01*
X-42958494Y83660506D01*
X-42976800Y83704700D01*
X-42976800Y86515791D01*
X-42958494Y86559985D01*
X-42914300Y86578291D01*
X-42870106Y86559985D01*
X-42846779Y86536658D01*
X-42742806Y86490749D01*
X-42717389Y86487801D01*
X-42189000Y86487801D01*
X-41885000Y86487801D01*
X-41356612Y86487801D01*
X-41331193Y86490750D01*
X-41331192Y86490750D01*
X-41227222Y86536658D01*
X-41146858Y86617022D01*
X-41100949Y86720995D01*
X-41098000Y86746412D01*
X-41098000Y87274800D01*
X-41885000Y87274800D01*
X-41885000Y86487801D01*
X-42189000Y86487801D01*
X-42189000Y87364300D01*
X-42170694Y87408494D01*
X-42126500Y87426800D01*
X-42037000Y87426800D01*
X-42037000Y87516300D01*
X-42018694Y87560494D01*
X-41974500Y87578800D01*
X-41098001Y87578800D01*
X-41098001Y87770700D01*
X-41079695Y87814894D01*
X-41035501Y87833200D01*
X-40843200Y87833200D01*
X-40843200Y87833201D01*
X-40886213Y91704362D01*
X-40717600Y91704362D01*
X-40717600Y91338000D01*
X-40065600Y91338000D01*
X-39761600Y91338000D01*
X-39109600Y91338000D01*
X-39109600Y91704362D01*
X-39109602Y91704379D01*
X-39120292Y91793398D01*
X-39176161Y91935073D01*
X-39176162Y91935076D01*
X-39268181Y92056420D01*
X-39389525Y92148439D01*
X-39389528Y92148440D01*
X-39531203Y92204309D01*
X-39620222Y92214999D01*
X-39620239Y92215000D01*
X-39761600Y92215000D01*
X-39761600Y91338000D01*
X-40065600Y91338000D01*
X-40065600Y92215000D01*
X-40206961Y92215000D01*
X-40206979Y92214999D01*
X-40295998Y92204309D01*
X-40437673Y92148440D01*
X-40437676Y92148439D01*
X-40559020Y92056420D01*
X-40651039Y91935076D01*
X-40651040Y91935073D01*
X-40706909Y91793398D01*
X-40717599Y91704379D01*
X-40717600Y91704362D01*
X-40886213Y91704362D01*
X-40886226Y91705542D01*
X-40887206Y91793713D01*
X-40893303Y92342425D01*
X-40875489Y92386817D01*
X-40831501Y92405613D01*
X-40831281Y92405616D01*
X-37120933Y92430188D01*
X-37076619Y92412175D01*
G37*
%TD.AperFunction*%
%TD*%
%TA.AperFunction,NonConductor*%
G36*
X-37011807Y86948236D02*
G01*
X-37011643Y86948072D01*
X-37007800Y86944200D01*
X-35545737Y86919833D01*
X-35501855Y86900794D01*
X-35484281Y86856858D01*
X-35499161Y84937200D01*
X-35508715Y83704700D01*
X-35508719Y83704216D01*
X-35527367Y83660165D01*
X-35571217Y83642200D01*
X-37616847Y83642200D01*
X-37661041Y83660506D01*
X-37679347Y83704700D01*
X-37661041Y83748894D01*
X-37634538Y83763946D01*
X-37634616Y83764146D01*
X-37633204Y83764703D01*
X-37632163Y83765294D01*
X-37630895Y83765616D01*
X-37630889Y83765616D01*
X-37488883Y83821616D01*
X-37367252Y83913852D01*
X-37275016Y84035483D01*
X-37219016Y84177489D01*
X-37208300Y84266724D01*
X-37208300Y85303676D01*
X-37219016Y85392911D01*
X-37275016Y85534917D01*
X-37367252Y85656548D01*
X-37367253Y85656549D01*
X-37443765Y85714571D01*
X-37467918Y85755861D01*
X-37468500Y85764371D01*
X-37468500Y85784601D01*
X-37450194Y85828795D01*
X-37406000Y85847101D01*
X-37378222Y85847101D01*
X-37352691Y85850062D01*
X-37248275Y85896166D01*
X-37167566Y85976875D01*
X-37121462Y86081291D01*
X-37118500Y86106821D01*
X-37118501Y86904043D01*
X-37100195Y86948236D01*
X-37056001Y86966542D01*
X-37011807Y86948236D01*
G37*
%TD.AperFunction*%
M02*
